<?xml version="1.0" encoding="UTF-8" standalone="no"?>
<!-- Created with Inkscape (http://www.inkscape.org/) -->
<svg xmlns:rdf="http://www.w3.org/1999/02/22-rdf-syntax-ns#" xmlns="http://www.w3.org/2000/svg" height="427.85" width="1026.9" version="1.1" xmlns:cc="http://creativecommons.org/ns#" xmlns:dc="http://purl.org/dc/elements/1.1/" viewBox="0 0 1026.8572 427.84942">
 <metadata>
  <rdf:RDF>
   <cc:Work rdf:about="">
    <dc:format>image/svg+xml</dc:format>
    <dc:type rdf:resource="http://purl.org/dc/dcmitype/StillImage"/>
    <dc:title/>
   </cc:Work>
  </rdf:RDF>
 </metadata>
 <g transform="translate(1.4292 -595.07)">
  <g fill="#2638bd" transform="matrix(1.2227 0 0 1.2227 -1624.9 -101.9)">
   <g stroke="#2638bd" stroke-width="1px">
    <path d="m1578.9 861.81v-99.18h16.92v99.18q0 4.5 3.42 9t7.74 6.48 7.56 1.98q5.58 0 10.62-3.24t7.2-8.1q2.34-5.04 2.34-8.64v-96.66h16.92v96.66q0 10.8 9.9 16.74 5.4 3.24 10.26 3.24 9.18 0 15.48-8.64 3.24-4.5 3.24-8.82v-99.18h16.92v99.18q0 14.58-10.44 23.94-10.44 9.18-25.2 9.18-16.38 0-28.08-11.88l-5.04 4.14q-11.7 7.56-24.3 7.56-14.76 0-24.84-9-10.62-9.36-10.62-23.94z"/>
    <path d="m1723 892.23v-129.6h16.92v129.6h-16.92z"/>
    <path d="m1754.8 876.57 57.96-98.46h-57.6v-15.48h71.82q8.64 0 8.64 8.64 0 3.06-2.88 7.92l-58.14 97.56h57.96v15.48l-74.52-0.54q-6.66-1.62-6.66-6.84 0-1.62 1.08-3.78l2.34-4.5z"/>
    <path d="m1847.5 892.23v-89.82q0-19.62 12.24-30.78 11.7-10.8 31.5-10.8t31.68 10.98q12.06 10.98 12.06 30.6v89.82h-16.74v-50.22h-53.82v50.22h-16.92zm16.92-64.44h53.82v-25.2q0-18.9-14.58-24.48-7.02-2.7-13.5-2.7-11.7 0-18.72 7.74-7.02 7.56-7.02 19.44v25.2z"/>
    <path d="m1967.4 778.11v42.12h30.96q8.82 0 14.76-5.76t5.94-14.58q0-11.7-9-18.18-5.04-3.6-11.34-3.6h-31.32zm-16.92 114.12v-129.6h48.42q21.06 0 31.32 16.2 5.58 8.82 5.58 19.44 0 19.98-16.56 30.96 16.38 7.2 16.38 27.72v35.28h-16.74v-35.82q0-7.74-5.4-14.22t-12.96-6.48l-33.12 0.18v56.34h-16.92z"/>
    <path d="m2051 889.53v-124.38q11.34-4.14 24.3-4.14 28.62 0 47.88 19.44 19.44 19.44 19.44 48.06 0 27.9-19.08 46.98-18.9 19.08-46.8 19.08-13.14 0-25.74-5.04zm16.92-11.52q4.86 0.9 8.46 0.9 13.68 0 26.1-7.74 12.42-7.92 17.82-20.34 5.58-12.42 5.58-22.86 0-12.78-6.12-24.12-5.94-11.34-16.56-18.72-12.78-8.82-27-8.82-3.78 0-8.28 0.9v100.8z"/>
   </g>
   <path d="m2065.2 723.72-13.111-14.545c-3.2777-8.399-3.0728-36.874-17.208-45.068l-1.8438-31.547-5.1214-4.7116s9.6282-36.874-13.11-32.981c-22.739 3.8922-35.645 24.378-40.766 26.426-5.1213 2.0485-19.432 25.621-23.353 35.44-6.9989 6.6605-24.508 37.14-25.667 50.177 0 0-11.733 7.2427-13.906 11.588-2.1729 4.3456-2.6075 16.513-2.6075 16.513s-34.23 1.2047-37.713 7.3503l-0.8195 12.086c79.603 3.593 156.71 4.5068 235.58 0.00001v-13.111s-5.7358-4.5068-39.229-6.3504z" fill-rule="evenodd"/>
   <g stroke="#2638bd" stroke-width="1px">
    <path d="m1352.9 743.74v-96.3q0-15.3 9.9-25.38 10.08-10.08 25.2-10.08 16.56 0 28.62 12.06l1.98-1.98q10.08-10.08 26.64-10.08 15.12 0 25.02 10.08 10.08 10.08 10.08 25.38v96.3h-16.92v-96.12q0-5.76-4.14-11.52-5.94-8.28-16.02-8.28-5.58 0-10.8 3.42-5.22 3.24-6.84 8.46-1.44 5.22-1.44 7.74v96.3h-16.92v-96.3q0-10.26-7.38-16.02-4.68-3.6-10.8-3.6-9.18 0-15.84 9.54-3.42 4.86-3.42 10.26v96.12h-16.92z"/>
    <path d="m1495.9 743.74v-129.6h16.92v129.6h-16.92z"/>
    <path d="m1528.3 654.1q0-18.9 12.24-30.6 12.24-11.88 31.32-11.88 18.9 0 30.78 11.88 12.06 11.88 12.06 30.6v89.64h-16.74v-89.1q0-18-16.02-25.02-5.04-2.16-10.44-2.16-11.16 0-18.72 7.92t-7.56 19.26v89.1h-16.92v-89.64z"/>
    <path d="m1630.2 743.74v-129.6h16.92v129.6h-16.92z"/>
    <path d="m1662.6 743.74v-96.66q0-10.26 5.04-18.54 5.4-9.18 14.76-12.06 7.38-2.34 12.6-2.34h19.44v15.48h-16.2q-8.1 0-13.32 5.22t-5.22 13.32v23.22h34.74v15.48h-34.92v56.88h-16.92z"/>
    <path d="m1723.4 743.74v-129.6h16.92v129.6h-16.92z"/>
    <path d="m1874.7 639.34-14.22 8.64-3.96-4.68q-6.48-7.56-16.56-11.7-10.08-4.32-20.52-4.32-14.22 0-26.82 7.74-12.42 7.74-18.18 20.52t-5.76 23.58q0 23.76 17.46 38.34 15.66 12.96 34.02 12.96 23.22 0 39.24-19.08 8.28-9.9 10.26-23.94h-49.86v-15.48h67.32q0.54 4.14 0.54 8.28 0 18.18-10.26 34.38-10.08 16.2-26.46 24.12-16.2 7.74-31.32 7.74-17.1 0-32.4-8.28-15.12-8.46-24.48-22.86-10.8-16.74-10.8-36.54 0-16.92 8.1-31.86 8.1-15.12 22.14-24.48 17.1-11.34 37.62-11.34 12.06 0 23.94 4.32 12.6 4.5 20.7 12.42 6.84 6.66 10.26 11.52z"/>
   </g>
  </g>
 </g>
</svg>
