<?xml version="1.0" encoding="UTF-8" standalone="no"?>
<!-- Created with Inkscape (http://www.inkscape.org/) -->
<svg xmlns:rdf="http://www.w3.org/1999/02/22-rdf-syntax-ns#" xmlns="http://www.w3.org/2000/svg" height="427.85" width="1026.9" version="1.1" xmlns:cc="http://creativecommons.org/ns#" xmlns:dc="http://purl.org/dc/elements/1.1/" viewBox="0 0 1026.8572 427.84942">
 <metadata>
  <rdf:RDF>
   <cc:Work rdf:about="">
    <dc:format>image/svg+xml</dc:format>
    <dc:type rdf:resource="http://purl.org/dc/dcmitype/StillImage"/>
    <dc:title/>
   </cc:Work>
  </rdf:RDF>
 </metadata>
 <g transform="translate(1.4292 -595.07)">
  <g fill="#2638bd" transform="matrix(1.2227 0 0 1.2227 -1624.9 -101.9)">
   <text line-height="76.99999809%" style="word-spacing:0px;letter-spacing:0px" font-family="Rockwell" xml:space="preserve" font-size="89.761px" stroke="#2638bd" y="892.23169" x="1858.8795" stroke-width="1px"><tspan style="text-anchor:middle;text-align:center" font-size="180px" stroke="#2638bd" line-height="76.99999809%" y="892.23169" x="1858.8795" font-family="&apos;Xpress SF&apos;" fill="#2638bd">WIZARD</tspan></text>
   <path d="m2065.2 723.72-13.111-14.545c-3.2777-8.399-3.0728-36.874-17.208-45.068l-1.8438-31.547-5.1214-4.7116s9.6282-36.874-13.11-32.981c-22.739 3.8922-35.645 24.378-40.766 26.426-5.1213 2.0485-19.432 25.621-23.353 35.44-6.9989 6.6605-24.508 37.14-25.667 50.177 0 0-11.733 7.2427-13.906 11.588-2.1729 4.3456-2.6075 16.513-2.6075 16.513s-34.23 1.2047-37.713 7.3503l-0.8195 12.086c79.603 3.593 156.71 4.5068 235.58 0.00001v-13.111s-5.7358-4.5068-39.229-6.3504z" fill-rule="evenodd"/>
   <text style="word-spacing:0px;letter-spacing:0px" font-family="Rockwell" line-height="76.99999809%" font-size="89.761px" stroke="#2638bd" y="743.73926" x="1618.4633" stroke-width="1px" xml:space="preserve"><tspan style="text-anchor:middle;text-align:center" font-size="180px" stroke="#2638bd" line-height="76.99999809%" y="743.73926" x="1618.4633" font-family="&apos;Xpress SF&apos;" fill="#2638bd">MINIFIG</tspan></text>
  </g>
 </g>
</svg>
