<?xml version="1.0" encoding="UTF-8" standalone="no"?>
<!-- Created with Inkscape (http://www.inkscape.org/) -->

<svg
   xmlns:dc="http://purl.org/dc/elements/1.1/"
   xmlns:cc="http://creativecommons.org/ns#"
   xmlns:rdf="http://www.w3.org/1999/02/22-rdf-syntax-ns#"
   xmlns:svg="http://www.w3.org/2000/svg"
   xmlns="http://www.w3.org/2000/svg"
   xmlns:sodipodi="http://sodipodi.sourceforge.net/DTD/sodipodi-0.dtd"
   xmlns:inkscape="http://www.inkscape.org/namespaces/inkscape"
   width="85"
   height="20"
   id="svg2"
   version="1.1"
   inkscape:version="0.48.4 r9939"
   sodipodi:docname="Enlarge-button.svg">
  <defs
     id="defs4" />
  <sodipodi:namedview
     id="base"
     pagecolor="#ffffff"
     bordercolor="#666666"
     borderopacity="1.0"
     inkscape:pageopacity="0.0"
     inkscape:pageshadow="2"
     inkscape:zoom="5.6"
     inkscape:cx="96.981049"
     inkscape:cy="-2.3369657"
     inkscape:document-units="px"
     inkscape:current-layer="layer1"
     showgrid="false"
     inkscape:window-width="1366"
     inkscape:window-height="705"
     inkscape:window-x="-8"
     inkscape:window-y="-8"
     inkscape:window-maximized="1" />
  <metadata
     id="metadata7">
    <rdf:RDF>
      <cc:Work
         rdf:about="">
        <dc:format>image/svg+xml</dc:format>
        <dc:type
           rdf:resource="http://purl.org/dc/dcmitype/StillImage" />
        <dc:title />
      </cc:Work>
    </rdf:RDF>
  </metadata>
  <g
     inkscape:label="Layer 1"
     inkscape:groupmode="layer"
     id="layer1"
     transform="translate(0,-1032.3622)">
    <path
       sodipodi:type="arc"
       style="fill:#b3b3b3;fill-opacity:1;stroke:#b3b3b3;stroke-opacity:1"
       id="path3000"
       sodipodi:cx="106.9499"
       sodipodi:cy="9.5196676"
       sodipodi:rx="8.4600277"
       sodipodi:ry="8.4600277"
       d="m 115.40993,9.5196676 c 0,4.6723444 -3.78769,8.4600274 -8.46003,8.4600274 -4.67235,0 -8.46003,-3.787683 -8.46003,-8.4600274 0,-4.6723443 3.78768,-8.4600277 8.46003,-8.4600277 4.67234,0 8.46003,3.7876834 8.46003,8.4600277 z"
       transform="matrix(1.0388557,0,0,1.0388581,-36.899397,1032.6287)" />
    <path
       transform="matrix(0.86317496,0,0,0.86317698,-18.110364,1034.3011)"
       d="m 115.40993,9.5196676 c 0,4.6723444 -3.78769,8.4600274 -8.46003,8.4600274 -4.67235,0 -8.46003,-3.787683 -8.46003,-8.4600274 0,-4.6723443 3.78768,-8.4600277 8.46003,-8.4600277 4.67234,0 8.46003,3.7876834 8.46003,8.4600277 z"
       sodipodi:ry="8.4600277"
       sodipodi:rx="8.4600277"
       sodipodi:cy="9.5196676"
       sodipodi:cx="106.9499"
       id="path3002"
       style="fill:#000000;fill-opacity:1;stroke:#000000;stroke-opacity:1"
       sodipodi:type="arc" />
    <path
       style="fill:#ffffff;fill-opacity:1;stroke:#ffffff;stroke-width:0.78384817;stroke-opacity:1"
       d="m 70.242873,1047.4032 0,-9.6996 9.699625,4.8498 z"
       id="rect3014"
       inkscape:connector-curvature="0"
       sodipodi:nodetypes="cccc" />
    <g
       transform="scale(0.99999882,1.0000012)"
       style="font-size:16.39322853px;font-style:normal;font-weight:normal;line-height:125%;letter-spacing:0px;word-spacing:0px;fill:#000000;fill-opacity:1;stroke:none;font-family:Arial Rounded MT Bold;-inkscape-font-specification:Arial Rounded MT Bold"
       id="text3071">
      <path
         d="m 8.7323541,1037.0116 -5.3550146,0 0,2.8817 4.9307757,0 c 0.362862,0 0.6336809,0.081 0.8124574,0.2441 0.1787577,0.1628 0.2681413,0.3775 0.268151,0.6444 -9.7e-6,0.2668 -0.088059,0.4842 -0.2641487,0.6523 -0.1761084,0.1681 -0.4482613,0.2522 -0.8164597,0.2522 l -4.9307757,0 0,3.3378 5.5391182,0 c 0.3735341,0 0.6550256,0.087 0.8444754,0.2602 0.1894298,0.1734 0.2841499,0.4042 0.2841599,0.6924 -10e-6,0.2775 -0.09473,0.5029 -0.2841599,0.6764 -0.1894498,0.1734 -0.4709413,0.2601 -0.8444754,0.2601 l -6.4596364,0 c -0.517627,0 -0.8898361,-0.1147 -1.1166286,-0.3442 -0.2267958,-0.2294 -0.34019282,-0.6003 -0.3401915,-1.1126 l 0,-8.821 c -1.32e-6,-0.3415 0.050694,-0.6203 0.1520856,-0.8364 0.1013889,-0.2162 0.2601447,-0.3736 0.4762681,-0.4723 0.2161195,-0.099 0.4922747,-0.1481 0.8284664,-0.1481 l 6.2755328,0 c 0.3788705,0 0.6603621,0.084 0.8444754,0.2521 0.1840936,0.1681 0.2761453,0.3883 0.2761554,0.6604 -1.01e-5,0.2775 -0.092062,0.5003 -0.2761554,0.6684 -0.1841133,0.1681 -0.4656049,0.2521 -0.8444754,0.2521 z"
         style=""
         id="path3099" />
      <path
         d="m 13.783198,1039.437 0,0.2641 c 0.384213,-0.5069 0.804449,-0.8791 1.26071,-1.1166 0.456252,-0.2374 0.980546,-0.3562 1.572885,-0.3562 0.576318,0 1.091274,0.1254 1.54487,0.3762 0.45358,0.2508 0.792438,0.6057 1.016572,1.0646 0.144072,0.2669 0.237458,0.555 0.280158,0.8645 0.04268,0.3095 0.06403,0.7044 0.06404,1.1847 l 0,4.0663 c -9e-6,0.4376 -0.100065,0.7684 -0.300169,0.9925 -0.200121,0.2242 -0.460267,0.3362 -0.78044,0.3362 -0.325524,0 -0.589672,-0.1147 -0.792446,-0.3442 -0.202787,-0.2294 -0.304178,-0.5576 -0.304171,-0.9845 l 0,-3.6421 c -7e-6,-0.7204 -0.100063,-1.2714 -0.300169,-1.6529 -0.200119,-0.3815 -0.59901,-0.5723 -1.196674,-0.5723 -0.389557,0 -0.744423,0.116 -1.064599,0.3482 -0.320184,0.2321 -0.554983,0.5509 -0.704396,0.9565 -0.10673,0.3255 -0.160094,0.9339 -0.160091,1.825 l 0,2.7376 c -3e-6,0.4429 -0.102727,0.7751 -0.308173,0.9965 -0.205452,0.2215 -0.470934,0.3322 -0.796448,0.3322 -0.314846,0 -0.573658,-0.1147 -0.776437,-0.3442 -0.202782,-0.2294 -0.304173,-0.5576 -0.304172,-0.9845 l 0,-6.3156 c -1e-6,-0.4162 0.09072,-0.7271 0.272154,-0.9325 0.181433,-0.2054 0.429573,-0.3082 0.744419,-0.3082 0.192105,0 0.365536,0.045 0.520292,0.1361 0.154751,0.091 0.278821,0.2268 0.37221,0.4082 0.09338,0.1815 0.140076,0.4029 0.140079,0.6644 z"
         style=""
         id="path3101" />
      <path
         d="m 21.69165,1045.7846 0,-9.4774 c -10e-7,-0.4375 0.09739,-0.7684 0.292165,-0.9925 0.194774,-0.2241 0.457589,-0.3362 0.788444,-0.3362 0.33085,0 0.597667,0.1107 0.80045,0.3322 0.202778,0.2214 0.304168,0.5536 0.304171,0.9965 l 0,9.4774 c -3e-6,0.4429 -0.102727,0.7751 -0.308173,0.9965 -0.205452,0.2215 -0.470934,0.3322 -0.796448,0.3322 -0.320183,0 -0.580329,-0.1147 -0.78044,-0.3442 -0.200114,-0.2294 -0.30017,-0.5576 -0.300169,-0.9845 z"
         style=""
         id="path3103" />
      <path
         d="m 31.665264,1045.8806 c -0.528304,0.4109 -1.039258,0.7191 -1.532863,0.9245 -0.493616,0.2055 -1.04726,0.3082 -1.660935,0.3082 -0.560318,0 -1.052595,-0.1107 -1.476832,-0.3322 -0.42424,-0.2214 -0.75109,-0.5216 -0.980552,-0.9005 -0.229463,-0.3789 -0.344194,-0.7897 -0.344193,-1.2327 -1e-6,-0.5976 0.189439,-1.1073 0.56832,-1.5288 0.378878,-0.4216 0.89917,-0.7044 1.560878,-0.8485 0.138742,-0.032 0.482936,-0.1041 1.032582,-0.2161 0.549638,-0.1121 1.020569,-0.2148 1.412795,-0.3082 0.392215,-0.093 0.817788,-0.2068 1.276719,-0.3402 -0.02669,-0.5763 -0.142754,-0.9992 -0.348196,-1.2687 -0.205455,-0.2695 -0.631028,-0.4042 -1.276719,-0.4042 -0.554983,0 -0.972551,0.077 -1.252705,0.2321 -0.280161,0.1548 -0.520296,0.3869 -0.720406,0.6964 -0.200115,0.3095 -0.341528,0.5136 -0.424239,0.6123 -0.08272,0.099 -0.260148,0.1481 -0.532299,0.1481 -0.245474,0 -0.457593,-0.079 -0.636359,-0.2361 -0.178768,-0.1574 -0.268152,-0.3589 -0.26815,-0.6044 -2e-6,-0.3842 0.136075,-0.7577 0.408229,-1.1206 0.272152,-0.3629 0.69639,-0.6617 1.272717,-0.8965 0.576321,-0.2348 1.294058,-0.3522 2.153212,-0.3522 0.960535,0 1.715626,0.1134 2.265275,0.3402 0.549635,0.2268 0.937853,0.5857 1.164656,1.0766 0.226786,0.491 0.340183,1.142 0.340191,1.9531 -8e-6,0.5123 -0.0013,0.9472 -0.004,1.3047 -0.0027,0.3576 -0.0067,0.7551 -0.01201,1.1927 -8e-6,0.4109 0.06803,0.8392 0.204115,1.2847 0.136068,0.4456 0.204106,0.7324 0.204115,0.8605 -9e-6,0.2241 -0.105401,0.4283 -0.316178,0.6124 -0.210794,0.1841 -0.449595,0.2761 -0.716403,0.2761 -0.224134,0 -0.445592,-0.1054 -0.664374,-0.3162 -0.218797,-0.2107 -0.450928,-0.5162 -0.696392,-0.9165 z m -0.144081,-3.1618 c -0.320187,0.1175 -0.785782,0.2415 -1.396787,0.3723 -0.611015,0.1307 -1.033919,0.2268 -1.268714,0.2881 -0.234802,0.061 -0.458928,0.1815 -0.672378,0.3602 -0.213457,0.1788 -0.320183,0.4283 -0.320181,0.7484 -2e-6,0.3309 0.125401,0.6124 0.376212,0.8445 0.250805,0.2322 0.578989,0.3482 0.984554,0.3482 0.432239,0 0.83113,-0.095 1.196674,-0.2841 0.365533,-0.1895 0.633684,-0.4336 0.804453,-0.7325 0.197438,-0.3308 0.29616,-0.8751 0.296167,-1.6329 z"
         style=""
         id="path3105" />
      <path
         d="m 38.044854,1043.9595 0,1.8251 c -3e-6,0.4429 -0.104061,0.7751 -0.312175,0.9965 -0.20812,0.2215 -0.472269,0.3322 -0.792447,0.3322 -0.314845,0 -0.573657,-0.112 -0.776437,-0.3362 -0.202782,-0.2241 -0.304172,-0.5549 -0.304171,-0.9925 l 0,-6.0835 c -10e-7,-0.9818 0.354865,-1.4728 1.064599,-1.4728 0.362869,0 0.624349,0.1148 0.784442,0.3442 0.160087,0.2295 0.248137,0.5683 0.264149,1.0166 0.261477,-0.4483 0.529627,-0.7871 0.804453,-1.0166 0.274817,-0.2294 0.64169,-0.3442 1.100619,-0.3442 0.45892,0 0.904503,0.1148 1.336753,0.3442 0.432236,0.2295 0.648358,0.5337 0.648365,0.9125 -7e-6,0.2669 -0.09206,0.487 -0.276156,0.6604 -0.18411,0.1734 -0.382888,0.2602 -0.596335,0.2601 -0.08005,10e-5 -0.273494,-0.049 -0.580327,-0.148 -0.306845,-0.099 -0.577664,-0.1481 -0.812458,-0.1481 -0.320184,0 -0.581665,0.084 -0.784441,0.2521 -0.202785,0.1681 -0.360207,0.4176 -0.472266,0.7484 -0.112067,0.3309 -0.189443,0.7245 -0.232131,1.1807 -0.04269,0.4563 -0.06404,1.0126 -0.06404,1.6689 z"
         style=""
         id="path3107" />
      <path
         d="m 51.084196,1039.8292 0,6.3476 c -9e-6,0.7257 -0.07739,1.3501 -0.23213,1.873 -0.154763,0.523 -0.402902,0.9553 -0.744419,1.2968 -0.341534,0.3415 -0.788452,0.595 -1.340755,0.7604 -0.552317,0.1654 -1.23937,0.2481 -2.061161,0.2481 -0.752427,0 -1.424805,-0.1054 -2.017135,-0.3161 -0.592336,-0.2108 -1.048592,-0.483 -1.368771,-0.8165 -0.320181,-0.3335 -0.480271,-0.6764 -0.48027,-1.0286 -10e-7,-0.2668 0.09072,-0.4842 0.272153,-0.6523 0.181434,-0.1681 0.400224,-0.2522 0.65637,-0.2522 0.320178,0 0.600335,0.1414 0.840473,0.4243 0.117396,0.144 0.238798,0.2895 0.364205,0.4362 0.125401,0.1468 0.264145,0.2722 0.416234,0.3762 0.152082,0.1041 0.334852,0.1814 0.548309,0.2321 0.213449,0.051 0.45892,0.076 0.736414,0.076 0.565647,0 1.00456,-0.079 1.316742,-0.2361 0.312169,-0.1575 0.530959,-0.3776 0.656369,-0.6604 0.125397,-0.2828 0.198772,-0.5857 0.220124,-0.9085 0.02134,-0.3229 0.03735,-0.8418 0.04803,-1.5569 -0.336196,0.4696 -0.724414,0.8271 -1.164655,1.0726 -0.440254,0.2455 -0.964548,0.3682 -1.572886,0.3682 -0.731082,0 -1.370107,-0.1868 -1.917079,-0.5603 -0.546977,-0.3736 -0.967213,-0.8965 -1.26071,-1.5689 -0.293499,-0.6724 -0.440248,-1.4488 -0.440248,-2.3293 0,-0.6564 0.08938,-1.2487 0.268151,-1.777 0.178766,-0.5283 0.433576,-0.9739 0.764431,-1.3368 0.330851,-0.3628 0.712398,-0.6363 1.144644,-0.8204 0.43224,-0.1841 0.907174,-0.2762 1.424802,-0.2762 0.61901,0 1.155312,0.1188 1.608906,0.3562 0.453582,0.2375 0.875152,0.6097 1.264712,1.1167 l 0,-0.2962 c -7e-6,-0.3789 0.09338,-0.6724 0.280157,-0.8805 0.186765,-0.2081 0.4269,-0.3122 0.720406,-0.3122 0.421562,0 0.70172,0.1374 0.840473,0.4123 0.138736,0.2748 0.208108,0.671 0.208117,1.1886 z m -6.331564,2.7696 c -3e-6,0.8858 0.193439,1.5555 0.580327,2.0091 0.38688,0.4536 0.887161,0.6804 1.500845,0.6804 0.362865,0 0.705725,-0.097 1.028579,-0.2922 0.322842,-0.1947 0.585656,-0.4882 0.788443,-0.8805 0.202774,-0.3922 0.304165,-0.8685 0.304172,-1.4288 -7e-6,-0.8911 -0.196118,-1.5849 -0.588332,-2.0811 -0.392226,-0.4963 -0.908516,-0.7445 -1.548871,-0.7445 -0.624356,0 -1.124637,0.2375 -1.500845,0.7124 -0.376215,0.475 -0.564321,1.15 -0.564318,2.0252 z"
         style=""
         id="path3109" />
      <path
         d="m 59.392875,1043.2071 -4.274406,0 c 0.0053,0.4963 0.10539,0.9339 0.300169,1.3128 0.194773,0.3788 0.453585,0.6643 0.776437,0.8564 0.322844,0.1922 0.679044,0.2882 1.068602,0.2882 0.261475,0 0.500276,-0.031 0.716403,-0.092 0.216116,-0.061 0.425567,-0.1575 0.628354,-0.2882 0.202774,-0.1307 0.389546,-0.2708 0.560315,-0.4202 0.170756,-0.1495 0.392214,-0.3522 0.664374,-0.6084 0.112055,-0.096 0.272145,-0.1441 0.480271,-0.1441 0.224117,0 0.405553,0.061 0.544306,0.1841 0.138736,0.1228 0.208108,0.2962 0.208117,0.5203 -9e-6,0.1975 -0.07739,0.4283 -0.232131,0.6924 -0.154762,0.2642 -0.388226,0.5176 -0.700394,0.7604 -0.312183,0.2428 -0.704404,0.4443 -1.176662,0.6044 -0.472272,0.1601 -1.015244,0.2401 -1.628917,0.2401 -1.403461,0 -2.494741,-0.4002 -3.273843,-1.2007 -0.779107,-0.8004 -1.168659,-1.8863 -1.168658,-3.2578 -1e-6,-0.6457 0.09605,-1.2447 0.288162,-1.797 0.192107,-0.5523 0.472264,-1.0259 0.840473,-1.4208 0.368205,-0.3949 0.821794,-0.6977 1.360766,-0.9085 0.538967,-0.2108 1.136636,-0.3162 1.79301,-0.3162 0.853808,0 1.586219,0.1801 2.197237,0.5403 0.611002,0.3602 1.068593,0.8258 1.372772,1.3968 0.304163,0.571 0.456248,1.1527 0.456257,1.745 -9e-6,0.5496 -0.157431,0.9058 -0.472266,1.0686 -0.314852,0.1627 -0.757767,0.2441 -1.328748,0.2441 z m -4.274406,-1.2407 3.962231,0 c -0.05337,-0.7471 -0.254817,-1.306 -0.604341,-1.6769 -0.349536,-0.3709 -0.809794,-0.5563 -1.380777,-0.5563 -0.544311,0 -0.991229,0.1881 -1.340755,0.5643 -0.349533,0.3762 -0.561652,0.9325 -0.636358,1.6689 z"
         style=""
         id="path3111" />
    </g>
  </g>
</svg>
