<?xml version="1.0" encoding="UTF-8" standalone="no"?>
<!-- Created with Inkscape (http://www.inkscape.org/) -->

<svg
   xmlns:dc="http://purl.org/dc/elements/1.1/"
   xmlns:cc="http://creativecommons.org/ns#"
   xmlns:rdf="http://www.w3.org/1999/02/22-rdf-syntax-ns#"
   xmlns:svg="http://www.w3.org/2000/svg"
   xmlns="http://www.w3.org/2000/svg"
   xmlns:sodipodi="http://sodipodi.sourceforge.net/DTD/sodipodi-0.dtd"
   xmlns:inkscape="http://www.inkscape.org/namespaces/inkscape"
   width="120"
   height="20"
   id="svg2"
   version="1.1"
   inkscape:version="0.48.4 r9939"
   sodipodi:docname="Increase Button.svg">
  <defs
     id="defs4" />
  <sodipodi:namedview
     id="base"
     pagecolor="#ffffff"
     bordercolor="#666666"
     borderopacity="1.0"
     inkscape:pageopacity="0.0"
     inkscape:pageshadow="2"
     inkscape:zoom="5.6"
     inkscape:cx="96.981049"
     inkscape:cy="-2.3369657"
     inkscape:document-units="px"
     inkscape:current-layer="layer1"
     showgrid="false"
     inkscape:window-width="1366"
     inkscape:window-height="705"
     inkscape:window-x="-8"
     inkscape:window-y="-8"
     inkscape:window-maximized="1" />
  <metadata
     id="metadata7">
    <rdf:RDF>
      <cc:Work
         rdf:about="">
        <dc:format>image/svg+xml</dc:format>
        <dc:type
           rdf:resource="http://purl.org/dc/dcmitype/StillImage" />
        <dc:title />
      </cc:Work>
    </rdf:RDF>
  </metadata>
  <g
     inkscape:label="Layer 1"
     inkscape:groupmode="layer"
     id="layer1"
     transform="translate(0,-1032.3622)">
    <path
       sodipodi:type="arc"
       style="fill:#b3b3b3;fill-opacity:1;stroke:#b3b3b3;stroke-opacity:1"
       id="path3000"
       sodipodi:cx="106.9499"
       sodipodi:cy="9.5196676"
       sodipodi:rx="8.4600277"
       sodipodi:ry="8.4600277"
       d="m 115.40993,9.5196676 c 0,4.6723444 -3.78769,8.4600274 -8.46003,8.4600274 -4.67235,0 -8.46003,-3.787683 -8.46003,-8.4600274 0,-4.6723443 3.78768,-8.4600277 8.46003,-8.4600277 4.67234,0 8.46003,3.7876834 8.46003,8.4600277 z"
       transform="matrix(1.0986474,0,0,1.0986474,-9.7927154,1031.9282)" />
    <path
       transform="matrix(0.91285532,0,0,0.91285532,10.077729,1033.6969)"
       d="m 115.40993,9.5196676 c 0,4.6723444 -3.78769,8.4600274 -8.46003,8.4600274 -4.67235,0 -8.46003,-3.787683 -8.46003,-8.4600274 0,-4.6723443 3.78768,-8.4600277 8.46003,-8.4600277 4.67234,0 8.46003,3.7876834 8.46003,8.4600277 z"
       sodipodi:ry="8.4600277"
       sodipodi:rx="8.4600277"
       sodipodi:cy="9.5196676"
       sodipodi:cx="106.9499"
       id="path3002"
       style="fill:#000000;fill-opacity:1;stroke:#000000;stroke-opacity:1"
       sodipodi:type="arc" />
    <path
       style="fill:#ffffff;fill-opacity:1;stroke:#ffffff;stroke-width:0.82896191;stroke-opacity:1"
       d="m 103.51617,1047.553 0,-10.2578 10.25789,5.1289 z"
       id="rect3014"
       inkscape:connector-curvature="0"
       sodipodi:nodetypes="cccc" />
    <g
       style="font-size:20.77606964px;font-style:normal;font-weight:normal;line-height:125%;letter-spacing:0px;word-spacing:0px;fill:#000000;fill-opacity:1;stroke:none;font-family:Sans"
       id="text4263">
      <path
         d="m 29.602285,1035.3022 -6.786714,0 0,3.6521 6.249052,0 c 0.459876,0 0.8031,0.1031 1.029673,0.3094 0.22655,0.2063 0.339831,0.4785 0.339843,0.8166 -1.2e-5,0.3382 -0.111602,0.6138 -0.33477,0.8268 -0.223193,0.2131 -0.568107,0.3196 -1.034746,0.3196 l -6.249052,0 0,4.2303 7.020039,0 c 0.473401,0 0.830151,0.1099 1.070252,0.3297 0.240075,0.2198 0.360118,0.5123 0.360132,0.8775 -1.4e-5,0.3516 -0.120057,0.6374 -0.360132,0.8572 -0.240101,0.2198 -0.596851,0.3297 -1.070252,0.3297 l -8.186664,0 c -0.656018,0 -1.12774,-0.1454 -1.415167,-0.4362 -0.287431,-0.2909 -0.431146,-0.7609 -0.431144,-1.4101 l 0,-11.1793 c -2e-6,-0.4329 0.06425,-0.7862 0.192747,-1.0602 0.128495,-0.2738 0.329696,-0.4734 0.603601,-0.5985 0.273901,-0.1251 0.623888,-0.1876 1.049963,-0.1877 l 7.953339,0 c 0.480164,10e-5 0.836914,0.1066 1.070252,0.3196 0.233312,0.213 0.349974,0.492 0.349987,0.8369 -1.3e-5,0.3517 -0.116675,0.6341 -0.349987,0.8471 -0.233338,0.213 -0.590088,0.3196 -1.070252,0.3195 z"
         style="font-family:Arial Rounded MT Bold;-inkscape-font-specification:Arial Rounded MT Bold"
         id="path3020" />
      <path
         d="m 36.003506,1038.3761 0,0.3347 c 0.486935,-0.6425 1.019524,-1.1142 1.597769,-1.4151 0.578234,-0.301 1.242702,-0.4515 1.993407,-0.4515 0.7304,0 1.383034,0.159 1.957901,0.4768 0.574849,0.3179 1.004302,0.7676 1.28836,1.3492 0.182591,0.3382 0.300944,0.7034 0.35506,1.0957 0.05409,0.3922 0.08114,0.8927 0.08116,1.5014 l 0,5.1534 c -1.1e-5,0.5546 -0.126818,0.9739 -0.380421,1.2579 -0.253625,0.2841 -0.583323,0.4261 -0.989095,0.4261 -0.412555,0 -0.747325,-0.1454 -1.004312,-0.4362 -0.257004,-0.2908 -0.385502,-0.7068 -0.385494,-1.2478 l 0,-4.6158 c -8e-6,-0.913 -0.126815,-1.6113 -0.380421,-2.0948 -0.253622,-0.4836 -0.759159,-0.7254 -1.516612,-0.7254 -0.493708,0 -0.94345,0.1471 -1.349227,0.4413 -0.405788,0.2942 -0.703361,0.6983 -0.892722,1.2123 -0.135265,0.4125 -0.202896,1.1835 -0.202891,2.3129 l 0,3.4695 c -5e-6,0.5613 -0.130193,0.9823 -0.390566,1.263 -0.260381,0.2807 -0.596842,0.421 -1.009384,0.421 -0.399022,0 -0.72703,-0.1454 -0.984023,-0.4362 -0.256997,-0.2908 -0.385495,-0.7068 -0.385494,-1.2478 l 0,-8.0041 c -1e-6,-0.5275 0.114971,-0.9214 0.344915,-1.1818 0.229942,-0.2604 0.544423,-0.3906 0.943445,-0.3906 0.243467,0 0.463265,0.057 0.659397,0.1725 0.196125,0.115 0.353365,0.2874 0.471722,0.5174 0.118349,0.2299 0.177526,0.5106 0.17753,0.842 z"
         style="font-family:Arial Rounded MT Bold;-inkscape-font-specification:Arial Rounded MT Bold"
         id="path3022" />
      <path
         d="m 46.026337,1046.4207 0,-12.0112 c -2e-6,-0.5545 0.123424,-0.9738 0.370276,-1.2579 0.246849,-0.284 0.579929,-0.4261 0.99924,-0.4261 0.419305,0 0.757457,0.1404 1.014457,0.421 0.256991,0.2807 0.385489,0.7017 0.385493,1.263 l 0,12.0112 c -4e-6,0.5613 -0.130193,0.9823 -0.390566,1.263 -0.26038,0.2807 -0.596842,0.421 -1.009384,0.421 -0.405785,0 -0.735483,-0.1454 -0.989095,-0.4362 -0.253616,-0.2908 -0.380423,-0.7068 -0.380421,-1.2478 z"
         style="font-family:Arial Rounded MT Bold;-inkscape-font-specification:Arial Rounded MT Bold"
         id="path3024" />
      <path
         d="m 58.666466,1046.5424 c -0.669549,0.5208 -1.31711,0.9113 -1.942685,1.1717 -0.625587,0.2604 -1.327252,0.3906 -2.104997,0.3906 -0.710123,0 -1.334013,-0.1403 -1.871672,-0.421 -0.537664,-0.2807 -0.9519,-0.6611 -1.242709,-1.1413 -0.290812,-0.4801 -0.436218,-1.0009 -0.436217,-1.5622 -10e-7,-0.7575 0.240087,-1.4034 0.720264,-1.9376 0.480174,-0.5343 1.139571,-0.8928 1.978191,-1.0754 0.175835,-0.041 0.612051,-0.1318 1.308649,-0.2739 0.696588,-0.142 1.293426,-0.2722 1.790515,-0.3905 0.497077,-0.1184 1.036429,-0.2621 1.618058,-0.4312 -0.03382,-0.7304 -0.180919,-1.2664 -0.441288,-1.6079 -0.260385,-0.3415 -0.799737,-0.5123 -1.618058,-0.5123 -0.703362,0 -1.23257,0.098 -1.587625,0.2942 -0.355064,0.1961 -0.6594,0.4903 -0.913011,0.8826 -0.253617,0.3922 -0.432838,0.6509 -0.537662,0.776 -0.10483,0.1252 -0.329701,0.1877 -0.674613,0.1877 -0.311102,0 -0.579933,-0.1 -0.806493,-0.2993 -0.226563,-0.1995 -0.339844,-0.4548 -0.339843,-0.7659 -10e-7,-0.4869 0.172456,-0.9603 0.517373,-1.4202 0.344913,-0.4599 0.882574,-0.8386 1.612986,-1.1362 0.730404,-0.2976 1.640033,-0.4464 2.728888,-0.4464 1.21734,0 2.17431,0.1438 2.870912,0.4312 0.696583,0.2874 1.188594,0.7422 1.476034,1.3644 0.287418,0.6222 0.431133,1.4473 0.431144,2.4753 -1.1e-5,0.6493 -0.0017,1.2004 -0.0051,1.6536 -0.0034,0.4531 -0.0085,0.9569 -0.01522,1.5115 -1.1e-5,0.5208 0.08622,1.0635 0.258686,1.6282 0.172446,0.5647 0.258675,0.9282 0.258687,1.0905 -1.2e-5,0.2841 -0.133582,0.5428 -0.400711,0.7761 -0.267151,0.2333 -0.569797,0.35 -0.907938,0.35 -0.284058,0 -0.564724,-0.1336 -0.841999,-0.4007 -0.277294,-0.2672 -0.571486,-0.6543 -0.882577,-1.1616 z m -0.182603,-4.0071 c -0.40579,0.1488 -0.995865,0.3061 -1.770226,0.4717 -0.774374,0.1657 -1.310345,0.2875 -1.607914,0.3652 -0.297578,0.078 -0.581626,0.23 -0.852143,0.4566 -0.270526,0.2265 -0.405786,0.5427 -0.405783,0.9485 -3e-6,0.4193 0.158928,0.776 0.476795,1.0702 0.317858,0.2942 0.733785,0.4413 1.247781,0.4413 0.547801,0 1.053338,-0.12 1.516613,-0.3601 0.463261,-0.2401 0.803104,-0.5495 1.019529,-0.9282 0.250224,-0.4194 0.37534,-1.1092 0.375348,-2.0695 z"
         style="font-family:Arial Rounded MT Bold;-inkscape-font-specification:Arial Rounded MT Bold"
         id="path3026" />
      <path
         d="m 66.751685,1044.1077 0,2.313 c -4e-6,0.5613 -0.131883,0.9823 -0.395638,1.263 -0.263762,0.2807 -0.598532,0.421 -1.004312,0.421 -0.399022,0 -0.727029,-0.142 -0.984022,-0.4261 -0.256998,-0.284 -0.385495,-0.7033 -0.385494,-1.2579 l 0,-7.7099 c -10e-7,-1.2444 0.449741,-1.8666 1.349227,-1.8666 0.459884,0 0.791273,0.1454 0.994168,0.4362 0.202887,0.2909 0.314477,0.7203 0.33477,1.2884 0.331385,-0.5681 0.671228,-0.9975 1.019529,-1.2884 0.348291,-0.2908 0.81325,-0.4362 1.394878,-0.4362 0.581614,0 1.146328,0.1454 1.694142,0.4362 0.547798,0.2909 0.821701,0.6764 0.82171,1.1565 -9e-6,0.3382 -0.116671,0.6172 -0.349988,0.8369 -0.233333,0.2199 -0.485256,0.3298 -0.75577,0.3297 -0.101453,10e-5 -0.346613,-0.062 -0.735481,-0.1876 -0.388881,-0.1251 -0.732106,-0.1877 -1.029673,-0.1877 -0.405788,0 -0.737177,0.1065 -0.994167,0.3195 -0.257001,0.2131 -0.456511,0.5293 -0.59853,0.9486 -0.142028,0.4193 -0.240092,0.9181 -0.294192,1.4963 -0.05411,0.5782 -0.08116,1.2833 -0.08116,2.1151 z"
         style="font-family:Arial Rounded MT Bold;-inkscape-font-specification:Arial Rounded MT Bold"
         id="path3028" />
      <path
         d="m 83.277183,1038.8731 0,8.0447 c -1.2e-5,0.9197 -0.09808,1.711 -0.294193,2.3738 -0.196139,0.6628 -0.51062,1.2106 -0.943444,1.6434 -0.432845,0.4329 -0.999249,0.7541 -1.699215,0.9638 -0.699983,0.2096 -1.570724,0.3144 -2.612226,0.3144 -0.953594,0 -1.805736,-0.1335 -2.55643,-0.4007 -0.750701,-0.2671 -1.32894,-0.612 -1.734721,-1.0347 -0.405784,-0.4227 -0.608675,-0.8572 -0.608674,-1.3036 -1e-6,-0.3381 0.114971,-0.6137 0.344916,-0.8268 0.229941,-0.213 0.507226,-0.3195 0.831854,-0.3195 0.40578,0 0.760839,0.1792 1.065179,0.5376 0.148784,0.1826 0.302643,0.3669 0.461578,0.5529 0.158928,0.186 0.334767,0.3449 0.527517,0.4768 0.192743,0.1319 0.424377,0.2299 0.694903,0.2942 0.270517,0.064 0.581616,0.096 0.9333,0.096 0.716876,0 1.273136,-0.1 1.668781,-0.2993 0.39563,-0.1995 0.672915,-0.4785 0.831855,-0.8369 0.158922,-0.3585 0.251914,-0.7423 0.278975,-1.1514 0.02704,-0.4092 0.04733,-1.0669 0.06087,-1.9731 -0.42608,0.5951 -0.918091,1.0482 -1.476034,1.3593 -0.557958,0.3111 -1.222426,0.4667 -1.993407,0.4667 -0.926541,0 -1.736415,-0.2367 -2.429623,-0.7101 -0.693214,-0.4735 -1.225804,-1.1362 -1.597769,-1.9884 -0.371969,-0.8521 -0.557952,-1.8361 -0.557951,-2.952 -10e-7,-0.8319 0.11328,-1.5826 0.339843,-2.2521 0.22656,-0.6696 0.549495,-1.2343 0.968806,-1.6942 0.419306,-0.4599 0.902863,-0.8065 1.450672,-1.0398 0.547803,-0.2333 1.149713,-0.35 1.805733,-0.35 0.784507,0 1.464192,0.1505 2.039058,0.4514 0.57485,0.301 1.10913,0.7727 1.602841,1.4152 l 0,-0.3753 c -9e-6,-0.4802 0.118344,-0.8522 0.35506,-1.1159 0.236697,-0.2638 0.541033,-0.3957 0.913011,-0.3957 0.534269,0 0.889329,0.1742 1.065179,0.5225 0.175828,0.3483 0.263747,0.8504 0.263759,1.5064 z m -8.024351,3.5101 c -4e-6,1.1226 0.245156,1.9714 0.735481,2.5462 0.490315,0.5749 1.12435,0.8623 1.902105,0.8623 0.459881,0 0.894406,-0.1234 1.303577,-0.3702 0.409156,-0.2469 0.742236,-0.6189 0.99924,-1.116 0.256987,-0.497 0.385484,-1.1006 0.385493,-1.8108 -9e-6,-1.1294 -0.24855,-2.0086 -0.745625,-2.6375 -0.497092,-0.629 -1.151415,-0.9435 -1.962974,-0.9435 -0.791281,0 -1.425316,0.301 -1.902106,0.9029 -0.476798,0.6019 -0.715195,1.4574 -0.715191,2.5666 z"
         style="font-family:Arial Rounded MT Bold;-inkscape-font-specification:Arial Rounded MT Bold"
         id="path3030" />
      <path
         d="m 93.80724,1043.1541 -5.417197,0 c 0.0068,0.629 0.133566,1.1836 0.380421,1.6637 0.246846,0.4802 0.574854,0.8421 0.984023,1.0855 0.409158,0.2435 0.860591,0.3652 1.354299,0.3652 0.331382,0 0.634028,-0.039 0.907939,-0.1166 0.273895,-0.078 0.539344,-0.1995 0.796348,-0.3652 0.256987,-0.1657 0.493694,-0.3433 0.71012,-0.5326 0.216408,-0.1894 0.497074,-0.4464 0.841999,-0.771 0.142014,-0.1218 0.344905,-0.1826 0.608673,-0.1826 0.284038,0 0.513981,0.078 0.689831,0.2333 0.175828,0.1556 0.263747,0.3754 0.263759,0.6594 -1.2e-5,0.2502 -0.09808,0.5427 -0.294193,0.8775 -0.196139,0.3348 -0.492022,0.656 -0.887649,0.9637 -0.395648,0.3078 -0.892731,0.5631 -1.491251,0.766 -0.598538,0.2028 -1.286677,0.3043 -2.064419,0.3043 -1.778686,0 -3.161727,-0.5072 -4.149128,-1.5217 -0.987405,-1.0145 -1.481107,-2.3907 -1.481106,-4.1288 -10e-7,-0.8184 0.121734,-1.5775 0.365204,-2.2775 0.243468,-0.7 0.598528,-1.3002 1.06518,-1.8006 0.466647,-0.5005 1.041505,-0.8843 1.724576,-1.1515 0.683062,-0.2671 1.440522,-0.4007 2.272382,-0.4007 1.08208,0 2.010307,0.2283 2.784683,0.6848 0.774359,0.4565 1.354289,1.0466 1.739793,1.7702 0.385483,0.7237 0.578229,1.4608 0.578241,2.2115 -1.2e-5,0.6966 -0.199521,1.1481 -0.59853,1.3543 -0.39903,0.2063 -0.960362,0.3094 -1.683998,0.3094 z m -5.417197,-1.5724 5.021559,0 c -0.06764,-0.9468 -0.322943,-1.6552 -0.765914,-2.1253 -0.442987,-0.47 -1.026299,-0.705 -1.749938,-0.705 -0.689836,0 -1.25624,0.2384 -1.699214,0.7152 -0.442984,0.4768 -0.711815,1.1818 -0.806493,2.1151 z"
         style="font-family:Arial Rounded MT Bold;-inkscape-font-specification:Arial Rounded MT Bold"
         id="path3032" />
    </g>
  </g>
</svg>
