<?xml version="1.0" encoding="UTF-8" standalone="no"?>
<!-- Created with Inkscape (http://www.inkscape.org/) -->

<svg
   xmlns:dc="http://purl.org/dc/elements/1.1/"
   xmlns:cc="http://creativecommons.org/ns#"
   xmlns:rdf="http://www.w3.org/1999/02/22-rdf-syntax-ns#"
   xmlns:svg="http://www.w3.org/2000/svg"
   xmlns="http://www.w3.org/2000/svg"
   xmlns:sodipodi="http://sodipodi.sourceforge.net/DTD/sodipodi-0.dtd"
   xmlns:inkscape="http://www.inkscape.org/namespaces/inkscape"
   width="120"
   height="20"
   id="svg2"
   version="1.1"
   inkscape:version="0.48.4 r9939"
   sodipodi:docname="Decrease Button.svg">
  <defs
     id="defs4" />
  <sodipodi:namedview
     id="base"
     pagecolor="#ffffff"
     bordercolor="#666666"
     borderopacity="1.0"
     inkscape:pageopacity="0.0"
     inkscape:pageshadow="2"
     inkscape:zoom="7.9195959"
     inkscape:cx="71.552347"
     inkscape:cy="1.823049"
     inkscape:document-units="px"
     inkscape:current-layer="layer1"
     showgrid="false"
     inkscape:window-width="1366"
     inkscape:window-height="705"
     inkscape:window-x="-8"
     inkscape:window-y="-8"
     inkscape:window-maximized="1"
     showguides="true"
     inkscape:guide-bbox="true" />
  <metadata
     id="metadata7">
    <rdf:RDF>
      <cc:Work
         rdf:about="">
        <dc:format>image/svg+xml</dc:format>
        <dc:type
           rdf:resource="http://purl.org/dc/dcmitype/StillImage" />
        <dc:title />
      </cc:Work>
    </rdf:RDF>
  </metadata>
  <g
     inkscape:label="Layer 1"
     inkscape:groupmode="layer"
     id="layer1"
     transform="translate(0,-1032.3622)">
    <path
       sodipodi:type="arc"
       style="fill:#b3b3b3;fill-opacity:1;stroke:#b3b3b3;stroke-opacity:1"
       id="path3000"
       sodipodi:cx="106.9499"
       sodipodi:cy="9.5196676"
       sodipodi:rx="8.4600277"
       sodipodi:ry="8.4600277"
       d="m 115.40993,9.5196676 c 0,4.6723444 -3.78769,8.4600274 -8.46003,8.4600274 -4.67235,0 -8.46003,-3.787683 -8.46003,-8.4600274 0,-4.6723443 3.78768,-8.4600277 8.46003,-8.4600277 4.67234,0 8.46003,3.7876834 8.46003,8.4600277 z"
       transform="matrix(1.0986474,0,0,1.0986474,-9.7927154,1031.9282)" />
    <path
       transform="matrix(0.91285532,0,0,0.91285532,10.077729,1033.6969)"
       d="m 115.40993,9.5196676 c 0,4.6723444 -3.78769,8.4600274 -8.46003,8.4600274 -4.67235,0 -8.46003,-3.787683 -8.46003,-8.4600274 0,-4.6723443 3.78768,-8.4600277 8.46003,-8.4600277 4.67234,0 8.46003,3.7876834 8.46003,8.4600277 z"
       sodipodi:ry="8.4600277"
       sodipodi:rx="8.4600277"
       sodipodi:cy="9.5196676"
       sodipodi:cx="106.9499"
       id="path3002"
       style="fill:#000000;fill-opacity:1;stroke:#000000;stroke-opacity:1"
       sodipodi:type="arc" />
    <path
       style="fill:#ffffff;fill-opacity:1;stroke:#ffffff;stroke-width:0.82896191;stroke-opacity:1"
       d="m 111.94316,1037.2952 0,10.2578 -10.25789,-5.1289 z"
       id="rect3014"
       inkscape:connector-curvature="0"
       sodipodi:nodetypes="cccc" />
    <g
       style="font-size:20.77606964px;font-style:normal;font-weight:normal;line-height:125%;letter-spacing:0px;word-spacing:0px;fill:#000000;fill-opacity:1;stroke:none;font-family:Sans"
       id="text4263">
      <path
         d="m 26.134462,1041.408 -1.055035,0 0,4.7781 c -5e-6,0.629 -0.138647,1.0923 -0.415927,1.3898 -0.277289,0.2976 -0.639111,0.4464 -1.085469,0.4464 -0.480178,0 -0.852145,-0.1556 -1.115902,-0.4667 -0.26376,-0.3111 -0.39564,-0.7676 -0.395638,-1.3695 l 0,-11.443 c -2e-6,-0.6493 0.145404,-1.1193 0.436216,-1.4101 0.290809,-0.2908 0.76084,-0.4362 1.410095,-0.4363 l 4.899825,0 c 0.676295,10e-5 1.254535,0.029 1.734721,0.086 0.480165,0.058 0.912999,0.1741 1.298504,0.35 0.466638,0.1961 0.879183,0.4768 1.237637,0.842 0.358428,0.3652 0.63064,0.7896 0.816637,1.2731 0.185971,0.4836 0.278962,0.9959 0.278976,1.5369 -1.4e-5,1.1092 -0.312804,1.9951 -0.938372,2.6579 -0.625594,0.6628 -1.57411,1.1328 -2.845551,1.4101 0.53427,0.284 1.044879,0.7033 1.531829,1.2579 0.486928,0.5546 0.921453,1.1447 1.303577,1.7702 0.382099,0.6256 0.679673,1.1903 0.892722,1.6942 0.213022,0.5038 0.31954,0.8504 0.319554,1.0398 -1.4e-5,0.1961 -0.06257,0.3906 -0.187675,0.5833 -0.12513,0.1927 -0.295896,0.3449 -0.5123,0.4565 -0.216431,0.1116 -0.466663,0.1674 -0.750698,0.1674 -0.338165,0 -0.622212,-0.08 -0.852144,-0.2384 -0.229955,-0.1589 -0.427773,-0.3601 -0.593457,-0.6036 -0.165705,-0.2435 -0.390576,-0.6019 -0.674613,-1.0753 l -1.207204,-2.0087 c -0.432843,-0.7371 -0.820027,-1.2985 -1.161552,-1.684 -0.341542,-0.3854 -0.688147,-0.6492 -1.039818,-0.7912 -0.351685,-0.142 -0.794664,-0.2131 -1.328938,-0.2131 z m 1.724576,-6.249 -2.779611,0 0,4.0882 2.698454,0 c 0.723638,10e-5 1.332311,-0.062 1.826022,-0.1876 0.493693,-0.1251 0.870732,-0.3382 1.131119,-0.6391 0.260367,-0.301 0.390555,-0.7152 0.390566,-1.2427 -1.1e-5,-0.4126 -0.104838,-0.7761 -0.314482,-1.0906 -0.209664,-0.3145 -0.500475,-0.5495 -0.872432,-0.705 -0.351688,-0.1488 -1.044899,-0.2232 -2.079636,-0.2232 z"
         style="font-family:Arial Rounded MT Bold;-inkscape-font-specification:Arial Rounded MT Bold"
         id="path2996" />
      <path
         d="m 44.556992,1043.0717 -5.417197,0 c 0.0068,0.629 0.133566,1.1836 0.380421,1.6638 0.246847,0.4801 0.574854,0.842 0.984023,1.0854 0.409158,0.2435 0.860591,0.3652 1.354299,0.3652 0.331382,0 0.634028,-0.039 0.907939,-0.1166 0.273895,-0.078 0.539345,-0.1995 0.796348,-0.3652 0.256987,-0.1657 0.493694,-0.3433 0.71012,-0.5326 0.216408,-0.1894 0.497074,-0.4464 0.841999,-0.771 0.142014,-0.1218 0.344905,-0.1826 0.608673,-0.1826 0.284038,0 0.513981,0.078 0.689831,0.2333 0.175828,0.1556 0.263747,0.3754 0.263759,0.6594 -1.2e-5,0.2502 -0.09808,0.5427 -0.294193,0.8775 -0.196139,0.3348 -0.492022,0.656 -0.887649,0.9637 -0.395648,0.3078 -0.892731,0.5631 -1.491251,0.766 -0.598538,0.2028 -1.286677,0.3043 -2.064419,0.3043 -1.778686,0 -3.161727,-0.5072 -4.149128,-1.5217 -0.987405,-1.0144 -1.481107,-2.3907 -1.481106,-4.1288 -10e-7,-0.8184 0.121734,-1.5775 0.365204,-2.2775 0.243468,-0.7 0.598528,-1.3002 1.06518,-1.8006 0.466647,-0.5005 1.041505,-0.8843 1.724576,-1.1515 0.683062,-0.2671 1.440522,-0.4007 2.272382,-0.4007 1.08208,0 2.010307,0.2283 2.784683,0.6848 0.774359,0.4565 1.354289,1.0466 1.739793,1.7702 0.385483,0.7237 0.578229,1.4608 0.578241,2.2115 -1.2e-5,0.6966 -0.199521,1.1481 -0.59853,1.3543 -0.39903,0.2063 -0.960362,0.3094 -1.683998,0.3094 z m -5.417197,-1.5724 5.021559,0 c -0.06764,-0.9468 -0.322943,-1.6552 -0.765914,-2.1253 -0.442987,-0.47 -1.026299,-0.705 -1.749938,-0.705 -0.689836,0 -1.25624,0.2384 -1.699214,0.7152 -0.442984,0.4768 -0.711815,1.1818 -0.806493,2.1151 z"
         style="font-family:Arial Rounded MT Bold;-inkscape-font-specification:Arial Rounded MT Bold"
         id="path2998" />
      <path
         d="m 59.094156,1044.5934 c -1.2e-5,0.3449 -0.103148,0.7135 -0.30941,1.1058 -0.206283,0.3922 -0.520764,0.7659 -0.943444,1.121 -0.4227,0.355 -0.955289,0.6408 -1.597769,0.8572 -0.642497,0.2164 -1.366142,0.3246 -2.170937,0.3246 -1.711055,0 -3.046755,-0.4988 -4.007103,-1.4963 -0.960354,-0.9976 -1.44053,-2.335 -1.440529,-4.0122 -10e-7,-1.1362 0.219798,-2.1405 0.659397,-3.0129 0.439596,-0.8725 1.075321,-1.5471 1.907178,-2.0239 0.83185,-0.4768 1.826017,-0.7152 2.982503,-0.7152 0.716875,0 1.37458,0.1049 1.973117,0.3145 0.598521,0.2097 1.105749,0.4802 1.521685,0.8116 0.415917,0.3314 0.73378,0.6847 0.953589,1.0601 0.219788,0.3753 0.329688,0.7253 0.329699,1.05 -1.1e-5,0.3313 -0.123437,0.612 -0.370277,0.8419 -0.246862,0.23 -0.546126,0.345 -0.897794,0.345 -0.229953,0 -0.421009,-0.059 -0.573168,-0.1776 -0.152178,-0.1183 -0.322944,-0.3094 -0.5123,-0.5731 -0.338161,-0.514 -0.69153,-0.8995 -1.060107,-1.1565 -0.368594,-0.257 -0.836934,-0.3855 -1.405023,-0.3855 -0.818334,0 -1.47773,0.3196 -1.97819,0.9587 -0.500469,0.6391 -0.750701,1.5132 -0.750698,2.6223 -3e-6,0.5208 0.06424,0.9993 0.192747,1.4355 0.128494,0.4362 0.314477,0.8082 0.557951,1.1159 0.243465,0.3077 0.537657,0.541 0.882577,0.7 0.34491,0.1589 0.72364,0.2384 1.136192,0.2384 0.554562,0 1.029665,-0.1285 1.425311,-0.3855 0.39563,-0.257 0.745617,-0.6493 1.049962,-1.1768 0.169067,-0.3111 0.351669,-0.5546 0.547807,-0.7304 0.196119,-0.1759 0.436206,-0.2638 0.720264,-0.2638 0.338142,0 0.618808,0.1285 0.841999,0.3855 0.223169,0.257 0.334759,0.5309 0.334771,0.8217 z"
         style="font-family:Arial Rounded MT Bold;-inkscape-font-specification:Arial Rounded MT Bold"
         id="path3001" />
      <path
         d="m 68.690916,1046.46 0,-0.355 c -0.331398,0.4193 -0.679694,0.771 -1.044891,1.055 -0.365211,0.2841 -0.76423,0.4954 -1.197058,0.634 -0.432841,0.1387 -0.926543,0.208 -1.481107,0.208 -0.669545,0 -1.269765,-0.1386 -1.80066,-0.4159 -0.530902,-0.2773 -0.941756,-0.6594 -1.232565,-1.1464 -0.344917,-0.5883 -0.517374,-1.4337 -0.517373,-2.5361 l 0,-5.4882 c -10e-7,-0.5546 0.125115,-0.9688 0.375349,-1.2427 0.250231,-0.2739 0.58162,-0.4109 0.994168,-0.4109 0.419305,0 0.757457,0.1387 1.014456,0.416 0.256992,0.2772 0.38549,0.6898 0.385494,1.2376 l 0,4.4332 c -4e-6,0.6425 0.0541,1.1818 0.162313,1.618 0.108204,0.4362 0.302641,0.7778 0.583312,1.0246 0.280661,0.2469 0.661082,0.3703 1.141264,0.3703 0.466643,0 0.906241,-0.1386 1.318793,-0.4159 0.412538,-0.2773 0.713493,-0.6391 0.902867,-1.0855 0.155541,-0.3922 0.233316,-1.2512 0.233325,-2.5767 l 0,-3.368 c -9e-6,-0.5478 0.128489,-0.9604 0.385493,-1.2376 0.256987,-0.2773 0.591757,-0.416 1.004312,-0.416 0.412535,0 0.743924,0.137 0.994167,0.4109 0.250222,0.2739 0.375338,0.6881 0.375349,1.2427 l 0,8.0243 c -1.1e-5,0.5276 -0.120055,0.9232 -0.360132,1.187 -0.240098,0.2637 -0.549507,0.3956 -0.928227,0.3956 -0.37874,0 -0.691531,-0.137 -0.938373,-0.4109 -0.24686,-0.2739 -0.370285,-0.6577 -0.370276,-1.1514 z"
         style="font-family:Arial Rounded MT Bold;-inkscape-font-specification:Arial Rounded MT Bold"
         id="path3003" />
      <path
         d="m 83.968629,1044.5934 c -1.1e-5,0.3449 -0.103147,0.7135 -0.309409,1.1058 -0.206284,0.3922 -0.520765,0.7659 -0.943445,1.121 -0.422699,0.355 -0.955289,0.6408 -1.597769,0.8572 -0.642497,0.2164 -1.366142,0.3246 -2.170937,0.3246 -1.711054,0 -3.046754,-0.4988 -4.007103,-1.4963 -0.960353,-0.9976 -1.440529,-2.335 -1.440528,-4.0122 -10e-7,-1.1362 0.219798,-2.1405 0.659397,-3.0129 0.439595,-0.8725 1.075321,-1.5471 1.907178,-2.0239 0.83185,-0.4768 1.826016,-0.7152 2.982502,-0.7152 0.716876,0 1.374581,0.1049 1.973118,0.3145 0.59852,0.2097 1.105748,0.4802 1.521685,0.8116 0.415917,0.3314 0.733779,0.6847 0.953589,1.0601 0.219788,0.3753 0.329687,0.7253 0.329698,1.05 -1.1e-5,0.3313 -0.123436,0.612 -0.370276,0.8419 -0.246862,0.23 -0.546126,0.345 -0.897794,0.345 -0.229954,0 -0.421009,-0.059 -0.573168,-0.1776 -0.152178,-0.1183 -0.322945,-0.3094 -0.512301,-0.5731 -0.338161,-0.514 -0.691529,-0.8995 -1.060107,-1.1565 -0.368593,-0.257 -0.836933,-0.3855 -1.405022,-0.3855 -0.818334,0 -1.47773,0.3196 -1.97819,0.9587 -0.50047,0.6391 -0.750702,1.5132 -0.750698,2.6223 -4e-6,0.5208 0.06424,0.9993 0.192747,1.4355 0.128493,0.4362 0.314477,0.8082 0.557951,1.1159 0.243465,0.3077 0.537657,0.541 0.882577,0.7 0.344909,0.1589 0.723639,0.2384 1.136191,0.2384 0.554563,0 1.029666,-0.1285 1.425312,-0.3855 0.395629,-0.257 0.745616,-0.6493 1.049962,-1.1768 0.169067,-0.3111 0.351669,-0.5546 0.547807,-0.7304 0.196118,-0.1759 0.436206,-0.2638 0.720264,-0.2638 0.338141,0 0.618807,0.1285 0.841999,0.3855 0.223169,0.257 0.334759,0.5309 0.33477,0.8217 z"
         style="font-family:Arial Rounded MT Bold;-inkscape-font-specification:Arial Rounded MT Bold"
         id="path3005" />
      <path
         d="m 94.103051,1043.0717 -5.417198,0 c 0.0068,0.629 0.133567,1.1836 0.380421,1.6638 0.246847,0.4801 0.574854,0.842 0.984023,1.0854 0.409159,0.2435 0.860592,0.3652 1.3543,0.3652 0.331382,0 0.634028,-0.039 0.907938,-0.1166 0.273896,-0.078 0.539345,-0.1995 0.796349,-0.3652 0.256987,-0.1657 0.493693,-0.3433 0.710119,-0.5326 0.216409,-0.1894 0.497075,-0.4464 0.841999,-0.771 0.142014,-0.1218 0.344905,-0.1826 0.608674,-0.1826 0.284037,0 0.513981,0.078 0.689831,0.2333 0.175828,0.1556 0.263747,0.3754 0.263758,0.6594 -1.1e-5,0.2502 -0.09807,0.5427 -0.294192,0.8775 -0.196139,0.3348 -0.492022,0.656 -0.88765,0.9637 -0.395647,0.3078 -0.892731,0.5631 -1.491251,0.766 -0.598537,0.2028 -1.286676,0.3043 -2.064419,0.3043 -1.778685,0 -3.161726,-0.5072 -4.149127,-1.5217 -0.987406,-1.0144 -1.481107,-2.3907 -1.481106,-4.1288 -10e-7,-0.8184 0.121733,-1.5775 0.365204,-2.2775 0.243468,-0.7 0.598527,-1.3002 1.065179,-1.8006 0.466647,-0.5005 1.041506,-0.8843 1.724576,-1.1515 0.683063,-0.2671 1.440523,-0.4007 2.272383,-0.4007 1.08208,0 2.010306,0.2283 2.784683,0.6848 0.774359,0.4565 1.354289,1.0466 1.739793,1.7702 0.385482,0.7237 0.578229,1.4608 0.57824,2.2115 -1.1e-5,0.6966 -0.199521,1.1481 -0.598529,1.3543 -0.39903,0.2063 -0.960362,0.3094 -1.683998,0.3094 z m -5.417198,-1.5724 5.02156,0 c -0.06764,-0.9468 -0.322944,-1.6552 -0.765915,-2.1253 -0.442987,-0.47 -1.026298,-0.705 -1.749937,-0.705 -0.689836,0 -1.25624,0.2384 -1.699215,0.7152 -0.442983,0.4768 -0.711814,1.1818 -0.806493,2.1151 z"
         style="font-family:Arial Rounded MT Bold;-inkscape-font-specification:Arial Rounded MT Bold"
         id="path3007" />
    </g>
  </g>
</svg>
