<?xml version="1.0" encoding="UTF-8" standalone="no"?>
<!-- Created with Inkscape (http://www.inkscape.org/) -->
<svg xmlns:rdf="http://www.w3.org/1999/02/22-rdf-syntax-ns#" xmlns="http://www.w3.org/2000/svg" version="1.1" xmlns:cc="http://creativecommons.org/ns#" xmlns:dc="http://purl.org/dc/elements/1.1/" viewBox="0 0 85 20">
 <metadata>
  <rdf:RDF>
   <cc:Work rdf:about="">
    <dc:format>image/svg+xml</dc:format>
    <dc:type rdf:resource="http://purl.org/dc/dcmitype/StillImage"/>
    <dc:title/>
   </cc:Work>
  </rdf:RDF>
 </metadata>
 <g transform="translate(0,-1032.3622)">
  <path d="m115.41,9.5197c0,4.6723-3.7877,8.46-8.46,8.46-4.6724,0-8.46-3.7877-8.46-8.46s3.7877-8.46,8.46-8.46,8.46,3.7877,8.46,8.46z" transform="matrix(1.0388557,0,0,1.0388581,-36.899397,1032.6287)" stroke="#b3b3b3" fill="#b3b3b3"/>
  <path d="m115.41,9.5197c0,4.6723-3.7877,8.46-8.46,8.46-4.6724,0-8.46-3.7877-8.46-8.46s3.7877-8.46,8.46-8.46,8.46,3.7877,8.46,8.46z" transform="matrix(0.86317496,0,0,0.86317698,-18.110364,1034.3011)" stroke="#000000" fill="#000000"/>
  <path d="m70.243,1047.4,0-9.6996,9.6996,4.8498z" stroke="#ffffff" stroke-width="0.78384817" fill="#ffffff"/>
  <g style="letter-spacing:0px;word-spacing:0px;" font-weight="normal" transform="scale(0.99999882,1.0000012)" font-size="16.39322853px" font-style="normal" font-family="Arial Rounded MT Bold" line-height="125%" fill="#000000">
   <path style="" d="m8.7324,1037-5.355,0,0,2.8817,4.9308,0c0.36286,0,0.63368,0.081,0.81246,0.2441,0.17876,0.1628,0.26814,0.3775,0.26815,0.6444-0.0000097,0.2668-0.088059,0.4842-0.26415,0.6523-0.17611,0.1681-0.44826,0.2522-0.81646,0.2522h-4.9308v3.3378h5.5391c0.37353,0,0.65503,0.087,0.84448,0.2602,0.18943,0.1734,0.28415,0.4042,0.28416,0.6924-0.00001,0.2775-0.09473,0.5029-0.28416,0.6764-0.18945,0.1734-0.47094,0.2601-0.84448,0.2601h-6.4596c-0.51763,0-0.88984-0.1147-1.1166-0.3442-0.2268-0.2294-0.34019-0.6003-0.34019-1.1126v-8.821c-0.00000132-0.3415,0.050694-0.6203,0.15209-0.8364,0.10139-0.2162,0.26014-0.3736,0.47627-0.4723,0.21612-0.099,0.49227-0.1481,0.82847-0.1481h6.2755c0.37887,0,0.66036,0.084,0.84448,0.2521,0.18409,0.1681,0.27615,0.3883,0.27616,0.6604-0.0000101,0.2775-0.092062,0.5003-0.27616,0.6684-0.18411,0.1681-0.4656,0.2521-0.84448,0.2521z"/>
   <path style="" d="m13.783,1039.4,0,0.2641c0.38421-0.5069,0.80445-0.8791,1.2607-1.1166,0.45625-0.2374,0.98055-0.3562,1.5729-0.3562,0.57632,0,1.0913,0.1254,1.5449,0.3762,0.45358,0.2508,0.79244,0.6057,1.0166,1.0646,0.14407,0.2669,0.23746,0.555,0.28016,0.8645,0.04268,0.3095,0.06403,0.7044,0.06404,1.1847v4.0663c-0.000009,0.4376-0.10006,0.7684-0.30017,0.9925-0.20012,0.2242-0.46027,0.3362-0.78044,0.3362-0.32552,0-0.58967-0.1147-0.79245-0.3442-0.20279-0.2294-0.30418-0.5576-0.30417-0.9845v-3.6421c-0.000007-0.7204-0.10006-1.2714-0.30017-1.6529-0.20012-0.3815-0.59901-0.5723-1.1967-0.5723-0.38956,0-0.74442,0.116-1.0646,0.3482-0.32018,0.2321-0.55498,0.5509-0.7044,0.9565-0.10673,0.3255-0.16009,0.9339-0.16009,1.825v2.7376c-0.000003,0.4429-0.10273,0.7751-0.30817,0.9965-0.20545,0.2215-0.47093,0.3322-0.79645,0.3322-0.31485,0-0.57366-0.1147-0.77644-0.3442-0.20278-0.2294-0.30417-0.5576-0.30417-0.9845v-6.3156c-0.000001-0.4162,0.09072-0.7271,0.27215-0.9325s0.42957-0.3082,0.74442-0.3082c0.1921,0,0.36554,0.045,0.52029,0.1361,0.15475,0.091,0.27882,0.2268,0.37221,0.4082,0.09338,0.1815,0.14008,0.4029,0.14008,0.6644z"/>
   <path style="" d="m21.692,1045.8,0-9.4774c-0.000001-0.4375,0.09739-0.7684,0.29216-0.9925s0.45759-0.3362,0.78844-0.3362,0.59767,0.1107,0.80045,0.3322c0.20278,0.2214,0.30417,0.5536,0.30417,0.9965v9.4774c-0.000003,0.4429-0.10273,0.7751-0.30817,0.9965-0.20545,0.2215-0.47093,0.3322-0.79645,0.3322-0.32018,0-0.58033-0.1147-0.78044-0.3442-0.20011-0.2294-0.30017-0.5576-0.30017-0.9845z"/>
   <path style="" d="m31.665,1045.9c-0.5283,0.4109-1.0393,0.7191-1.5329,0.9245-0.49362,0.2055-1.0473,0.3082-1.6609,0.3082-0.56032,0-1.0526-0.1107-1.4768-0.3322-0.42424-0.2214-0.75109-0.5216-0.98055-0.9005s-0.34419-0.7897-0.34419-1.2327c-0.000001-0.5976,0.18944-1.1073,0.56832-1.5288,0.37888-0.4216,0.89917-0.7044,1.5609-0.8485,0.13874-0.032,0.48294-0.1041,1.0326-0.2161,0.54964-0.1121,1.0206-0.2148,1.4128-0.3082,0.39222-0.093,0.81779-0.2068,1.2767-0.3402-0.02669-0.5763-0.14275-0.9992-0.3482-1.2687-0.20546-0.2695-0.63103-0.4042-1.2767-0.4042-0.55498,0-0.97255,0.077-1.2527,0.2321-0.28016,0.1548-0.5203,0.3869-0.72041,0.6964-0.20012,0.3095-0.34153,0.5136-0.42424,0.6123-0.08272,0.099-0.26015,0.1481-0.5323,0.1481-0.24547,0-0.45759-0.079-0.63636-0.2361-0.17877-0.1574-0.26815-0.3589-0.26815-0.6044-0.000002-0.3842,0.13608-0.7577,0.40823-1.1206s0.69639-0.6617,1.2727-0.8965c0.57632-0.2348,1.2941-0.3522,2.1532-0.3522,0.96054,0,1.7156,0.1134,2.2653,0.3402,0.54964,0.2268,0.93785,0.5857,1.1647,1.0766,0.22679,0.491,0.34018,1.142,0.34019,1.9531-0.000008,0.5123-0.0013,0.9472-0.004,1.3047-0.0027,0.3576-0.0067,0.7551-0.01201,1.1927-0.000008,0.4109,0.06803,0.8392,0.20412,1.2847,0.13607,0.4456,0.20411,0.7324,0.20412,0.8605-0.000009,0.2241-0.1054,0.4283-0.31618,0.6124-0.21079,0.1841-0.4496,0.2761-0.7164,0.2761-0.22413,0-0.44559-0.1054-0.66437-0.3162-0.2188-0.2107-0.45093-0.5162-0.69639-0.9165zm-0.14408-3.1618c-0.32019,0.1175-0.78578,0.2415-1.3968,0.3723-0.61102,0.1307-1.0339,0.2268-1.2687,0.2881-0.2348,0.061-0.45893,0.1815-0.67238,0.3602-0.21346,0.1788-0.32018,0.4283-0.32018,0.7484-0.000002,0.3309,0.1254,0.6124,0.37621,0.8445,0.2508,0.2322,0.57899,0.3482,0.98455,0.3482,0.43224,0,0.83113-0.095,1.1967-0.2841,0.36553-0.1895,0.63368-0.4336,0.80445-0.7325,0.19744-0.3308,0.29616-0.8751,0.29617-1.6329z"/>
   <path style="" d="m38.045,1044,0,1.8251c-0.000003,0.4429-0.10406,0.7751-0.31218,0.9965-0.20812,0.2215-0.47227,0.3322-0.79245,0.3322-0.31484,0-0.57366-0.112-0.77644-0.3362-0.20278-0.2241-0.30417-0.5549-0.30417-0.9925v-6.0835c-0.000001-0.9818,0.35486-1.4728,1.0646-1.4728,0.36287,0,0.62435,0.1148,0.78444,0.3442,0.16009,0.2295,0.24814,0.5683,0.26415,1.0166,0.26148-0.4483,0.52963-0.7871,0.80445-1.0166,0.27482-0.2294,0.64169-0.3442,1.1006-0.3442,0.45892,0,0.9045,0.1148,1.3368,0.3442,0.43224,0.2295,0.64836,0.5337,0.64836,0.9125-0.000007,0.2669-0.09206,0.487-0.27616,0.6604-0.18411,0.1734-0.38289,0.2602-0.59634,0.2601-0.08005,0.0001-0.27349-0.049-0.58033-0.148s-0.57766-0.1481-0.81246-0.1481c-0.32018,0-0.58166,0.084-0.78444,0.2521s-0.36021,0.4176-0.47227,0.7484c-0.11207,0.3309-0.18944,0.7245-0.23213,1.1807-0.04269,0.4563-0.06404,1.0126-0.06404,1.6689z"/>
   <path style="" d="m51.084,1039.8,0,6.3476c-0.000009,0.7257-0.07739,1.3501-0.23213,1.873-0.15476,0.523-0.4029,0.9553-0.74442,1.2968-0.34153,0.3415-0.78845,0.595-1.3408,0.7604-0.55232,0.1654-1.2394,0.2481-2.0612,0.2481-0.75243,0-1.4248-0.1054-2.0171-0.3161-0.59234-0.2108-1.0486-0.483-1.3688-0.8165-0.32018-0.3335-0.48027-0.6764-0.48027-1.0286-0.000001-0.2668,0.09072-0.4842,0.27215-0.6523s0.40022-0.2522,0.65637-0.2522c0.32018,0,0.60034,0.1414,0.84047,0.4243,0.1174,0.144,0.2388,0.2895,0.3642,0.4362,0.1254,0.1468,0.26414,0.2722,0.41623,0.3762,0.15208,0.1041,0.33485,0.1814,0.54831,0.2321,0.21345,0.051,0.45892,0.076,0.73641,0.076,0.56565,0,1.0046-0.079,1.3167-0.2361,0.31217-0.1575,0.53096-0.3776,0.65637-0.6604,0.1254-0.2828,0.19877-0.5857,0.22012-0.9085,0.02134-0.3229,0.03735-0.8418,0.04803-1.5569-0.3362,0.4696-0.72441,0.8271-1.1647,1.0726-0.44025,0.2455-0.96455,0.3682-1.5729,0.3682-0.73108,0-1.3701-0.1868-1.9171-0.5603-0.54698-0.3736-0.96721-0.8965-1.2607-1.5689-0.2935-0.6724-0.44025-1.4488-0.44025-2.3293,0-0.6564,0.08938-1.2487,0.26815-1.777s0.43358-0.9739,0.76443-1.3368c0.33085-0.3628,0.7124-0.6363,1.1446-0.8204,0.43224-0.1841,0.90717-0.2762,1.4248-0.2762,0.61901,0,1.1553,0.1188,1.6089,0.3562,0.45358,0.2375,0.87515,0.6097,1.2647,1.1167v-0.2962c-0.000007-0.3789,0.09338-0.6724,0.28016-0.8805,0.18676-0.2081,0.4269-0.3122,0.72041-0.3122,0.42156,0,0.70172,0.1374,0.84047,0.4123,0.13874,0.2748,0.20811,0.671,0.20812,1.1886zm-6.3316,2.7696c-0.000003,0.8858,0.19344,1.5555,0.58033,2.0091,0.38688,0.4536,0.88716,0.6804,1.5008,0.6804,0.36286,0,0.70572-0.097,1.0286-0.2922,0.32284-0.1947,0.58566-0.4882,0.78844-0.8805,0.20277-0.3922,0.30416-0.8685,0.30417-1.4288-0.000007-0.8911-0.19612-1.5849-0.58833-2.0811-0.39223-0.4963-0.90852-0.7445-1.5489-0.7445-0.62436,0-1.1246,0.2375-1.5008,0.7124-0.37622,0.475-0.56432,1.15-0.56432,2.0252z"/>
   <path style="" d="m59.393,1043.2-4.2744,0c0.0053,0.4963,0.10539,0.9339,0.30017,1.3128,0.19477,0.3788,0.45358,0.6643,0.77644,0.8564,0.32284,0.1922,0.67904,0.2882,1.0686,0.2882,0.26148,0,0.50028-0.031,0.7164-0.092s0.42557-0.1575,0.62835-0.2882c0.20277-0.1307,0.38955-0.2708,0.56032-0.4202,0.17076-0.1495,0.39221-0.3522,0.66437-0.6084,0.11206-0.096,0.27214-0.1441,0.48027-0.1441,0.22412,0,0.40555,0.061,0.54431,0.1841,0.13874,0.1228,0.20811,0.2962,0.20812,0.5203-0.000009,0.1975-0.07739,0.4283-0.23213,0.6924-0.15476,0.2642-0.38823,0.5176-0.70039,0.7604-0.31218,0.2428-0.7044,0.4443-1.1767,0.6044-0.47227,0.1601-1.0152,0.2401-1.6289,0.2401-1.4035,0-2.4947-0.4002-3.2738-1.2007-0.77911-0.8004-1.1687-1.8863-1.1687-3.2578-0.000001-0.6457,0.09605-1.2447,0.28816-1.797s0.47226-1.0259,0.84047-1.4208c0.3682-0.3949,0.82179-0.6977,1.3608-0.9085,0.53897-0.2108,1.1366-0.3162,1.793-0.3162,0.85381,0,1.5862,0.1801,2.1972,0.5403s1.0686,0.8258,1.3728,1.3968c0.30416,0.571,0.45625,1.1527,0.45626,1.745-0.000009,0.5496-0.15743,0.9058-0.47227,1.0686-0.31485,0.1627-0.75777,0.2441-1.3287,0.2441zm-4.2744-1.2407,3.9622,0c-0.05337-0.7471-0.25482-1.306-0.60434-1.6769-0.34954-0.3709-0.80979-0.5563-1.3808-0.5563-0.54431,0-0.99123,0.1881-1.3408,0.5643-0.34953,0.3762-0.56165,0.9325-0.63636,1.6689z"/>
  </g>
 </g>
</svg>
