<?xml version="1.0" encoding="UTF-8" standalone="no"?>
<!-- Created with Inkscape (http://www.inkscape.org/) -->

<svg
   xmlns:dc="http://purl.org/dc/elements/1.1/"
   xmlns:cc="http://creativecommons.org/ns#"
   xmlns:rdf="http://www.w3.org/1999/02/22-rdf-syntax-ns#"
   xmlns:svg="http://www.w3.org/2000/svg"
   xmlns="http://www.w3.org/2000/svg"
   xmlns:sodipodi="http://sodipodi.sourceforge.net/DTD/sodipodi-0.dtd"
   xmlns:inkscape="http://www.inkscape.org/namespaces/inkscape"
   width="40"
   height="40"
   id="svg2"
   version="1.1"
   inkscape:version="0.48.4 r9939"
   sodipodi:docname="Gear.svg">
  <defs
     id="defs4" />
  <sodipodi:namedview
     id="base"
     pagecolor="#ffffff"
     bordercolor="#666666"
     borderopacity="1.0"
     inkscape:pageopacity="0.0"
     inkscape:pageshadow="2"
     inkscape:zoom="7.9195959"
     inkscape:cx="26.463965"
     inkscape:cy="19.888233"
     inkscape:document-units="px"
     inkscape:current-layer="layer1"
     showgrid="false"
     inkscape:window-width="1366"
     inkscape:window-height="705"
     inkscape:window-x="-8"
     inkscape:window-y="-8"
     inkscape:window-maximized="1" />
  <metadata
     id="metadata7">
    <rdf:RDF>
      <cc:Work
         rdf:about="">
        <dc:format>image/svg+xml</dc:format>
        <dc:type
           rdf:resource="http://purl.org/dc/dcmitype/StillImage" />
        <dc:title />
      </cc:Work>
    </rdf:RDF>
  </metadata>
  <g
     inkscape:label="Layer 1"
     inkscape:groupmode="layer"
     id="layer1"
     transform="translate(0,-1012.3622)">
    <path
       style="fill:#808080;fill-opacity:1;stroke:#808080;stroke-width:0.06127451;stroke-opacity:1"
       d="m 10.516096,1016.6616 c -0.367962,0.2593 -0.8547368,0.405 -1.1573563,0.7305 -0.087109,0.3469 0.1738202,0.7017 0.2442045,1.0423 0.1668766,0.759 0.8206118,1.2497 1.2453298,1.8655 0.459241,0.5644 0.901821,1.1432 1.391167,1.6791 0.301108,0.192 0.425278,-0.2051 0.337868,-0.4382 -0.09312,-0.7325 -0.108512,-1.4929 -0.288052,-2.2036 -0.521171,-0.8731 -0.995034,-1.7874 -1.545793,-2.6347 -0.05738,-0.085 -0.144659,-0.045 -0.227368,-0.041 z"
       id="path3264"
       inkscape:connector-curvature="0" />
    <path
       style="fill:#808080;fill-opacity:1;stroke:#808080;stroke-width:0.06127451;stroke-opacity:1"
       d="m 12.302631,1015.6525 c -0.399348,0.238 -0.890712,0.3931 -1.194854,0.7544 -0.08401,0.358 0.301343,0.6296 0.414102,0.9473 0.524022,0.8542 0.910374,1.8463 1.786918,2.4102 0.471752,0.3186 0.886621,0.7543 1.406517,0.9853 0.425746,-0.1387 0.03278,-0.5958 -0.01764,-0.8692 -0.413555,-1.0243 -0.760711,-2.0881 -1.22475,-3.0854 -0.354278,-0.3565 -0.631072,-0.8386 -1.033174,-1.1248 -0.04533,-0.031 -0.08567,-0.036 -0.137122,-0.018 z"
       id="path3266"
       inkscape:connector-curvature="0" />
    <path
       style="fill:#808080;fill-opacity:1;stroke:#808080;stroke-width:0.06127451;stroke-opacity:1"
       d="m 12.834952,1020.07 c -0.154398,0.3886 0.05267,0.8313 0.04943,1.2384 0.07656,0.4292 0.05845,0.8811 0.21099,1.2892 0.296671,0.2888 0.63106,-0.1745 0.900585,-0.2904 0.329406,-0.2492 0.769802,-0.3494 1.065943,-0.6383 -0.01429,-0.3827 -0.524372,-0.4911 -0.755208,-0.7484 -0.44537,-0.2944 -0.836789,-0.7006 -1.328124,-0.9099 -0.04788,0.02 -0.09574,0.04 -0.143613,0.06 z"
       id="path3268"
       inkscape:connector-curvature="0" />
    <path
       style="fill:#808080;fill-opacity:1;stroke:#808080;stroke-width:0.06127451;stroke-opacity:1"
       d="m 19.632593,1021.0351 c -1.793358,-0.031 -3.585379,0.49 -5.104057,1.4414 -1.450894,0.7892 -2.833888,1.8018 -3.705448,3.2359 -0.873731,1.3759 -1.7349567,2.8189 -1.9862964,4.4564 -0.2104914,1.2133 -0.1264989,2.457 -0.099257,3.682 0.1307216,1.4838 0.684368,2.8945 1.4664444,4.1516 0.849163,1.5707 2.05908,2.9954 3.647612,3.8599 1.164808,0.7235 2.397588,1.3775 3.759465,1.6314 1.229174,0.2766 2.504542,0.1877 3.754222,0.1635 1.515718,-0.1376 2.951926,-0.7038 4.245409,-1.4901 1.378606,-0.7488 2.675507,-1.7253 3.511794,-3.0771 0.946061,-1.4619 1.849973,-3.021 2.083655,-4.7767 0.150615,-1.1985 0.110394,-2.4129 0.04372,-3.616 -0.213574,-1.9967 -1.256035,-3.7719 -2.366466,-5.3996 -1.115492,-1.6193 -2.900085,-2.5871 -4.609254,-3.4469 -1.396045,-0.6503 -2.947188,-0.8871 -4.48261,-0.8165 -0.05298,2e-4 -0.105955,5e-4 -0.158934,0 z m 2.397365,1.1565 c 0.702091,0.1711 1.452249,0.2258 2.124079,0.47 1.103144,0.7552 2.254413,1.4594 3.330801,2.2407 0.759767,1.1684 1.580064,2.3114 2.304444,3.4941 0.250892,1.3448 0.565765,2.6897 0.776485,4.0345 -0.281497,1.3325 -0.504728,2.6893 -0.824331,4.0063 -0.786062,1.1492 -1.525763,2.3449 -2.33973,3.466 -1.139238,0.7374 -2.253881,1.5342 -3.407859,2.2357 -1.367576,0.2526 -2.720603,0.5921 -4.098923,0.7577 -1.335702,-0.2381 -2.679049,-0.4885 -3.993641,-0.8056 -1.139744,-0.7763 -2.320293,-1.5098 -3.431506,-2.3149 -0.746811,-1.1522 -1.552768,-2.2803 -2.2622,-3.4481 -0.2456495,-1.3423 -0.5546589,-2.6846 -0.7616283,-4.0268 0.2771395,-1.3368 0.4938527,-2.6982 0.8073633,-4.0197 0.778686,-1.1386 1.512564,-2.3192 2.316703,-3.4316 1.152484,-0.7465 2.275322,-1.5553 3.442369,-2.2662 1.350592,-0.2533 2.701184,-0.5708 4.051777,-0.7841 0.655265,0.1307 1.310531,0.2613 1.965797,0.392 z"
       id="path3270"
       inkscape:connector-curvature="0" />
    <path
       style="fill:#808080;fill-opacity:1;stroke:#808080;stroke-width:0.06127451;stroke-opacity:1"
       d="m 19.860458,1018.2087 c -0.384146,0.7048 -0.689605,1.4619 -0.978478,2.2117 0.05532,0.4183 0.604641,0.1934 0.886564,0.2592 0.418186,-0.038 0.895026,0.083 1.277192,-0.1137 0.159022,-0.3113 -0.179542,-0.623 -0.240982,-0.9267 -0.216303,-0.4762 -0.389981,-0.9767 -0.658987,-1.4247 -0.105422,-0.069 -0.176306,-0.067 -0.285309,-0.01 z"
       id="path3272"
       inkscape:connector-curvature="0" />
    <path
       style="fill:#808080;fill-opacity:1;stroke:#808080;stroke-width:0.06127451;stroke-opacity:1"
       d="m 20.228105,1014.1072 c -0.148537,0.5231 -0.02046,1.1036 -0.06319,1.6487 0.0556,0.68 -0.15584,1.4155 0.207458,2.0353 0.277371,0.6155 0.493952,1.2634 0.82272,1.8498 0.375285,0.2101 0.396589,-0.3287 0.429599,-0.5689 0.163941,-1.1567 0.399983,-2.314 0.506987,-3.4722 -0.132855,-0.4689 -0.104222,-1.0078 -0.337242,-1.4372 -0.391916,-0.2306 -0.899521,-0.058 -1.33272,-0.1149 -0.08583,-0.018 -0.157084,0.03 -0.233609,0.059 z"
       id="path3274"
       inkscape:connector-curvature="0" />
    <path
       style="fill:#808080;fill-opacity:1;stroke:#808080;stroke-width:0.06127451;stroke-opacity:1"
       d="m 18.975807,1014.0632 c -0.316033,0.042 -0.898199,-0.1302 -0.885537,0.3645 -0.09712,0.6405 -0.341033,1.2805 -0.137254,1.9258 0.178045,1.067 0.318668,2.1436 0.517276,3.2053 0.17252,0.2637 0.465053,0 0.498318,-0.2263 0.288838,-0.7161 0.660293,-1.4172 0.874614,-2.1539 -0.016,-0.9932 0.03156,-1.999 -0.02341,-2.9844 -0.144187,-0.2896 -0.58303,-0.08 -0.844008,-0.131 z"
       id="path3276"
       inkscape:connector-curvature="0" />
    <path
       style="fill:#808080;fill-opacity:1;stroke:#808080;stroke-width:0.06127451;stroke-opacity:1"
       d="m 19.536852,1012.8855 c -0.441629,-0.028 -0.9668,0.066 -1.185279,0.4979 -0.03169,0.4251 0.530373,0.3006 0.796554,0.3369 0.77792,-0.018 1.571673,0.068 2.339934,-0.052 0.359997,-0.21 -0.04334,-0.6875 -0.352328,-0.7123 -0.523334,-0.1051 -1.067909,-0.063 -1.598881,-0.071 z"
       id="path3278"
       inkscape:connector-curvature="0" />
    <path
       style="fill:#808080;fill-opacity:1;stroke:#808080;stroke-width:0.06127451;stroke-opacity:1"
       d="m 27.537004,1015.6908 c -0.415033,0.3809 -0.789428,0.8159 -1.111692,1.273 -0.447945,1.1715 -0.920207,2.3362 -1.348862,3.5121 -0.02842,0.3659 0.385981,0.2738 0.536227,0.079 0.617407,-0.4747 1.29359,-0.9032 1.851513,-1.4402 0.482676,-0.8694 1.025669,-1.7182 1.471326,-2.6003 -0.01549,-0.3579 -0.533124,-0.4023 -0.76999,-0.6093 -0.198906,-0.066 -0.404028,-0.3319 -0.628522,-0.2146 z"
       id="path3280"
       inkscape:connector-curvature="0" />
    <path
       style="fill:#808080;fill-opacity:1;stroke:#808080;stroke-width:0.06127451;stroke-opacity:1"
       d="m 29.31205,1016.7075 c -0.482044,0.5433 -0.767071,1.2487 -1.156342,1.8633 -0.258493,0.4564 -0.592426,0.8924 -0.561748,1.4455 -0.04143,0.6283 -0.215045,1.2635 -0.175675,1.89 0.153446,0.3197 0.483207,0.023 0.585937,-0.1781 0.74335,-0.9223 1.49741,-1.8395 2.215456,-2.7803 0.133489,-0.4949 0.411318,-1.0078 0.44807,-1.5013 -0.126944,-0.2914 -0.566672,-0.3774 -0.831035,-0.5706 -0.168573,-0.062 -0.332626,-0.243 -0.524663,-0.1685 z"
       id="path3282"
       inkscape:connector-curvature="0" />
    <path
       style="fill:#808080;fill-opacity:1;stroke:#808080;stroke-width:0.06127451;stroke-opacity:1"
       d="m 28.413995,1014.965 c -0.27581,-0.044 -0.532816,0.305 -0.260416,0.4921 0.781449,0.534 1.611705,1.0194 2.473958,1.4113 0.362985,0.07 0.339157,-0.4029 0.17042,-0.5955 -0.312318,-0.5006 -0.928803,-0.6838 -1.404216,-0.9917 -0.304803,-0.1538 -0.629838,-0.3215 -0.979746,-0.3162 z"
       id="path3284"
       inkscape:connector-curvature="0" />
    <path
       style="fill:#808080;fill-opacity:1;stroke:#808080;stroke-width:0.06127451;stroke-opacity:1"
       d="m 26.924259,1020.0241 c -0.671144,0.4653 -1.362018,0.9367 -1.953125,1.4993 -0.07471,0.4048 0.487293,0.4176 0.723805,0.605 0.362697,0.1573 0.65167,0.4782 1.035922,0.5783 0.369596,-0.1156 0.204768,-0.6272 0.319776,-0.9134 0.05155,-0.5474 0.176169,-1.0983 0.164676,-1.6467 -0.03017,-0.091 -0.180912,-0.1856 -0.291054,-0.1225 z"
       id="path3286"
       inkscape:connector-curvature="0" />
    <path
       style="fill:#808080;fill-opacity:1;stroke:#808080;stroke-width:0.06127451;stroke-opacity:1"
       d="m 31.998554,1025.1596 c -0.75179,0.071 -1.510249,0.1285 -2.251838,0.268 -0.334603,0.2617 0.144091,0.5848 0.252757,0.8464 0.268858,0.3591 0.373703,0.8255 0.677849,1.1508 0.366633,-0.01 0.48614,-0.4852 0.730449,-0.7073 0.302708,-0.4505 0.724982,-0.8412 0.914389,-1.3511 -0.02046,-0.1709 -0.172488,-0.2312 -0.323606,-0.2068 z"
       id="path3288"
       inkscape:connector-curvature="0" />
    <path
       style="fill:#808080;fill-opacity:1;stroke:#808080;stroke-width:0.06127451;stroke-opacity:1"
       d="m 34.742503,1021.6823 c -0.727382,0.2366 -1.468327,0.4853 -2.041207,1.0167 -0.801999,0.6562 -1.651297,1.2672 -2.40311,1.9742 -0.103411,0.4017 0.424087,0.3132 0.663985,0.2625 0.728622,-0.1241 1.499637,-0.11 2.196717,-0.365 0.822737,-0.489 1.69527,-0.9268 2.481191,-1.4618 0.167771,-0.2719 -0.184086,-0.5498 -0.267598,-0.8043 -0.162389,-0.224 -0.283423,-0.6611 -0.629978,-0.6223 z"
       id="path3290"
       inkscape:connector-curvature="0" />
    <path
       style="fill:#808080;fill-opacity:1;stroke:#808080;stroke-width:0.06127451;stroke-opacity:1"
       d="m 35.83204,1023.4439 c -0.930177,0.4857 -1.844295,1.014 -2.73629,1.5625 -0.45861,0.6622 -1.013605,1.2666 -1.418887,1.9608 -0.08727,0.3349 0.358676,0.3391 0.549836,0.1917 1.104118,-0.4173 2.209413,-0.8411 3.300883,-1.2889 0.379061,-0.3641 0.85374,-0.65 1.154641,-1.0857 -0.01736,-0.4036 -0.35234,-0.7383 -0.510379,-1.1029 -0.06168,-0.124 -0.180584,-0.2891 -0.339804,-0.2375 z"
       id="path3292"
       inkscape:connector-curvature="0" />
    <path
       style="fill:#808080;fill-opacity:1;stroke:#808080;stroke-width:0.06127451;stroke-opacity:1"
       d="m 35.763106,1021.4716 c -0.370749,0.031 -0.249689,0.4838 -0.09383,0.6817 0.42033,0.694 0.755042,1.4616 1.28485,2.0776 0.272554,0.2139 0.509773,-0.1419 0.438496,-0.4117 -0.08258,-0.6984 -0.56949,-1.2688 -0.917203,-1.8574 -0.17038,-0.2298 -0.390888,-0.5163 -0.712316,-0.4902 z"
       id="path3294"
       inkscape:connector-curvature="0" />
    <path
       style="fill:#808080;fill-opacity:1;stroke:#808080;stroke-width:0.06127451;stroke-opacity:1"
       d="m 34.656336,1030.5173 c -0.660301,0.1349 -1.363189,0.1516 -1.997204,0.3594 -0.225774,0.3916 0.443382,0.4392 0.678343,0.5923 0.634608,0.2385 1.242811,0.5848 1.893309,0.7583 0.987413,-0.015 1.987484,0.034 2.967166,-0.02 0.300652,-0.1926 0.08564,-0.662 0.150174,-0.9703 0.02064,-0.3294 0.0673,-0.8395 -0.413803,-0.787 -0.683241,-0.1008 -1.367417,-0.3382 -2.053909,-0.1253 -0.408025,0.064 -0.816051,0.1282 -1.224076,0.1923 z"
       id="path3296"
       inkscape:connector-curvature="0" />
    <path
       style="fill:#808080;fill-opacity:1;stroke:#808080;stroke-width:0.06127451;stroke-opacity:1"
       d="m 34.966537,1032.5681 c -0.731783,0.3384 -1.521719,0.5779 -2.205881,1.0053 -0.221494,0.35 0.30775,0.4151 0.54241,0.4229 1.10472,0.1592 2.205692,0.3792 3.314053,0.4924 0.564064,-0.09 1.166782,-0.1263 1.690794,-0.3428 0.0779,-0.4663 0.04479,-0.9736 0.01681,-1.443 -0.195228,-0.302 -0.669166,-0.085 -0.979964,-0.1511 -0.791948,0.01 -1.589401,-0.024 -2.378217,0.016 z"
       id="path3298"
       inkscape:connector-curvature="0" />
    <path
       style="fill:#808080;fill-opacity:1;stroke:#808080;stroke-width:0.06127451;stroke-opacity:1"
       d="m 31.835793,1031.3004 c -0.240504,0.3118 -0.0849,0.7739 -0.139911,1.1432 0.07007,0.3299 -0.167686,0.8484 0.169813,1.0411 0.715691,-0.1957 1.407391,-0.5808 2.113816,-0.8486 0.462533,-0.063 0.305589,-0.565 -0.08957,-0.5804 -0.634174,-0.2614 -1.257999,-0.5522 -1.902873,-0.7839 -0.05042,0.01 -0.100848,0.019 -0.151272,0.029 z"
       id="path3300"
       inkscape:connector-curvature="0" />
    <path
       style="fill:#808080;fill-opacity:1;stroke:#808080;stroke-width:0.06127451;stroke-opacity:1"
       d="m 38.989592,1030.726 c -0.434087,0 -0.253126,0.5797 -0.309723,0.8616 0.0047,0.7634 -0.05896,1.5446 0.06463,2.2979 0.260519,0.3234 0.593858,-0.1449 0.679764,-0.4022 0.100198,-0.7044 0.06762,-1.4319 0.02298,-2.1407 -0.0454,-0.2461 -0.227081,-0.5239 -0.457643,-0.6166 z"
       id="path3302"
       inkscape:connector-curvature="0" />
    <path
       style="fill:#808080;fill-opacity:1;stroke:#808080;stroke-width:0.06127451;stroke-opacity:1"
       d="m 36.933066,1040.4016 c -0.510543,0.8371 -1.001319,1.6952 -1.483992,2.5506 -0.02902,0.4359 0.589037,0.3477 0.779335,0.1053 0.500567,-0.5584 0.859081,-1.2448 1.141238,-1.9359 0.102203,-0.2679 -0.03355,-0.9538 -0.436581,-0.72 z"
       id="path3304"
       inkscape:connector-curvature="0" />
    <path
       style="fill:#808080;fill-opacity:1;stroke:#808080;stroke-width:0.06127451;stroke-opacity:1"
       d="m 30.552858,1039.7429 c -0.336214,0.053 -0.199202,0.4533 0.02454,0.5637 0.923601,0.7722 1.867573,1.5243 2.817065,2.2626 0.484566,0.1618 0.957205,0.3702 1.449525,0.5017 0.365771,-0.1501 0.452142,-0.6218 0.679066,-0.9151 0.142646,-0.1982 0.298424,-0.5525 -0.03377,-0.6608 -0.842231,-0.4672 -1.65587,-1.0058 -2.519914,-1.4208 -0.796669,-0.1592 -1.61452,-0.234 -2.416513,-0.3313 z"
       id="path3306"
       inkscape:connector-curvature="0" />
    <path
       style="fill:#808080;fill-opacity:1;stroke:#808080;stroke-width:0.06127451;stroke-opacity:1"
       d="m 31.717074,1037.5236 c -0.189083,0.3329 0.27738,0.5928 0.39254,0.8713 0.371667,0.4618 0.677201,0.9979 1.102327,1.4075 0.884813,0.4902 1.739466,1.0547 2.645717,1.492 0.356862,-0.081 0.42035,-0.5608 0.629253,-0.8161 0.12686,-0.2203 0.337742,-0.5428 0.04979,-0.7354 -0.50063,-0.4463 -0.963333,-0.985 -1.641728,-1.1482 -1.012312,-0.3725 -2.003473,-0.8185 -3.034282,-1.1304 -0.04788,0.02 -0.09574,0.04 -0.143613,0.06 z"
       id="path3308"
       inkscape:connector-curvature="0" />
    <path
       style="fill:#808080;fill-opacity:1;stroke:#808080;stroke-width:0.06127451;stroke-opacity:1"
       d="m 30.627537,1037.3206 c -0.292952,0.5475 -0.586781,1.0979 -0.936352,1.6181 -0.16386,0.3267 0.253527,0.4491 0.499771,0.4327 0.665971,0.055 1.339914,0.2426 2.00674,0.18 0.344479,-0.2124 -0.07995,-0.5569 -0.211017,-0.768 -0.406343,-0.4925 -0.732576,-1.0806 -1.209786,-1.4972 -0.04978,0.012 -0.09957,0.023 -0.149356,0.034 z"
       id="path3310"
       inkscape:connector-curvature="0" />
    <path
       style="fill:#808080;fill-opacity:1;stroke:#808080;stroke-width:0.06127451;stroke-opacity:1"
       d="m 27.510196,1042.7531 c -0.235558,0.2727 -0.01405,0.6833 -0.035,1.0106 0.105202,0.5527 0.05573,1.1547 0.268481,1.6748 0.511958,0.8568 0.973382,1.7551 1.512966,2.5878 0.301628,0.1637 0.588597,-0.2321 0.873269,-0.334 0.264768,-0.1573 0.713388,-0.3234 0.497016,-0.6953 -0.212299,-0.6163 -0.324494,-1.2978 -0.823555,-1.7613 -0.682312,-0.8244 -1.314116,-1.6971 -2.057654,-2.4673 -0.07165,-0.062 -0.153711,-0.021 -0.235524,-0.015 z"
       id="path3312"
       inkscape:connector-curvature="0" />
    <path
       style="fill:#808080;fill-opacity:1;stroke:#808080;stroke-width:0.06127451;stroke-opacity:1"
       d="m 25.141554,1044.0417 c -0.168021,0.3356 0.180801,0.6813 0.237438,1.0149 0.387506,0.9508 0.706072,1.9422 1.144849,2.8651 0.340161,0.3741 0.634593,0.7796 1.003589,1.1235 0.373073,0.086 0.665421,-0.3104 0.996763,-0.4299 0.362795,-0.099 0.559674,-0.4482 0.24796,-0.7374 -0.469219,-0.7916 -0.903301,-1.6085 -1.39408,-2.3848 -0.676567,-0.4973 -1.320359,-1.0459 -2.025888,-1.4993 -0.07622,-0.04 -0.140518,0.03 -0.210631,0.048 z"
       id="path3314"
       inkscape:connector-curvature="0" />
    <path
       style="fill:#808080;fill-opacity:1;stroke:#808080;stroke-width:0.06127451;stroke-opacity:1"
       d="m 26.663842,1042.0292 c -0.542916,0.2885 -1.048709,0.6517 -1.61803,0.8943 -0.284968,0.2857 0.196883,0.5154 0.379137,0.6797 0.519764,0.3709 0.995032,0.834 1.563224,1.1207 0.429901,-0.07 0.169862,-0.6093 0.177354,-0.8852 -0.111784,-0.5797 -0.08006,-1.2112 -0.289139,-1.7597 -0.07017,-0.016 -0.136133,-0.091 -0.212546,-0.049 z"
       id="path3316"
       inkscape:connector-curvature="0" />
    <path
       style="fill:#808080;fill-opacity:1;stroke:#808080;stroke-width:0.06127451;stroke-opacity:1"
       d="m 30.665833,1047.8465 c -0.872219,0.3545 -1.675774,0.883 -2.470128,1.3901 -0.276058,0.1249 -0.161548,0.5276 0.137868,0.5018 0.715769,0.091 1.289116,-0.4773 1.887927,-0.7713 0.364188,-0.1838 0.767491,-0.5654 0.676027,-1.0076 -0.0678,-0.061 -0.129616,-0.1404 -0.231694,-0.113 z"
       id="path3318"
       inkscape:connector-curvature="0" />
    <path
       style="fill:#808080;fill-opacity:1;stroke:#808080;stroke-width:0.06127451;stroke-opacity:1"
       d="m 21.212326,1045.0758 c -0.411384,0.7504 -0.717399,1.5662 -1.041666,2.359 0.01307,1.0487 -0.03652,2.11 0.01766,3.151 0.186068,0.2967 0.643643,0.089 0.945497,0.1501 0.322736,0.027 0.807569,0.056 0.765302,-0.4071 0.15712,-0.6793 0.294814,-1.3777 0.126735,-2.0694 -0.181511,-1.0539 -0.280161,-2.1362 -0.523666,-3.1707 -0.09795,-0.078 -0.183219,-0.075 -0.289863,-0.013 z"
       id="path3320"
       inkscape:connector-curvature="0" />
    <path
       style="fill:#808080;fill-opacity:1;stroke:#808080;stroke-width:0.06127451;stroke-opacity:1"
       d="m 19.645997,1044.0437 c -0.254184,0.032 -0.838369,-0.1087 -0.742954,0.3274 0.309664,0.714 0.562112,1.4641 0.95167,2.1369 0.400484,0.2135 0.454822,-0.4141 0.618153,-0.6636 0.216524,-0.5094 0.467298,-1.0138 0.634145,-1.5423 -0.122719,-0.3905 -0.649985,-0.1961 -0.953582,-0.2591 -0.169138,0 -0.3383,0 -0.507432,7e-4 z"
       id="path3322"
       inkscape:connector-curvature="0" />
    <path
       style="fill:#808080;fill-opacity:1;stroke:#808080;stroke-width:0.06127451;stroke-opacity:1"
       d="m 18.518163,1045.1466 c -0.214328,0.5233 -0.20733,1.1297 -0.331102,1.6843 -0.09768,0.7612 -0.273812,1.5219 -0.318323,2.2841 0.133768,0.4898 0.111689,1.0431 0.337308,1.4984 0.36818,0.2411 0.864745,0.065 1.279105,0.1225 0.49299,0.075 0.339916,-0.5205 0.358073,-0.8195 -0.02793,-0.8502 0.05599,-1.7181 -0.03902,-2.5573 -0.327226,-0.7313 -0.582968,-1.5009 -0.979665,-2.1972 -0.08586,-0.098 -0.206233,-0.082 -0.306372,-0.015 z"
       id="path3324"
       inkscape:connector-curvature="0" />
    <path
       style="fill:#808080;fill-opacity:1;stroke:#808080;stroke-width:0.06127451;stroke-opacity:1"
       d="m 14.621487,1043.9958 c -0.704987,0.4878 -1.385169,1.0183 -2.050781,1.5586 -0.489057,0.8897 -1.063564,1.7451 -1.493565,2.6598 0.11918,0.3653 0.592165,0.4601 0.872998,0.6771 0.192363,0.1383 0.492802,0.2874 0.655034,0.027 0.444376,-0.516 0.999984,-0.9787 1.163916,-1.6685 0.380382,-1.0245 0.82472,-2.0301 1.153026,-3.0708 -0.01851,-0.1395 -0.16596,-0.2509 -0.300628,-0.1838 z"
       id="path3326"
       inkscape:connector-curvature="0" />
    <path
       style="fill:#808080;fill-opacity:1;stroke:#808080;stroke-width:0.06127451;stroke-opacity:1"
       d="m 12.241356,1042.7454 c -0.855515,0.9761 -1.65944,2.0066 -2.4605541,3.0293 -0.1537296,0.4884 -0.3591487,0.9655 -0.4576442,1.4686 0.1391737,0.3438 0.5879492,0.4176 0.8635883,0.6338 0.213106,0.1385 0.582716,0.3068 0.696997,-0.046 0.491521,-0.8561 1.001984,-1.7057 1.462929,-2.5773 0.07325,-0.8068 0.235179,-1.6158 0.237438,-2.4242 -0.04591,-0.1205 -0.222853,-0.1924 -0.342754,-0.084 z"
       id="path3328"
       inkscape:connector-curvature="0" />
    <path
       style="fill:#808080;fill-opacity:1;stroke:#808080;stroke-width:0.06127451;stroke-opacity:1"
       d="m 13.233237,1042.0542 c -0.33148,0.2006 -0.210197,0.6886 -0.306373,1.0148 -0.02717,0.5085 -0.176403,1.0132 -0.1551,1.5165 0.214333,0.344 0.545511,-0.083 0.762836,-0.2102 0.497916,-0.4047 1.082016,-0.733 1.520168,-1.1927 0.01396,-0.3654 -0.512755,-0.3864 -0.750602,-0.5885 -0.364818,-0.1351 -0.667699,-0.5601 -1.070929,-0.5399 z"
       id="path3330"
       inkscape:connector-curvature="0" />
    <path
       style="fill:#808080;fill-opacity:1;stroke:#808080;stroke-width:0.06127451;stroke-opacity:1"
       d="m 9.4667695,1039.7487 c -0.8185291,0.08 -1.6414325,0.17 -2.4509797,0.3025 -0.8716447,0.5266 -1.800043,0.9842 -2.6367186,1.5549 -0.1365115,0.3913 0.2619673,0.7464 0.411688,1.0857 0.114725,0.2493 0.3886563,0.4738 0.6548278,0.2849 0.6951452,-0.2063 1.3644268,-0.4977 1.9054266,-0.9932 0.7826171,-0.6437 1.6127628,-1.2414 2.343621,-1.938 0.0595,-0.1547 -0.064379,-0.3175 -0.2278651,-0.2968 z"
       id="path3332"
       inkscape:connector-curvature="0" />
    <path
       style="fill:#808080;fill-opacity:1;stroke:#808080;stroke-width:0.06127451;stroke-opacity:1"
       d="m 8.0861789,1037.4758 c -1.2145109,0.4097 -2.4093263,0.8915 -3.5979625,1.3691 -0.3973948,0.3899 -0.9105631,0.6882 -1.2331494,1.1374 0.1892448,0.4317 0.4422505,0.8597 0.7180606,1.2485 0.3288871,0.1781 0.6246025,-0.239 0.926093,-0.3368 0.6713816,-0.4153 1.4063486,-0.7552 2.0330757,-1.2266 0.4546019,-0.6376 1.0186289,-1.249 1.3855764,-1.9216 0.06451,-0.1604 -0.081302,-0.2861 -0.2316938,-0.27 z"
       id="path3334"
       inkscape:connector-curvature="0" />
    <path
       style="fill:#808080;fill-opacity:1;stroke:#808080;stroke-width:0.06127451;stroke-opacity:1"
       d="m 9.1565673,1037.2939 c -0.5173624,0.6362 -1.0317443,1.2979 -1.4763321,1.9876 -0.037965,0.4263 0.491647,0.2755 0.7448679,0.2546 0.6381583,-0.1109 1.320123,-0.088 1.9282319,-0.2929 0.107795,-0.3534 -0.322061,-0.6043 -0.4293928,-0.926 -0.2224057,-0.3331 -0.3279691,-0.7533 -0.6141881,-1.0329 -0.051059,0 -0.1021245,0.01 -0.1531868,0.01 z"
       id="path3336"
       inkscape:connector-curvature="0" />
    <path
       style="fill:#808080;fill-opacity:1;stroke:#808080;stroke-width:0.06127451;stroke-opacity:1"
       d="m 1.7232044,1032.6121 c -0.1470745,0.4449 -0.020903,0.9465 -0.063189,1.4132 0.1351787,0.358 0.6425629,0.232 0.9476656,0.3538 0.8012016,0.2441 1.6121924,-0.049 2.4160851,-0.124 0.7459556,-0.1425 1.5299974,-0.168 2.2524405,-0.3868 0.2060999,-0.3825 -0.3799043,-0.4638 -0.6058677,-0.6035 -0.589612,-0.2356 -1.1647402,-0.5494 -1.7742638,-0.712 -1.0269886,0.016 -2.0666273,-0.032 -3.0858861,0.023 l -0.056628,0.023 -0.030357,0.012 z"
       id="path3338"
       inkscape:connector-curvature="0" />
    <path
       style="fill:#808080;fill-opacity:1;stroke:#808080;stroke-width:0.06127451;stroke-opacity:1"
       d="m 2.5810474,1030.3565 c -0.305009,0.1198 -0.9583536,-0.018 -0.9210323,0.4633 0.034308,0.4465 -0.071891,0.9209 0.05936,1.3481 0.5142028,0.1484 1.0857504,0.021 1.6218595,0.063 0.6705716,-0.055 1.3964229,0.1557 2.0064445,-0.2078 0.6544574,-0.2937 1.3451494,-0.5336 1.9775993,-0.8599 0.270469,-0.4109 -0.4413163,-0.392 -0.6966207,-0.4437 -1.118383,-0.1542 -2.2358514,-0.3887 -3.3553537,-0.49 -0.2307521,0.043 -0.4615041,0.085 -0.6922562,0.1269 z"
       id="path3340"
       inkscape:connector-curvature="0" />
    <path
       style="fill:#808080;fill-opacity:1;stroke:#808080;stroke-width:0.06127451;stroke-opacity:1"
       d="m 8.0191594,1031.2449 c -0.7146107,0.3452 -1.5143943,0.5498 -2.1695002,0.9996 -0.2109196,0.3516 0.3306587,0.4406 0.5455141,0.5511 0.5822476,0.2187 1.1378869,0.5598 1.7369242,0.7023 0.3245269,-0.1675 0.1086084,-0.6426 0.173344,-0.9451 -0.031274,-0.418 0.073061,-0.8636 -0.058416,-1.2619 -0.077477,-0.031 -0.1415969,-0.086 -0.227865,-0.046 z"
       id="path3342"
       inkscape:connector-curvature="0" />
    <path
       style="fill:#808080;fill-opacity:1;stroke:#808080;stroke-width:0.06127451;stroke-opacity:1"
       d="m 4.0190834,1023.4611 c -0.2939312,0.3755 -0.5912466,0.8025 -0.7027419,1.2734 0.089517,0.3604 0.514067,0.5228 0.7486978,0.787 0.8089191,0.6664 1.8738679,0.8821 2.812808,1.3072 0.4671326,0.1391 0.9079596,0.4388 1.3902403,0.4793 0.3350893,-0.2372 -0.1143367,-0.5694 -0.2393773,-0.798 -0.4123123,-0.5236 -0.78125,-1.1156 -1.2515608,-1.5881 -0.8458277,-0.4885 -1.6893091,-1.0008 -2.5416905,-1.4665 -0.07478,-0.01 -0.149481,-0.053 -0.2163756,0.01 z"
       id="path3344"
       inkscape:connector-curvature="0" />
    <path
       style="fill:#808080;fill-opacity:1;stroke:#808080;stroke-width:0.06127451;stroke-opacity:1"
       d="m 5.0339424,1021.6727 c -0.280872,0.3664 -0.5324104,0.7909 -0.691253,1.2293 -0.041657,0.4009 0.5232874,0.4511 0.757996,0.6683 0.6864069,0.3661 1.3360205,0.8303 2.0467112,1.1339 0.81214,0.073 1.6252187,0.2765 2.4380922,0.2716 0.3385598,-0.1838 -0.037923,-0.5067 -0.2330519,-0.623 -0.9148175,-0.7395 -1.825571,-1.4881 -2.7579091,-2.2033 -0.5206758,-0.1388 -1.0272101,-0.4376 -1.5605854,-0.4768 z"
       id="path3346"
       inkscape:connector-curvature="0" />
    <path
       style="fill:#808080;fill-opacity:1;stroke:#808080;stroke-width:0.06127451;stroke-opacity:1"
       d="m 7.8832071,1025.1557 c -0.3335679,0.073 -0.138716,0.4564 0.022976,0.6205 0.4213135,0.5499 0.7896349,1.1713 1.2810575,1.6519 0.3601816,0.019 0.3857089,-0.5082 0.5782405,-0.7385 0.1747817,-0.391 0.4880029,-0.716 0.6299789,-1.1126 -0.200285,-0.3297 -0.7004531,-0.1687 -1.0294737,-0.2773 -0.4929393,-0.055 -0.9866801,-0.1328 -1.482781,-0.144 z"
       id="path3348"
       inkscape:connector-curvature="0" />
    <path
       style="fill:#808080;fill-opacity:1;stroke:#808080;stroke-width:0.06127451;stroke-opacity:1"
       d="m 4.1818439,1021.4659 c -0.6207406,0.1372 -0.8485299,0.8487 -1.1680452,1.3212 -0.2260761,0.4398 -0.6441997,1.0235 -0.2642463,1.4974 0.2960744,0.2875 0.4903298,-0.2307 0.6126555,-0.4374 0.3945473,-0.7149 0.8470095,-1.4151 1.2124298,-2.1334 0.067269,-0.2373 -0.2240732,-0.2774 -0.3927938,-0.2478 z"
       id="path3350"
       inkscape:connector-curvature="0" />
    <path
       style="fill:#808080;fill-opacity:1;stroke:#808080;stroke-width:0.06127451;stroke-opacity:1"
       d="m 0.96684726,1030.7547 c -0.57223344,0.3097 -0.42276403,1.0661 -0.46486457,1.6047 0.007005,0.5518 -0.0852624,1.298 0.47443872,1.6257 0.38597839,0.1061 0.33785529,-0.4088 0.34633959,-0.6434 -0.00811,-0.8095 0.086824,-1.6397 -0.0572,-2.4376 -0.042504,-0.1164 -0.179356,-0.1888 -0.29871323,-0.1494 z"
       id="path3352"
       inkscape:connector-curvature="0" />
    <path
       style="fill:#808080;fill-opacity:1;stroke:#808080;stroke-width:0.06127451;stroke-opacity:1"
       d="m 2.8433789,1040.4227 c -0.4171863,0.2056 -0.2283256,0.7836 -0.043747,1.0986 0.3200179,0.554 0.5680641,1.2013 1.073925,1.6128 0.2113932,0.1754 0.7926768,0.2194 0.6855085,-0.1819 -0.5020527,-0.8147 -0.9027509,-1.7055 -1.4782475,-2.4682 -0.065279,-0.058 -0.1522095,-0.076 -0.2374386,-0.061 z"
       id="path3354"
       inkscape:connector-curvature="0" />
    <path
       style="fill:#808080;fill-opacity:1;stroke:#808080;stroke-width:0.06127451;stroke-opacity:1"
       d="m 9.2733719,1047.8752 c -0.3723046,0.1392 -0.088591,0.5994 0.089997,0.787 0.5542723,0.4366 1.1876811,0.7868 1.8401501,1.0532 0.261547,0.062 0.788406,0.1035 0.77359,-0.2815 -0.25875,-0.3817 -0.758015,-0.532 -1.124569,-0.797 -0.507325,-0.2522 -0.9692036,-0.6498 -1.5293827,-0.7693 l -0.049782,0.01 z"
       id="path3356"
       inkscape:connector-curvature="0" />
    <path
       style="fill:#808080;fill-opacity:1;stroke:#808080;stroke-width:0.06127451;stroke-opacity:1"
       d="m 19.477492,1050.9983 c -0.348555,0.052 -0.821342,-0.096 -1.089538,0.1781 -0.139202,0.3206 0.311933,0.5428 0.568704,0.6185 0.707749,0.066 1.436616,0.078 2.142693,-0.01 0.255773,-0.085 0.719111,-0.3598 0.484452,-0.6568 -0.425217,-0.2277 -0.955111,-0.084 -1.420801,-0.1315 -0.228502,0 -0.457007,0 -0.68551,0 z"
       id="path3360"
       inkscape:connector-curvature="0" />
    <path
       style="fill:#808080;fill-opacity:1;stroke:#808080;stroke-width:0.06127451;stroke-opacity:1"
       d="m 18.029882,1022.5095 c -0.681404,0.164 -1.401169,0.2254 -2.059489,0.4516 -1.068039,0.7311 -2.161924,1.4308 -3.213948,2.1813 -0.73808,1.1185 -1.51406,2.2169 -2.226946,3.349 -0.249857,1.3033 -0.5367564,2.6024 -0.7640162,3.9082 0.2652952,1.2901 0.4856182,2.5943 0.7793352,3.8756 0.760526,1.1176 1.488208,2.2621 2.267156,3.3644 1.088854,0.7203 2.158095,1.4771 3.259038,2.1752 1.305438,0.2484 2.600129,0.5749 3.913909,0.7621 1.340109,-0.2153 2.673816,-0.4919 3.998162,-0.7813 1.098969,-0.7553 2.223774,-1.4792 3.306908,-2.2537 0.722762,-1.1054 1.484212,-2.19 2.184819,-3.3069 0.237871,-1.286 0.558435,-2.5672 0.731465,-3.8584 -0.198568,-1.3175 -0.464561,-2.629 -0.744869,-3.9292 -0.748802,-1.1035 -1.459697,-2.2361 -2.226945,-3.3242 -1.123313,-0.7392 -2.225413,-1.5179 -3.360524,-2.2346 -1.303673,-0.2505 -2.603439,-0.5416 -3.910079,-0.764 -0.644658,0.1283 -1.289318,0.2566 -1.933976,0.3849 z m 1.78079,0.4959 c 1.13705,-0.045 2.278749,0.093 3.331801,0.5113 2.779413,0.9781 5.059853,3.323 5.856177,6.1639 0.464562,1.5012 0.482799,3.1323 0.185106,4.6721 -0.582416,2.7238 -2.450241,5.1591 -4.96515,6.3975 -1.308595,0.6648 -2.776656,1.0289 -4.248979,0.9666 -2.329828,0.089 -4.627003,-0.8874 -6.332362,-2.4564 -2.083668,-1.8882 -3.229631,-4.7534 -2.996705,-7.5559 0.189936,-3.3998 2.419079,-6.6039 5.56066,-7.9236 1.144295,-0.5091 2.348712,-0.8076 3.609452,-0.7755 z"
       id="path3362"
       inkscape:connector-curvature="0" />
    <path
       style="fill:#808080;fill-opacity:1;stroke:#808080;stroke-width:0.06127451;stroke-opacity:1"
       d="m 19.818331,1023.3271 c -2.398843,-0.045 -4.74348,1.0626 -6.384037,2.7861 -1.747837,1.8349 -2.693107,4.415 -2.468214,6.947 0.165812,2.7661 1.75068,5.3592 4.053692,6.8742 1.193739,0.8342 2.628647,1.283 4.063265,1.4591 1.557101,0.044 3.174277,-0.028 4.589843,-0.7487 3.14842,-1.3561 5.376646,-4.6299 5.373008,-8.071 0.173529,-3.6156 -2.144171,-7.1836 -5.486773,-8.5374 -1.069167,-0.4852 -2.234807,-0.7512 -3.411434,-0.7112 -0.109789,0 -0.219579,0 -0.32935,0 z m 1.539522,2.1944 c 0.637962,0.1628 1.353862,0.1374 1.863618,0.6099 0.61526,0.4474 1.32038,0.8052 1.878681,1.3094 0.484665,0.7597 1.029594,1.4947 1.477707,2.2692 0.159257,0.9033 0.381339,1.8064 0.503395,2.7095 -0.15509,0.811 -0.310184,1.622 -0.465282,2.433 -0.662963,0.019 -1.345056,-0.1044 -1.996787,0.01 -0.528495,0.2106 -1.128541,0.2948 -1.608835,0.5917 -0.204745,0.7295 -0.627528,1.4309 -0.513421,2.2115 0.0084,0.4354 0.01488,0.8707 0.02131,1.3061 -0.876503,0.1565 -1.747066,0.3881 -2.623994,0.4914 -0.900547,-0.2006 -1.82471,-0.3473 -2.709921,-0.5849 -0.749895,-0.5218 -1.546663,-0.9977 -2.266969,-1.549 -0.493038,-0.7839 -1.044189,-1.5442 -1.500542,-2.343 -0.15671,-0.897 -0.38484,-1.7881 -0.504858,-2.6846 0.16001,-0.8084 0.320074,-1.6169 0.480212,-2.4254 0.662963,-0.019 1.345056,0.1045 1.996787,-0.01 0.528495,-0.2106 1.128541,-0.2948 1.608835,-0.5917 0.202929,-0.7322 0.629807,-1.4345 0.515316,-2.2173 -0.0076,-0.4334 -0.01661,-0.8669 -0.0232,-1.3002 0.858305,-0.1556 1.716277,-0.3765 2.574261,-0.4936 0.43123,0.086 0.862461,0.172 1.293692,0.258 z"
       id="path3364"
       inkscape:connector-curvature="0" />
    <path
       style="fill:#808080;fill-opacity:1;stroke:#808080;stroke-width:0.06127451;stroke-opacity:1"
       d="m 24.410089,1027.4172 c -0.292738,0.2158 -0.479504,0.5886 -0.593596,0.9287 0.123456,0.4161 0.5449,0.062 0.762101,-0.073 0.29982,-0.113 0.480966,-0.4734 0.181909,-0.7008 -0.08858,-0.093 -0.210943,-0.2013 -0.350414,-0.1551 z"
       id="path3366"
       inkscape:connector-curvature="0" />
    <path
       style="fill:#808080;fill-opacity:1;stroke:#808080;stroke-width:0.06127451;stroke-opacity:1"
       d="m 15.862296,1036.212 c -0.295067,0.1568 -0.631427,0.2953 -0.844439,0.5553 0.0348,0.2457 0.306357,0.558 0.578363,0.5347 0.279734,-0.1824 0.429483,-0.5524 0.553301,-0.8507 0.03401,-0.1539 -0.141658,-0.3035 -0.287225,-0.2393 z"
       id="path3368"
       inkscape:connector-curvature="0" />
    <path
       style="fill:#808080;fill-opacity:1;stroke:#808080;stroke-width:0.03063725;stroke-opacity:1"
       d="m 11.401674,1014.9469 c -0.446183,0.038 -0.806196,0.3451 -1.195108,0.5374 -0.4200735,0.2675 -0.9716227,0.4763 -1.1227911,1.0021 -0.065224,0.1844 -0.02496,0.4968 0.2316938,0.4787 0.5982076,-0.2927 1.1624163,-0.6577 1.7462113,-0.9815 0.313871,-0.1959 0.659666,-0.3523 0.953699,-0.5728 0.154436,-0.1554 -0.03394,-0.3508 -0.200102,-0.3902 -0.130011,-0.055 -0.272416,-0.081 -0.413603,-0.074 z"
       id="path3370"
       inkscape:connector-curvature="0" />
    <g
       id="g3167"
       transform="matrix(0.04519958,0,0,0.04519958,-3.0894364,1009.22)">
      <path
         id="path2987"
         d="m 347.999,349.165 -49.926,74.705 -17.525,88.13 17.525,88.13 49.926,74.704 74.704,49.926 88.13,17.525 88.13,-17.525 74.704,-49.926 49.926,-74.704 17.525,-88.13 -17.525,-88.13 -49.926,-74.705 -74.704,-49.925 -88.13,-17.525 -88.13,17.525 -74.704,49.925"
         inkscape:connector-curvature="0"
         style="fill:none;stroke:#000000;stroke-width:15" />
      <path
         id="path2989"
         d="m 764.402,545.519 2.303,-33.519 -2.2,-33.392"
         inkscape:connector-curvature="0"
         style="fill:none;stroke:#000000;stroke-width:15" />
      <path
         id="path2991"
         d="m 713.77,485.287 1.761,26.713 -1.761,26.713 -5.219,26.262 -8.598,25.363 -11.852,24.011 -14.861,22.271 -17.665,20.121 -20.122,17.666 -22.271,14.861 -24.011,11.852 -25.362,8.597 -26.263,5.22 -26.713,1.76 -26.713,-1.76 -26.263,-5.22 -25.362,-8.597 -24.011,-11.852 -22.271,-14.861 -20.122,-17.666 -17.665,-20.121 -14.861,-22.271 -11.852,-24.011 -8.597,-25.363 -5.22,-26.262 -1.761,-26.713 1.761,-26.713 5.22,-26.263 8.597,-25.362 11.852,-24.011 14.861,-22.271 17.665,-20.122 20.122,-17.665 22.271,-14.861 24.011,-11.852 25.362,-8.598 26.263,-5.22 26.713,-1.76 26.713,1.76 26.263,5.22 25.362,8.598 24.011,11.852 22.271,14.861 20.122,17.665 17.665,20.122 14.861,22.271 11.852,24.011 8.598,25.362 5.219,26.263"
         inkscape:connector-curvature="0"
         style="fill:none;stroke:#000000;stroke-width:15" />
      <path
         id="path2993"
         d="m 307.824,356.225 -90.486,-72.77 -39.292,-13.822 -9.454,-3.21 -9.962,0.653 -8.954,4.415 -6.582,7.507 -17.911,31.021 -3.21,9.454 0.654,9.962 4.414,8.954 7.507,6.583 31.615,27.117 108.32,42.154"
         inkscape:connector-curvature="0"
         style="fill:none;stroke:#000000;stroke-width:15" />
      <path
         id="path2995"
         d="m 343.805,135.714 -6.582,-7.506 -8.955,-4.415 -9.962,-0.653 -9.453,3.209 -31.022,17.911 -7.507,6.583 -4.414,8.954 -0.654,9.962 3.21,9.454"
         inkscape:connector-curvature="0"
         style="fill:none;stroke:#000000;stroke-width:15" />
      <path
         id="path2997"
         d="m 619.389,403.443 8.545,12.791 24.729,37.018 11.693,58.748 -10.186,51.174 -1.507,7.574 1.51,-7.574 -0.003,0 -40.988,0 -38.381,12.794 -12.793,38.381 0,40.99 7.578,-1.499 -58.753,11.683 -58.753,-11.683 -37.02,-24.728 -12.793,-8.546"
         inkscape:connector-curvature="0"
         style="fill:none;stroke:#000000;stroke-width:15" />
      <path
         id="path2999"
         d="M 402.267,620.566 393.721,607.772 368.993,570.753 357.31,512 l 11.683,-58.754 -1.499,7.579 40.99,0 38.381,-12.793 12.794,-38.381 0,-40.989 0,-0.002 -7.574,1.51 7.574,-1.508 51.174,-10.185 58.748,11.693 37.018,24.729 12.79,8.544"
         inkscape:connector-curvature="0"
         style="fill:none;stroke:#000000;stroke-width:15" />
      <path
         id="path3001"
         d="m 606.606,394.887 -0.007,0.012 -31.798,53.133 53.133,-31.798 0.012,-0.007 -8.557,-12.784 -12.783,-8.556"
         inkscape:connector-curvature="0"
         style="fill:none;stroke:#000000;stroke-width:15" />
      <path
         id="path3003"
         d="m 415.06,629.112 0,0 31.805,-53.144 -53.144,31.804 -10e-4,10e-4 8.547,12.793 12.793,8.546"
         inkscape:connector-curvature="0"
         style="fill:none;stroke:#000000;stroke-width:15" />
      <path
         id="path3005"
         d="m 257.162,478.608 -2.201,33.392 2.303,33.519"
         inkscape:connector-curvature="0"
         style="fill:none;stroke:#000000;stroke-width:15" />
      <path
         id="path3007"
         d="m 257.264,545.519 6.422,32.7 10.747,31.703"
         inkscape:connector-curvature="0"
         style="fill:none;stroke:#000000;stroke-width:15" />
      <path
         id="path3009"
         d="m 274.433,609.922 14.815,30.014 18.576,27.839"
         inkscape:connector-curvature="0"
         style="fill:none;stroke:#000000;stroke-width:15" />
      <path
         id="path3011"
         d="m 307.824,667.775 22.082,25.152 25.152,22.082"
         inkscape:connector-curvature="0"
         style="fill:none;stroke:#000000;stroke-width:15" />
      <path
         id="path3013"
         d="m 355.058,715.009 27.839,18.576 30.014,14.815"
         inkscape:connector-curvature="0"
         style="fill:none;stroke:#000000;stroke-width:15" />
      <path
         id="path3015"
         d="m 412.911,748.4 31.702,10.747 32.701,6.422"
         inkscape:connector-curvature="0"
         style="fill:none;stroke:#000000;stroke-width:15" />
      <path
         id="path3017"
         d="m 477.314,765.569 33.519,2.303 33.391,-2.201"
         inkscape:connector-curvature="0"
         style="fill:none;stroke:#000000;stroke-width:15" />
      <path
         id="path3019"
         d="m 544.224,765.671 32.829,-6.524 31.537,-10.797"
         inkscape:connector-curvature="0"
         style="fill:none;stroke:#000000;stroke-width:15" />
      <path
         id="path3021"
         d="m 608.59,748.35 30.179,-14.765 27.839,-18.576"
         inkscape:connector-curvature="0"
         style="fill:none;stroke:#000000;stroke-width:15" />
      <path
         id="path3023"
         d="m 666.608,715.009 25.152,-22.082 21.904,-25.115"
         inkscape:connector-curvature="0"
         style="fill:none;stroke:#000000;stroke-width:15" />
      <path
         id="path3025"
         d="m 713.664,667.812 18.754,-27.876 14.815,-30.014"
         inkscape:connector-curvature="0"
         style="fill:none;stroke:#000000;stroke-width:15" />
      <path
         id="path3027"
         d="m 747.233,609.922 10.747,-31.703 6.422,-32.7"
         inkscape:connector-curvature="0"
         style="fill:none;stroke:#000000;stroke-width:15" />
      <path
         id="path3029"
         d="M 764.505,478.608 757.98,445.78 747.184,414.243"
         inkscape:connector-curvature="0"
         style="fill:none;stroke:#000000;stroke-width:15" />
      <path
         id="path3031"
         d="M 747.184,414.243 732.418,384.064 713.664,356.188"
         inkscape:connector-curvature="0"
         style="fill:none;stroke:#000000;stroke-width:15" />
      <path
         id="path3033"
         d="M 713.664,356.188 691.76,331.073 666.645,309.168"
         inkscape:connector-curvature="0"
         style="fill:none;stroke:#000000;stroke-width:15" />
      <path
         id="path3035"
         d="M 666.645,309.168 638.769,290.415 608.59,275.649"
         inkscape:connector-curvature="0"
         style="fill:none;stroke:#000000;stroke-width:15" />
      <path
         id="path3037"
         d="m 608.59,275.649 -31.537,-10.796 -32.829,-6.525"
         inkscape:connector-curvature="0"
         style="fill:none;stroke:#000000;stroke-width:15" />
      <path
         id="path3039"
         d="m 544.224,258.328 -33.391,-2.2 -33.519,2.303"
         inkscape:connector-curvature="0"
         style="fill:none;stroke:#000000;stroke-width:15" />
      <path
         id="path3041"
         d="m 477.314,258.431 -32.701,6.422 -31.702,10.747"
         inkscape:connector-curvature="0"
         style="fill:none;stroke:#000000;stroke-width:15" />
      <path
         id="path3043"
         d="m 412.911,275.6 -30.014,14.815 -27.876,18.753"
         inkscape:connector-curvature="0"
         style="fill:none;stroke:#000000;stroke-width:15" />
      <path
         id="path3045"
         d="m 355.021,309.168 -25.115,21.905 -22.082,25.152"
         inkscape:connector-curvature="0"
         style="fill:none;stroke:#000000;stroke-width:15" />
      <path
         id="path3047"
         d="m 257.162,478.608 6.524,-32.828 10.797,-31.537 33.341,-58.018 -18.576,27.839 -14.765,30.179"
         inkscape:connector-curvature="0"
         style="fill:none;stroke:#000000;stroke-width:15" />
      <path
         id="path3049"
         d="M 344.516,800.061 412.911,748.4"
         inkscape:connector-curvature="0"
         style="fill:none;stroke:#000000;stroke-width:15" />
      <path
         id="path3051"
         d="m 319.499,874.252 2.147,1.24 22.159,12.793 27.117,-31.615 41.989,-108.27 -57.853,-33.391 -72.77,90.486 -13.822,39.292 -3.21,9.454 0.654,9.961 4.414,8.955 7.507,6.582 31.022,17.911 9.453,3.21 9.962,-0.654 8.955,-4.414 6.582,-7.507"
         inkscape:connector-curvature="0"
         style="fill:none;stroke:#000000;stroke-width:15" />
      <path
         id="path3053"
         d="m 355.058,715.009 -10.542,85.052 -38.381,66.475"
         inkscape:connector-curvature="0"
         style="fill:none;stroke:#000000;stroke-width:15" />
      <path
         id="path3055"
         d="m 268.466,844.787 37.669,21.749 13.364,7.716 24.306,14.033"
         inkscape:connector-curvature="0"
         style="fill:none;stroke:#000000;stroke-width:15" />
      <path
         id="path3057"
         d="m 222.772,678.317 85.052,-10.542"
         inkscape:connector-curvature="0"
         style="fill:none;stroke:#000000;stroke-width:15" />
      <path
         id="path3059"
         d="m 307.824,667.775 -33.391,-57.853 -108.27,41.989 -31.615,27.117 -7.507,6.582 -4.414,8.954 -0.654,9.962 3.21,9.454 17.911,31.022 6.582,7.506 8.954,4.415 9.962,0.654 9.454,-3.21 39.292,-13.822 90.486,-72.77"
         inkscape:connector-curvature="0"
         style="fill:none;stroke:#000000;stroke-width:15" />
      <path
         id="path3061"
         d="m 274.433,609.922 -51.661,68.395 -66.475,38.38"
         inkscape:connector-curvature="0"
         style="fill:none;stroke:#000000;stroke-width:15" />
      <path
         id="path3063"
         d="m 134.548,679.028 21.749,37.669 21.749,37.67"
         inkscape:connector-curvature="0"
         style="fill:none;stroke:#000000;stroke-width:15" />
      <path
         id="path3065"
         d="m 156.297,716.697 0,0"
         inkscape:connector-curvature="0"
         style="fill:none;stroke:#000000;stroke-width:15" />
      <path
         id="path3067"
         d="m 178.199,512 79.065,33.519"
         inkscape:connector-curvature="0"
         style="fill:none;stroke:#000000;stroke-width:15" />
      <path
         id="path3069"
         d="m 257.264,545.519 -0.102,-66.911 -114.785,-17.783 -40.939,7.676 -9.792,1.948 -8.301,5.547 -5.547,8.3 -1.947,9.793 0,35.822 1.947,9.792 5.547,8.3 8.301,5.548 9.792,1.947 40.939,7.676 114.887,-17.655"
         inkscape:connector-curvature="0"
         style="fill:none;stroke:#000000;stroke-width:15" />
      <path
         id="path3071"
         d="M 257.162,478.608 178.199,512 l -76.761,0"
         inkscape:connector-curvature="0"
         style="fill:none;stroke:#000000;stroke-width:15" />
      <path
         id="path3073"
         d="m 101.438,468.501 0,43.499 0,43.498"
         inkscape:connector-curvature="0"
         style="fill:none;stroke:#000000;stroke-width:15" />
      <path
         id="path3075"
         d="m 222.772,345.683 51.711,68.56"
         inkscape:connector-curvature="0"
         style="fill:none;stroke:#000000;stroke-width:15" />
      <path
         id="path3077"
         d="m 307.824,356.225 -85.052,-10.542 -66.475,-38.381 0,0"
         inkscape:connector-curvature="0"
         style="fill:none;stroke:#000000;stroke-width:15" />
      <path
         id="path3079"
         d="m 178.046,269.633 -21.749,37.669 -21.749,37.67"
         inkscape:connector-curvature="0"
         style="fill:none;stroke:#000000;stroke-width:15" />
      <path
         id="path3081"
         d="m 344.516,223.939 10.505,85.229"
         inkscape:connector-curvature="0"
         style="fill:none;stroke:#000000;stroke-width:15" />
      <path
         id="path3083"
         d="m 268.466,179.213 13.822,39.291 72.733,90.664 57.89,-33.568 -41.989,-108.27 -27.117,-31.616"
         inkscape:connector-curvature="0"
         style="fill:none;stroke:#000000;stroke-width:15" />
      <path
         id="path3085"
         d="M 412.911,275.6 344.516,223.939 306.135,157.463"
         inkscape:connector-curvature="0"
         style="fill:none;stroke:#000000;stroke-width:15" />
      <path
         id="path3087"
         d="m 268.466,179.213 37.669,-21.75 37.67,-21.749"
         inkscape:connector-curvature="0"
         style="fill:none;stroke:#000000;stroke-width:15" />
      <path
         id="path3089"
         d="m 343.805,135.714 -37.67,21.749 -37.669,21.75 22.158,-12.794 15.511,-8.956 15.511,-8.955 22.159,-12.794"
         inkscape:connector-curvature="0"
         style="fill:none;stroke:#000000;stroke-width:15" />
      <path
         id="path3091"
         d="m 510.833,179.366 -33.519,79.065"
         inkscape:connector-curvature="0"
         style="fill:none;stroke:#000000;stroke-width:15" />
      <path
         id="path3093"
         d="m 467.335,102.604 -7.676,40.94 17.655,114.887 66.91,-0.103 17.784,-114.784 -7.677,-40.94"
         inkscape:connector-curvature="0"
         style="fill:none;stroke:#000000;stroke-width:15" />
      <path
         id="path3095"
         d="m 544.224,258.328 -33.391,-78.962 0,-76.762"
         inkscape:connector-curvature="0"
         style="fill:none;stroke:#000000;stroke-width:15" />
      <path
         id="path3097"
         d="m 467.335,102.604 43.498,0 43.498,0"
         inkscape:connector-curvature="0"
         style="fill:none;stroke:#000000;stroke-width:15" />
      <path
         id="path3099"
         d="m 554.331,102.604 -86.996,0"
         inkscape:connector-curvature="0"
         style="fill:none;stroke:#000000;stroke-width:15" />
      <path
         id="path3101"
         d="m 528.744,102.604 25.587,0 -1.947,-9.792 -5.547,-8.3 -8.301,-5.548 -9.792,-1.947 -35.822,0 -9.792,1.947 -8.301,5.548 -5.547,8.3 -1.947,9.792 25.587,0 35.822,0"
         inkscape:connector-curvature="0"
         style="fill:none;stroke:#000000;stroke-width:15" />
      <path
         id="path3103"
         d="m 677.15,223.939 -68.56,51.71"
         inkscape:connector-curvature="0"
         style="fill:none;stroke:#000000;stroke-width:15" />
      <path
         id="path3105"
         d="m 677.861,135.714 -27.117,31.616 -42.154,108.319 58.055,33.519 72.733,-90.664 13.822,-39.291"
         inkscape:connector-curvature="0"
         style="fill:none;stroke:#000000;stroke-width:15" />
      <path
         id="path3107"
         d="m 666.645,309.168 10.505,-85.229 38.381,-66.476"
         inkscape:connector-curvature="0"
         style="fill:none;stroke:#000000;stroke-width:15" />
      <path
         id="path3109"
         d="m 677.861,135.714 37.67,21.749 37.669,21.75"
         inkscape:connector-curvature="0"
         style="fill:none;stroke:#000000;stroke-width:15" />
      <path
         id="path3111"
         d="M 753.2,179.213 677.861,135.714"
         inkscape:connector-curvature="0"
         style="fill:none;stroke:#000000;stroke-width:15" />
      <path
         id="path3113"
         d="m 731.042,166.419 22.158,12.794 3.21,-9.454 -0.654,-9.962 -4.414,-8.954 -7.507,-6.583 -31.022,-17.911 -9.453,-3.209 -9.962,0.653 -8.954,4.415 -6.583,7.506 22.159,12.794 31.022,17.911"
         inkscape:connector-curvature="0"
         style="fill:none;stroke:#000000;stroke-width:15" />
      <path
         id="path3115"
         d="m 798.894,345.683 -85.23,10.505"
         inkscape:connector-curvature="0"
         style="fill:none;stroke:#000000;stroke-width:15" />
      <path
         id="path3117"
         d="m 865.369,307.302 8.956,15.511 12.793,22.159 7.507,-6.583 4.414,-8.954 0.654,-9.962 -3.21,-9.454 -17.911,-31.021 -6.582,-7.507 -8.954,-4.415 -9.962,-0.653 -9.454,3.21 -39.292,13.822 -90.664,72.733 33.52,58.055 108.319,-42.154 31.615,-27.117"
         inkscape:connector-curvature="0"
         style="fill:none;stroke:#000000;stroke-width:15" />
      <path
         id="path3119"
         d="m 747.184,414.243 51.71,-68.56 66.475,-38.381"
         inkscape:connector-curvature="0"
         style="fill:none;stroke:#000000;stroke-width:15" />
      <path
         id="path3121"
         d="m 887.118,344.972 -21.749,-37.67"
         inkscape:connector-curvature="0"
         style="fill:none;stroke:#000000;stroke-width:15" />
      <path
         id="path3123"
         d="M 865.369,307.302 843.62,269.633"
         inkscape:connector-curvature="0"
         style="fill:none;stroke:#000000;stroke-width:15" />
      <path
         id="path3125"
         d="M 843.467,512 764.505,478.608"
         inkscape:connector-curvature="0"
         style="fill:none;stroke:#000000;stroke-width:15" />
      <path
         id="path3127"
         d="m 764.505,478.608 -0.103,66.911 114.887,17.655 40.939,-7.676 9.793,-1.947 8.3,-5.548 5.547,-8.3 1.947,-9.792 0,-35.822 -1.947,-9.793 -5.547,-8.3 -8.3,-5.547 -9.793,-1.948 -40.939,-7.676 -114.784,17.783"
         inkscape:connector-curvature="0"
         style="fill:none;stroke:#000000;stroke-width:15" />
      <path
         id="path3129"
         d="M 764.402,545.519 843.467,512 l 76.761,0"
         inkscape:connector-curvature="0"
         style="fill:none;stroke:#000000;stroke-width:15" />
      <path
         id="path3131"
         d="m 920.228,555.498 0,-43.498 0,-43.499"
         inkscape:connector-curvature="0"
         style="fill:none;stroke:#000000;stroke-width:15" />
      <path
         id="path3133"
         d="M 798.894,678.317 747.233,609.922"
         inkscape:connector-curvature="0"
         style="fill:none;stroke:#000000;stroke-width:15" />
      <path
         id="path3135"
         d="m 865.369,716.697 8.956,-15.511 12.793,-22.158 -31.615,-27.117 -108.27,-41.989 -33.569,57.89 90.664,72.733 39.292,13.822 9.454,3.21 9.962,-0.654 8.954,-4.415 6.582,-7.506 17.911,-31.022 3.21,-9.454 -0.654,-9.962 -4.414,-8.954 -7.507,-6.582"
         inkscape:connector-curvature="0"
         style="fill:none;stroke:#000000;stroke-width:15" />
      <path
         id="path3137"
         d="m 713.664,667.812 85.23,10.505 66.474,38.38 10e-4,0"
         inkscape:connector-curvature="0"
         style="fill:none;stroke:#000000;stroke-width:15" />
      <path
         id="path3139"
         d="m 843.62,754.367 21.749,-37.67"
         inkscape:connector-curvature="0"
         style="fill:none;stroke:#000000;stroke-width:15" />
      <path
         id="path3141"
         d="M 677.15,800.061 666.608,715.009"
         inkscape:connector-curvature="0"
         style="fill:none;stroke:#000000;stroke-width:15" />
      <path
         id="path3143"
         d="m 753.2,844.787 -13.822,-39.292 -72.77,-90.486 -58.018,33.341 42.154,108.32 27.117,31.615"
         inkscape:connector-curvature="0"
         style="fill:none;stroke:#000000;stroke-width:15" />
      <path
         id="path3145"
         d="m 608.59,748.35 68.56,51.711 38.381,66.475 0,0"
         inkscape:connector-curvature="0"
         style="fill:none;stroke:#000000;stroke-width:15" />
      <path
         id="path3147"
         d="m 753.2,844.787 -37.669,21.749 -37.67,21.749"
         inkscape:connector-curvature="0"
         style="fill:none;stroke:#000000;stroke-width:15" />
      <path
         id="path3149"
         d="m 677.861,888.285 75.339,-43.498 3.21,9.454 -0.654,9.961 -4.414,8.955 -7.507,6.582 -31.022,17.911 -9.453,3.21 -9.962,-0.654 -8.954,-4.414 -6.583,-7.507"
         inkscape:connector-curvature="0"
         style="fill:none;stroke:#000000;stroke-width:15" />
      <path
         id="path3151"
         d="m 510.833,844.633 33.391,-78.962"
         inkscape:connector-curvature="0"
         style="fill:none;stroke:#000000;stroke-width:15" />
      <path
         id="path3153"
         d="m 544.224,765.671 -66.91,-0.102 -17.655,114.886 7.676,40.94 1.947,9.792 5.547,8.301 8.301,5.547 9.792,1.947 35.822,0 9.792,-1.947 8.301,-5.547 5.547,-8.301 1.947,-9.792 7.677,-40.94 -17.784,-114.784"
         inkscape:connector-curvature="0"
         style="fill:none;stroke:#000000;stroke-width:15" />
      <path
         id="path3155"
         d="m 477.314,765.569 33.519,79.064 0,76.762 0,0"
         inkscape:connector-curvature="0"
         style="fill:none;stroke:#000000;stroke-width:15" />
      <path
         id="path3157"
         d="m 467.335,921.395 43.498,0 43.498,0"
         inkscape:connector-curvature="0"
         style="fill:none;stroke:#000000;stroke-width:15" />
      <path
         id="path3159"
         d="m 865.369,716.697 21.749,-37.669"
         inkscape:connector-curvature="0"
         style="fill:none;stroke:#000000;stroke-width:15" />
    </g>
  </g>
</svg>
