<?xml version="1.0" encoding="UTF-8" standalone="no"?>
<!-- Created with Inkscape (http://www.inkscape.org/) -->
<svg xmlns:rdf="http://www.w3.org/1999/02/22-rdf-syntax-ns#" xmlns="http://www.w3.org/2000/svg" version="1.1" xmlns:cc="http://creativecommons.org/ns#" xmlns:dc="http://purl.org/dc/elements/1.1/" viewBox="0 0 40 40">
 <metadata>
  <rdf:RDF>
   <cc:Work rdf:about="">
    <dc:format>image/svg+xml</dc:format>
    <dc:type rdf:resource="http://purl.org/dc/dcmitype/StillImage"/>
    <dc:title/>
   </cc:Work>
  </rdf:RDF>
 </metadata>
 <g transform="translate(0,-1012.3622)">
  <path d="m10.516,1016.7c-0.36796,0.2593-0.85474,0.405-1.1574,0.7305-0.087109,0.3469,0.17382,0.7017,0.2442,1.0423,0.16688,0.759,0.82061,1.2497,1.2453,1.8655,0.45924,0.5644,0.90182,1.1432,1.3912,1.6791,0.30111,0.192,0.42528-0.2051,0.33787-0.4382-0.09312-0.7325-0.10851-1.4929-0.28805-2.2036-0.52117-0.8731-0.99503-1.7874-1.5458-2.6347-0.05738-0.085-0.14466-0.045-0.22737-0.041z" stroke="#808080" stroke-width="0.06127451" fill="#808080"/>
  <path d="m12.303,1015.7c-0.39935,0.238-0.89071,0.3931-1.1949,0.7544-0.08401,0.358,0.30134,0.6296,0.4141,0.9473,0.52402,0.8542,0.91037,1.8463,1.7869,2.4102,0.47175,0.3186,0.88662,0.7543,1.4065,0.9853,0.42575-0.1387,0.03278-0.5958-0.01764-0.8692-0.41356-1.0243-0.76071-2.0881-1.2248-3.0854-0.35428-0.3565-0.63107-0.8386-1.0332-1.1248-0.04533-0.031-0.08567-0.036-0.13712-0.018z" stroke="#808080" stroke-width="0.06127451" fill="#808080"/>
  <path d="m12.835,1020.1c-0.1544,0.3886,0.05267,0.8313,0.04943,1.2384,0.07656,0.4292,0.05845,0.8811,0.21099,1.2892,0.29667,0.2888,0.63106-0.1745,0.90058-0.2904,0.32941-0.2492,0.7698-0.3494,1.0659-0.6383-0.01429-0.3827-0.52437-0.4911-0.75521-0.7484-0.44537-0.2944-0.83679-0.7006-1.3281-0.9099-0.04788,0.02-0.09574,0.04-0.14361,0.06z" stroke="#808080" stroke-width="0.06127451" fill="#808080"/>
  <path d="m19.633,1021c-1.7934-0.031-3.5854,0.49-5.1041,1.4414-1.4509,0.7892-2.8339,1.8018-3.7054,3.2359-0.87373,1.3759-1.735,2.8189-1.9863,4.4564-0.21049,1.2133-0.1265,2.457-0.099257,3.682,0.13072,1.4838,0.68437,2.8945,1.4664,4.1516,0.84916,1.5707,2.0591,2.9954,3.6476,3.8599,1.1648,0.7235,2.3976,1.3775,3.7595,1.6314,1.2292,0.2766,2.5045,0.1877,3.7542,0.1635,1.5157-0.1376,2.9519-0.7038,4.2454-1.4901,1.3786-0.7488,2.6755-1.7253,3.5118-3.0771,0.94606-1.4619,1.85-3.021,2.0837-4.7767,0.15062-1.1985,0.11039-2.4129,0.04372-3.616-0.21357-1.9967-1.256-3.7719-2.3665-5.3996-1.1155-1.6193-2.9001-2.5871-4.6093-3.4469-1.396-0.6503-2.9472-0.8871-4.4826-0.8165-0.05298,0.0002-0.10596,0.0005-0.15893,0zm2.3974,1.1565c0.70209,0.1711,1.4522,0.2258,2.1241,0.47,1.1031,0.7552,2.2544,1.4594,3.3308,2.2407,0.75977,1.1684,1.5801,2.3114,2.3044,3.4941,0.25089,1.3448,0.56576,2.6897,0.77648,4.0345-0.2815,1.3325-0.50473,2.6893-0.82433,4.0063-0.78606,1.1492-1.5258,2.3449-2.3397,3.466-1.1392,0.7374-2.2539,1.5342-3.4079,2.2357-1.3676,0.2526-2.7206,0.5921-4.0989,0.7577-1.3357-0.2381-2.679-0.4885-3.9936-0.8056-1.1397-0.7763-2.3203-1.5098-3.4315-2.3149-0.74681-1.1522-1.5528-2.2803-2.2622-3.4481-0.24565-1.3423-0.55466-2.6846-0.76163-4.0268,0.27714-1.3368,0.49385-2.6982,0.80736-4.0197,0.77869-1.1386,1.5126-2.3192,2.3167-3.4316,1.1525-0.7465,2.2753-1.5553,3.4424-2.2662,1.3506-0.2533,2.7012-0.5708,4.0518-0.7841,0.65526,0.1307,1.3105,0.2613,1.9658,0.392z" stroke="#808080" stroke-width="0.06127451" fill="#808080"/>
  <path d="m19.86,1018.2c-0.38415,0.7048-0.6896,1.4619-0.97848,2.2117,0.05532,0.4183,0.60464,0.1934,0.88656,0.2592,0.41819-0.038,0.89503,0.083,1.2772-0.1137,0.15902-0.3113-0.17954-0.623-0.24098-0.9267-0.2163-0.4762-0.38998-0.9767-0.65899-1.4247-0.10542-0.069-0.17631-0.067-0.28531-0.01z" stroke="#808080" stroke-width="0.06127451" fill="#808080"/>
  <path d="m20.228,1014.1c-0.14854,0.5231-0.02046,1.1036-0.06319,1.6487,0.0556,0.68-0.15584,1.4155,0.20746,2.0353,0.27737,0.6155,0.49395,1.2634,0.82272,1.8498,0.37528,0.2101,0.39659-0.3287,0.4296-0.5689,0.16394-1.1567,0.39998-2.314,0.50699-3.4722-0.13286-0.4689-0.10422-1.0078-0.33724-1.4372-0.39192-0.2306-0.89952-0.058-1.3327-0.1149-0.08583-0.018-0.15708,0.03-0.23361,0.059z" stroke="#808080" stroke-width="0.06127451" fill="#808080"/>
  <path d="m18.976,1014.1c-0.31603,0.042-0.8982-0.1302-0.88554,0.3645-0.09712,0.6405-0.34103,1.2805-0.13725,1.9258,0.17804,1.067,0.31867,2.1436,0.51728,3.2053,0.17252,0.2637,0.46505,0,0.49832-0.2263,0.28884-0.7161,0.66029-1.4172,0.87461-2.1539-0.016-0.9932,0.03156-1.999-0.02341-2.9844-0.14419-0.2896-0.58303-0.08-0.84401-0.131z" stroke="#808080" stroke-width="0.06127451" fill="#808080"/>
  <path d="m19.537,1012.9c-0.44163-0.028-0.9668,0.066-1.1853,0.4979-0.03169,0.4251,0.53037,0.3006,0.79655,0.3369,0.77792-0.018,1.5717,0.068,2.3399-0.052,0.36-0.21-0.04334-0.6875-0.35233-0.7123-0.52333-0.1051-1.0679-0.063-1.5989-0.071z" stroke="#808080" stroke-width="0.06127451" fill="#808080"/>
  <path d="m27.537,1015.7c-0.41503,0.3809-0.78943,0.8159-1.1117,1.273-0.44794,1.1715-0.92021,2.3362-1.3489,3.5121-0.02842,0.3659,0.38598,0.2738,0.53623,0.079,0.61741-0.4747,1.2936-0.9032,1.8515-1.4402,0.48268-0.8694,1.0257-1.7182,1.4713-2.6003-0.01549-0.3579-0.53312-0.4023-0.76999-0.6093-0.19891-0.066-0.40403-0.3319-0.62852-0.2146z" stroke="#808080" stroke-width="0.06127451" fill="#808080"/>
  <path d="m29.312,1016.7c-0.48204,0.5433-0.76707,1.2487-1.1563,1.8633-0.25849,0.4564-0.59243,0.8924-0.56175,1.4455-0.04143,0.6283-0.21504,1.2635-0.17568,1.89,0.15345,0.3197,0.48321,0.023,0.58594-0.1781,0.74335-0.9223,1.4974-1.8395,2.2155-2.7803,0.13349-0.4949,0.41132-1.0078,0.44807-1.5013-0.12694-0.2914-0.56667-0.3774-0.83104-0.5706-0.16857-0.062-0.33263-0.243-0.52466-0.1685z" stroke="#808080" stroke-width="0.06127451" fill="#808080"/>
  <path d="m28.414,1015c-0.27581-0.044-0.53282,0.305-0.26042,0.4921,0.78145,0.534,1.6117,1.0194,2.474,1.4113,0.36298,0.07,0.33916-0.4029,0.17042-0.5955-0.31232-0.5006-0.9288-0.6838-1.4042-0.9917-0.3048-0.1538-0.62984-0.3215-0.97975-0.3162z" stroke="#808080" stroke-width="0.06127451" fill="#808080"/>
  <path d="m26.924,1020c-0.67114,0.4653-1.362,0.9367-1.9531,1.4993-0.07471,0.4048,0.48729,0.4176,0.7238,0.605,0.3627,0.1573,0.65167,0.4782,1.0359,0.5783,0.3696-0.1156,0.20477-0.6272,0.31978-0.9134,0.05155-0.5474,0.17617-1.0983,0.16468-1.6467-0.03017-0.091-0.18091-0.1856-0.29105-0.1225z" stroke="#808080" stroke-width="0.06127451" fill="#808080"/>
  <path d="m31.999,1025.2c-0.75179,0.071-1.5102,0.1285-2.2518,0.268-0.3346,0.2617,0.14409,0.5848,0.25276,0.8464,0.26886,0.3591,0.3737,0.8255,0.67785,1.1508,0.36663-0.01,0.48614-0.4852,0.73045-0.7073,0.30271-0.4505,0.72498-0.8412,0.91439-1.3511-0.02046-0.1709-0.17249-0.2312-0.32361-0.2068z" stroke="#808080" stroke-width="0.06127451" fill="#808080"/>
  <path d="m34.743,1021.7c-0.72738,0.2366-1.4683,0.4853-2.0412,1.0167-0.802,0.6562-1.6513,1.2672-2.4031,1.9742-0.10341,0.4017,0.42409,0.3132,0.66398,0.2625,0.72862-0.1241,1.4996-0.11,2.1967-0.365,0.82274-0.489,1.6953-0.9268,2.4812-1.4618,0.16777-0.2719-0.18409-0.5498-0.2676-0.8043-0.16239-0.224-0.28342-0.6611-0.62998-0.6223z" stroke="#808080" stroke-width="0.06127451" fill="#808080"/>
  <path d="m35.832,1023.4c-0.93018,0.4857-1.8443,1.014-2.7363,1.5625-0.45861,0.6622-1.0136,1.2666-1.4189,1.9608-0.08727,0.3349,0.35868,0.3391,0.54984,0.1917,1.1041-0.4173,2.2094-0.8411,3.3009-1.2889,0.37906-0.3641,0.85374-0.65,1.1546-1.0857-0.01736-0.4036-0.35234-0.7383-0.51038-1.1029-0.06168-0.124-0.18058-0.2891-0.3398-0.2375z" stroke="#808080" stroke-width="0.06127451" fill="#808080"/>
  <path d="m35.763,1021.5c-0.37075,0.031-0.24969,0.4838-0.09383,0.6817,0.42033,0.694,0.75504,1.4616,1.2848,2.0776,0.27255,0.2139,0.50977-0.1419,0.4385-0.4117-0.08258-0.6984-0.56949-1.2688-0.9172-1.8574-0.17038-0.2298-0.39089-0.5163-0.71232-0.4902z" stroke="#808080" stroke-width="0.06127451" fill="#808080"/>
  <path d="m34.656,1030.5c-0.6603,0.1349-1.3632,0.1516-1.9972,0.3594-0.22577,0.3916,0.44338,0.4392,0.67834,0.5923,0.63461,0.2385,1.2428,0.5848,1.8933,0.7583,0.98741-0.015,1.9875,0.034,2.9672-0.02,0.30065-0.1926,0.08564-0.662,0.15017-0.9703,0.02064-0.3294,0.0673-0.8395-0.4138-0.787-0.68324-0.1008-1.3674-0.3382-2.0539-0.1253-0.40802,0.064-0.81605,0.1282-1.2241,0.1923z" stroke="#808080" stroke-width="0.06127451" fill="#808080"/>
  <path d="m34.967,1032.6c-0.73178,0.3384-1.5217,0.5779-2.2059,1.0053-0.22149,0.35,0.30775,0.4151,0.54241,0.4229,1.1047,0.1592,2.2057,0.3792,3.3141,0.4924,0.56406-0.09,1.1668-0.1263,1.6908-0.3428,0.0779-0.4663,0.04479-0.9736,0.01681-1.443-0.19523-0.302-0.66917-0.085-0.97996-0.1511-0.79195,0.01-1.5894-0.024-2.3782,0.016z" stroke="#808080" stroke-width="0.06127451" fill="#808080"/>
  <path d="m31.836,1031.3c-0.2405,0.3118-0.0849,0.7739-0.13991,1.1432,0.07007,0.3299-0.16769,0.8484,0.16981,1.0411,0.71569-0.1957,1.4074-0.5808,2.1138-0.8486,0.46253-0.063,0.30559-0.565-0.08957-0.5804-0.63417-0.2614-1.258-0.5522-1.9029-0.7839-0.05042,0.01-0.10085,0.019-0.15127,0.029z" stroke="#808080" stroke-width="0.06127451" fill="#808080"/>
  <path d="m38.99,1030.7c-0.43409,0-0.25313,0.5797-0.30972,0.8616,0.0047,0.7634-0.05896,1.5446,0.06463,2.2979,0.26052,0.3234,0.59386-0.1449,0.67976-0.4022,0.1002-0.7044,0.06762-1.4319,0.02298-2.1407-0.0454-0.2461-0.22708-0.5239-0.45764-0.6166z" stroke="#808080" stroke-width="0.06127451" fill="#808080"/>
  <path d="m36.933,1040.4c-0.51054,0.8371-1.0013,1.6952-1.484,2.5506-0.02902,0.4359,0.58904,0.3477,0.77934,0.1053,0.50057-0.5584,0.85908-1.2448,1.1412-1.9359,0.1022-0.2679-0.03355-0.9538-0.43658-0.72z" stroke="#808080" stroke-width="0.06127451" fill="#808080"/>
  <path d="m30.553,1039.7c-0.33621,0.053-0.1992,0.4533,0.02454,0.5637,0.9236,0.7722,1.8676,1.5243,2.8171,2.2626,0.48457,0.1618,0.9572,0.3702,1.4495,0.5017,0.36577-0.1501,0.45214-0.6218,0.67907-0.9151,0.14265-0.1982,0.29842-0.5525-0.03377-0.6608-0.84223-0.4672-1.6559-1.0058-2.5199-1.4208-0.79667-0.1592-1.6145-0.234-2.4165-0.3313z" stroke="#808080" stroke-width="0.06127451" fill="#808080"/>
  <path d="m31.717,1037.5c-0.18908,0.3329,0.27738,0.5928,0.39254,0.8713,0.37167,0.4618,0.6772,0.9979,1.1023,1.4075,0.88481,0.4902,1.7395,1.0547,2.6457,1.492,0.35686-0.081,0.42035-0.5608,0.62925-0.8161,0.12686-0.2203,0.33774-0.5428,0.04979-0.7354-0.50063-0.4463-0.96333-0.985-1.6417-1.1482-1.0123-0.3725-2.0035-0.8185-3.0343-1.1304-0.04788,0.02-0.09574,0.04-0.14361,0.06z" stroke="#808080" stroke-width="0.06127451" fill="#808080"/>
  <path d="m30.628,1037.3c-0.29295,0.5475-0.58678,1.0979-0.93635,1.6181-0.16386,0.3267,0.25353,0.4491,0.49977,0.4327,0.66597,0.055,1.3399,0.2426,2.0067,0.18,0.34448-0.2124-0.07995-0.5569-0.21102-0.768-0.40634-0.4925-0.73258-1.0806-1.2098-1.4972-0.04978,0.012-0.09957,0.023-0.14936,0.034z" stroke="#808080" stroke-width="0.06127451" fill="#808080"/>
  <path d="m27.51,1042.8c-0.23556,0.2727-0.01405,0.6833-0.035,1.0106,0.1052,0.5527,0.05573,1.1547,0.26848,1.6748,0.51196,0.8568,0.97338,1.7551,1.513,2.5878,0.30163,0.1637,0.5886-0.2321,0.87327-0.334,0.26477-0.1573,0.71339-0.3234,0.49702-0.6953-0.2123-0.6163-0.32449-1.2978-0.82356-1.7613-0.68231-0.8244-1.3141-1.6971-2.0577-2.4673-0.07165-0.062-0.15371-0.021-0.23552-0.015z" stroke="#808080" stroke-width="0.06127451" fill="#808080"/>
  <path d="m25.142,1044c-0.16802,0.3356,0.1808,0.6813,0.23744,1.0149,0.38751,0.9508,0.70607,1.9422,1.1448,2.8651,0.34016,0.3741,0.63459,0.7796,1.0036,1.1235,0.37307,0.086,0.66542-0.3104,0.99676-0.4299,0.3628-0.099,0.55967-0.4482,0.24796-0.7374-0.46922-0.7916-0.9033-1.6085-1.3941-2.3848-0.67657-0.4973-1.3204-1.0459-2.0259-1.4993-0.07622-0.04-0.14052,0.03-0.21063,0.048z" stroke="#808080" stroke-width="0.06127451" fill="#808080"/>
  <path d="m26.664,1042c-0.54292,0.2885-1.0487,0.6517-1.618,0.8943-0.28497,0.2857,0.19688,0.5154,0.37914,0.6797,0.51976,0.3709,0.99503,0.834,1.5632,1.1207,0.4299-0.07,0.16986-0.6093,0.17735-0.8852-0.11178-0.5797-0.08006-1.2112-0.28914-1.7597-0.07017-0.016-0.13613-0.091-0.21255-0.049z" stroke="#808080" stroke-width="0.06127451" fill="#808080"/>
  <path d="m30.666,1047.8c-0.87222,0.3545-1.6758,0.883-2.4701,1.3901-0.27606,0.1249-0.16155,0.5276,0.13787,0.5018,0.71577,0.091,1.2891-0.4773,1.8879-0.7713,0.36419-0.1838,0.76749-0.5654,0.67603-1.0076-0.0678-0.061-0.12962-0.1404-0.23169-0.113z" stroke="#808080" stroke-width="0.06127451" fill="#808080"/>
  <path d="m21.212,1045.1c-0.41138,0.7504-0.7174,1.5662-1.0417,2.359,0.01307,1.0487-0.03652,2.11,0.01766,3.151,0.18607,0.2967,0.64364,0.089,0.9455,0.1501,0.32274,0.027,0.80757,0.056,0.7653-0.4071,0.15712-0.6793,0.29481-1.3777,0.12674-2.0694-0.18151-1.0539-0.28016-2.1362-0.52367-3.1707-0.09795-0.078-0.18322-0.075-0.28986-0.013z" stroke="#808080" stroke-width="0.06127451" fill="#808080"/>
  <path d="m19.646,1044c-0.25418,0.032-0.83837-0.1087-0.74295,0.3274,0.30966,0.714,0.56211,1.4641,0.95167,2.1369,0.40048,0.2135,0.45482-0.4141,0.61815-0.6636,0.21652-0.5094,0.4673-1.0138,0.63414-1.5423-0.12272-0.3905-0.64998-0.1961-0.95358-0.2591-0.16914,0-0.3383,0-0.50743,0.0007z" stroke="#808080" stroke-width="0.06127451" fill="#808080"/>
  <path d="m18.518,1045.1c-0.21433,0.5233-0.20733,1.1297-0.3311,1.6843-0.09768,0.7612-0.27381,1.5219-0.31832,2.2841,0.13377,0.4898,0.11169,1.0431,0.33731,1.4984,0.36818,0.2411,0.86474,0.065,1.2791,0.1225,0.49299,0.075,0.33992-0.5205,0.35807-0.8195-0.02793-0.8502,0.05599-1.7181-0.03902-2.5573-0.32723-0.7313-0.58297-1.5009-0.97966-2.1972-0.08586-0.098-0.20623-0.082-0.30637-0.015z" stroke="#808080" stroke-width="0.06127451" fill="#808080"/>
  <path d="m14.621,1044c-0.70499,0.4878-1.3852,1.0183-2.0508,1.5586-0.48906,0.8897-1.0636,1.7451-1.4936,2.6598,0.11918,0.3653,0.59216,0.4601,0.873,0.6771,0.19236,0.1383,0.4928,0.2874,0.65503,0.027,0.44438-0.516,0.99998-0.9787,1.1639-1.6685,0.38038-1.0245,0.82472-2.0301,1.153-3.0708-0.01851-0.1395-0.16596-0.2509-0.30063-0.1838z" stroke="#808080" stroke-width="0.06127451" fill="#808080"/>
  <path d="m12.241,1042.7c-0.85552,0.9761-1.6594,2.0066-2.4606,3.0293-0.15373,0.4884-0.35915,0.9655-0.45764,1.4686,0.13917,0.3438,0.58795,0.4176,0.86359,0.6338,0.21311,0.1385,0.58272,0.3068,0.697-0.046,0.49152-0.8561,1.002-1.7057,1.4629-2.5773,0.07325-0.8068,0.23518-1.6158,0.23744-2.4242-0.04591-0.1205-0.22285-0.1924-0.34275-0.084z" stroke="#808080" stroke-width="0.06127451" fill="#808080"/>
  <path d="m13.233,1042.1c-0.33148,0.2006-0.2102,0.6886-0.30637,1.0148-0.02717,0.5085-0.1764,1.0132-0.1551,1.5165,0.21433,0.344,0.54551-0.083,0.76284-0.2102,0.49792-0.4047,1.082-0.733,1.5202-1.1927,0.01396-0.3654-0.51276-0.3864-0.7506-0.5885-0.36482-0.1351-0.6677-0.5601-1.0709-0.5399z" stroke="#808080" stroke-width="0.06127451" fill="#808080"/>
  <path d="m9.4668,1039.7c-0.81853,0.08-1.6414,0.17-2.451,0.3025-0.87164,0.5266-1.8,0.9842-2.6367,1.5549-0.13651,0.3913,0.26197,0.7464,0.41169,1.0857,0.11472,0.2493,0.38866,0.4738,0.65483,0.2849,0.69515-0.2063,1.3644-0.4977,1.9054-0.9932,0.78262-0.6437,1.6128-1.2414,2.3436-1.938,0.0595-0.1547-0.064379-0.3175-0.22787-0.2968z" stroke="#808080" stroke-width="0.06127451" fill="#808080"/>
  <path d="m8.0862,1037.5c-1.2145,0.4097-2.4093,0.8915-3.598,1.3691-0.39739,0.3899-0.91056,0.6882-1.2331,1.1374,0.18924,0.4317,0.44225,0.8597,0.71806,1.2485,0.32889,0.1781,0.6246-0.239,0.92609-0.3368,0.67138-0.4153,1.4063-0.7552,2.0331-1.2266,0.4546-0.6376,1.0186-1.249,1.3856-1.9216,0.06451-0.1604-0.081302-0.2861-0.23169-0.27z" stroke="#808080" stroke-width="0.06127451" fill="#808080"/>
  <path d="m9.1566,1037.3c-0.51736,0.6362-1.0317,1.2979-1.4763,1.9876-0.037965,0.4263,0.49165,0.2755,0.74487,0.2546,0.63816-0.1109,1.3201-0.088,1.9282-0.2929,0.1078-0.3534-0.32206-0.6043-0.42939-0.926-0.22241-0.3331-0.32797-0.7533-0.61419-1.0329-0.051059,0-0.10212,0.01-0.15319,0.01z" stroke="#808080" stroke-width="0.06127451" fill="#808080"/>
  <path d="m1.7232,1032.6c-0.14707,0.4449-0.020903,0.9465-0.063189,1.4132,0.13518,0.358,0.64256,0.232,0.94767,0.3538,0.8012,0.2441,1.6122-0.049,2.4161-0.124,0.74596-0.1425,1.53-0.168,2.2524-0.3868,0.2061-0.3825-0.3799-0.4638-0.60587-0.6035-0.58961-0.2356-1.1647-0.5494-1.7743-0.712-1.027,0.016-2.0666-0.032-3.0859,0.023l-0.056628,0.023-0.030357,0.012z" stroke="#808080" stroke-width="0.06127451" fill="#808080"/>
  <path d="m2.581,1030.4c-0.30501,0.1198-0.95835-0.018-0.92103,0.4633,0.034308,0.4465-0.071891,0.9209,0.05936,1.3481,0.5142,0.1484,1.0858,0.021,1.6219,0.063,0.67057-0.055,1.3964,0.1557,2.0064-0.2078,0.65446-0.2937,1.3451-0.5336,1.9776-0.8599,0.27047-0.4109-0.44132-0.392-0.69662-0.4437-1.1184-0.1542-2.2359-0.3887-3.3554-0.49-0.23075,0.043-0.4615,0.085-0.69226,0.1269z" stroke="#808080" stroke-width="0.06127451" fill="#808080"/>
  <path d="m8.0192,1031.2c-0.71461,0.3452-1.5144,0.5498-2.1695,0.9996-0.21092,0.3516,0.33066,0.4406,0.54551,0.5511,0.58225,0.2187,1.1379,0.5598,1.7369,0.7023,0.32453-0.1675,0.10861-0.6426,0.17334-0.9451-0.031274-0.418,0.073061-0.8636-0.058416-1.2619-0.077477-0.031-0.1416-0.086-0.22786-0.046z" stroke="#808080" stroke-width="0.06127451" fill="#808080"/>
  <path d="m4.0191,1023.5c-0.29393,0.3755-0.59125,0.8025-0.70274,1.2734,0.089517,0.3604,0.51407,0.5228,0.7487,0.787,0.80892,0.6664,1.8739,0.8821,2.8128,1.3072,0.46713,0.1391,0.90796,0.4388,1.3902,0.4793,0.33509-0.2372-0.11434-0.5694-0.23938-0.798-0.41231-0.5236-0.78125-1.1156-1.2516-1.5881-0.84583-0.4885-1.6893-1.0008-2.5417-1.4665-0.07478-0.01-0.14948-0.053-0.21638,0.01z" stroke="#808080" stroke-width="0.06127451" fill="#808080"/>
  <path d="m5.0339,1021.7c-0.28087,0.3664-0.53241,0.7909-0.69125,1.2293-0.041657,0.4009,0.52329,0.4511,0.758,0.6683,0.68641,0.3661,1.336,0.8303,2.0467,1.1339,0.81214,0.073,1.6252,0.2765,2.4381,0.2716,0.33856-0.1838-0.037923-0.5067-0.23305-0.623-0.91482-0.7395-1.8256-1.4881-2.7579-2.2033-0.52068-0.1388-1.0272-0.4376-1.5606-0.4768z" stroke="#808080" stroke-width="0.06127451" fill="#808080"/>
  <path d="m7.8832,1025.2c-0.33357,0.073-0.13872,0.4564,0.022976,0.6205,0.42131,0.5499,0.78963,1.1713,1.2811,1.6519,0.36018,0.019,0.38571-0.5082,0.57824-0.7385,0.17478-0.391,0.488-0.716,0.62998-1.1126-0.20028-0.3297-0.70045-0.1687-1.0295-0.2773-0.49294-0.055-0.98668-0.1328-1.4828-0.144z" stroke="#808080" stroke-width="0.06127451" fill="#808080"/>
  <path d="m4.1818,1021.5c-0.62074,0.1372-0.84853,0.8487-1.168,1.3212-0.22608,0.4398-0.6442,1.0235-0.26425,1.4974,0.29607,0.2875,0.49033-0.2307,0.61266-0.4374,0.39455-0.7149,0.84701-1.4151,1.2124-2.1334,0.067269-0.2373-0.22407-0.2774-0.39279-0.2478z" stroke="#808080" stroke-width="0.06127451" fill="#808080"/>
  <path d="m0.96685,1030.8c-0.57223,0.3097-0.42276,1.0661-0.46486,1.6047,0.007005,0.5518-0.085262,1.298,0.47444,1.6257,0.38598,0.1061,0.33786-0.4088,0.34634-0.6434-0.00811-0.8095,0.086824-1.6397-0.0572-2.4376-0.042504-0.1164-0.17936-0.1888-0.29871-0.1494z" stroke="#808080" stroke-width="0.06127451" fill="#808080"/>
  <path d="m2.8434,1040.4c-0.41719,0.2056-0.22833,0.7836-0.043747,1.0986,0.32002,0.554,0.56806,1.2013,1.0739,1.6128,0.21139,0.1754,0.79268,0.2194,0.68551-0.1819-0.50205-0.8147-0.90275-1.7055-1.4782-2.4682-0.065279-0.058-0.15221-0.076-0.23744-0.061z" stroke="#808080" stroke-width="0.06127451" fill="#808080"/>
  <path d="m9.2734,1047.9c-0.3723,0.1392-0.088591,0.5994,0.089997,0.787,0.55427,0.4366,1.1877,0.7868,1.8402,1.0532,0.26155,0.062,0.78841,0.1035,0.77359-0.2815-0.25875-0.3817-0.75802-0.532-1.1246-0.797-0.50732-0.2522-0.9692-0.6498-1.5294-0.7693l-0.049782,0.01z" stroke="#808080" stroke-width="0.06127451" fill="#808080"/>
  <path d="m19.477,1051c-0.34856,0.052-0.82134-0.096-1.0895,0.1781-0.1392,0.3206,0.31193,0.5428,0.5687,0.6185,0.70775,0.066,1.4366,0.078,2.1427-0.01,0.25577-0.085,0.71911-0.3598,0.48445-0.6568-0.42522-0.2277-0.95511-0.084-1.4208-0.1315h-0.68551z" stroke="#808080" stroke-width="0.06127451" fill="#808080"/>
  <path d="m18.03,1022.5c-0.6814,0.164-1.4012,0.2254-2.0595,0.4516-1.068,0.7311-2.1619,1.4308-3.2139,2.1813-0.73808,1.1185-1.5141,2.2169-2.2269,3.349-0.24986,1.3033-0.53676,2.6024-0.76402,3.9082,0.2653,1.2901,0.48562,2.5943,0.77934,3.8756,0.76053,1.1176,1.4882,2.2621,2.2672,3.3644,1.0889,0.7203,2.1581,1.4771,3.259,2.1752,1.3054,0.2484,2.6001,0.5749,3.9139,0.7621,1.3401-0.2153,2.6738-0.4919,3.9982-0.7813,1.099-0.7553,2.2238-1.4792,3.3069-2.2537,0.72276-1.1054,1.4842-2.19,2.1848-3.3069,0.23787-1.286,0.55844-2.5672,0.73146-3.8584-0.19857-1.3175-0.46456-2.629-0.74487-3.9292-0.7488-1.1035-1.4597-2.2361-2.2269-3.3242-1.1233-0.7392-2.2254-1.5179-3.3605-2.2346-1.3037-0.2505-2.6034-0.5416-3.9101-0.764-0.64466,0.1283-1.2893,0.2566-1.934,0.3849zm1.7808,0.4959c1.137-0.045,2.2787,0.093,3.3318,0.5113,2.7794,0.9781,5.0599,3.323,5.8562,6.1639,0.46456,1.5012,0.4828,3.1323,0.18511,4.6721-0.58242,2.7238-2.4502,5.1591-4.9652,6.3975-1.3086,0.6648-2.7767,1.0289-4.249,0.9666-2.3298,0.089-4.627-0.8874-6.3324-2.4564-2.0837-1.8882-3.2296-4.7534-2.9967-7.5559,0.18994-3.3998,2.4191-6.6039,5.5607-7.9236,1.1443-0.5091,2.3487-0.8076,3.6095-0.7755z" stroke="#808080" stroke-width="0.06127451" fill="#808080"/>
  <path d="m19.818,1023.3c-2.3988-0.045-4.7435,1.0626-6.384,2.7861-1.7478,1.8349-2.6931,4.415-2.4682,6.947,0.16581,2.7661,1.7507,5.3592,4.0537,6.8742,1.1937,0.8342,2.6286,1.283,4.0633,1.4591,1.5571,0.044,3.1743-0.028,4.5898-0.7487,3.1484-1.3561,5.3766-4.6299,5.373-8.071,0.17353-3.6156-2.1442-7.1836-5.4868-8.5374-1.0692-0.4852-2.2348-0.7512-3.4114-0.7112h-0.32935zm1.5395,2.1944c0.63796,0.1628,1.3539,0.1374,1.8636,0.6099,0.61526,0.4474,1.3204,0.8052,1.8787,1.3094,0.48466,0.7597,1.0296,1.4947,1.4777,2.2692,0.15926,0.9033,0.38134,1.8064,0.5034,2.7095-0.15509,0.811-0.31018,1.622-0.46528,2.433-0.66296,0.019-1.3451-0.1044-1.9968,0.01-0.5285,0.2106-1.1285,0.2948-1.6088,0.5917-0.20474,0.7295-0.62753,1.4309-0.51342,2.2115,0.0084,0.4354,0.01488,0.8707,0.02131,1.3061-0.8765,0.1565-1.7471,0.3881-2.624,0.4914-0.90055-0.2006-1.8247-0.3473-2.7099-0.5849-0.7499-0.5218-1.5467-0.9977-2.267-1.549-0.49304-0.7839-1.0442-1.5442-1.5005-2.343-0.15671-0.897-0.38484-1.7881-0.50486-2.6846,0.16001-0.8084,0.32007-1.6169,0.48021-2.4254,0.66296-0.019,1.3451,0.1045,1.9968-0.01,0.5285-0.2106,1.1285-0.2948,1.6088-0.5917,0.20293-0.7322,0.62981-1.4345,0.51532-2.2173-0.0076-0.4334-0.01661-0.8669-0.0232-1.3002,0.8583-0.1556,1.7163-0.3765,2.5743-0.4936,0.43123,0.086,0.86246,0.172,1.2937,0.258z" stroke="#808080" stroke-width="0.06127451" fill="#808080"/>
  <path d="m24.41,1027.4c-0.29274,0.2158-0.4795,0.5886-0.5936,0.9287,0.12346,0.4161,0.5449,0.062,0.7621-0.073,0.29982-0.113,0.48097-0.4734,0.18191-0.7008-0.08858-0.093-0.21094-0.2013-0.35041-0.1551z" stroke="#808080" stroke-width="0.06127451" fill="#808080"/>
  <path d="m15.862,1036.2c-0.29507,0.1568-0.63143,0.2953-0.84444,0.5553,0.0348,0.2457,0.30636,0.558,0.57836,0.5347,0.27973-0.1824,0.42948-0.5524,0.5533-0.8507,0.03401-0.1539-0.14166-0.3035-0.28722-0.2393z" stroke="#808080" stroke-width="0.06127451" fill="#808080"/>
  <path d="m11.402,1014.9c-0.44618,0.038-0.8062,0.3451-1.1951,0.5374-0.42007,0.2675-0.97162,0.4763-1.1228,1.0021-0.065224,0.1844-0.02496,0.4968,0.23169,0.4787,0.59821-0.2927,1.1624-0.6577,1.7462-0.9815,0.31387-0.1959,0.65967-0.3523,0.9537-0.5728,0.15444-0.1554-0.03394-0.3508-0.2001-0.3902-0.13001-0.055-0.27242-0.081-0.4136-0.074z" stroke="#808080" stroke-width="0.03063725" fill="#808080"/>
  <g stroke="#000000" stroke-width="15" fill="none" transform="matrix(0.04519958,0,0,0.04519958,-3.0894364,1009.22)">
   <path d="m348,349.16-49.926,74.705-17.525,88.13,17.525,88.13,49.926,74.704,74.704,49.926,88.13,17.525,88.13-17.525,74.704-49.926,49.926-74.704,17.525-88.13-17.525-88.13-49.926-74.705-74.704-49.925-88.13-17.525-88.13,17.525-74.704,49.925"/>
   <path d="m764.4,545.52,2.303-33.519-2.2-33.392"/>
   <path d="m713.77,485.29,1.761,26.713-1.761,26.713-5.219,26.262-8.598,25.363-11.852,24.011-14.861,22.271-17.665,20.121-20.122,17.666-22.271,14.861-24.011,11.852-25.362,8.597-26.263,5.22-26.713,1.76-26.713-1.76-26.263-5.22-25.362-8.597-24.011-11.852-22.271-14.861-20.122-17.666-17.665-20.121-14.861-22.271-11.852-24.011-8.597-25.363-5.22-26.262-1.761-26.713,1.761-26.713,5.22-26.263,8.597-25.362,11.852-24.011,14.861-22.271,17.665-20.122,20.122-17.665,22.271-14.861,24.011-11.852,25.362-8.598,26.263-5.22,26.713-1.76,26.713,1.76,26.263,5.22,25.362,8.598,24.011,11.852,22.271,14.861,20.122,17.665,17.665,20.122,14.861,22.271,11.852,24.011,8.598,25.362,5.219,26.263"/>
   <path d="m307.82,356.22-90.486-72.77-39.292-13.822-9.454-3.21-9.962,0.653-8.954,4.415-6.582,7.507-17.911,31.021-3.21,9.454,0.654,9.962,4.414,8.954,7.507,6.583,31.615,27.117,108.32,42.154"/>
   <path d="m343.8,135.71-6.582-7.506-8.955-4.415-9.962-0.653-9.453,3.209-31.022,17.911-7.507,6.583-4.414,8.954-0.654,9.962,3.21,9.454"/>
   <path d="m619.39,403.44,8.545,12.791,24.729,37.018,11.693,58.748-10.186,51.174-1.507,7.574,1.51-7.574-0.003,0-40.988,0-38.381,12.794-12.793,38.381,0,40.99,7.578-1.499-58.753,11.683-58.753-11.683-37.02-24.728-12.793-8.546"/>
   <path d="M402.27,620.57,393.72,607.77,368.99,570.75,357.31,512l11.683-58.754-1.499,7.579h40.99l38.381-12.793,12.794-38.381v-40.989-0.002l-7.574,1.51,7.574-1.508,51.174-10.185,58.748,11.693,37.018,24.729,12.79,8.544"/>
   <path d="m606.61,394.89-0.007,0.012-31.798,53.133,53.133-31.798,0.012-0.007-8.557-12.784-12.783-8.556"/>
   <path d="m415.06,629.11,0,0,31.805-53.144-53.144,31.804-0.001,0.001,8.547,12.793,12.793,8.546"/>
   <path d="m257.16,478.61-2.201,33.392,2.303,33.519"/>
   <path d="m257.26,545.52,6.422,32.7,10.747,31.703"/>
   <path d="m274.43,609.92,14.815,30.014,18.576,27.839"/>
   <path d="m307.82,667.78,22.082,25.152,25.152,22.082"/>
   <path d="m355.06,715.01,27.839,18.576,30.014,14.815"/>
   <path d="m412.91,748.4,31.702,10.747,32.701,6.422"/>
   <path d="m477.31,765.57,33.519,2.303,33.391-2.201"/>
   <path d="m544.22,765.67,32.829-6.524,31.537-10.797"/>
   <path d="m608.59,748.35,30.179-14.765,27.839-18.576"/>
   <path d="m666.61,715.01,25.152-22.082,21.904-25.115"/>
   <path d="m713.66,667.81,18.754-27.876,14.815-30.014"/>
   <path d="m747.23,609.92,10.747-31.703,6.422-32.7"/>
   <path d="M764.5,478.61,757.98,445.78,747.18,414.24"/>
   <path d="M747.18,414.24,732.42,384.06,713.66,356.19"/>
   <path d="M713.66,356.19,691.76,331.07,666.64,309.17"/>
   <path d="M666.64,309.17,638.77,290.42,608.59,275.65"/>
   <path d="m608.59,275.65-31.537-10.796-32.829-6.525"/>
   <path d="m544.22,258.33-33.391-2.2-33.519,2.303"/>
   <path d="m477.31,258.43-32.701,6.422-31.702,10.747"/>
   <path d="m412.91,275.6-30.014,14.815-27.876,18.753"/>
   <path d="m355.02,309.17-25.115,21.905-22.082,25.152"/>
   <path d="m257.16,478.61,6.524-32.828,10.797-31.537,33.341-58.018-18.576,27.839-14.765,30.179"/>
   <path d="M344.52,800.06,412.91,748.4"/>
   <path d="m319.5,874.25,2.147,1.24,22.159,12.793,27.117-31.615,41.989-108.27-57.853-33.391-72.77,90.486-13.822,39.292-3.21,9.454,0.654,9.961,4.414,8.955,7.507,6.582,31.022,17.911,9.453,3.21,9.962-0.654,8.955-4.414,6.582-7.507"/>
   <path d="m355.06,715.01-10.542,85.052-38.381,66.475"/>
   <path d="m268.47,844.79,37.669,21.749,13.364,7.716,24.306,14.033"/>
   <path d="m222.77,678.32,85.052-10.542"/>
   <path d="m307.82,667.78-33.391-57.853-108.27,41.989-31.615,27.117-7.507,6.582-4.414,8.954-0.654,9.962,3.21,9.454,17.911,31.022,6.582,7.506,8.954,4.415,9.962,0.654,9.454-3.21,39.292-13.822,90.486-72.77"/>
   <path d="m274.43,609.92-51.661,68.395-66.475,38.38"/>
   <path d="m134.55,679.03,21.749,37.669,21.749,37.67"/>
   <path d="m156.3,716.7,0,0"/>
   <path d="m178.2,512,79.065,33.519"/>
   <path d="m257.26,545.52-0.102-66.911-114.78-17.783-40.939,7.676-9.792,1.948-8.301,5.547-5.547,8.3-1.947,9.793,0,35.822,1.947,9.792,5.547,8.3,8.301,5.548,9.792,1.947,40.939,7.676,114.89-17.655"/>
   <path d="M257.16,478.61,178.2,512h-76.761"/>
   <path d="m101.44,468.5,0,43.499,0,43.498"/>
   <path d="m222.77,345.68,51.711,68.56"/>
   <path d="m307.82,356.22-85.052-10.542-66.475-38.381,0,0"/>
   <path d="m178.05,269.63-21.749,37.669-21.749,37.67"/>
   <path d="m344.52,223.94,10.505,85.229"/>
   <path d="m268.47,179.21,13.822,39.291,72.733,90.664,57.89-33.568-41.989-108.27-27.117-31.616"/>
   <path d="M412.91,275.6,344.52,223.94,306.14,157.46"/>
   <path d="m268.47,179.21,37.669-21.75,37.67-21.749"/>
   <path d="m343.8,135.71-37.67,21.749-37.669,21.75,22.158-12.794,15.511-8.956,15.511-8.955,22.159-12.794"/>
   <path d="m510.83,179.37-33.519,79.065"/>
   <path d="m467.34,102.6-7.676,40.94,17.655,114.89,66.91-0.103,17.784-114.78-7.677-40.94"/>
   <path d="m544.22,258.33-33.391-78.962,0-76.762"/>
   <path d="m467.34,102.6,43.498,0,43.498,0"/>
   <path d="m554.33,102.6-86.996,0"/>
   <path d="m528.74,102.6,25.587,0-1.947-9.792-5.547-8.3-8.301-5.548-9.792-1.947-35.822,0-9.792,1.947-8.301,5.548-5.547,8.3-1.947,9.792,25.587,0,35.822,0"/>
   <path d="m677.15,223.94-68.56,51.71"/>
   <path d="m677.86,135.71-27.117,31.616-42.154,108.32,58.055,33.519,72.733-90.664,13.822-39.291"/>
   <path d="m666.64,309.17,10.505-85.229,38.381-66.476"/>
   <path d="m677.86,135.71,37.67,21.749,37.669,21.75"/>
   <path d="M753.2,179.21,677.86,135.71"/>
   <path d="m731.04,166.42,22.158,12.794,3.21-9.454-0.654-9.962-4.414-8.954-7.507-6.583-31.022-17.911-9.453-3.209-9.962,0.653-8.954,4.415-6.583,7.506,22.159,12.794,31.022,17.911"/>
   <path d="m798.89,345.68-85.23,10.505"/>
   <path d="m865.37,307.3,8.956,15.511,12.793,22.159,7.507-6.583,4.414-8.954,0.654-9.962-3.21-9.454-17.911-31.021-6.582-7.507-8.954-4.415-9.962-0.653-9.454,3.21-39.292,13.822-90.664,72.733,33.52,58.055,108.32-42.154,31.615-27.117"/>
   <path d="m747.18,414.24,51.71-68.56,66.475-38.381"/>
   <path d="m887.12,344.97-21.749-37.67"/>
   <path d="M865.37,307.3,843.62,269.63"/>
   <path d="M843.47,512,764.5,478.61"/>
   <path d="m764.5,478.61-0.103,66.911,114.89,17.655,40.939-7.676,9.793-1.947,8.3-5.548,5.547-8.3,1.947-9.792,0-35.822-1.947-9.793-5.547-8.3-8.3-5.547-9.793-1.948-40.939-7.676-114.78,17.783"/>
   <path d="M764.4,545.52,843.47,512h76.761"/>
   <path d="m920.23,555.5,0-43.498,0-43.499"/>
   <path d="M798.89,678.32,747.23,609.92"/>
   <path d="m865.37,716.7,8.956-15.511,12.793-22.158-31.615-27.117-108.27-41.989-33.569,57.89,90.664,72.733,39.292,13.822,9.454,3.21,9.962-0.654,8.954-4.415,6.582-7.506,17.911-31.022,3.21-9.454-0.654-9.962-4.414-8.954-7.507-6.582"/>
   <path d="m713.66,667.81,85.23,10.505,66.474,38.38,0.001,0"/>
   <path d="m843.62,754.37,21.749-37.67"/>
   <path d="M677.15,800.06,666.61,715.01"/>
   <path d="m753.2,844.79-13.822-39.292-72.77-90.486-58.018,33.341,42.154,108.32,27.117,31.615"/>
   <path d="m608.59,748.35,68.56,51.711,38.381,66.475,0,0"/>
   <path d="m753.2,844.79-37.669,21.749-37.67,21.749"/>
   <path d="m677.86,888.28,75.339-43.498,3.21,9.454-0.654,9.961-4.414,8.955-7.507,6.582-31.022,17.911-9.453,3.21-9.962-0.654-8.954-4.414-6.583-7.507"/>
   <path d="m510.83,844.63,33.391-78.962"/>
   <path d="m544.22,765.67-66.91-0.102-17.655,114.89,7.676,40.94,1.947,9.792,5.547,8.301,8.301,5.547,9.792,1.947,35.822,0,9.792-1.947,8.301-5.547,5.547-8.301,1.947-9.792,7.677-40.94-17.784-114.78"/>
   <path d="m477.31,765.57,33.519,79.064,0,76.762,0,0"/>
   <path d="m467.34,921.4,43.498,0,43.498,0"/>
   <path d="m865.37,716.7,21.749-37.669"/>
  </g>
 </g>
</svg>
