<?xml version="1.0" encoding="UTF-8" standalone="no"?>
<!-- Created with Inkscape (http://www.inkscape.org/) -->

<svg
   xmlns:dc="http://purl.org/dc/elements/1.1/"
   xmlns:cc="http://creativecommons.org/ns#"
   xmlns:rdf="http://www.w3.org/1999/02/22-rdf-syntax-ns#"
   xmlns:svg="http://www.w3.org/2000/svg"
   xmlns="http://www.w3.org/2000/svg"
   xmlns:sodipodi="http://sodipodi.sourceforge.net/DTD/sodipodi-0.dtd"
   xmlns:inkscape="http://www.inkscape.org/namespaces/inkscape"
   width="64"
   height="64"
   id="svg2"
   version="1.1"
   inkscape:version="0.48.4 r9939"
   sodipodi:docname="Gear.svg">
  <defs
     id="defs4" />
  <sodipodi:namedview
     id="base"
     pagecolor="#ffffff"
     bordercolor="#666666"
     borderopacity="1.0"
     inkscape:pageopacity="0.0"
     inkscape:pageshadow="2"
     inkscape:zoom="5.6"
     inkscape:cx="55.400665"
     inkscape:cy="39.575433"
     inkscape:document-units="px"
     inkscape:current-layer="layer1"
     showgrid="false"
     inkscape:window-width="1366"
     inkscape:window-height="705"
     inkscape:window-x="-8"
     inkscape:window-y="-8"
     inkscape:window-maximized="1" />
  <metadata
     id="metadata7">
    <rdf:RDF>
      <cc:Work
         rdf:about="">
        <dc:format>image/svg+xml</dc:format>
        <dc:type
           rdf:resource="http://purl.org/dc/dcmitype/StillImage" />
        <dc:title />
      </cc:Work>
    </rdf:RDF>
  </metadata>
  <g
     inkscape:label="Layer 1"
     inkscape:groupmode="layer"
     id="layer1"
     transform="translate(0,-988.36218)">
    <path
       style="fill:#808080;fill-opacity:1;stroke:#808080;stroke-width:0.08928572;stroke-opacity:1"
       d="m 18.180598,9.1219314 c -0.536172,0.3778035 -1.245473,0.5902735 -1.686433,1.0644316 -0.12693,0.505635 0.253281,1.022474 0.355841,1.518765 0.243163,1.106015 1.195749,1.821044 1.814623,2.71836 0.66918,0.822355 1.314083,1.66586 2.02713,2.446769 0.438757,0.279702 0.61969,-0.299041 0.492322,-0.638666 C 21.048398,15.164308 21.025964,14.056329 20.764348,13.020587 20.004927,11.74839 19.314441,10.41617 18.511906,9.1815126 18.428299,9.0581302 18.301117,9.1163984 18.180598,9.1219314 z"
       id="path3264"
       inkscape:connector-curvature="0"
       transform="translate(0,988.36218)" />
    <path
       style="fill:#808080;fill-opacity:1;stroke:#808080;stroke-width:0.08928572;stroke-opacity:1"
       d="m 20.783835,7.6515073 c -0.581906,0.3468605 -1.297894,0.5728412 -1.741072,1.0993304 -0.12242,0.5217635 0.4391,0.9173976 0.603405,1.3803033 0.763576,1.244862 1.326546,2.690265 2.603795,3.511953 0.68741,0.464337 1.291934,1.099091 2.049497,1.435869 0.620372,-0.202162 0.04776,-0.868257 -0.0257,-1.266662 -0.602608,-1.4926 -1.108464,-3.042546 -1.784635,-4.4958836 C 21.97289,8.797088 21.569562,8.0945457 20.983642,7.6775677 20.917596,7.6322685 20.85881,7.6250225 20.783835,7.6515073 z"
       id="path3266"
       inkscape:connector-curvature="0"
       transform="translate(0,988.36218)" />
    <path
       style="fill:#808080;fill-opacity:1;stroke:#808080;stroke-width:0.08928572;stroke-opacity:1"
       d="m 21.559504,14.088449 c -0.224981,0.566268 0.07675,1.211287 0.07202,1.80461 0.111562,0.625364 0.08517,1.283832 0.307443,1.878426 0.432292,0.420873 0.919544,-0.25417 1.312281,-0.423157 0.479991,-0.363004 1.121712,-0.509117 1.553232,-0.93008 -0.02082,-0.557634 -0.764086,-0.715484 -1.100446,-1.090401 -0.648968,-0.429012 -1.219322,-1.020982 -1.935268,-1.325893 -0.06976,0.02883 -0.139509,0.05766 -0.209264,0.0865 z"
       id="path3268"
       inkscape:connector-curvature="0"
       transform="translate(0,988.36218)" />
    <path
       style="fill:#808080;fill-opacity:1;stroke:#808080;stroke-width:0.08928572;stroke-opacity:1"
       d="m 31.464638,15.494699 c -2.613178,-0.04468 -5.224409,0.714129 -7.43734,2.100436 -2.11416,1.149897 -4.12938,2.625363 -5.399368,4.715064 -1.273151,2.004928 -2.52808,4.107515 -2.894318,6.493652 -0.306716,1.767938 -0.184327,3.58013 -0.144631,5.365309 0.19048,2.16206 0.997222,4.217571 2.136818,6.049312 1.237353,2.28881 3.000375,4.364746 5.315093,5.624566 1.697292,1.054151 3.493628,2.007182 5.478078,2.377068 1.791083,0.402976 3.649476,0.273586 5.470438,0.238332 2.208618,-0.20066 4.301378,-1.025548 6.186168,-2.171328 2.008827,-1.091226 3.898597,-2.514036 5.117187,-4.483817 1.378545,-2.130123 2.695675,-4.401954 3.036183,-6.960323 0.219467,-1.746343 0.160859,-3.515811 0.06371,-5.26903 -0.311208,-2.909417 -1.830222,-5.496086 -3.448279,-7.867883 -1.625432,-2.359641 -4.225838,-3.769886 -6.716342,-5.022742 -2.034238,-0.947459 -4.294474,-1.292576 -6.531804,-1.189713 -0.0772,3.66e-4 -0.154392,7.31e-4 -0.231589,0.0011 z m 3.493304,1.685268 c 1.023047,0.249225 2.116135,0.32891 3.095087,0.684875 1.607438,1.10038 3.285002,2.126528 4.853454,3.264961 1.107088,1.702469 2.302378,3.368125 3.357904,5.091425 0.365586,1.959565 0.8244,3.919246 1.13145,5.87889 -0.410182,1.941592 -0.735461,3.91866 -1.201168,5.837721 -1.145406,1.674621 -2.223256,3.416788 -3.409322,5.050448 -1.660033,1.074551 -3.284226,2.235573 -4.965738,3.25774 -1.992754,0.36805 -3.964307,0.86281 -5.972716,1.104141 -1.946309,-0.347008 -3.903758,-0.711909 -5.819306,-1.173912 -1.660771,-1.131262 -3.380999,-2.200016 -5.000195,-3.373111 -1.088211,-1.679058 -2.262605,-3.322858 -3.296349,-5.024431 -0.357947,-1.955971 -0.808218,-3.911879 -1.109802,-5.867742 0.403832,-1.947708 0.719614,-3.931508 1.176444,-5.857167 1.134656,-1.659153 2.204022,-3.379522 3.375768,-5.000316 1.679333,-1.087795 3.315469,-2.266305 5.016024,-3.302257 1.968005,-0.369042 3.936011,-0.831654 5.904018,-1.14253 0.954815,0.190422 1.909631,0.380843 2.864447,0.571265 z"
       id="path3270"
       inkscape:connector-curvature="0"
       transform="translate(0,988.36218)" />
    <path
       style="fill:#808080;fill-opacity:1;stroke:#808080;stroke-width:0.08928572;stroke-opacity:1"
       d="m 31.79667,11.376396 c -0.559755,1.026826 -1.004852,2.130146 -1.425782,3.222656 0.08061,0.609446 0.881048,0.281791 1.291851,0.377634 0.609356,-0.05589 1.30418,0.121061 1.861051,-0.16558 0.231718,-0.453702 -0.261619,-0.907837 -0.351145,-1.350387 -0.315185,-0.693873 -0.568259,-1.423172 -0.960239,-2.075953 -0.153615,-0.100237 -0.256903,-0.09758 -0.415736,-0.0084 z"
       id="path3272"
       inkscape:connector-curvature="0"
       transform="translate(0,988.36218)" />
    <path
       style="fill:#808080;fill-opacity:1;stroke:#808080;stroke-width:0.08928572;stroke-opacity:1"
       d="m 32.332384,5.3998332 c -0.216439,0.7622585 -0.02981,1.6081578 -0.09208,2.4023438 0.08102,0.9909512 -0.227082,2.0626835 0.302295,2.965789 0.404169,0.89684 0.719759,1.84095 1.198821,2.695483 0.546844,0.306055 0.577887,-0.479031 0.625987,-0.829121 C 34.606293,10.948947 34.95024,9.2625704 35.10616,7.5749019 34.912571,6.8916689 34.954294,6.106366 34.61475,5.4807484 34.043672,5.1446611 33.304019,5.3960015 32.672786,5.3133377 c -0.125073,-0.025981 -0.228893,0.044386 -0.340402,0.086495 z"
       id="path3274"
       inkscape:connector-curvature="0"
       transform="translate(0,988.36218)" />
    <path
       style="fill:#808080;fill-opacity:1;stroke:#808080;stroke-width:0.08928572;stroke-opacity:1"
       d="m 30.507607,5.3356591 c -0.460505,0.060897 -1.308804,-0.1895995 -1.290353,0.5312456 -0.141513,0.9331955 -0.496934,1.8658552 -0.199999,2.8060649 0.259437,1.5548574 0.464344,3.1235214 0.753745,4.6705024 0.251386,0.384392 0.677648,0.0045 0.726121,-0.329609 0.420878,-1.043492 0.96214,-2.064999 1.274437,-3.1385833 -0.02331,-1.4471961 0.04598,-2.9127737 -0.03411,-4.348698 C 31.527347,5.1045672 30.887889,5.4102602 30.507607,5.3356591 z"
       id="path3276"
       inkscape:connector-curvature="0"
       transform="translate(0,988.36218)" />
    <path
       style="fill:#808080;fill-opacity:1;stroke:#808080;stroke-width:0.08928572;stroke-opacity:1"
       d="m 31.32513,3.6196993 c -0.643517,-0.040248 -1.408765,0.096413 -1.727121,0.7254464 -0.04618,0.6193856 0.77283,0.4379704 1.160694,0.4909663 1.13354,-0.026569 2.290151,0.099341 3.409618,-0.07523 C 34.692888,4.4549078 34.105171,3.7590501 33.654929,3.7229359 32.892356,3.5697891 32.098832,3.6309012 31.32513,3.6196993 z"
       id="path3278"
       inkscape:connector-curvature="0"
       transform="translate(0,988.36218)" />
    <path
       style="fill:#808080;fill-opacity:1;stroke:#808080;stroke-width:0.08928572;stroke-opacity:1"
       d="m 42.982496,7.7073109 c -0.604763,0.5551063 -1.15031,1.1888993 -1.619895,1.8550087 -0.652719,1.7070794 -1.340872,3.4040524 -1.965485,5.1176474 -0.04141,0.533041 0.56243,0.398808 0.78136,0.115515 0.89965,-0.691799 1.884946,-1.316195 2.697919,-2.098573 0.703329,-1.266868 1.494547,-2.503666 2.143933,-3.7889891 C 44.99776,8.3864221 44.24349,8.3217338 43.898342,8.0200734 43.608508,7.9232337 43.309616,7.5364659 42.982496,7.7073109 z"
       id="path3280"
       inkscape:connector-curvature="0"
       transform="translate(0,988.36218)" />
    <path
       style="fill:#808080;fill-opacity:1;stroke:#808080;stroke-width:0.08928572;stroke-opacity:1"
       d="m 45.568991,9.1888957 c -0.702407,0.7915328 -1.117732,1.8194153 -1.684955,2.7149943 -0.376661,0.665152 -0.863249,1.300365 -0.818547,2.10631 -0.06037,0.915491 -0.313351,1.84114 -0.255984,2.754031 0.223593,0.465908 0.704102,0.03389 0.853794,-0.259487 1.083168,-1.344051 2.181941,-2.68055 3.228237,-4.051339 0.194512,-0.721151 0.599349,-1.468425 0.652902,-2.1875 C 47.359462,9.8411825 46.718716,9.7159452 46.3335,9.4344314 46.087866,9.3444568 45.848817,9.0802618 45.568991,9.1888957 z"
       id="path3282"
       inkscape:connector-curvature="0"
       transform="translate(0,988.36218)" />
    <path
       style="fill:#808080;fill-opacity:1;stroke:#808080;stroke-width:0.08928572;stroke-opacity:1"
       d="m 44.260397,6.6498332 c -0.401894,-0.064664 -0.776389,0.444343 -0.379464,0.7170759 1.138684,0.7780008 2.348486,1.4853438 3.604911,2.0563616 0.528921,0.1024503 0.4942,-0.586971 0.248326,-0.8677455 C 47.279079,7.8261779 46.380772,7.5591247 45.688027,7.1105877 45.243885,6.8864812 44.770263,6.6420331 44.260397,6.6498332 z"
       id="path3284"
       inkscape:connector-curvature="0"
       transform="translate(0,988.36218)" />
    <path
       style="fill:#808080;fill-opacity:1;stroke:#808080;stroke-width:0.08928572;stroke-opacity:1"
       d="m 42.089638,14.021485 c -0.977952,0.67814 -1.984655,1.365037 -2.845982,2.18471 -0.10886,0.589886 0.710056,0.608496 1.054688,0.881696 0.528501,0.229167 0.949576,0.696731 1.509486,0.842634 0.538554,-0.168438 0.298376,-0.913876 0.46596,-1.330915 0.07511,-0.797739 0.256703,-1.600439 0.239956,-2.399554 -0.04396,-0.132327 -0.263614,-0.270469 -0.424108,-0.178571 z"
       id="path3286"
       inkscape:connector-curvature="0"
       transform="translate(0,988.36218)" />
    <path
       style="fill:#808080;fill-opacity:1;stroke:#808080;stroke-width:0.08928572;stroke-opacity:1"
       d="m 49.483612,21.504744 c -1.095466,0.104069 -2.200649,0.187127 -3.28125,0.390625 -0.487564,0.381178 0.209961,0.85209 0.368303,1.233259 0.391765,0.52317 0.544539,1.202891 0.987723,1.676897 0.534237,-0.01385 0.708376,-0.706988 1.064369,-1.030679 0.441089,-0.656571 1.056402,-1.225732 1.332395,-1.968763 -0.02981,-0.249077 -0.25134,-0.337011 -0.47154,-0.301339 z"
       id="path3288"
       inkscape:connector-curvature="0"
       transform="translate(0,988.36218)" />
    <path
       style="fill:#808080;fill-opacity:1;stroke:#808080;stroke-width:0.08928572;stroke-opacity:1"
       d="m 53.481938,16.43778 c -1.0599,0.344818 -2.139562,0.707123 -2.974331,1.481584 -1.168627,0.956011 -2.406175,1.846497 -3.501674,2.876675 -0.150685,0.585288 0.617955,0.45631 0.967521,0.38249 1.061707,-0.180907 2.185186,-0.160283 3.200931,-0.531878 1.198845,-0.712662 2.470251,-1.350427 3.61545,-2.129996 0.244466,-0.396307 -0.26824,-0.80123 -0.389929,-1.172067 -0.236624,-0.326417 -0.412987,-0.963257 -0.917968,-0.906808 z"
       id="path3290"
       inkscape:connector-curvature="0"
       transform="translate(0,988.36218)" />
    <path
       style="fill:#808080;fill-opacity:1;stroke:#808080;stroke-width:0.08928572;stroke-opacity:1"
       d="m 55.069549,19.004744 c -1.3554,0.707744 -2.687401,1.477538 -3.987165,2.276786 -0.668261,0.964858 -1.476968,1.845639 -2.067522,2.857143 -0.127171,0.488093 0.522642,0.494155 0.80119,0.279376 1.608858,-0.608156 3.21943,-1.225649 4.809859,-1.878149 0.552345,-0.530622 1.244021,-0.947103 1.682477,-1.582031 -0.02529,-0.588163 -0.51341,-1.075742 -0.743695,-1.607068 -0.08987,-0.180654 -0.263137,-0.421231 -0.495144,-0.346057 z"
       id="path3292"
       inkscape:connector-curvature="0"
       transform="translate(0,988.36218)" />
    <path
       style="fill:#808080;fill-opacity:1;stroke:#808080;stroke-width:0.08928572;stroke-opacity:1"
       d="m 54.969103,16.13086 c -0.540235,0.04525 -0.363833,0.704903 -0.136719,0.993304 0.612481,1.01112 1.100204,2.129629 1.87221,3.027343 0.39715,0.311729 0.742812,-0.206753 0.638951,-0.599888 -0.120326,-1.017717 -0.829829,-1.848826 -1.336496,-2.706473 -0.248268,-0.334882 -0.56958,-0.752447 -1.037946,-0.714286 z"
       id="path3294"
       inkscape:connector-curvature="0"
       transform="translate(0,988.36218)" />
    <path
       style="fill:#808080;fill-opacity:1;stroke:#808080;stroke-width:0.08928572;stroke-opacity:1"
       d="m 53.35638,29.311664 c -0.962152,0.19654 -1.986361,0.220873 -2.910212,0.523696 -0.328985,0.570654 0.646071,0.639974 0.988443,0.863069 0.924715,0.347505 1.810954,0.852071 2.758822,1.104979 1.438802,-0.02164 2.896049,0.04994 4.323586,-0.02864 0.438093,-0.280787 0.124784,-0.964686 0.218825,-1.413996 0.03007,-0.479961 0.09807,-1.223122 -0.602971,-1.146609 -0.99558,-0.147071 -1.992522,-0.492971 -2.992839,-0.182606 -0.594551,0.09337 -1.189103,0.186738 -1.783654,0.280108 z"
       id="path3296"
       inkscape:connector-curvature="0"
       transform="translate(0,988.36218)" />
    <path
       style="fill:#808080;fill-opacity:1;stroke:#808080;stroke-width:0.08928572;stroke-opacity:1"
       d="m 53.808388,32.299945 c -1.066313,0.493133 -2.217362,0.842205 -3.214285,1.464844 -0.322748,0.5101 0.448436,0.604969 0.790369,0.616281 1.609735,0.231993 3.21401,0.552579 4.82905,0.717424 0.821922,-0.130596 1.700168,-0.183974 2.463728,-0.499442 0.113507,-0.679387 0.06526,-1.418739 0.02449,-2.102604 -0.284475,-0.44011 -0.97507,-0.123543 -1.427947,-0.220261 -1.153981,0.01496 -2.315985,-0.03526 -3.465403,0.02376 z"
       id="path3298"
       inkscape:connector-curvature="0"
       transform="translate(0,988.36218)" />
    <path
       style="fill:#808080;fill-opacity:1;stroke:#808080;stroke-width:0.08928572;stroke-opacity:1"
       d="m 49.246446,30.452847 c -0.350448,0.454302 -0.123714,1.127564 -0.203871,1.665736 0.102097,0.480715 -0.244342,1.236208 0.247442,1.517005 1.042865,-0.285199 2.05077,-0.846294 3.080133,-1.23658 0.673977,-0.09183 0.445286,-0.823301 -0.130521,-0.84573 -0.924082,-0.380883 -1.833084,-0.804508 -2.772758,-1.142284 -0.07347,0.01395 -0.14695,0.0279 -0.220425,0.04185 z"
       id="path3300"
       inkscape:connector-curvature="0"
       transform="translate(0,988.36218)" />
    <path
       style="fill:#808080;fill-opacity:1;stroke:#808080;stroke-width:0.08928572;stroke-opacity:1"
       d="m 59.670554,29.615793 c -0.632526,0.0027 -0.36884,0.844649 -0.451311,1.255556 0.0069,1.1123 -0.08591,2.250614 0.09417,3.348239 0.379614,0.471246 0.865336,-0.211079 0.990513,-0.585938 0.146003,-1.026492 0.09853,-2.086591 0.03348,-3.119419 -0.06616,-0.358529 -0.33089,-0.763279 -0.666852,-0.898438 z"
       id="path3302"
       inkscape:connector-curvature="0"
       transform="translate(0,988.36218)" />
    <path
       style="fill:#808080;fill-opacity:1;stroke:#808080;stroke-width:0.08928572;stroke-opacity:1"
       d="m 56.673902,43.714565 c -0.743935,1.2198 -1.459065,2.470052 -2.162389,3.716518 -0.04229,0.635241 0.858312,0.506689 1.135603,0.15346 0.729398,-0.813687 1.251803,-1.813809 1.662947,-2.82087 0.148924,-0.390362 -0.04889,-1.389856 -0.636161,-1.049108 z"
       id="path3304"
       inkscape:connector-curvature="0"
       transform="translate(0,988.36218)" />
    <path
       style="fill:#808080;fill-opacity:1;stroke:#808080;stroke-width:0.08928572;stroke-opacity:1"
       d="m 47.377027,42.754744 c -0.489913,0.0778 -0.290267,0.660496 0.03576,0.821354 1.345819,1.12512 2.721322,2.221098 4.104867,3.29695 0.706082,0.235741 1.394784,0.539383 2.112165,0.731026 0.532981,-0.218721 0.658836,-0.906065 0.989496,-1.333482 0.207856,-0.288814 0.434847,-0.805005 -0.04921,-0.962835 -1.227251,-0.68078 -2.41284,-1.465643 -3.671875,-2.070312 -1.160861,-0.231883 -2.352586,-0.340957 -3.521205,-0.482701 z"
       id="path3306"
       inkscape:connector-curvature="0"
       transform="translate(0,988.36218)" />
    <path
       style="fill:#808080;fill-opacity:1;stroke:#808080;stroke-width:0.08928572;stroke-opacity:1"
       d="m 49.073455,39.520927 c -0.275521,0.484979 0.404183,0.863787 0.571987,1.269531 0.541572,0.673002 0.986779,1.454087 1.606249,2.050942 1.289299,0.714203 2.53465,1.536851 3.855187,2.174158 0.52,-0.117899 0.61251,-0.817308 0.916912,-1.189385 0.184854,-0.320902 0.492138,-0.790894 0.07255,-1.071429 -0.72949,-0.650416 -1.403714,-1.435281 -2.392232,-1.673094 -1.475084,-0.542876 -2.919347,-1.192683 -4.421384,-1.647219 -0.06976,0.02883 -0.139509,0.05766 -0.209264,0.0865 z"
       id="path3308"
       inkscape:connector-curvature="0"
       transform="translate(0,988.36218)" />
    <path
       style="fill:#808080;fill-opacity:1;stroke:#808080;stroke-width:0.08928572;stroke-opacity:1"
       d="m 47.485844,39.225168 c -0.426873,0.797631 -0.855023,1.599799 -1.364398,2.357701 -0.238768,0.476084 0.369424,0.654404 0.728237,0.63058 0.970415,0.08017 1.952447,0.353326 2.924107,0.262277 0.501955,-0.309466 -0.116496,-0.81164 -0.307481,-1.119133 -0.592101,-0.717718 -1.067468,-1.574587 -1.762831,-2.181648 -0.07254,0.01674 -0.14509,0.03348 -0.217634,0.05022 z"
       id="path3310"
       inkscape:connector-curvature="0"
       transform="translate(0,988.36218)" />
    <path
       style="fill:#808080;fill-opacity:1;stroke:#808080;stroke-width:0.08928572;stroke-opacity:1"
       d="m 42.943433,47.140905 c -0.343242,0.397469 -0.02047,0.995693 -0.051,1.472608 0.153294,0.805409 0.08121,1.682573 0.391215,2.440516 0.745996,1.248444 1.418357,2.557418 2.204608,3.770729 0.439515,0.238555 0.857669,-0.338233 1.272478,-0.486648 0.385805,-0.229156 1.039508,-0.471236 0.724223,-1.013091 -0.30935,-0.898098 -0.472834,-1.891209 -1.200037,-2.566566 -0.994227,-1.201257 -1.914855,-2.472898 -2.998297,-3.595227 -0.104411,-0.09031 -0.223979,-0.03131 -0.343192,-0.02232 z"
       id="path3312"
       inkscape:connector-curvature="0"
       transform="translate(0,988.36218)" />
    <path
       style="fill:#808080;fill-opacity:1;stroke:#808080;stroke-width:0.08928572;stroke-opacity:1"
       d="m 39.491982,49.018695 c -0.24483,0.48893 0.263453,0.99274 0.345982,1.478795 0.564651,1.38542 1.028848,2.829983 1.668209,4.174788 0.495663,0.545287 0.924692,1.136149 1.462372,1.637153 0.543621,0.125056 0.969614,-0.452207 1.452426,-0.62645 0.528645,-0.144414 0.815526,-0.652916 0.361314,-1.074414 -0.68372,-1.153587 -1.316239,-2.343808 -2.031374,-3.474917 -0.985855,-0.724774 -1.923953,-1.524087 -2.952009,-2.18471 -0.111057,-0.05833 -0.204755,0.04429 -0.30692,0.06976 z"
       id="path3314"
       inkscape:connector-curvature="0"
       transform="translate(0,988.36218)" />
    <path
       style="fill:#808080;fill-opacity:1;stroke:#808080;stroke-width:0.08928572;stroke-opacity:1"
       d="m 41.710174,46.086217 c -0.791106,0.420333 -1.528119,0.949465 -2.357701,1.303014 -0.41524,0.416334 0.286887,0.751056 0.552456,0.990513 0.757371,0.540514 1.449904,1.21516 2.277842,1.633024 0.626426,-0.1014 0.247512,-0.887802 0.25843,-1.289832 -0.162886,-0.844787 -0.116657,-1.764932 -0.421317,-2.564174 -0.102255,-0.02322 -0.198365,-0.132687 -0.30971,-0.07255 z"
       id="path3316"
       inkscape:connector-curvature="0"
       transform="translate(0,988.36218)" />
    <path
       style="fill:#808080;fill-opacity:1;stroke:#808080;stroke-width:0.08928572;stroke-opacity:1"
       d="m 47.541647,54.56278 c -1.270948,0.516568 -2.441842,1.286769 -3.59933,2.025669 -0.402255,0.181935 -0.235398,0.768693 0.200893,0.731027 1.042978,0.132358 1.878427,-0.695383 2.750981,-1.123903 0.530673,-0.267623 1.118344,-0.823798 0.985068,-1.468173 -0.09879,-0.08911 -0.188869,-0.204592 -0.337612,-0.16462 z"
       id="path3318"
       inkscape:connector-curvature="0"
       transform="translate(0,988.36218)" />
    <path
       style="fill:#808080;fill-opacity:1;stroke:#808080;stroke-width:0.08928572;stroke-opacity:1"
       d="m 33.766536,50.525391 c -0.599446,1.093488 -1.045354,2.282294 -1.517857,3.4375 0.01905,1.528099 -0.05321,3.0746 0.02573,4.591444 0.271128,0.432351 0.93788,0.130186 1.377724,0.218824 0.470273,0.0385 1.176744,0.0812 1.115155,-0.593191 0.228946,-0.989993 0.429586,-2.007627 0.184671,-3.015469 -0.264488,-1.535809 -0.408234,-3.112802 -0.763056,-4.620255 -0.142735,-0.113056 -0.266977,-0.108605 -0.422372,-0.01885 z"
       id="path3320"
       inkscape:connector-curvature="0"
       transform="translate(0,988.36218)" />
    <path
       style="fill:#808080;fill-opacity:1;stroke:#808080;stroke-width:0.08928572;stroke-opacity:1"
       d="m 31.48417,49.021485 c -0.370383,0.04568 -1.221624,-0.158404 -1.08259,0.477121 0.451225,1.040368 0.819078,2.13345 1.386719,3.113839 0.583562,0.311047 0.662741,-0.603437 0.900737,-0.966961 0.315507,-0.742348 0.68092,-1.477226 0.92404,-2.247325 -0.178818,-0.569157 -0.94712,-0.285879 -1.389505,-0.377493 -0.246458,-0.0031 -0.492952,-0.0029 -0.739401,8.19e-4 z"
       id="path3322"
       inkscape:connector-curvature="0"
       transform="translate(0,988.36218)" />
    <path
       style="fill:#808080;fill-opacity:1;stroke:#808080;stroke-width:0.08928572;stroke-opacity:1"
       d="m 29.840755,50.628628 c -0.312307,0.762457 -0.30211,1.646094 -0.482464,2.454298 -0.142337,1.109241 -0.398982,2.217625 -0.463841,3.32824 0.194918,0.713764 0.162746,1.519924 0.491505,2.183422 0.536491,0.351298 1.260057,0.09472 1.86384,0.178571 0.718357,0.109728 0.495305,-0.758518 0.521763,-1.194196 -0.0407,-1.238808 0.08159,-2.503569 -0.05686,-3.726307 -0.476815,-1.065628 -0.849468,-2.187096 -1.427513,-3.201707 -0.125104,-0.142183 -0.300511,-0.11869 -0.446428,-0.02232 z"
       id="path3324"
       inkscape:connector-curvature="0"
       transform="translate(0,988.36218)" />
    <path
       style="fill:#808080;fill-opacity:1;stroke:#808080;stroke-width:0.08928572;stroke-opacity:1"
       d="m 24.162741,48.951731 c -1.027268,0.710818 -2.01839,1.48379 -2.988281,2.271205 -0.712626,1.296423 -1.549765,2.542754 -2.176339,3.875558 0.173663,0.532305 0.86287,0.670535 1.272084,0.986732 0.2803,0.201526 0.718083,0.418764 0.954478,0.04005 0.647519,-0.751754 1.45712,-1.426045 1.695991,-2.431071 0.554271,-1.492867 1.201736,-2.958234 1.680125,-4.474621 -0.02698,-0.203267 -0.241828,-0.365676 -0.438058,-0.267857 z"
       id="path3326"
       inkscape:connector-curvature="0"
       transform="translate(0,988.36218)" />
    <path
       style="fill:#808080;fill-opacity:1;stroke:#808080;stroke-width:0.08928572;stroke-opacity:1"
       d="m 20.694549,47.129744 c -1.246608,1.422363 -2.418041,2.923912 -3.585379,4.414062 -0.224006,0.711819 -0.523331,1.407039 -0.666853,2.140067 0.202796,0.500939 0.856726,0.608441 1.258371,0.92355 0.310527,0.201797 0.849101,0.447024 1.015625,-0.06696 0.716217,-1.247517 1.460034,-2.485576 2.131696,-3.75558 0.106741,-1.175669 0.34269,-2.354472 0.345982,-3.532366 -0.06689,-0.175565 -0.324729,-0.280349 -0.499442,-0.122768 z"
       id="path3328"
       inkscape:connector-curvature="0"
       transform="translate(0,988.36218)" />
    <path
       style="fill:#808080;fill-opacity:1;stroke:#808080;stroke-width:0.08928572;stroke-opacity:1"
       d="m 22.139862,46.12249 c -0.483014,0.292411 -0.306287,1.003445 -0.446429,1.478794 -0.03959,0.740922 -0.257045,1.476377 -0.226004,2.209822 0.312314,0.501242 0.794888,-0.121304 1.111561,-0.306399 0.725536,-0.589657 1.576653,-1.067964 2.215103,-1.737878 0.02034,-0.53239 -0.747158,-0.562966 -1.093735,-0.857484 -0.531592,-0.196905 -0.972932,-0.816088 -1.560496,-0.786855 z"
       id="path3330"
       inkscape:connector-curvature="0"
       transform="translate(0,988.36218)" />
    <path
       style="fill:#808080;fill-opacity:1;stroke:#808080;stroke-width:0.08928572;stroke-opacity:1"
       d="m 16.65158,42.763114 c -1.192714,0.117239 -2.391802,0.247668 -3.571428,0.440849 -1.270111,0.767323 -2.62292,1.434123 -3.8420761,2.265625 -0.1989168,0.570201 0.3817238,1.0877 0.5998884,1.582031 0.1671707,0.363317 0.5663277,0.690408 0.9541777,0.415189 1.012926,-0.300627 1.988165,-0.725308 2.776479,-1.447249 1.140385,-0.937984 2.350026,-1.808851 3.414991,-2.823967 0.0867,-0.225409 -0.09381,-0.462544 -0.332032,-0.432478 z"
       id="path3332"
       inkscape:connector-curvature="0"
       transform="translate(0,988.36218)" />
    <path
       style="fill:#808080;fill-opacity:1;stroke:#808080;stroke-width:0.08928572;stroke-opacity:1"
       d="m 14.639862,39.451173 c -1.769716,0.597015 -3.510733,1.299183 -5.2427459,1.994977 -0.5790611,0.568169 -1.3268206,1.002767 -1.796875,1.657366 0.2757567,0.629105 0.6444222,1.252733 1.046317,1.819197 0.4792355,0.259646 0.9101351,-0.348145 1.3494499,-0.490691 0.978299,-0.60511 2.049251,-1.100459 2.962482,-1.787355 0.66242,-0.92903 1.484288,-1.819917 2.018983,-2.800079 0.094,-0.233661 -0.118469,-0.416836 -0.337611,-0.393415 z"
       id="path3334"
       inkscape:connector-curvature="0"
       transform="translate(0,988.36218)" />
    <path
       style="fill:#808080;fill-opacity:1;stroke:#808080;stroke-width:0.08928572;stroke-opacity:1"
       d="m 16.199571,39.186106 c -0.753871,0.927161 -1.503399,1.891348 -2.151227,2.896205 -0.05532,0.62125 0.7164,0.401524 1.085379,0.371094 0.929888,-0.161731 1.923608,-0.128654 2.80971,-0.426898 0.157073,-0.514883 -0.46929,-0.880494 -0.625687,-1.349244 -0.324077,-0.485376 -0.477898,-1.097696 -0.89496,-1.505108 -0.0744,0.0047 -0.14881,0.0093 -0.223215,0.01395 z"
       id="path3336"
       inkscape:connector-curvature="0"
       transform="translate(0,988.36218)" />
    <path
       style="fill:#808080;fill-opacity:1;stroke:#808080;stroke-width:0.08928572;stroke-opacity:1"
       d="m 5.3680982,32.364119 c -0.2143086,0.648279 -0.030459,1.379244 -0.092076,2.059152 0.1969747,0.521659 0.936306,0.338024 1.3808843,0.515533 1.1674654,0.355816 2.3491949,-0.07121 3.5205815,-0.180541 1.086964,-0.207711 2.229425,-0.244892 3.282128,-0.563787 0.300317,-0.557238 -0.553575,-0.675726 -0.882836,-0.879358 -0.859149,-0.343327 -1.697193,-0.80046 -2.585356,-1.037495 -1.4964693,0.02341 -3.0113716,-0.04604 -4.4965774,0.03411 l -0.082515,0.03411 -0.044234,0.01828 z"
       id="path3338"
       inkscape:connector-curvature="0"
       transform="translate(0,988.36218)" />
    <path
       style="fill:#808080;fill-opacity:1;stroke:#808080;stroke-width:0.08928572;stroke-opacity:1"
       d="m 6.6180982,29.077289 c -0.4444418,0.174677 -1.3964583,-0.02606 -1.3420759,0.675223 0.049992,0.650561 -0.1047559,1.341767 0.086496,1.964286 0.7492669,0.216286 1.5820935,0.02992 2.3632812,0.09207 0.9771187,-0.0803 2.0347878,0.226732 2.9236765,-0.302909 0.953638,-0.427923 1.960075,-0.777403 2.881645,-1.252971 0.394112,-0.598639 -0.643061,-0.571148 -1.015076,-0.646473 -1.629644,-0.22468 -3.2579552,-0.566449 -4.8892302,-0.714034 -0.3362387,0.0616 -0.6724774,0.123202 -1.0087162,0.184803 z"
       id="path3340"
       inkscape:connector-curvature="0"
       transform="translate(0,988.36218)" />
    <path
       style="fill:#808080;fill-opacity:1;stroke:#808080;stroke-width:0.08928572;stroke-opacity:1"
       d="m 14.542205,30.371931 c -1.04129,0.503013 -2.206689,0.801129 -3.161272,1.456474 -0.30734,0.512367 0.481817,0.642117 0.794892,0.803011 0.848418,0.318847 1.658064,0.815773 2.530947,1.023383 0.472882,-0.244003 0.158258,-0.936409 0.252587,-1.377172 -0.04557,-0.608976 0.106461,-1.258285 -0.08512,-1.838731 -0.112895,-0.04539 -0.206327,-0.124657 -0.332032,-0.06696 z"
       id="path3342"
       inkscape:connector-curvature="0"
       transform="translate(0,988.36218)" />
    <path
       style="fill:#808080;fill-opacity:1;stroke:#808080;stroke-width:0.08928572;stroke-opacity:1"
       d="m 8.7135223,19.029856 c -0.4282998,0.54705 -0.8615309,1.169309 -1.0239955,1.855468 0.1304393,0.525186 0.7490691,0.761774 1.0909598,1.146764 1.1787108,0.971014 2.7304934,1.285362 4.0986634,1.904859 0.680679,0.20256 1.323027,0.639388 2.025779,0.698377 0.488273,-0.345732 -0.166605,-0.829845 -0.348807,-1.162778 -0.600798,-0.763062 -1.138393,-1.625729 -1.823703,-2.314194 -1.232492,-0.71174 -2.461565,-1.4582 -3.7036065,-2.136867 -0.1089655,-0.0063 -0.2178152,-0.07655 -0.3152902,0.0084 z"
       id="path3344"
       inkscape:connector-curvature="0"
       transform="translate(0,988.36218)" />
    <path
       style="fill:#808080;fill-opacity:1;stroke:#808080;stroke-width:0.08928572;stroke-opacity:1"
       d="m 10.192317,16.423829 c -0.4092707,0.533921 -0.7757982,1.152373 -1.0072545,1.791294 -0.0607,0.584082 0.7625045,0.657304 1.1045085,0.97375 1.000193,0.533554 1.946773,1.209907 2.982351,1.652216 1.183404,0.106588 2.368176,0.403054 3.552649,0.395798 0.49333,-0.26778 -0.05526,-0.738243 -0.33959,-0.907739 -1.33302,-1.077531 -2.660118,-2.168403 -4.018668,-3.210565 -0.758699,-0.20228 -1.496792,-0.637622 -2.273996,-0.694754 z"
       id="path3346"
       inkscape:connector-curvature="0"
       transform="translate(0,988.36218)" />
    <path
       style="fill:#808080;fill-opacity:1;stroke:#808080;stroke-width:0.08928572;stroke-opacity:1"
       d="m 14.344103,21.499164 c -0.486056,0.106373 -0.202129,0.664949 0.03348,0.904017 0.613914,0.801377 1.150611,1.706765 1.866684,2.407068 0.524836,0.02777 0.562033,-0.74053 0.842579,-1.076152 0.254682,-0.569697 0.711089,-1.043214 0.917969,-1.621094 -0.291844,-0.480527 -1.02066,-0.245868 -1.50009,-0.404096 -0.718283,-0.07955 -1.437734,-0.193595 -2.160624,-0.209743 z"
       id="path3348"
       inkscape:connector-curvature="0"
       transform="translate(0,988.36218)" />
    <path
       style="fill:#808080;fill-opacity:1;stroke:#808080;stroke-width:0.08928572;stroke-opacity:1"
       d="m 8.9506875,16.122489 c -0.9045077,0.199953 -1.2364293,1.236736 -1.7020089,1.925224 -0.3294252,0.640817 -0.938691,1.491326 -0.3850446,2.181919 0.4314227,0.41884 0.7144807,-0.336224 0.8927267,-0.637423 0.5749119,-1.041703 1.234214,-2.061982 1.7666836,-3.10863 0.098021,-0.345764 -0.3265067,-0.404191 -0.5723568,-0.36109 z"
       id="path3350"
       inkscape:connector-curvature="0"
       transform="translate(0,988.36218)" />
    <path
       style="fill:#808080;fill-opacity:1;stroke:#808080;stroke-width:0.08928572;stroke-opacity:1"
       d="m 4.2659777,29.657646 c -0.8338259,0.45117 -0.6160276,1.553346 -0.6773741,2.338143 0.010208,0.804161 -0.1242395,1.891581 0.691325,2.368888 C 4.8423543,34.519392 4.7722321,33.768981 4.7845949,33.42721 4.7727739,32.247701 4.9111097,31.037991 4.7012459,29.87528 4.6393119,29.705711 4.4398985,29.600167 4.265978,29.657646 z"
       id="path3352"
       inkscape:connector-curvature="0"
       transform="translate(0,988.36218)" />
    <path
       style="fill:#808080;fill-opacity:1;stroke:#808080;stroke-width:0.08928572;stroke-opacity:1"
       d="m 7.0003527,43.745257 c -0.6079002,0.299617 -0.3327031,1.141882 -0.063746,1.600725 0.4663118,0.807298 0.8277506,1.750526 1.5648623,2.350168 0.3080302,0.255553 1.1550435,0.31976 0.9988839,-0.265067 C 8.7687904,46.244028 8.1849158,44.945934 7.346335,43.834543 7.251214,43.749153 7.124544,43.723283 7.0003529,43.745253 z"
       id="path3354"
       inkscape:connector-curvature="0"
       transform="translate(0,988.36218)" />
    <path
       style="fill:#808080;fill-opacity:1;stroke:#808080;stroke-width:0.08928572;stroke-opacity:1"
       d="m 16.369772,54.604632 c -0.542501,0.202871 -0.12909,0.873414 0.131139,1.146764 0.807654,0.636084 1.730621,1.146547 2.681361,1.534598 0.381112,0.09036 1.148821,0.150971 1.127232,-0.410156 -0.377036,-0.556236 -1.104537,-0.775197 -1.638658,-1.161342 -0.739246,-0.36751 -1.412268,-0.946745 -2.228529,-1.121024 l -0.07254,0.01116 z"
       id="path3356"
       inkscape:connector-curvature="0"
       transform="translate(0,988.36218)" />
    <path
       style="fill:#808080;fill-opacity:1;stroke:#808080;stroke-width:0.08928572;stroke-opacity:1"
       d="m 31.238634,59.155414 c -0.507895,0.07457 -1.196813,-0.140169 -1.587612,0.259486 -0.202837,0.467176 0.45453,0.790884 0.828683,0.901228 1.031291,0.09626 2.093354,0.113983 3.12221,-0.01395 0.372697,-0.123747 1.047847,-0.524307 0.705915,-0.957031 -0.619601,-0.331854 -1.391733,-0.121957 -2.070309,-0.19168 -0.332961,-0.0019 -0.665925,0.0013 -0.998887,0.0019 z"
       id="path3360"
       inkscape:connector-curvature="0"
       transform="translate(0,988.36218)" />
    <path
       style="fill:#808080;fill-opacity:1;stroke:#808080;stroke-width:0.08928572;stroke-opacity:1"
       d="m 29.129259,17.643137 c -0.992903,0.239027 -2.041703,0.328521 -3.00097,0.658111 -1.556285,1.06526 -3.150232,2.084786 -4.683182,3.178384 -1.075487,1.629818 -2.206202,3.230346 -3.244978,4.880023 -0.364077,1.899054 -0.782131,3.792107 -1.113281,5.694754 0.386573,1.879897 0.707615,3.780288 1.135603,5.647322 1.108195,1.628529 2.168531,3.296151 3.303571,4.902343 1.586615,1.049789 3.144652,2.152454 4.748884,3.169643 1.90221,0.361989 3.78876,0.837809 5.703125,1.110491 1.95273,-0.313737 3.896132,-0.716661 5.825893,-1.138393 1.601356,-1.100565 3.240358,-2.155512 4.818639,-3.28404 1.053167,-1.610627 2.162708,-3.191119 3.183593,-4.818638 0.346612,-1.873826 0.81372,-3.74071 1.065849,-5.62221 -0.289342,-1.919723 -0.676931,-3.830758 -1.08538,-5.725446 -1.091112,-1.607918 -2.126987,-3.258308 -3.244978,-4.84375 -1.636827,-1.077086 -3.242745,-2.211787 -4.896763,-3.256139 -1.899638,-0.364947 -3.793584,-0.789281 -5.697545,-1.113281 -0.939359,0.186942 -1.87872,0.373884 -2.81808,0.560826 z m 2.594866,0.722656 c 1.656844,-0.06589 3.320463,0.135324 4.854911,0.744978 4.050002,1.425264 7.372929,4.842008 8.533287,8.981615 0.676933,2.187678 0.703507,4.564337 0.269726,6.808005 -0.848663,3.96895 -3.570351,7.51749 -7.234933,9.321987 -1.906811,0.96879 -4.045986,1.499373 -6.19137,1.408513 -3.394894,0.129911 -6.742206,-1.293058 -9.227157,-3.579272 -3.036203,-2.751449 -4.706035,-6.926371 -4.366629,-11.010045 0.276764,-4.953968 3.524945,-9.622712 8.102678,-11.545759 1.667401,-0.741922 3.422408,-1.176909 5.259487,-1.130022 z"
       id="path3362"
       inkscape:connector-curvature="0"
       transform="translate(0,988.36218)" />
    <path
       style="fill:#808080;fill-opacity:1;stroke:#808080;stroke-width:0.08928572;stroke-opacity:1"
       d="m 31.735286,18.834543 c -3.495458,-0.06618 -6.91193,1.548252 -9.302456,4.05971 -2.546848,2.673667 -3.924242,6.433283 -3.59654,10.122768 0.241611,4.030552 2.550991,7.809099 5.906808,10.016741 1.739449,1.215554 3.830315,1.86947 5.920759,2.126116 2.268919,0.06352 4.625376,-0.04106 6.688058,-1.09096 4.587697,-1.976115 7.834541,-6.746513 7.829241,-11.760603 0.252856,-5.268445 -3.124364,-10.467618 -7.995013,-12.440305 -1.55793,-0.70701 -3.256434,-1.094556 -4.970947,-1.036257 -0.159979,8.4e-5 -0.319958,-0.0011 -0.47991,0.0028 z m 2.243303,3.197545 c 0.929602,0.237236 1.972771,0.20009 2.715558,0.888683 0.896522,0.651945 1.923983,1.173253 2.737507,1.908004 0.706226,1.107011 1.500266,2.177922 2.15323,3.306589 0.23206,1.316205 0.555666,2.632185 0.733519,3.948148 -0.225989,1.181706 -0.451982,2.363411 -0.677983,3.545116 -0.966032,0.0267 -1.959938,-0.15213 -2.909604,0.0055 -0.770092,0.306847 -1.644445,0.429551 -2.344303,0.862226 -0.298342,1.063004 -0.914398,2.084981 -0.748128,3.222507 0.0123,0.634317 0.02168,1.268685 0.03105,1.903051 -1.27719,0.227989 -2.545725,0.565471 -3.823535,0.715981 -1.312226,-0.292305 -2.658864,-0.505997 -3.948743,-0.852175 -1.092704,-0.760446 -2.253708,-1.453761 -3.303297,-2.257221 -0.718428,-1.142152 -1.521533,-2.250081 -2.186505,-3.414083 -0.228348,-1.307021 -0.560766,-2.60535 -0.73565,-3.911785 0.233158,-1.178039 0.466394,-2.356062 0.699738,-3.534065 0.966032,-0.0267 1.959938,0.15213 2.909604,-0.0055 0.770092,-0.306847 1.644446,-0.429551 2.344303,-0.862226 0.295696,-1.066915 0.917718,-2.0902 0.750889,-3.230876 -0.01112,-0.631563 -0.0242,-1.263095 -0.03381,-1.894682 1.250673,-0.226514 2.500861,-0.548451 3.751066,-0.719145 0.628364,0.125318 1.256729,0.250635 1.885094,0.375953 z"
       id="path3364"
       inkscape:connector-curvature="0"
       transform="translate(0,988.36218)" />
    <path
       style="fill:#808080;fill-opacity:1;stroke:#808080;stroke-width:0.08928572;stroke-opacity:1"
       d="m 38.426134,24.794364 c -0.426561,0.314411 -0.698706,0.857681 -0.864955,1.353237 0.179893,0.606305 0.793997,0.09027 1.110491,-0.106027 0.43688,-0.164636 0.700835,-0.689855 0.265067,-1.021205 -0.12908,-0.135494 -0.307374,-0.293237 -0.510603,-0.226005 z"
       id="path3366"
       inkscape:connector-curvature="0"
       transform="translate(0,988.36218)" />
    <path
       style="fill:#808080;fill-opacity:1;stroke:#808080;stroke-width:0.08928572;stroke-opacity:1"
       d="m 25.970777,37.609655 c -0.429955,0.228492 -0.92008,0.430403 -1.230469,0.809151 0.05071,0.358007 0.446406,0.813096 0.842758,0.779127 0.407612,-0.26577 0.625818,-0.804864 0.806238,-1.239506 0.04956,-0.224327 -0.206416,-0.442327 -0.418527,-0.348772 z"
       id="path3368"
       inkscape:connector-curvature="0"
       transform="translate(0,988.36218)" />
    <path
       style="fill:#808080;fill-opacity:1;stroke:#808080;stroke-width:0.04464286;stroke-opacity:1"
       d="M 19.471013,6.6233802 C 18.82086,6.6789128 18.29627,7.1262037 17.729569,7.4064059 17.117462,7.7963308 16.313776,8.1005732 16.093502,8.8666838 15.998463,9.1353236 16.057133,9.5906572 16.431113,9.5642284 17.302787,9.1376257 18.12492,8.6058611 18.975592,8.1340279 19.432947,7.8485582 19.93682,7.6207281 20.365268,7.29944 20.590304,7.0728784 20.315812,6.7882076 20.073691,6.7308021 19.884246,6.6506958 19.676742,6.61236 19.471013,6.6233802 z"
       id="path3370"
       inkscape:connector-curvature="0"
       transform="translate(0,988.36218)" />
    <g
       id="g3167"
       transform="matrix(0.06586225,0,0,0.06586225,-1.6446076,986.6407)">
      <path
         id="path2987"
         d="m 347.999,349.165 -49.926,74.705 -17.525,88.13 17.525,88.13 49.926,74.704 74.704,49.926 88.13,17.525 88.13,-17.525 74.704,-49.926 49.926,-74.704 17.525,-88.13 -17.525,-88.13 -49.926,-74.705 -74.704,-49.925 -88.13,-17.525 -88.13,17.525 -74.704,49.925"
         inkscape:connector-curvature="0"
         style="fill:none;stroke:#000000;stroke-width:15" />
      <path
         id="path2989"
         d="m 764.402,545.519 2.303,-33.519 -2.2,-33.392"
         inkscape:connector-curvature="0"
         style="fill:none;stroke:#000000;stroke-width:15" />
      <path
         id="path2991"
         d="m 713.77,485.287 1.761,26.713 -1.761,26.713 -5.219,26.262 -8.598,25.363 -11.852,24.011 -14.861,22.271 -17.665,20.121 -20.122,17.666 -22.271,14.861 -24.011,11.852 -25.362,8.597 -26.263,5.22 -26.713,1.76 -26.713,-1.76 -26.263,-5.22 -25.362,-8.597 -24.011,-11.852 -22.271,-14.861 -20.122,-17.666 -17.665,-20.121 -14.861,-22.271 -11.852,-24.011 -8.597,-25.363 -5.22,-26.262 -1.761,-26.713 1.761,-26.713 5.22,-26.263 8.597,-25.362 11.852,-24.011 14.861,-22.271 17.665,-20.122 20.122,-17.665 22.271,-14.861 24.011,-11.852 25.362,-8.598 26.263,-5.22 26.713,-1.76 26.713,1.76 26.263,5.22 25.362,8.598 24.011,11.852 22.271,14.861 20.122,17.665 17.665,20.122 14.861,22.271 11.852,24.011 8.598,25.362 5.219,26.263"
         inkscape:connector-curvature="0"
         style="fill:none;stroke:#000000;stroke-width:15" />
      <path
         id="path2993"
         d="m 307.824,356.225 -90.486,-72.77 -39.292,-13.822 -9.454,-3.21 -9.962,0.653 -8.954,4.415 -6.582,7.507 -17.911,31.021 -3.21,9.454 0.654,9.962 4.414,8.954 7.507,6.583 31.615,27.117 108.32,42.154"
         inkscape:connector-curvature="0"
         style="fill:none;stroke:#000000;stroke-width:15" />
      <path
         id="path2995"
         d="m 343.805,135.714 -6.582,-7.506 -8.955,-4.415 -9.962,-0.653 -9.453,3.209 -31.022,17.911 -7.507,6.583 -4.414,8.954 -0.654,9.962 3.21,9.454"
         inkscape:connector-curvature="0"
         style="fill:none;stroke:#000000;stroke-width:15" />
      <path
         id="path2997"
         d="m 619.389,403.443 8.545,12.791 24.729,37.018 11.693,58.748 -10.186,51.174 -1.507,7.574 1.51,-7.574 -0.003,0 -40.988,0 -38.381,12.794 -12.793,38.381 0,40.99 7.578,-1.499 -58.753,11.683 -58.753,-11.683 -37.02,-24.728 -12.793,-8.546"
         inkscape:connector-curvature="0"
         style="fill:none;stroke:#000000;stroke-width:15" />
      <path
         id="path2999"
         d="M 402.267,620.566 393.721,607.772 368.993,570.753 357.31,512 l 11.683,-58.754 -1.499,7.579 40.99,0 38.381,-12.793 12.794,-38.381 0,-40.989 0,-0.002 -7.574,1.51 7.574,-1.508 51.174,-10.185 58.748,11.693 37.018,24.729 12.79,8.544"
         inkscape:connector-curvature="0"
         style="fill:none;stroke:#000000;stroke-width:15" />
      <path
         id="path3001"
         d="m 606.606,394.887 -0.007,0.012 -31.798,53.133 53.133,-31.798 0.012,-0.007 -8.557,-12.784 -12.783,-8.556"
         inkscape:connector-curvature="0"
         style="fill:none;stroke:#000000;stroke-width:15" />
      <path
         id="path3003"
         d="m 415.06,629.112 0,0 31.805,-53.144 -53.144,31.804 -10e-4,10e-4 8.547,12.793 12.793,8.546"
         inkscape:connector-curvature="0"
         style="fill:none;stroke:#000000;stroke-width:15" />
      <path
         id="path3005"
         d="m 257.162,478.608 -2.201,33.392 2.303,33.519"
         inkscape:connector-curvature="0"
         style="fill:none;stroke:#000000;stroke-width:15" />
      <path
         id="path3007"
         d="m 257.264,545.519 6.422,32.7 10.747,31.703"
         inkscape:connector-curvature="0"
         style="fill:none;stroke:#000000;stroke-width:15" />
      <path
         id="path3009"
         d="m 274.433,609.922 14.815,30.014 18.576,27.839"
         inkscape:connector-curvature="0"
         style="fill:none;stroke:#000000;stroke-width:15" />
      <path
         id="path3011"
         d="m 307.824,667.775 22.082,25.152 25.152,22.082"
         inkscape:connector-curvature="0"
         style="fill:none;stroke:#000000;stroke-width:15" />
      <path
         id="path3013"
         d="m 355.058,715.009 27.839,18.576 30.014,14.815"
         inkscape:connector-curvature="0"
         style="fill:none;stroke:#000000;stroke-width:15" />
      <path
         id="path3015"
         d="m 412.911,748.4 31.702,10.747 32.701,6.422"
         inkscape:connector-curvature="0"
         style="fill:none;stroke:#000000;stroke-width:15" />
      <path
         id="path3017"
         d="m 477.314,765.569 33.519,2.303 33.391,-2.201"
         inkscape:connector-curvature="0"
         style="fill:none;stroke:#000000;stroke-width:15" />
      <path
         id="path3019"
         d="m 544.224,765.671 32.829,-6.524 31.537,-10.797"
         inkscape:connector-curvature="0"
         style="fill:none;stroke:#000000;stroke-width:15" />
      <path
         id="path3021"
         d="m 608.59,748.35 30.179,-14.765 27.839,-18.576"
         inkscape:connector-curvature="0"
         style="fill:none;stroke:#000000;stroke-width:15" />
      <path
         id="path3023"
         d="m 666.608,715.009 25.152,-22.082 21.904,-25.115"
         inkscape:connector-curvature="0"
         style="fill:none;stroke:#000000;stroke-width:15" />
      <path
         id="path3025"
         d="m 713.664,667.812 18.754,-27.876 14.815,-30.014"
         inkscape:connector-curvature="0"
         style="fill:none;stroke:#000000;stroke-width:15" />
      <path
         id="path3027"
         d="m 747.233,609.922 10.747,-31.703 6.422,-32.7"
         inkscape:connector-curvature="0"
         style="fill:none;stroke:#000000;stroke-width:15" />
      <path
         id="path3029"
         d="M 764.505,478.608 757.98,445.78 747.184,414.243"
         inkscape:connector-curvature="0"
         style="fill:none;stroke:#000000;stroke-width:15" />
      <path
         id="path3031"
         d="M 747.184,414.243 732.418,384.064 713.664,356.188"
         inkscape:connector-curvature="0"
         style="fill:none;stroke:#000000;stroke-width:15" />
      <path
         id="path3033"
         d="M 713.664,356.188 691.76,331.073 666.645,309.168"
         inkscape:connector-curvature="0"
         style="fill:none;stroke:#000000;stroke-width:15" />
      <path
         id="path3035"
         d="M 666.645,309.168 638.769,290.415 608.59,275.649"
         inkscape:connector-curvature="0"
         style="fill:none;stroke:#000000;stroke-width:15" />
      <path
         id="path3037"
         d="m 608.59,275.649 -31.537,-10.796 -32.829,-6.525"
         inkscape:connector-curvature="0"
         style="fill:none;stroke:#000000;stroke-width:15" />
      <path
         id="path3039"
         d="m 544.224,258.328 -33.391,-2.2 -33.519,2.303"
         inkscape:connector-curvature="0"
         style="fill:none;stroke:#000000;stroke-width:15" />
      <path
         id="path3041"
         d="m 477.314,258.431 -32.701,6.422 -31.702,10.747"
         inkscape:connector-curvature="0"
         style="fill:none;stroke:#000000;stroke-width:15" />
      <path
         id="path3043"
         d="m 412.911,275.6 -30.014,14.815 -27.876,18.753"
         inkscape:connector-curvature="0"
         style="fill:none;stroke:#000000;stroke-width:15" />
      <path
         id="path3045"
         d="m 355.021,309.168 -25.115,21.905 -22.082,25.152"
         inkscape:connector-curvature="0"
         style="fill:none;stroke:#000000;stroke-width:15" />
      <path
         id="path3047"
         d="m 257.162,478.608 6.524,-32.828 10.797,-31.537 33.341,-58.018 -18.576,27.839 -14.765,30.179"
         inkscape:connector-curvature="0"
         style="fill:none;stroke:#000000;stroke-width:15" />
      <path
         id="path3049"
         d="M 344.516,800.061 412.911,748.4"
         inkscape:connector-curvature="0"
         style="fill:none;stroke:#000000;stroke-width:15" />
      <path
         id="path3051"
         d="m 319.499,874.252 2.147,1.24 22.159,12.793 27.117,-31.615 41.989,-108.27 -57.853,-33.391 -72.77,90.486 -13.822,39.292 -3.21,9.454 0.654,9.961 4.414,8.955 7.507,6.582 31.022,17.911 9.453,3.21 9.962,-0.654 8.955,-4.414 6.582,-7.507"
         inkscape:connector-curvature="0"
         style="fill:none;stroke:#000000;stroke-width:15" />
      <path
         id="path3053"
         d="m 355.058,715.009 -10.542,85.052 -38.381,66.475"
         inkscape:connector-curvature="0"
         style="fill:none;stroke:#000000;stroke-width:15" />
      <path
         id="path3055"
         d="m 268.466,844.787 37.669,21.749 13.364,7.716 24.306,14.033"
         inkscape:connector-curvature="0"
         style="fill:none;stroke:#000000;stroke-width:15" />
      <path
         id="path3057"
         d="m 222.772,678.317 85.052,-10.542"
         inkscape:connector-curvature="0"
         style="fill:none;stroke:#000000;stroke-width:15" />
      <path
         id="path3059"
         d="m 307.824,667.775 -33.391,-57.853 -108.27,41.989 -31.615,27.117 -7.507,6.582 -4.414,8.954 -0.654,9.962 3.21,9.454 17.911,31.022 6.582,7.506 8.954,4.415 9.962,0.654 9.454,-3.21 39.292,-13.822 90.486,-72.77"
         inkscape:connector-curvature="0"
         style="fill:none;stroke:#000000;stroke-width:15" />
      <path
         id="path3061"
         d="m 274.433,609.922 -51.661,68.395 -66.475,38.38"
         inkscape:connector-curvature="0"
         style="fill:none;stroke:#000000;stroke-width:15" />
      <path
         id="path3063"
         d="m 134.548,679.028 21.749,37.669 21.749,37.67"
         inkscape:connector-curvature="0"
         style="fill:none;stroke:#000000;stroke-width:15" />
      <path
         id="path3065"
         d="m 156.297,716.697 0,0"
         inkscape:connector-curvature="0"
         style="fill:none;stroke:#000000;stroke-width:15" />
      <path
         id="path3067"
         d="m 178.199,512 79.065,33.519"
         inkscape:connector-curvature="0"
         style="fill:none;stroke:#000000;stroke-width:15" />
      <path
         id="path3069"
         d="m 257.264,545.519 -0.102,-66.911 -114.785,-17.783 -40.939,7.676 -9.792,1.948 -8.301,5.547 -5.547,8.3 -1.947,9.793 0,35.822 1.947,9.792 5.547,8.3 8.301,5.548 9.792,1.947 40.939,7.676 114.887,-17.655"
         inkscape:connector-curvature="0"
         style="fill:none;stroke:#000000;stroke-width:15" />
      <path
         id="path3071"
         d="M 257.162,478.608 178.199,512 l -76.761,0"
         inkscape:connector-curvature="0"
         style="fill:none;stroke:#000000;stroke-width:15" />
      <path
         id="path3073"
         d="m 101.438,468.501 0,43.499 0,43.498"
         inkscape:connector-curvature="0"
         style="fill:none;stroke:#000000;stroke-width:15" />
      <path
         id="path3075"
         d="m 222.772,345.683 51.711,68.56"
         inkscape:connector-curvature="0"
         style="fill:none;stroke:#000000;stroke-width:15" />
      <path
         id="path3077"
         d="m 307.824,356.225 -85.052,-10.542 -66.475,-38.381 0,0"
         inkscape:connector-curvature="0"
         style="fill:none;stroke:#000000;stroke-width:15" />
      <path
         id="path3079"
         d="m 178.046,269.633 -21.749,37.669 -21.749,37.67"
         inkscape:connector-curvature="0"
         style="fill:none;stroke:#000000;stroke-width:15" />
      <path
         id="path3081"
         d="m 344.516,223.939 10.505,85.229"
         inkscape:connector-curvature="0"
         style="fill:none;stroke:#000000;stroke-width:15" />
      <path
         id="path3083"
         d="m 268.466,179.213 13.822,39.291 72.733,90.664 57.89,-33.568 -41.989,-108.27 -27.117,-31.616"
         inkscape:connector-curvature="0"
         style="fill:none;stroke:#000000;stroke-width:15" />
      <path
         id="path3085"
         d="M 412.911,275.6 344.516,223.939 306.135,157.463"
         inkscape:connector-curvature="0"
         style="fill:none;stroke:#000000;stroke-width:15" />
      <path
         id="path3087"
         d="m 268.466,179.213 37.669,-21.75 37.67,-21.749"
         inkscape:connector-curvature="0"
         style="fill:none;stroke:#000000;stroke-width:15" />
      <path
         id="path3089"
         d="m 343.805,135.714 -37.67,21.749 -37.669,21.75 22.158,-12.794 15.511,-8.956 15.511,-8.955 22.159,-12.794"
         inkscape:connector-curvature="0"
         style="fill:none;stroke:#000000;stroke-width:15" />
      <path
         id="path3091"
         d="m 510.833,179.366 -33.519,79.065"
         inkscape:connector-curvature="0"
         style="fill:none;stroke:#000000;stroke-width:15" />
      <path
         id="path3093"
         d="m 467.335,102.604 -7.676,40.94 17.655,114.887 66.91,-0.103 17.784,-114.784 -7.677,-40.94"
         inkscape:connector-curvature="0"
         style="fill:none;stroke:#000000;stroke-width:15" />
      <path
         id="path3095"
         d="m 544.224,258.328 -33.391,-78.962 0,-76.762"
         inkscape:connector-curvature="0"
         style="fill:none;stroke:#000000;stroke-width:15" />
      <path
         id="path3097"
         d="m 467.335,102.604 43.498,0 43.498,0"
         inkscape:connector-curvature="0"
         style="fill:none;stroke:#000000;stroke-width:15" />
      <path
         id="path3099"
         d="m 554.331,102.604 -86.996,0"
         inkscape:connector-curvature="0"
         style="fill:none;stroke:#000000;stroke-width:15" />
      <path
         id="path3101"
         d="m 528.744,102.604 25.587,0 -1.947,-9.792 -5.547,-8.3 -8.301,-5.548 -9.792,-1.947 -35.822,0 -9.792,1.947 -8.301,5.548 -5.547,8.3 -1.947,9.792 25.587,0 35.822,0"
         inkscape:connector-curvature="0"
         style="fill:none;stroke:#000000;stroke-width:15" />
      <path
         id="path3103"
         d="m 677.15,223.939 -68.56,51.71"
         inkscape:connector-curvature="0"
         style="fill:none;stroke:#000000;stroke-width:15" />
      <path
         id="path3105"
         d="m 677.861,135.714 -27.117,31.616 -42.154,108.319 58.055,33.519 72.733,-90.664 13.822,-39.291"
         inkscape:connector-curvature="0"
         style="fill:none;stroke:#000000;stroke-width:15" />
      <path
         id="path3107"
         d="m 666.645,309.168 10.505,-85.229 38.381,-66.476"
         inkscape:connector-curvature="0"
         style="fill:none;stroke:#000000;stroke-width:15" />
      <path
         id="path3109"
         d="m 677.861,135.714 37.67,21.749 37.669,21.75"
         inkscape:connector-curvature="0"
         style="fill:none;stroke:#000000;stroke-width:15" />
      <path
         id="path3111"
         d="M 753.2,179.213 677.861,135.714"
         inkscape:connector-curvature="0"
         style="fill:none;stroke:#000000;stroke-width:15" />
      <path
         id="path3113"
         d="m 731.042,166.419 22.158,12.794 3.21,-9.454 -0.654,-9.962 -4.414,-8.954 -7.507,-6.583 -31.022,-17.911 -9.453,-3.209 -9.962,0.653 -8.954,4.415 -6.583,7.506 22.159,12.794 31.022,17.911"
         inkscape:connector-curvature="0"
         style="fill:none;stroke:#000000;stroke-width:15" />
      <path
         id="path3115"
         d="m 798.894,345.683 -85.23,10.505"
         inkscape:connector-curvature="0"
         style="fill:none;stroke:#000000;stroke-width:15" />
      <path
         id="path3117"
         d="m 865.369,307.302 8.956,15.511 12.793,22.159 7.507,-6.583 4.414,-8.954 0.654,-9.962 -3.21,-9.454 -17.911,-31.021 -6.582,-7.507 -8.954,-4.415 -9.962,-0.653 -9.454,3.21 -39.292,13.822 -90.664,72.733 33.52,58.055 108.319,-42.154 31.615,-27.117"
         inkscape:connector-curvature="0"
         style="fill:none;stroke:#000000;stroke-width:15" />
      <path
         id="path3119"
         d="m 747.184,414.243 51.71,-68.56 66.475,-38.381"
         inkscape:connector-curvature="0"
         style="fill:none;stroke:#000000;stroke-width:15" />
      <path
         id="path3121"
         d="m 887.118,344.972 -21.749,-37.67"
         inkscape:connector-curvature="0"
         style="fill:none;stroke:#000000;stroke-width:15" />
      <path
         id="path3123"
         d="M 865.369,307.302 843.62,269.633"
         inkscape:connector-curvature="0"
         style="fill:none;stroke:#000000;stroke-width:15" />
      <path
         id="path3125"
         d="M 843.467,512 764.505,478.608"
         inkscape:connector-curvature="0"
         style="fill:none;stroke:#000000;stroke-width:15" />
      <path
         id="path3127"
         d="m 764.505,478.608 -0.103,66.911 114.887,17.655 40.939,-7.676 9.793,-1.947 8.3,-5.548 5.547,-8.3 1.947,-9.792 0,-35.822 -1.947,-9.793 -5.547,-8.3 -8.3,-5.547 -9.793,-1.948 -40.939,-7.676 -114.784,17.783"
         inkscape:connector-curvature="0"
         style="fill:none;stroke:#000000;stroke-width:15" />
      <path
         id="path3129"
         d="M 764.402,545.519 843.467,512 l 76.761,0"
         inkscape:connector-curvature="0"
         style="fill:none;stroke:#000000;stroke-width:15" />
      <path
         id="path3131"
         d="m 920.228,555.498 0,-43.498 0,-43.499"
         inkscape:connector-curvature="0"
         style="fill:none;stroke:#000000;stroke-width:15" />
      <path
         id="path3133"
         d="M 798.894,678.317 747.233,609.922"
         inkscape:connector-curvature="0"
         style="fill:none;stroke:#000000;stroke-width:15" />
      <path
         id="path3135"
         d="m 865.369,716.697 8.956,-15.511 12.793,-22.158 -31.615,-27.117 -108.27,-41.989 -33.569,57.89 90.664,72.733 39.292,13.822 9.454,3.21 9.962,-0.654 8.954,-4.415 6.582,-7.506 17.911,-31.022 3.21,-9.454 -0.654,-9.962 -4.414,-8.954 -7.507,-6.582"
         inkscape:connector-curvature="0"
         style="fill:none;stroke:#000000;stroke-width:15" />
      <path
         id="path3137"
         d="m 713.664,667.812 85.23,10.505 66.474,38.38 10e-4,0"
         inkscape:connector-curvature="0"
         style="fill:none;stroke:#000000;stroke-width:15" />
      <path
         id="path3139"
         d="m 843.62,754.367 21.749,-37.67"
         inkscape:connector-curvature="0"
         style="fill:none;stroke:#000000;stroke-width:15" />
      <path
         id="path3141"
         d="M 677.15,800.061 666.608,715.009"
         inkscape:connector-curvature="0"
         style="fill:none;stroke:#000000;stroke-width:15" />
      <path
         id="path3143"
         d="m 753.2,844.787 -13.822,-39.292 -72.77,-90.486 -58.018,33.341 42.154,108.32 27.117,31.615"
         inkscape:connector-curvature="0"
         style="fill:none;stroke:#000000;stroke-width:15" />
      <path
         id="path3145"
         d="m 608.59,748.35 68.56,51.711 38.381,66.475 0,0"
         inkscape:connector-curvature="0"
         style="fill:none;stroke:#000000;stroke-width:15" />
      <path
         id="path3147"
         d="m 753.2,844.787 -37.669,21.749 -37.67,21.749"
         inkscape:connector-curvature="0"
         style="fill:none;stroke:#000000;stroke-width:15" />
      <path
         id="path3149"
         d="m 677.861,888.285 75.339,-43.498 3.21,9.454 -0.654,9.961 -4.414,8.955 -7.507,6.582 -31.022,17.911 -9.453,3.21 -9.962,-0.654 -8.954,-4.414 -6.583,-7.507"
         inkscape:connector-curvature="0"
         style="fill:none;stroke:#000000;stroke-width:15" />
      <path
         id="path3151"
         d="m 510.833,844.633 33.391,-78.962"
         inkscape:connector-curvature="0"
         style="fill:none;stroke:#000000;stroke-width:15" />
      <path
         id="path3153"
         d="m 544.224,765.671 -66.91,-0.102 -17.655,114.886 7.676,40.94 1.947,9.792 5.547,8.301 8.301,5.547 9.792,1.947 35.822,0 9.792,-1.947 8.301,-5.547 5.547,-8.301 1.947,-9.792 7.677,-40.94 -17.784,-114.784"
         inkscape:connector-curvature="0"
         style="fill:none;stroke:#000000;stroke-width:15" />
      <path
         id="path3155"
         d="m 477.314,765.569 33.519,79.064 0,76.762 0,0"
         inkscape:connector-curvature="0"
         style="fill:none;stroke:#000000;stroke-width:15" />
      <path
         id="path3157"
         d="m 467.335,921.395 43.498,0 43.498,0"
         inkscape:connector-curvature="0"
         style="fill:none;stroke:#000000;stroke-width:15" />
      <path
         id="path3159"
         d="m 865.369,716.697 21.749,-37.669"
         inkscape:connector-curvature="0"
         style="fill:none;stroke:#000000;stroke-width:15" />
    </g>
  </g>
</svg>
