<?xml version="1.0" encoding="UTF-8" standalone="no"?>
<!-- Created with Inkscape (http://www.inkscape.org/) -->
<svg xmlns:rdf="http://www.w3.org/1999/02/22-rdf-syntax-ns#" xmlns="http://www.w3.org/2000/svg" version="1.1" xmlns:cc="http://creativecommons.org/ns#" xmlns:dc="http://purl.org/dc/elements/1.1/" viewBox="0 0 85 20">
 <metadata>
  <rdf:RDF>
   <cc:Work rdf:about="">
    <dc:format>image/svg+xml</dc:format>
    <dc:type rdf:resource="http://purl.org/dc/dcmitype/StillImage"/>
    <dc:title/>
   </cc:Work>
  </rdf:RDF>
 </metadata>
 <g transform="translate(0,-1032.3622)">
  <g style="letter-spacing:0px;word-spacing:0px;" font-weight="normal" transform="scale(0.99999882,1.0000012)" font-style="normal" font-family="Sans" line-height="125%" fill="#000000">
   <g transform="scale(0.99353546,1.0065066)" font-size="13.47719574px">
    <path d="m20.403,1042.9-1.5596-5.7844-1.5794,5.7844c-0.12284,0.4388-0.22046,0.7535-0.29284,0.9444-0.07239,0.1908-0.19852,0.3619-0.37839,0.5133-0.17988,0.1513-0.41897,0.227-0.71729,0.227-0.24129,0-0.43981-0.045-0.59555-0.1349-0.15574-0.09-0.28187-0.2172-0.37839-0.3817s-0.17549-0.3597-0.2369-0.5857c-0.06142-0.2259-0.11626-0.4354-0.16452-0.6284l-1.6057-6.4951c-0.09652-0.3773-0.14477-0.6647-0.14477-0.8621,0-0.2501,0.08774-0.4606,0.26323-0.6317,0.17548-0.1711,0.39265-0.2567,0.65149-0.2567,0.35535,0,0.59445,0.1141,0.71729,0.3422s0.23032,0.5594,0.32245,0.9937l1.2635,5.633,1.4148-5.2711c0.10528-0.4036,0.19961-0.7107,0.28297-0.9213,0.08335-0.2105,0.21935-0.3926,0.408-0.5462,0.18864-0.1535,0.44529-0.2303,0.76994-0.2303,0.32903,0,0.58458,0.08,0.76665,0.2402,0.18206,0.1601,0.30819,0.3345,0.37839,0.5232,0.07019,0.1886,0.16451,0.5001,0.28297,0.9344l1.428,5.2711,1.2635-5.633c0.06141-0.2939,0.11954-0.5243,0.17439-0.691,0.05483-0.1667,0.14915-0.3158,0.28297-0.4475,0.1338-0.1316,0.32792-0.1974,0.58239-0.1974,0.25444,0,0.4705,0.084,0.6482,0.2534,0.17767,0.1689,0.2665,0.3806,0.26652,0.635-0.000013,0.1799-0.04827,0.4672-0.14478,0.8621l-1.6057,6.4951c-0.10969,0.4387-0.20072,0.76-0.2731,0.964-0.0724,0.204-0.19524,0.3828-0.36852,0.5364-0.1733,0.1535-0.41788,0.2303-0.73374,0.2303-0.29833,0-0.53743-0.075-0.71729-0.2237-0.17988-0.1492-0.30491-0.317-0.3751-0.5035-0.0702-0.1864-0.16891-0.5056-0.29613-0.9575z"/>
    <path d="m27.879,1038.3,0,5.1921c-0.000003,0.3597-0.08555,0.6317-0.25665,0.816s-0.38826,0.2764-0.65148,0.2764c-0.26323,0-0.4771-0.094-0.64162-0.283-0.16452-0.1886-0.24678-0.4584-0.24678-0.8094v-5.1395c0-0.3553,0.08226-0.623,0.24678-0.8028,0.16452-0.1799,0.37839-0.2698,0.64162-0.2698,0.26322,0,0.48039,0.09,0.65148,0.2698,0.1711,0.1798,0.25664,0.4299,0.25665,0.7502zm-0.88839-1.8558c-0.25007,0-0.46394-0.077-0.64162-0.2303-0.17768-0.1535-0.26652-0.3707-0.26652-0.6515,0-0.2544,0.09103-0.4639,0.2731-0.6284,0.18206-0.1646,0.39374-0.2468,0.63503-0.2468,0.23251,0,0.43871,0.075,0.61858,0.2237,0.17987,0.1492,0.2698,0.3664,0.26981,0.6515-0.000003,0.2764-0.08775,0.4925-0.26323,0.6482-0.17549,0.1558-0.38387,0.2336-0.62516,0.2336z"/>
    <path d="m31.373,1038.3,0,0.2172c0.31587-0.4168,0.66135-0.7228,1.0365-0.918,0.37509-0.1952,0.80613-0.2928,1.2931-0.2928,0.4738,0,0.89716,0.1031,1.2701,0.3092,0.3729,0.2063,0.65148,0.498,0.83574,0.8753,0.11844,0.2193,0.19522,0.4562,0.23032,0.7107,0.03509,0.2544,0.05264,0.5791,0.05265,0.9739v3.343c-0.000007,0.3597-0.08226,0.6317-0.24678,0.816s-0.37839,0.2764-0.64161,0.2764c-0.26762,0-0.48478-0.094-0.65149-0.283-0.16672-0.1886-0.25007-0.4584-0.25006-0.8094v-2.9942c-0.000005-0.5923-0.08226-1.0452-0.24678-1.3589s-0.49246-0.4705-0.98381-0.4705c-0.32026,0-0.612,0.095-0.87523,0.2862-0.26323,0.1909-0.45626,0.453-0.5791,0.7864-0.08774,0.2676-0.13162,0.7678-0.13161,1.5004v2.2506c-0.000003,0.3641-0.08446,0.6372-0.25336,0.8193-0.16891,0.1821-0.38716,0.2731-0.65478,0.2731-0.25884,0-0.47162-0.094-0.63832-0.283-0.16671-0.1886-0.25007-0.4584-0.25006-0.8094v-5.1921c-0.000001-0.3422,0.07458-0.5978,0.22374-0.7667s0.35316-0.2533,0.612-0.2533c0.15793,0,0.30052,0.037,0.42774,0.1118,0.12722,0.075,0.22922,0.1865,0.306,0.3356,0.07677,0.1492,0.11516,0.3313,0.11516,0.5462z"/>
    <path d="m42.797,1043.6,0-0.1777c-0.2413,0.2764-0.4793,0.5013-0.714,0.6745-0.23472,0.1733-0.48917,0.305-0.76336,0.3949-0.2742,0.09-0.57362,0.1349-0.89826,0.1349-0.42994,0-0.82807-0.091-1.1944-0.2731s-0.68329-0.442-0.95091-0.7798c-0.26761-0.3378-0.47052-0.7349-0.60871-1.1911-0.1382-0.4563-0.20729-0.9498-0.20729-1.4807,0-1.1231,0.27419-1.9983,0.82258-2.6256,0.54839-0.6274,1.2701-0.9411,2.165-0.9411,0.51767,0,0.95419,0.089,1.3096,0.2665,0.35535,0.1777,0.70193,0.4508,1.0397,0.8193v-2.652c-0.000006-0.3685,0.07348-0.6471,0.22045-0.8357,0.14696-0.1887,0.35645-0.283,0.62845-0.283,0.27199,0,0.48148,0.087,0.62845,0.2599,0.14696,0.1733,0.22044,0.4289,0.22045,0.7667v7.9231c-0.000008,0.3422-0.07898,0.5989-0.2369,0.7699-0.15794,0.1711-0.36194,0.2567-0.612,0.2567-0.24568,0-0.44859-0.089-0.60871-0.2665-0.16014-0.1777-0.2402-0.4311-0.24019-0.7601zm-3.5338-2.6388c-0.000002,0.4869,0.07568,0.9015,0.22703,1.2437s0.35864,0.5999,0.62187,0.7732c0.26322,0.1733,0.55058,0.26,0.86207,0.26,0.31587,0,0.60432-0.082,0.86536-0.2468,0.26103-0.1645,0.46942-0.4168,0.62516-0.7568s0.23361-0.7644,0.23361-1.2733c-0.000006-0.4782-0.07788-0.8895-0.23361-1.2339-0.15575-0.3444-0.36633-0.6076-0.63174-0.7897-0.26542-0.182-0.55607-0.2731-0.87194-0.2731-0.32904,0-0.62297,0.093-0.88181,0.2797-0.25884,0.1864-0.45955,0.4541-0.60213,0.8028-0.14258,0.3488-0.21387,0.7535-0.21387,1.2142z"/>
    <path d="m53.023,1041c-0.000008,0.5353-0.08336,1.0288-0.25007,1.4807-0.16672,0.4518-0.40801,0.8401-0.72387,1.1648-0.31588,0.3246-0.69317,0.5736-1.1319,0.7469-0.43872,0.1732-0.93226,0.2599-1.4806,0.2599-0.544,0-1.0332-0.088-1.4675-0.2632-0.43433-0.1755-0.81052-0.4267-1.1286-0.7535-0.31807-0.3269-0.55936-0.7129-0.72387-1.1582-0.16452-0.4453-0.24678-0.9378-0.24678-1.4774,0-0.544,0.08335-1.0419,0.25006-1.4938s0.40581-0.8379,0.71729-1.1582c0.31148-0.3202,0.68877-0.567,1.1319-0.7403,0.4431-0.1733,0.93226-0.2599,1.4675-0.2599,0.544,0,1.0375,0.088,1.4806,0.2632,0.44309,0.1755,0.82258,0.4255,1.1385,0.7502,0.31586,0.3246,0.55606,0.7107,0.72058,1.1582,0.16451,0.4475,0.24677,0.941,0.24678,1.4806zm-1.8031,0c-0.000006-0.7326-0.16123-1.3029-0.48368-1.7109-0.32246-0.408-0.75568-0.612-1.2997-0.612-0.35097,0-0.66026,0.091-0.92787,0.273-0.26762,0.1821-0.47381,0.4508-0.61858,0.8062-0.14478,0.3553-0.21716,0.7699-0.21716,1.2437-0.000002,0.4694,0.07129,0.8796,0.21387,1.2306s0.34658,0.6197,0.612,0.8061c0.26542,0.1865,0.578,0.2797,0.93774,0.2797,0.544,0,0.97722-0.2051,1.2997-0.6153,0.32245-0.4102,0.48367-0.9772,0.48368-1.7011z"/>
    <path d="m55.55,1038.4,1.1714,4.0142,1.0661-3.7313c0.11406-0.3904,0.19851-0.6569,0.25336-0.7995,0.05483-0.1426,0.15793-0.2786,0.30929-0.408,0.15135-0.1294,0.35864-0.1941,0.62187-0.1941,0.26761,0,0.47709,0.065,0.62845,0.1941,0.15135,0.1294,0.25774,0.2698,0.31916,0.4212,0.06141,0.1513,0.14696,0.4134,0.25665,0.7863l1.0661,3.7313,1.1845-4.0142c0.07896-0.2896,0.14257-0.4991,0.19084-0.6285,0.04825-0.1294,0.12941-0.2435,0.24348-0.3422,0.11406-0.099,0.27857-0.148,0.49355-0.148,0.21496,0,0.40141,0.074,0.55936,0.2237,0.15792,0.1492,0.23689,0.3247,0.2369,0.5265-0.00001,0.1842-0.06801,0.4628-0.204,0.8357l-1.4675,4.3038c-0.12724,0.3641-0.22594,0.6273-0.29613,0.7896-0.0702,0.1624-0.18098,0.3071-0.33232,0.4344-0.15136,0.1272-0.35865,0.1908-0.62187,0.1908-0.27201,0-0.48588-0.068-0.64161-0.204-0.15575-0.136-0.27091-0.3027-0.34548-0.5001-0.07459-0.1975-0.15575-0.4541-0.24348-0.77l-1.0266-3.5009-0.99368,3.5009c-0.13162,0.487-0.2742,0.8544-0.42774,1.1023-0.15355,0.2479-0.42336,0.3718-0.80942,0.3718-0.19742,0-0.36523-0.038-0.50342-0.1152-0.1382-0.077-0.25336-0.1864-0.34548-0.329-0.09213-0.1426-0.17329-0.3115-0.24348-0.5067-0.0702-0.1952-0.12504-0.3499-0.16452-0.4639l-1.4543-4.3038c-0.14478-0.4036-0.21716-0.6822-0.21716-0.8357,0-0.1931,0.07677-0.3664,0.23032-0.5199,0.15355-0.1536,0.34219-0.2303,0.56594-0.2303,0.29832,0,0.50013,0.084,0.60542,0.2533,0.10529,0.1689,0.21716,0.4574,0.33561,0.8654z"/>
   </g>
   <g transform="scale(1.0000012,0.9999988)" font-size="10.3191061px">
    <path d="m4.1886,1034.1,2.8771,4.3534,0-4.3937c-0.0000057-0.2855,0.061298-0.4997,0.18391-0.6424,0.1226-0.1428,0.28804-0.2142,0.4963-0.2142,0.21497,0,0.38461,0.071,0.5089,0.2142,0.12428,0.1427,0.18642,0.3569,0.18643,0.6424v5.8095c-0.000007,0.6483-0.26873,0.9725-0.80618,0.9725-0.13437,0-0.2553-0.019-0.36278-0.058-0.1075-0.039-0.20827-0.1-0.30232-0.1839-0.09406-0.084-0.1814-0.1822-0.26201-0.2947-0.080623-0.1126-0.16124-0.2276-0.24185-0.3452l-2.8065-4.303v4.3282c-0.0000022,0.2822-0.065504,0.4955-0.19651,0.6399s-0.29896,0.2167-0.50386,0.2167c-0.21162,0-0.38126-0.073-0.5089-0.2192-0.12765-0.1461-0.19147-0.3586-0.19147-0.6374v-5.6987c-8E-7-0.2418,0.026872-0.4316,0.080618-0.5693,0.063822-0.1512,0.16963-0.2746,0.31743-0.3704,0.1478-0.096,0.30735-0.1436,0.47867-0.1436,0.13436,0,0.24941,0.022,0.34515,0.065,0.095732,0.044,0.17971,0.1025,0.25193,0.1764,0.072218,0.074,0.14612,0.1696,0.2217,0.2872,0.075577,0.1175,0.15368,0.2401,0.2343,0.3678z"/>
    <path d="m13.822,1038.4-2.6906,0c0.0034,0.3124,0.06634,0.5879,0.18895,0.8264,0.1226,0.2385,0.28552,0.4182,0.48875,0.5391,0.20322,0.1209,0.42744,0.1814,0.67266,0.1814,0.16459,0,0.31491-0.019,0.45096-0.058,0.13604-0.039,0.26788-0.099,0.39553-0.1814,0.12764-0.082,0.24521-0.1704,0.3527-0.2645,0.10749-0.094,0.24689-0.2217,0.41821-0.3829,0.07054-0.061,0.17131-0.091,0.30232-0.091,0.14108,0,0.25528,0.039,0.34263,0.1159,0.08733,0.077,0.131,0.1864,0.131,0.3275-0.000006,0.1243-0.04871,0.2696-0.14612,0.4358-0.09742,0.1663-0.24438,0.3259-0.44088,0.4787-0.19651,0.1528-0.4434,0.2796-0.74068,0.3804s-0.63907,0.1512-1.0254,0.1512c-0.88344,0-1.5704-0.252-2.0608-0.7558-0.49043-0.5039-0.73564-1.1875-0.73564-2.0507-4E-7-0.4065,0.060463-0.7835,0.18139-1.1312s0.29728-0.6458,0.52906-0.8944c0.23178-0.2485,0.5173-0.4392,0.85657-0.5719,0.33927-0.1326,0.71548-0.199,1.1287-0.199,0.53745,0,0.99848,0.1134,1.3831,0.3401,0.38461,0.2268,0.67265,0.5198,0.86412,0.8793,0.19146,0.3594,0.2872,0.7255,0.2872,1.0984-0.000006,0.346-0.0991,0.5702-0.29728,0.6726-0.19819,0.1025-0.477,0.1537-0.83641,0.1537zm-2.6906-0.781,2.4941,0c-0.0336-0.4702-0.1604-0.8221-0.38042-1.0556-0.22002-0.2334-0.50974-0.3501-0.86916-0.3501-0.34263,0-0.62395,0.1184-0.84397,0.3552s-0.35354,0.587-0.40057,1.0505z"/>
    <path d="m16.967,1036.1,0.89688,3.0735,0.81626-2.8569c0.08733-0.2989,0.152-0.503,0.19399-0.6122,0.04199-0.1091,0.12092-0.2133,0.23682-0.3124,0.11588-0.099,0.2746-0.1486,0.47615-0.1486,0.2049,0,0.3653,0.05,0.48119,0.1486,0.11588,0.099,0.19734,0.2066,0.24437,0.3225,0.04702,0.1159,0.11252,0.3166,0.19651,0.6021l0.81626,2.8569,0.90695-3.0735c0.06046-0.2217,0.10916-0.3821,0.14612-0.4812,0.03694-0.099,0.09909-0.1865,0.18643-0.262,0.08733-0.076,0.21329-0.1134,0.3779-0.1134,0.16459,0,0.30735,0.057,0.42828,0.1713,0.12092,0.1142,0.18138,0.2486,0.18139,0.4031-0.000009,0.1411-0.05207,0.3544-0.1562,0.6399l-1.1236,3.2953c-0.09742,0.2788-0.173,0.4803-0.22674,0.6046-0.05375,0.1243-0.13857,0.2351-0.25445,0.3325-0.1159,0.097-0.27461,0.1462-0.47615,0.1462-0.20827,0-0.37202-0.052-0.49127-0.1562s-0.20743-0.2318-0.26453-0.383c-0.05711-0.1511-0.11925-0.3476-0.18643-0.5895l-0.78603-2.6805-0.76083,2.6805c-0.10078,0.3729-0.20995,0.6542-0.32751,0.844-0.11757,0.1898-0.32416,0.2847-0.61975,0.2847-0.15116,0-0.27965-0.029-0.38546-0.088s-0.19399-0.1428-0.26453-0.2519c-0.07054-0.1092-0.13269-0.2385-0.18643-0.388-0.05375-0.1495-0.09574-0.2679-0.12597-0.3552l-1.1135-3.2953c-0.11085-0.309-0.16628-0.5223-0.16628-0.6399,0-0.1478,0.05878-0.2805,0.17635-0.3981,0.11757-0.1175,0.26201-0.1763,0.43332-0.1763,0.22842,0,0.38293,0.065,0.46355,0.194,0.08062,0.1293,0.16627,0.3502,0.25697,0.6626z"/>
   </g>
  </g>
  <rect transform="translate(0,1032.3622)" height="14.521" width="16.668" stroke="#b3b3b3" y="2.8274" x="65.912" fill="#b3b3b3"/>
  <rect height="11.747" width="15.028" stroke="#ffffff" y="1037.3" x="66.732" stroke-width="0.85404" fill="#ffffff"/>
  <rect height="0.6614" width="6.3384" stroke="#000000" y="1035.5" x="75.387" stroke-width="0.873" fill="#000000"/>
 </g>
</svg>
