<?xml version="1.0" encoding="UTF-8" standalone="no"?>
<!-- Created with Inkscape (http://www.inkscape.org/) -->

<svg
   xmlns:dc="http://purl.org/dc/elements/1.1/"
   xmlns:cc="http://creativecommons.org/ns#"
   xmlns:rdf="http://www.w3.org/1999/02/22-rdf-syntax-ns#"
   xmlns:svg="http://www.w3.org/2000/svg"
   xmlns="http://www.w3.org/2000/svg"
   xmlns:sodipodi="http://sodipodi.sourceforge.net/DTD/sodipodi-0.dtd"
   xmlns:inkscape="http://www.inkscape.org/namespaces/inkscape"
   width="85"
   height="20"
   id="svg2"
   version="1.1"
   inkscape:version="0.48.4 r9939"
   sodipodi:docname="Enlarge-button.svg">
  <defs
     id="defs4" />
  <sodipodi:namedview
     id="base"
     pagecolor="#ffffff"
     bordercolor="#666666"
     borderopacity="1.0"
     inkscape:pageopacity="0.0"
     inkscape:pageshadow="2"
     inkscape:zoom="7.9195959"
     inkscape:cx="57.112113"
     inkscape:cy="4.5456067"
     inkscape:document-units="px"
     inkscape:current-layer="layer1"
     showgrid="false"
     inkscape:window-width="1366"
     inkscape:window-height="705"
     inkscape:window-x="-8"
     inkscape:window-y="-8"
     inkscape:window-maximized="1" />
  <metadata
     id="metadata7">
    <rdf:RDF>
      <cc:Work
         rdf:about="">
        <dc:format>image/svg+xml</dc:format>
        <dc:type
           rdf:resource="http://purl.org/dc/dcmitype/StillImage" />
        <dc:title></dc:title>
      </cc:Work>
    </rdf:RDF>
  </metadata>
  <g
     inkscape:label="Layer 1"
     inkscape:groupmode="layer"
     id="layer1"
     transform="translate(0,-1032.3622)">
    <g
       transform="scale(0.99999882,1.0000012)"
       style="font-size:16.39322853px;font-style:normal;font-weight:normal;line-height:125%;letter-spacing:0px;word-spacing:0px;fill:#000000;fill-opacity:1;stroke:none;font-family:Arial Rounded MT Bold;-inkscape-font-specification:Arial Rounded MT Bold"
       id="text3071">
      <g
         transform="scale(0.99353546,1.0065066)"
         style="font-size:13.47719574px;fill:#000000;font-family:Sans"
         id="text3045">
        <path
           d="m 20.402905,1042.9479 -1.559617,-5.7844 -1.579359,5.7844 c -0.122844,0.4388 -0.220457,0.7535 -0.29284,0.9444 -0.07239,0.1908 -0.19852,0.3619 -0.378388,0.5133 -0.179875,0.1513 -0.418972,0.227 -0.717292,0.227 -0.241294,0 -0.43981,-0.045 -0.59555,-0.1349 -0.155745,-0.09 -0.281874,-0.2172 -0.378388,-0.3817 -0.09652,-0.1645 -0.175486,-0.3597 -0.236904,-0.5857 -0.06142,-0.2259 -0.11626,-0.4354 -0.164516,-0.6284 l -1.605682,-6.4951 c -0.09652,-0.3773 -0.144774,-0.6647 -0.144774,-0.8621 0,-0.2501 0.08774,-0.4606 0.263226,-0.6317 0.175484,-0.1711 0.392646,-0.2567 0.651486,-0.2567 0.355354,0 0.594451,0.1141 0.717292,0.3422 0.122837,0.2281 0.230321,0.5594 0.322452,0.9937 l 1.263487,5.633 1.414843,-5.2711 c 0.105285,-0.4036 0.199608,-0.7107 0.282968,-0.9213 0.08335,-0.2105 0.21935,-0.3926 0.408001,-0.5462 0.18864,-0.1535 0.445286,-0.2303 0.769938,-0.2303 0.329026,0 0.584575,0.08 0.766647,0.2402 0.182058,0.1601 0.308187,0.3345 0.378388,0.5232 0.07019,0.1886 0.164509,0.5001 0.282968,0.9344 l 1.428004,5.2711 1.263487,-5.633 c 0.06141,-0.2939 0.119538,-0.5243 0.174388,-0.691 0.05483,-0.1667 0.149151,-0.3158 0.282968,-0.4475 0.133796,-0.1316 0.327925,-0.1974 0.582389,-0.1974 0.25444,0 0.470505,0.084 0.648195,0.2534 0.177666,0.1689 0.266504,0.3806 0.266517,0.635 -1.3e-5,0.1799 -0.04827,0.4672 -0.144775,0.8621 l -1.605681,6.4951 c -0.109689,0.4387 -0.200721,0.76 -0.273098,0.964 -0.0724,0.204 -0.195236,0.3828 -0.368517,0.5364 -0.1733,0.1535 -0.417881,0.2303 -0.733744,0.2303 -0.298332,0 -0.537429,-0.075 -0.717292,-0.2237 -0.17988,-0.1492 -0.304912,-0.317 -0.375098,-0.5035 -0.0702,-0.1864 -0.168911,-0.5056 -0.296129,-0.9575 z"
           style="font-family:Arial Rounded MT Bold;-inkscape-font-specification:Arial Rounded MT Bold"
           id="path3062" />
        <path
           d="m 27.878536,1038.3481 0,5.1921 c -3e-6,0.3597 -0.08555,0.6317 -0.256646,0.816 -0.171099,0.1843 -0.388261,0.2764 -0.651485,0.2764 -0.263228,0 -0.477099,-0.094 -0.641615,-0.283 -0.164517,-0.1886 -0.246775,-0.4584 -0.246775,-0.8094 l 0,-5.1395 c 0,-0.3553 0.08226,-0.623 0.246775,-0.8028 0.164516,-0.1799 0.378387,-0.2698 0.641615,-0.2698 0.263224,0 0.480386,0.09 0.651485,0.2698 0.171095,0.1798 0.256643,0.4299 0.256646,0.7502 z m -0.888389,-1.8558 c -0.250067,0 -0.463938,-0.077 -0.641615,-0.2303 -0.177679,-0.1535 -0.266517,-0.3707 -0.266517,-0.6515 0,-0.2544 0.09103,-0.4639 0.273098,-0.6284 0.182064,-0.1646 0.393741,-0.2468 0.635034,-0.2468 0.232514,0 0.438708,0.075 0.618582,0.2237 0.179869,0.1492 0.269804,0.3664 0.269807,0.6515 -3e-6,0.2764 -0.08775,0.4925 -0.263226,0.6482 -0.175487,0.1558 -0.383874,0.2336 -0.625163,0.2336 z"
           style="font-family:Arial Rounded MT Bold;-inkscape-font-specification:Arial Rounded MT Bold"
           id="path3064" />
        <path
           d="m 31.372867,1038.3217 0,0.2172 c 0.315869,-0.4168 0.661354,-0.7228 1.036455,-0.918 0.375093,-0.1952 0.806126,-0.2928 1.2931,-0.2928 0.473802,0 0.897158,0.1031 1.270068,0.3092 0.372897,0.2063 0.651478,0.498 0.835744,0.8753 0.118444,0.2193 0.195219,0.4562 0.230323,0.7107 0.03509,0.2544 0.05264,0.5791 0.05265,0.9739 l 0,3.343 c -7e-6,0.3597 -0.08226,0.6317 -0.246775,0.816 -0.164523,0.1843 -0.378394,0.2764 -0.641614,0.2764 -0.26762,0 -0.484782,-0.094 -0.651486,-0.283 -0.166715,-0.1886 -0.25007,-0.4584 -0.250065,-0.8094 l 0,-2.9942 c -5e-6,-0.5923 -0.08226,-1.0452 -0.246775,-1.3589 -0.164521,-0.3137 -0.492457,-0.4705 -0.983809,-0.4705 -0.320263,0 -0.612005,0.095 -0.875228,0.2862 -0.263229,0.1909 -0.456262,0.453 -0.579098,0.7864 -0.08774,0.2676 -0.131616,0.7678 -0.131613,1.5004 l 0,2.2506 c -3e-6,0.3641 -0.08446,0.6372 -0.253356,0.8193 -0.168906,0.1821 -0.387164,0.2731 -0.654776,0.2731 -0.258841,0 -0.471615,-0.094 -0.638324,-0.283 -0.166711,-0.1886 -0.250066,-0.4584 -0.250065,-0.8094 l 0,-5.1921 c -10e-7,-0.3422 0.07458,-0.5978 0.223743,-0.7667 0.14916,-0.1689 0.35316,-0.2533 0.612001,-0.2533 0.157934,0 0.300515,0.037 0.427743,0.1118 0.127224,0.075 0.229224,0.1865 0.306001,0.3356 0.07677,0.1492 0.115159,0.3313 0.115161,0.5462 z"
           style="font-family:Arial Rounded MT Bold;-inkscape-font-specification:Arial Rounded MT Bold"
           id="path3066" />
        <path
           d="m 42.796896,1043.606 0,-0.1777 c -0.241297,0.2764 -0.479297,0.5013 -0.714002,0.6745 -0.234715,0.1733 -0.489167,0.305 -0.763357,0.3949 -0.274198,0.09 -0.573618,0.1349 -0.89826,0.1349 -0.42994,0 -0.828069,-0.091 -1.19439,-0.2731 -0.366326,-0.1821 -0.683294,-0.442 -0.950906,-0.7798 -0.267614,-0.3378 -0.470518,-0.7349 -0.608711,-1.1911 -0.138195,-0.4563 -0.207291,-0.9498 -0.207291,-1.4807 0,-1.1231 0.274194,-1.9983 0.822583,-2.6256 0.548386,-0.6274 1.270065,-0.9411 2.165038,-0.9411 0.517674,0 0.954191,0.089 1.309551,0.2665 0.355351,0.1777 0.701932,0.4508 1.039745,0.8193 l 0,-2.652 c -6e-6,-0.3685 0.07348,-0.6471 0.220452,-0.8357 0.146962,-0.1887 0.356446,-0.283 0.628453,-0.283 0.271994,0 0.481478,0.087 0.628454,0.2599 0.14696,0.1733 0.220444,0.4289 0.220452,0.7667 l 0,7.9231 c -8e-6,0.3422 -0.07898,0.5989 -0.236904,0.7699 -0.157943,0.1711 -0.361943,0.2567 -0.612002,0.2567 -0.245684,0 -0.448588,-0.089 -0.608711,-0.2665 -0.160135,-0.1777 -0.2402,-0.4311 -0.240194,-0.7601 z m -3.533816,-2.6388 c -2e-6,0.4869 0.07568,0.9015 0.227033,1.2437 0.151353,0.3422 0.358643,0.5999 0.621873,0.7732 0.263223,0.1733 0.550578,0.26 0.862067,0.26 0.315867,0 0.604319,-0.082 0.865357,-0.2468 0.261027,-0.1645 0.469415,-0.4168 0.625163,-0.7568 0.155736,-0.34 0.233607,-0.7644 0.233613,-1.2733 -6e-6,-0.4782 -0.07788,-0.8895 -0.233613,-1.2339 -0.155748,-0.3444 -0.366329,-0.6076 -0.631744,-0.7897 -0.265425,-0.182 -0.55607,-0.2731 -0.871938,-0.2731 -0.329037,0 -0.622972,0.093 -0.881808,0.2797 -0.258843,0.1864 -0.459553,0.4541 -0.602131,0.8028 -0.142583,0.3488 -0.213874,0.7535 -0.213872,1.2142 z"
           style="font-family:Arial Rounded MT Bold;-inkscape-font-specification:Arial Rounded MT Bold"
           id="path3068" />
        <path
           d="m 53.023246,1040.9803 c -8e-6,0.5353 -0.08336,1.0288 -0.250066,1.4807 -0.166717,0.4518 -0.408008,0.8401 -0.723872,1.1648 -0.315878,0.3246 -0.693169,0.5736 -1.131874,0.7469 -0.438716,0.1732 -0.932265,0.2599 -1.480649,0.2599 -0.544005,0 -1.033167,-0.088 -1.467488,-0.2632 -0.434326,-0.1755 -0.81052,-0.4267 -1.128583,-0.7535 -0.318067,-0.3269 -0.559357,-0.7129 -0.723873,-1.1582 -0.164517,-0.4453 -0.246775,-0.9378 -0.246775,-1.4774 0,-0.544 0.08335,-1.0419 0.250065,-1.4938 0.166709,-0.4519 0.405807,-0.8379 0.717292,-1.1582 0.311483,-0.3202 0.688774,-0.567 1.131874,-0.7403 0.443095,-0.1733 0.932257,-0.2599 1.467488,-0.2599 0.543997,0 1.037546,0.088 1.480649,0.2632 0.443092,0.1755 0.822576,0.4255 1.138454,0.7502 0.315865,0.3246 0.556059,0.7107 0.720583,1.1582 0.164509,0.4475 0.246767,0.941 0.246775,1.4806 z m -1.803102,0 c -6e-6,-0.7326 -0.161232,-1.3029 -0.483678,-1.7109 -0.322458,-0.408 -0.755684,-0.612 -1.299681,-0.612 -0.350972,0 -0.660263,0.091 -0.927873,0.273 -0.267617,0.1821 -0.473811,0.4508 -0.618583,0.8062 -0.144777,0.3553 -0.217164,0.7699 -0.217162,1.2437 -2e-6,0.4694 0.07129,0.8796 0.213872,1.2306 0.142578,0.351 0.346579,0.6197 0.612002,0.8061 0.265416,0.1865 0.577997,0.2797 0.937744,0.2797 0.543997,0 0.977223,-0.2051 1.299681,-0.6153 0.322446,-0.4102 0.483672,-0.9772 0.483678,-1.7011 z"
           style="font-family:Arial Rounded MT Bold;-inkscape-font-specification:Arial Rounded MT Bold"
           id="path3070" />
        <path
           d="m 55.550219,1038.4468 1.171358,4.0142 1.066067,-3.7313 c 0.114061,-0.3904 0.198512,-0.6569 0.253356,-0.7995 0.05483,-0.1426 0.157931,-0.2786 0.309291,-0.408 0.15135,-0.1294 0.358641,-0.1941 0.621872,-0.1941 0.267608,0 0.477092,0.065 0.628454,0.1941 0.151349,0.1294 0.257736,0.2698 0.319162,0.4212 0.06141,0.1513 0.146961,0.4134 0.256646,0.7863 l 1.066067,3.7313 1.184519,-4.0142 c 0.07896,-0.2896 0.142572,-0.4991 0.190839,-0.6285 0.04825,-0.1294 0.129411,-0.2435 0.243485,-0.3422 0.114055,-0.099 0.278571,-0.148 0.493549,-0.148 0.214958,0 0.40141,0.074 0.559357,0.2237 0.157925,0.1492 0.236893,0.3247 0.236903,0.5265 -1e-5,0.1842 -0.06801,0.4628 -0.204,0.8357 l -1.467488,4.3038 c -0.127235,0.3641 -0.225945,0.6273 -0.29613,0.7896 -0.0702,0.1624 -0.180976,0.3071 -0.332323,0.4344 -0.151363,0.1272 -0.358654,0.1908 -0.621873,0.1908 -0.272008,0 -0.485879,-0.068 -0.641614,-0.204 -0.155749,-0.136 -0.270911,-0.3027 -0.345485,-0.5001 -0.07459,-0.1975 -0.155749,-0.4541 -0.243484,-0.77 l -1.026584,-3.5009 -0.99368,3.5009 c -0.131617,0.487 -0.274198,0.8544 -0.427743,1.1023 -0.153552,0.2479 -0.423359,0.3718 -0.809421,0.3718 -0.197423,0 -0.36523,-0.038 -0.503421,-0.1152 -0.138196,-0.077 -0.253358,-0.1864 -0.345484,-0.329 -0.09213,-0.1426 -0.173293,-0.3115 -0.243485,-0.5067 -0.0702,-0.1952 -0.125035,-0.3499 -0.164516,-0.4639 l -1.454327,-4.3038 c -0.144775,-0.4036 -0.217162,-0.6822 -0.217162,-0.8357 0,-0.1931 0.07677,-0.3664 0.230324,-0.5199 0.153548,-0.1536 0.342193,-0.2303 0.565936,-0.2303 0.298322,0 0.500129,0.084 0.605421,0.2533 0.105289,0.1689 0.21716,0.4574 0.335614,0.8654 z"
           style="font-family:Arial Rounded MT Bold;-inkscape-font-specification:Arial Rounded MT Bold"
           id="path3072" />
      </g>
      <g
         transform="scale(1.0000012,0.9999988)"
         style="font-size:10.3191061px;fill:#000000;font-family:Sans"
         id="text3051">
        <path
           d="m 4.1885656,1034.1133 2.8770555,4.3534 0,-4.3937 c -5.7e-6,-0.2855 0.061298,-0.4997 0.1839098,-0.6424 0.1226007,-0.1428 0.2880354,-0.2142 0.4963047,-0.2142 0.2149748,0 0.3846084,0.071 0.5089012,0.2142 0.1242792,0.1427 0.1864222,0.3569 0.1864292,0.6424 l 0,5.8095 c -7e-6,0.6483 -0.2687335,0.9725 -0.8061802,0.9725 -0.1343694,0 -0.2552963,-0.019 -0.3627811,-0.058 -0.1074964,-0.039 -0.2082688,-0.1 -0.3023175,-0.1839 -0.09406,-0.084 -0.1813959,-0.1822 -0.2620086,-0.2947 -0.080623,-0.1126 -0.1612411,-0.2276 -0.241854,-0.3452 l -2.8065147,-4.303 0,4.3282 c -2.2e-6,0.2822 -0.065504,0.4955 -0.1965064,0.6399 -0.1310062,0.1444 -0.2989602,0.2167 -0.5038626,0.2167 -0.2116236,0 -0.3812572,-0.073 -0.5089013,-0.2192 -0.127646,-0.1461 -0.1914686,-0.3586 -0.1914678,-0.6374 l 0,-5.6987 c -8e-7,-0.2418 0.026872,-0.4316 0.080618,-0.5693 0.063822,-0.1512 0.1696326,-0.2746 0.3174334,-0.3704 0.1477983,-0.096 0.3073547,-0.1436 0.4786695,-0.1436 0.1343615,0 0.24941,0.022 0.3451459,0.065 0.095732,0.044 0.1797087,0.1025 0.2519313,0.1764 0.072218,0.074 0.1461177,0.1696 0.2216995,0.2872 0.075577,0.1175 0.1536754,0.2401 0.2342961,0.3678 z"
           style="font-family:Arial Rounded MT Bold;-inkscape-font-specification:Arial Rounded MT Bold"
           id="path3075" />
        <path
           d="m 13.822419,1038.3961 -2.690627,0 c 0.0034,0.3124 0.06634,0.5879 0.188949,0.8264 0.122604,0.2385 0.28552,0.4182 0.488747,0.5391 0.203221,0.1209 0.42744,0.1814 0.672656,0.1814 0.164592,0 0.314911,-0.019 0.450957,-0.058 0.136039,-0.039 0.267883,-0.099 0.395532,-0.1814 0.127641,-0.082 0.245209,-0.1704 0.352704,-0.2645 0.107486,-0.094 0.246888,-0.2217 0.418206,-0.3829 0.07054,-0.061 0.171308,-0.091 0.302318,-0.091 0.141076,0 0.255285,0.039 0.342626,0.1159 0.08733,0.077 0.130999,0.1864 0.131005,0.3275 -6e-6,0.1243 -0.04871,0.2696 -0.146121,0.4358 -0.09742,0.1663 -0.244378,0.3259 -0.440879,0.4787 -0.196512,0.1528 -0.443404,0.2796 -0.740678,0.3804 -0.297283,0.1008 -0.63907,0.1512 -1.025361,0.1512 -0.883441,0 -1.570373,-0.252 -2.060798,-0.7558 -0.4904268,-0.5039 -0.7356397,-1.1875 -0.7356393,-2.0507 -4e-7,-0.4065 0.060463,-0.7835 0.1813906,-1.1312 0.1209267,-0.3477 0.2972777,-0.6458 0.5290557,-0.8944 0.231775,-0.2485 0.517297,-0.4392 0.856566,-0.5719 0.339266,-0.1326 0.715483,-0.199 1.128653,-0.199 0.537449,0 0.998483,0.1134 1.383102,0.3401 0.384611,0.2268 0.672652,0.5198 0.864125,0.8793 0.191462,0.3594 0.287196,0.7255 0.287202,1.0984 -6e-6,0.346 -0.0991,0.5702 -0.297279,0.6726 -0.198192,0.1025 -0.476995,0.1537 -0.836412,0.1537 z m -2.690627,-0.781 2.49412,0 c -0.0336,-0.4702 -0.1604,-0.8221 -0.380416,-1.0556 -0.220024,-0.2334 -0.509744,-0.3501 -0.869163,-0.3501 -0.342629,0 -0.623952,0.1184 -0.84397,0.3552 -0.220022,0.2368 -0.353545,0.587 -0.400571,1.0505 z"
           style="font-family:Arial Rounded MT Bold;-inkscape-font-specification:Arial Rounded MT Bold"
           id="path3077" />
        <path
           d="m 16.966521,1036.1187 0.896876,3.0735 0.816257,-2.8569 c 0.08733,-0.2989 0.151995,-0.503 0.193987,-0.6122 0.04199,-0.1091 0.120924,-0.2133 0.236816,-0.3124 0.115884,-0.099 0.274601,-0.1486 0.47615,-0.1486 0.2049,0 0.365296,0.05 0.481189,0.1486 0.115883,0.099 0.197341,0.2066 0.244373,0.3225 0.04702,0.1159 0.112524,0.3166 0.196507,0.6021 l 0.816257,2.8569 0.906953,-3.0735 c 0.06046,-0.2217 0.109163,-0.3821 0.14612,-0.4812 0.03694,-0.099 0.09909,-0.1865 0.186429,-0.262 0.08733,-0.076 0.213294,-0.1134 0.377897,-0.1134 0.164587,0 0.307348,0.057 0.428283,0.1713 0.120919,0.1142 0.181382,0.2486 0.181391,0.4031 -9e-6,0.1411 -0.05207,0.3544 -0.156198,0.6399 l -1.123613,3.2953 c -0.09742,0.2788 -0.173,0.4803 -0.226739,0.6046 -0.05375,0.1243 -0.138568,0.2351 -0.25445,0.3325 -0.115895,0.097 -0.274611,0.1462 -0.47615,0.1462 -0.208269,0 -0.372024,-0.052 -0.491266,-0.1562 -0.119253,-0.1042 -0.207429,-0.2318 -0.264528,-0.383 -0.05711,-0.1511 -0.119253,-0.3476 -0.186429,-0.5895 l -0.786026,-2.6805 -0.760833,2.6805 c -0.100775,0.3729 -0.209946,0.6542 -0.32751,0.844 -0.117571,0.1898 -0.324155,0.2847 -0.619751,0.2847 -0.151161,0 -0.279646,-0.029 -0.385455,-0.088 -0.105813,-0.059 -0.193989,-0.1428 -0.264528,-0.2519 -0.07054,-0.1092 -0.132686,-0.2385 -0.186429,-0.388 -0.05375,-0.1495 -0.09574,-0.2679 -0.125966,-0.3552 l -1.113536,-3.2953 c -0.11085,-0.309 -0.166275,-0.5223 -0.166275,-0.6399 0,-0.1478 0.05878,-0.2805 0.176352,-0.3981 0.117567,-0.1175 0.262008,-0.1763 0.433322,-0.1763 0.228417,0 0.382934,0.065 0.463553,0.194 0.08062,0.1293 0.166274,0.3502 0.25697,0.6626 z"
           style="font-family:Arial Rounded MT Bold;-inkscape-font-specification:Arial Rounded MT Bold"
           id="path3079" />
      </g>
    </g>
    <rect
       style="fill:#b3b3b3;fill-opacity:1;stroke:#b3b3b3;stroke-opacity:1"
       id="rect3055"
       width="16.667517"
       height="14.520943"
       x="65.912453"
       y="2.8274066"
       transform="translate(0,1032.3622)" />
    <rect
       y="1037.2908"
       x="66.73233"
       height="11.747039"
       width="15.027762"
       id="rect3057"
       style="fill:#ffffff;fill-opacity:1;stroke:#ffffff;stroke-width:0.85404056;stroke-opacity:1" />
    <rect
       style="fill:#000000;fill-opacity:1;stroke:#000000;stroke-width:0.87300158;stroke-opacity:1"
       id="rect3059"
       width="6.3384027"
       height="0.66139859"
       x="75.38707"
       y="1035.5164" />
  </g>
</svg>
