<?xml version="1.0" encoding="UTF-8" standalone="no"?>
<!-- Created with Inkscape (http://www.inkscape.org/) -->
<svg xmlns:rdf="http://www.w3.org/1999/02/22-rdf-syntax-ns#" xmlns="http://www.w3.org/2000/svg" version="1.1" xmlns:cc="http://creativecommons.org/ns#" xmlns:dc="http://purl.org/dc/elements/1.1/" viewBox="0 0 85 20">
 <metadata>
  <rdf:RDF>
   <cc:Work rdf:about="">
    <dc:format>image/svg+xml</dc:format>
    <dc:type rdf:resource="http://purl.org/dc/dcmitype/StillImage"/>
    <dc:title/>
   </cc:Work>
  </rdf:RDF>
 </metadata>
 <g transform="translate(0,-1032.3622)">
  <path d="m115.41,9.5197c0,4.6723-3.7877,8.46-8.46,8.46-4.6724,0-8.46-3.7877-8.46-8.46s3.7877-8.46,8.46-8.46,8.46,3.7877,8.46,8.46z" transform="matrix(1.0388557,0,0,1.0388581,-36.899397,1032.6287)" stroke="#b3b3b3" fill="#b3b3b3"/>
  <path d="m115.41,9.5197c0,4.6723-3.7877,8.46-8.46,8.46-4.6724,0-8.46-3.7877-8.46-8.46s3.7877-8.46,8.46-8.46,8.46,3.7877,8.46,8.46z" transform="matrix(0.86317496,0,0,0.86317698,-18.110364,1034.3011)" stroke="#000000" fill="#000000"/>
  <path d="m78.335,1037.7,0,9.6996-9.6996-4.8498z" stroke="#ffffff" stroke-width="0.78384817" fill="#ffffff"/>
  <g style="letter-spacing:0px;word-spacing:0px;" font-weight="normal" transform="scale(0.99999882,1.0000012)" font-size="16.39322853px" font-style="normal" font-family="Arial Rounded MT Bold" line-height="125%" fill="#000000">
   <path style="" d="m4.1938,1041.9-0.83247,0,0,3.7701c-0.0000037,0.4963-0.1094,0.8618-0.32818,1.0966-0.21879,0.2348-0.50429,0.3522-0.85648,0.3522-0.37888,0-0.67238-0.1227-0.8805-0.3682s-0.31218-0.6057-0.31218-1.0806v-9.0291c-0.00000126-0.5123,0.11473-0.8831,0.34419-1.1126s0.60034-0.3442,1.1126-0.3442h3.8662c0.53363,0,0.98988,0.023,1.3688,0.068,0.37887,0.045,0.7204,0.1375,1.0246,0.2762,0.3682,0.1548,0.69371,0.3762,0.97655,0.6644,0.28282,0.2881,0.4976,0.623,0.64436,1.0045,0.14674,0.3816,0.22011,0.7858,0.22012,1.2127-0.00001,0.8752-0.24682,1.5742-0.74042,2.0972-0.49362,0.523-1.242,0.8938-2.2453,1.1126,0.42156,0.2242,0.82446,0.555,1.2087,0.9926,0.38421,0.4376,0.72707,0.9032,1.0286,1.3968,0.30149,0.4936,0.53629,0.9392,0.7044,1.3367,0.16808,0.3976,0.25213,0.6711,0.25214,0.8205-0.000011,0.1547-0.04937,0.3082-0.14808,0.4602-0.09873,0.1521-0.23348,0.2722-0.40423,0.3602-0.17077,0.088-0.36822,0.1321-0.59233,0.1321-0.26683,0-0.49095-0.063-0.67238-0.1881-0.18144-0.1254-0.33753-0.2841-0.46826-0.4763-0.13075-0.1921-0.30818-0.4749-0.5323-0.8484l-0.95254-1.5849c-0.34153-0.5817-0.64704-1.0246-0.91652-1.3288-0.26949-0.3041-0.54298-0.5123-0.82046-0.6243-0.27749-0.1121-0.62702-0.1681-1.0486-0.1681zm1.3608-4.9308-2.1932,0,0,3.2258,2.1292,0c0.57098,0,1.0513-0.049,1.4408-0.1481,0.38954-0.099,0.68705-0.2668,0.8925-0.5042,0.20544-0.2375,0.30817-0.5644,0.30817-0.9806-0.0000084-0.3255-0.082721-0.6123-0.24814-0.8605-0.16543-0.2481-0.3949-0.4335-0.68839-0.5563-0.2775-0.1174-0.82447-0.1761-1.6409-0.1761z"/>
   <path style="" d="m18.73,1043.2-4.2744,0c0.0053,0.4963,0.10539,0.9339,0.30017,1.3128,0.19477,0.3788,0.45358,0.6643,0.77644,0.8564,0.32284,0.1922,0.67904,0.2882,1.0686,0.2882,0.26148,0,0.50028-0.031,0.7164-0.092s0.42557-0.1575,0.62835-0.2882,0.38955-0.2708,0.56032-0.4202c0.17076-0.1495,0.39221-0.3522,0.66437-0.6084,0.11206-0.096,0.27214-0.1441,0.48027-0.1441,0.22412,0,0.40555,0.061,0.54431,0.1841,0.13874,0.1228,0.20811,0.2962,0.20812,0.5203-0.000009,0.1975-0.07739,0.4283-0.23213,0.6924-0.15476,0.2642-0.38823,0.5176-0.70039,0.7604-0.31218,0.2428-0.7044,0.4443-1.1767,0.6044-0.47227,0.1601-1.0152,0.2401-1.6289,0.2401-1.4035,0-2.4947-0.4002-3.2738-1.2007-0.77911-0.8004-1.1687-1.8863-1.1687-3.2578-0.000001-0.6457,0.09605-1.2447,0.28816-1.797s0.47226-1.0259,0.84047-1.4208c0.3682-0.3949,0.82179-0.6977,1.3608-0.9085,0.53897-0.2108,1.1366-0.3162,1.793-0.3162,0.85381,0,1.5862,0.1801,2.1972,0.5403s1.0686,0.8258,1.3728,1.3968c0.30416,0.571,0.45625,1.1527,0.45626,1.745-0.000009,0.5496-0.15743,0.9058-0.47227,1.0686-0.31485,0.1627-0.75777,0.2441-1.3287,0.2441zm-4.2744-1.2407,3.9622,0c-0.05337-0.7471-0.25482-1.306-0.60434-1.6769-0.34954-0.3709-0.8098-0.5563-1.3808-0.5563-0.54431,0-0.99123,0.1881-1.3408,0.5643-0.34953,0.3762-0.56165,0.9325-0.63636,1.6689z"/>
   <path style="" d="m28.351,1045.9,0-0.2161c-0.2935,0.3362-0.583,0.6097-0.86849,0.8205-0.2855,0.2107-0.59501,0.3708-0.92852,0.4802-0.33353,0.1094-0.69773,0.1641-1.0926,0.1641-0.52296,0-1.0072-0.1107-1.4528-0.3322-0.44559-0.2214-0.83114-0.5376-1.1567-0.9485-0.32552-0.4109-0.57232-0.8938-0.74042-1.4488s-0.25214-1.1553-0.25214-1.801c-0.000001-1.3661,0.33352-2.4307,1.0006-3.1938,0.66704-0.7631,1.5449-1.1447,2.6335-1.1447,0.62968,0,1.1606,0.1081,1.5929,0.3242,0.43224,0.2161,0.85381,0.5483,1.2647,0.9966v-3.2258c-0.000007-0.4483,0.08938-0.7871,0.26815-1.0166,0.17876-0.2295,0.43357-0.3442,0.76443-0.3442,0.33084,0,0.58565,0.1054,0.76443,0.3162,0.17876,0.2108,0.26814,0.5216,0.26815,0.9325v9.6374c-0.000009,0.4163-0.09606,0.7284-0.28816,0.9365-0.19212,0.2082-0.44026,0.3122-0.74442,0.3122-0.29884,0-0.54565-0.108-0.74042-0.3242-0.19478-0.2161-0.29217-0.5243-0.29216-0.9245zm-4.2984-3.2098c-0.000003,0.5923,0.09205,1.0966,0.27616,1.5129,0.1841,0.4162,0.43624,0.7297,0.75643,0.9405,0.32018,0.2108,0.66971,0.3162,1.0486,0.3162,0.38421,0,0.73508-0.1001,1.0526-0.3002,0.31751-0.2001,0.57098-0.5069,0.76043-0.9205,0.18943-0.4136,0.28415-0.9299,0.28416-1.5489-0.000007-0.5816-0.09473-1.0819-0.28416-1.5008-0.18945-0.4189-0.44559-0.7391-0.76843-0.9606-0.32285-0.2214-0.67639-0.3322-1.0606-0.3322-0.40023,0-0.75776,0.1134-1.0726,0.3402-0.31485,0.2268-0.55898,0.5523-0.73241,0.9766-0.17343,0.4242-0.26015,0.9165-0.26015,1.4768z"/>
   <path style="" d="m38.285,1045.9,0-0.2801c-0.26149,0.3308-0.53631,0.6083-0.82446,0.8324-0.28817,0.2242-0.60301,0.3909-0.94453,0.5003-0.34153,0.1094-0.73108,0.1641-1.1687,0.1641-0.5283,0-1.0019-0.1094-1.4208-0.3282s-0.74309-0.5203-0.97255-0.9045c-0.27215-0.4642-0.40823-1.1313-0.40823-2.0011v-4.3304c-0.000001-0.4376,0.09872-0.7645,0.29617-0.9806,0.19744-0.2161,0.45892-0.3242,0.78444-0.3242,0.33085,0,0.59767,0.1094,0.80045,0.3282s0.30417,0.5443,0.30417,0.9766v3.4979c-0.000004,0.507,0.04269,0.9326,0.12807,1.2767,0.08538,0.3442,0.2388,0.6137,0.46026,0.8085,0.22145,0.1948,0.52162,0.2922,0.90051,0.2922,0.3682,0,0.71506-0.1094,1.0406-0.3282,0.32551-0.2188,0.56298-0.5043,0.7124-0.8565,0.12273-0.3095,0.1841-0.9872,0.1841-2.0332v-2.6574c-0.000006-0.4323,0.10138-0.7578,0.30417-0.9766,0.20277-0.2188,0.46692-0.3282,0.79245-0.3282,0.32551,0,0.58699,0.1081,0.78444,0.3242,0.19744,0.2161,0.29616,0.543,0.29617,0.9806v6.3315c-0.000009,0.4163-0.09473,0.7284-0.28416,0.9365-0.18945,0.2082-0.43359,0.3122-0.73241,0.3122-0.29884,0-0.54565-0.108-0.74042-0.3242-0.19478-0.2161-0.29217-0.5189-0.29216-0.9085z"/>
   <path style="" d="m50.34,1044.4c-0.000009,0.2722-0.08139,0.563-0.24414,0.8725-0.16277,0.3095-0.41091,0.6043-0.74442,0.8845-0.33353,0.2801-0.75376,0.5056-1.2607,0.6764-0.50696,0.1707-1.0779,0.2561-1.713,0.2561-1.3501,0-2.404-0.3935-3.1618-1.1807-0.75776-0.7871-1.1366-1.8423-1.1366-3.1657-0.000001-0.8965,0.17343-1.689,0.52029-2.3774s0.84848-1.2207,1.5048-1.5969c0.65637-0.3762,1.4408-0.5643,2.3533-0.5643,0.56565,0,1.0846,0.083,1.5569,0.2481,0.47226,0.1655,0.87248,0.3789,1.2007,0.6404,0.32818,0.2615,0.57898,0.5403,0.75242,0.8365,0.17342,0.2962,0.26014,0.5723,0.26015,0.8284-0.000009,0.2615-0.0974,0.483-0.29216,0.6644-0.19478,0.1815-0.43092,0.2722-0.7084,0.2722-0.18144,0-0.3322-0.047-0.45226-0.1401-0.12008-0.093-0.25482-0.2441-0.40423-0.4523-0.26682-0.4055-0.54565-0.7097-0.83647-0.9125-0.29084-0.2027-0.66038-0.3041-1.1086-0.3041-0.6457,0-1.166,0.2521-1.5609,0.7564-0.39489,0.5043-0.59234,1.194-0.59233,2.0691-0.000003,0.4109,0.05069,0.7885,0.15209,1.1327,0.10139,0.3442,0.24814,0.6377,0.44025,0.8805,0.1921,0.2428,0.42424,0.4269,0.69639,0.5523s0.57098,0.1881,0.8965,0.1881c0.43758,0,0.81245-0.1014,1.1246-0.3042,0.31217-0.2028,0.58832-0.5123,0.82847-0.9285,0.1334-0.2455,0.27748-0.4376,0.43224-0.5763,0.15475-0.1388,0.34419-0.2081,0.56832-0.2081,0.26681,0,0.48827,0.1014,0.66437,0.3041,0.17609,0.2028,0.26414,0.4189,0.26415,0.6484z"/>
   <path style="" d="m58.336,1043.2-4.2744,0c0.0053,0.4963,0.10539,0.9339,0.30017,1.3128,0.19477,0.3788,0.45358,0.6643,0.77644,0.8564,0.32284,0.1922,0.67904,0.2882,1.0686,0.2882,0.26148,0,0.50028-0.031,0.7164-0.092s0.42557-0.1575,0.62835-0.2882c0.20277-0.1307,0.38955-0.2708,0.56032-0.4202,0.17076-0.1495,0.39221-0.3522,0.66437-0.6084,0.11206-0.096,0.27215-0.1441,0.48027-0.1441,0.22412,0,0.40555,0.061,0.54431,0.1841,0.13874,0.1228,0.20811,0.2962,0.20812,0.5203-0.000009,0.1975-0.07738,0.4283-0.23213,0.6924-0.15476,0.2642-0.38823,0.5176-0.7004,0.7604-0.31218,0.2428-0.7044,0.4443-1.1767,0.6044-0.47227,0.1601-1.0152,0.2401-1.6289,0.2401-1.4035,0-2.4947-0.4002-3.2738-1.2007-0.77911-0.8004-1.1687-1.8863-1.1687-3.2578-0.000001-0.6457,0.09605-1.2447,0.28816-1.797s0.47226-1.0259,0.84047-1.4208c0.3682-0.3949,0.82179-0.6977,1.3608-0.9085,0.53897-0.2108,1.1366-0.3162,1.793-0.3162,0.85381,0,1.5862,0.1801,2.1972,0.5403s1.0686,0.8258,1.3728,1.3968c0.30416,0.571,0.45625,1.1527,0.45626,1.745-0.000009,0.5496-0.15743,0.9058-0.47227,1.0686-0.31485,0.1627-0.75777,0.2441-1.3287,0.2441zm-4.2744-1.2407,3.9622,0c-0.05337-0.7471-0.25482-1.306-0.60434-1.6769-0.34954-0.3709-0.8098-0.5563-1.3808-0.5563-0.54431,0-0.99123,0.1881-1.3408,0.5643-0.34953,0.3762-0.56165,0.9325-0.63636,1.6689z"/>
  </g>
 </g>
</svg>
