<?xml version="1.0" encoding="UTF-8" standalone="no"?>
<!-- Created with Inkscape (http://www.inkscape.org/) -->

<svg
   xmlns:dc="http://purl.org/dc/elements/1.1/"
   xmlns:cc="http://creativecommons.org/ns#"
   xmlns:rdf="http://www.w3.org/1999/02/22-rdf-syntax-ns#"
   xmlns:svg="http://www.w3.org/2000/svg"
   xmlns="http://www.w3.org/2000/svg"
   xmlns:sodipodi="http://sodipodi.sourceforge.net/DTD/sodipodi-0.dtd"
   xmlns:inkscape="http://www.inkscape.org/namespaces/inkscape"
   width="85"
   height="20"
   id="svg2"
   version="1.1"
   inkscape:version="0.48.4 r9939"
   sodipodi:docname="Reduce-button.svg">
  <defs
     id="defs4" />
  <sodipodi:namedview
     id="base"
     pagecolor="#ffffff"
     bordercolor="#666666"
     borderopacity="1.0"
     inkscape:pageopacity="0.0"
     inkscape:pageshadow="2"
     inkscape:zoom="11.2"
     inkscape:cx="87.507963"
     inkscape:cy="1.7162187"
     inkscape:document-units="px"
     inkscape:current-layer="layer1"
     showgrid="false"
     inkscape:window-width="1366"
     inkscape:window-height="705"
     inkscape:window-x="-8"
     inkscape:window-y="-8"
     inkscape:window-maximized="1" />
  <metadata
     id="metadata7">
    <rdf:RDF>
      <cc:Work
         rdf:about="">
        <dc:format>image/svg+xml</dc:format>
        <dc:type
           rdf:resource="http://purl.org/dc/dcmitype/StillImage" />
        <dc:title />
      </cc:Work>
    </rdf:RDF>
  </metadata>
  <g
     inkscape:label="Layer 1"
     inkscape:groupmode="layer"
     id="layer1"
     transform="translate(0,-1032.3622)">
    <path
       sodipodi:type="arc"
       style="fill:#b3b3b3;fill-opacity:1;stroke:#b3b3b3;stroke-opacity:1"
       id="path3000"
       sodipodi:cx="106.9499"
       sodipodi:cy="9.5196676"
       sodipodi:rx="8.4600277"
       sodipodi:ry="8.4600277"
       d="m 115.40993,9.5196676 c 0,4.6723444 -3.78769,8.4600274 -8.46003,8.4600274 -4.67235,0 -8.46003,-3.787683 -8.46003,-8.4600274 0,-4.6723443 3.78768,-8.4600277 8.46003,-8.4600277 4.67234,0 8.46003,3.7876834 8.46003,8.4600277 z"
       transform="matrix(1.0388557,0,0,1.0388581,-36.899397,1032.6287)" />
    <path
       transform="matrix(0.86317496,0,0,0.86317698,-18.110364,1034.3011)"
       d="m 115.40993,9.5196676 c 0,4.6723444 -3.78769,8.4600274 -8.46003,8.4600274 -4.67235,0 -8.46003,-3.787683 -8.46003,-8.4600274 0,-4.6723443 3.78768,-8.4600277 8.46003,-8.4600277 4.67234,0 8.46003,3.7876834 8.46003,8.4600277 z"
       sodipodi:ry="8.4600277"
       sodipodi:rx="8.4600277"
       sodipodi:cy="9.5196676"
       sodipodi:cx="106.9499"
       id="path3002"
       style="fill:#000000;fill-opacity:1;stroke:#000000;stroke-opacity:1"
       sodipodi:type="arc" />
    <path
       style="fill:#ffffff;fill-opacity:1;stroke:#ffffff;stroke-width:0.78384817;stroke-opacity:1"
       d="m 78.335355,1037.7036 0,9.6996 -9.699625,-4.8498 z"
       id="rect3014"
       inkscape:connector-curvature="0"
       sodipodi:nodetypes="cccc" />
    <g
       transform="scale(0.99999882,1.0000012)"
       style="font-size:16.39322853px;font-style:normal;font-weight:normal;line-height:125%;letter-spacing:0px;word-spacing:0px;fill:#000000;fill-opacity:1;stroke:none;font-family:Arial Rounded MT Bold;-inkscape-font-specification:Arial Rounded MT Bold"
       id="text3071">
      <path
         d="m 4.1937991,1041.8944 -0.8324686,0 0,3.7701 c -3.7e-6,0.4963 -0.1093985,0.8618 -0.3281848,1.0966 -0.2187929,0.2348 -0.5042867,0.3522 -0.8564821,0.3522 -0.3788821,0 -0.6723803,-0.1227 -0.8804957,-0.3682 -0.2081185,-0.2455 -0.31217701,-0.6057 -0.31217575,-1.0806 l 0,-9.0291 c -1.26e-6,-0.5123 0.11472985,-0.8831 0.34419375,-1.1126 0.2294607,-0.2295 0.6003358,-0.3442 1.1126264,-0.3442 l 3.8661764,0 c 0.5336266,0 0.989883,0.023 1.3687706,0.068 0.3788716,0.045 0.7203968,0.1375 1.0245767,0.2762 0.368198,0.1548 0.6937142,0.3762 0.9765498,0.6644 0.2828156,0.2881 0.4976032,0.623 0.6443632,1.0045 0.146738,0.3816 0.220113,0.7858 0.220123,1.2127 -1e-5,0.8752 -0.246816,1.5742 -0.7404164,2.0972 -0.4936208,0.523 -1.2420413,0.8938 -2.2452639,1.1126 0.4215624,0.2242 0.8244554,0.555 1.2086804,0.9926 0.3842069,0.4376 0.7270662,0.9032 1.028579,1.3968 0.3014929,0.4936 0.5362909,0.9392 0.7043969,1.3367 0.168083,0.3976 0.252131,0.6711 0.252142,0.8205 -1.1e-5,0.1547 -0.04937,0.3082 -0.148084,0.4602 -0.09873,0.1521 -0.233475,0.2722 -0.404227,0.3602 -0.170773,0.088 -0.3682177,0.1321 -0.5923338,0.1321 -0.2668264,0 -0.4909524,-0.063 -0.6723785,-0.1881 -0.1814445,-0.1254 -0.3375322,-0.2841 -0.4682636,-0.4763 -0.1307489,-0.1921 -0.3081819,-0.4749 -0.5322996,-0.8484 l -0.9525363,-1.5849 c -0.3415325,-0.5817 -0.6470375,-1.0246 -0.9165159,-1.3288 -0.2694911,-0.3041 -0.5429782,-0.5123 -0.8204619,-0.6243 -0.2774948,-0.1121 -0.6270245,-0.1681 -1.0485903,-0.1681 z m 1.360766,-4.9308 -2.1932346,0 0,3.2258 2.1291986,0 c 0.5709818,0 1.0512516,-0.049 1.4408111,-0.1481 0.389545,-0.099 0.6870455,-0.2668 0.8925024,-0.5042 0.2054407,-0.2375 0.3081651,-0.5644 0.3081735,-0.9806 -8.4e-6,-0.3255 -0.082721,-0.6123 -0.2481397,-0.8605 -0.1654344,-0.2481 -0.3948967,-0.4335 -0.6883875,-0.5563 -0.2774967,-0.1174 -0.8244708,-0.1761 -1.6409238,-0.1761 z"
         style=""
         id="path3076" />
      <path
         d="m 18.729982,1043.2071 -4.274406,0 c 0.0053,0.4963 0.105389,0.9339 0.300169,1.3128 0.194773,0.3788 0.453585,0.6643 0.776437,0.8564 0.322844,0.1922 0.679044,0.2882 1.068601,0.2882 0.261476,0 0.500276,-0.031 0.716404,-0.092 0.216115,-0.061 0.425566,-0.1575 0.628353,-0.2882 0.202775,-0.1307 0.389546,-0.2708 0.560316,-0.4202 0.170755,-0.1495 0.392213,-0.3522 0.664374,-0.6084 0.112055,-0.096 0.272145,-0.1441 0.48027,-0.1441 0.224118,0 0.405553,0.061 0.544307,0.1841 0.138736,0.1228 0.208108,0.2962 0.208117,0.5203 -9e-6,0.1975 -0.07739,0.4283 -0.232131,0.6924 -0.154762,0.2642 -0.388227,0.5176 -0.700394,0.7604 -0.312184,0.2428 -0.704404,0.4443 -1.176663,0.6044 -0.472272,0.1601 -1.015244,0.2401 -1.628917,0.2401 -1.40346,0 -2.49474,-0.4002 -3.273843,-1.2007 -0.779106,-0.8004 -1.168658,-1.8863 -1.168657,-3.2578 -1e-6,-0.6457 0.09605,-1.2447 0.288162,-1.797 0.192107,-0.5523 0.472264,-1.0259 0.840473,-1.4208 0.368205,-0.3949 0.821793,-0.6977 1.360766,-0.9085 0.538966,-0.2108 1.136635,-0.3162 1.793009,-0.3162 0.853808,0 1.58622,0.1801 2.197237,0.5403 0.611003,0.3602 1.068594,0.8258 1.372773,1.3968 0.304162,0.571 0.456248,1.1527 0.456257,1.745 -9e-6,0.5496 -0.157431,0.9058 -0.472266,1.0686 -0.314852,0.1627 -0.757768,0.2441 -1.328748,0.2441 z m -4.274406,-1.2407 3.96223,0 c -0.05337,-0.7471 -0.254816,-1.306 -0.60434,-1.6769 -0.349536,-0.3709 -0.809795,-0.5563 -1.380777,-0.5563 -0.544311,0 -0.991229,0.1881 -1.340755,0.5643 -0.349533,0.3762 -0.561653,0.9325 -0.636358,1.6689 z"
         style=""
         id="path3078" />
      <path
         d="m 28.351399,1045.8646 0,-0.2161 c -0.293505,0.3362 -0.583001,0.6097 -0.868489,0.8205 -0.2855,0.2107 -0.595007,0.3708 -0.928522,0.4802 -0.333526,0.1094 -0.697731,0.1641 -1.092615,0.1641 -0.522965,0 -1.007237,-0.1107 -1.452818,-0.3322 -0.445587,-0.2214 -0.831137,-0.5376 -1.156651,-0.9485 -0.325518,-0.4109 -0.572324,-0.8938 -0.740417,-1.4488 -0.168095,-0.555 -0.252143,-1.1553 -0.252142,-1.801 -1e-6,-1.3661 0.33352,-2.4307 1.000563,-3.1938 0.66704,-0.7631 1.544867,-1.1447 2.633483,-1.1447 0.629683,0 1.160648,0.1081 1.592896,0.3242 0.432237,0.2161 0.853808,0.5483 1.264712,0.9966 l 0,-3.2258 c -7e-6,-0.4483 0.08938,-0.7871 0.268151,-1.0166 0.17876,-0.2295 0.43357,-0.3442 0.764431,-0.3442 0.330844,0 0.585654,0.1054 0.76443,0.3162 0.178758,0.2108 0.268142,0.5216 0.268151,0.9325 l 0,9.6374 c -9e-6,0.4163 -0.09606,0.7284 -0.288162,0.9365 -0.192117,0.2082 -0.440257,0.3122 -0.744419,0.3122 -0.298843,0 -0.545648,-0.108 -0.740417,-0.3242 -0.194784,-0.2161 -0.292172,-0.5243 -0.292165,-0.9245 z m -4.298419,-3.2098 c -3e-6,0.5923 0.09205,1.0966 0.276155,1.5129 0.1841,0.4162 0.436242,0.7297 0.756426,0.9405 0.320176,0.2108 0.669706,0.3162 1.04859,0.3162 0.384211,0 0.735075,-0.1001 1.052593,-0.3002 0.317506,-0.2001 0.570981,-0.5069 0.760428,-0.9205 0.189433,-0.4136 0.284153,-0.9299 0.28416,-1.5489 -7e-6,-0.5816 -0.09473,-1.0819 -0.28416,-1.5008 -0.189447,-0.4189 -0.445591,-0.7391 -0.768433,-0.9606 -0.322854,-0.2214 -0.676386,-0.3322 -1.060597,-0.3322 -0.40023,0 -0.757764,0.1134 -1.072604,0.3402 -0.314847,0.2268 -0.558984,0.5523 -0.732412,0.9766 -0.173434,0.4242 -0.260149,0.9165 -0.260146,1.4768 z"
         style=""
         id="path3080" />
      <path
         d="m 38.284989,1045.8806 0,-0.2801 c -0.261487,0.3308 -0.536308,0.6083 -0.824464,0.8324 -0.288168,0.2242 -0.603011,0.3909 -0.944532,0.5003 -0.34153,0.1094 -0.731082,0.1641 -1.168657,0.1641 -0.528301,0 -1.001901,-0.1094 -1.4208,-0.3282 -0.418905,-0.2188 -0.743087,-0.5203 -0.972548,-0.9045 -0.272154,-0.4642 -0.408231,-1.1313 -0.40823,-2.0011 l 0,-4.3304 c -10e-7,-0.4376 0.09872,-0.7645 0.296167,-0.9806 0.197443,-0.2161 0.458923,-0.3242 0.784442,-0.3242 0.33085,0 0.597667,0.1094 0.80045,0.3282 0.202778,0.2188 0.304168,0.5443 0.304172,0.9766 l 0,3.4979 c -4e-6,0.507 0.04269,0.9326 0.128072,1.2767 0.08538,0.3442 0.238797,0.6137 0.460259,0.8085 0.221454,0.1948 0.521622,0.2922 0.900507,0.2922 0.368202,0 0.715064,-0.1094 1.040586,-0.3282 0.32551,-0.2188 0.562977,-0.5043 0.712401,-0.8565 0.122729,-0.3095 0.184097,-0.9872 0.184103,-2.0332 l 0,-2.6574 c -6e-6,-0.4323 0.101384,-0.7578 0.304171,-0.9766 0.202774,-0.2188 0.466923,-0.3282 0.792447,-0.3282 0.325508,0 0.586988,0.1081 0.784441,0.3242 0.197436,0.2161 0.296158,0.543 0.296167,0.9806 l 0,6.3315 c -9e-6,0.4163 -0.09473,0.7284 -0.28416,0.9365 -0.189448,0.2082 -0.433586,0.3122 -0.732412,0.3122 -0.298843,0 -0.545648,-0.108 -0.740417,-0.3242 -0.194783,-0.2161 -0.292171,-0.5189 -0.292165,-0.9085 z"
         style=""
         id="path3082" />
      <path
         d="m 50.339776,1044.4078 c -9e-6,0.2722 -0.08139,0.563 -0.244137,0.8725 -0.162767,0.3095 -0.410907,0.6043 -0.74442,0.8845 -0.333528,0.2801 -0.753764,0.5056 -1.260709,0.6764 -0.506959,0.1707 -1.077946,0.2561 -1.712965,0.2561 -1.350097,0 -2.404022,-0.3935 -3.161779,-1.1807 -0.757761,-0.7871 -1.136641,-1.8423 -1.13664,-3.1657 -1e-6,-0.8965 0.17343,-1.689 0.520293,-2.3774 0.34686,-0.6884 0.848475,-1.2207 1.504847,-1.5969 0.656366,-0.3762 1.440807,-0.5643 2.353324,-0.5643 0.565647,0 1.084605,0.083 1.556877,0.2481 0.472259,0.1655 0.872484,0.3789 1.200676,0.6404 0.328176,0.2615 0.578984,0.5403 0.752423,0.8365 0.173423,0.2962 0.260138,0.5723 0.260147,0.8284 -9e-6,0.2615 -0.0974,0.483 -0.292165,0.6644 -0.194784,0.1815 -0.430917,0.2722 -0.708398,0.2722 -0.181444,0 -0.332195,-0.047 -0.452255,-0.1401 -0.120075,-0.093 -0.254817,-0.2441 -0.404228,-0.4523 -0.266823,-0.4055 -0.545647,-0.7097 -0.83647,-0.9125 -0.290837,-0.2027 -0.660378,-0.3041 -1.108625,-0.3041 -0.645701,0 -1.165993,0.2521 -1.560878,0.7564 -0.394892,0.5043 -0.592337,1.194 -0.592334,2.0691 -3e-6,0.4109 0.05069,0.7885 0.152086,1.1327 0.101387,0.3442 0.248136,0.6377 0.440248,0.8805 0.192104,0.2428 0.424235,0.4269 0.696392,0.5523 0.272149,0.1254 0.570983,0.1881 0.896504,0.1881 0.437575,0 0.812452,-0.1014 1.124634,-0.3042 0.312169,-0.2028 0.588324,-0.5123 0.828466,-0.9285 0.133401,-0.2455 0.277482,-0.4376 0.432243,-0.5763 0.154746,-0.1388 0.344186,-0.2081 0.56832,-0.2081 0.266809,0 0.488267,0.1014 0.664374,0.3041 0.176091,0.2028 0.26414,0.4189 0.264149,0.6484 z"
         style=""
         id="path3084" />
      <path
         d="m 58.33628,1043.2071 -4.274406,0 c 0.0053,0.4963 0.10539,0.9339 0.300169,1.3128 0.194773,0.3788 0.453585,0.6643 0.776437,0.8564 0.322844,0.1922 0.679045,0.2882 1.068602,0.2882 0.261475,0 0.500276,-0.031 0.716403,-0.092 0.216116,-0.061 0.425567,-0.1575 0.628354,-0.2882 0.202774,-0.1307 0.389546,-0.2708 0.560315,-0.4202 0.170756,-0.1495 0.392214,-0.3522 0.664374,-0.6084 0.112056,-0.096 0.272146,-0.1441 0.480271,-0.1441 0.224117,0 0.405553,0.061 0.544306,0.1841 0.138736,0.1228 0.208108,0.2962 0.208117,0.5203 -9e-6,0.1975 -0.07738,0.4283 -0.23213,0.6924 -0.154763,0.2642 -0.388227,0.5176 -0.700395,0.7604 -0.312183,0.2428 -0.704404,0.4443 -1.176662,0.6044 -0.472272,0.1601 -1.015244,0.2401 -1.628917,0.2401 -1.403461,0 -2.494741,-0.4002 -3.273843,-1.2007 -0.779106,-0.8004 -1.168659,-1.8863 -1.168658,-3.2578 -1e-6,-0.6457 0.09605,-1.2447 0.288162,-1.797 0.192107,-0.5523 0.472265,-1.0259 0.840473,-1.4208 0.368205,-0.3949 0.821794,-0.6977 1.360766,-0.9085 0.538967,-0.2108 1.136636,-0.3162 1.79301,-0.3162 0.853808,0 1.586219,0.1801 2.197237,0.5403 0.611003,0.3602 1.068593,0.8258 1.372773,1.3968 0.304162,0.571 0.456247,1.1527 0.456256,1.745 -9e-6,0.5496 -0.15743,0.9058 -0.472266,1.0686 -0.314852,0.1627 -0.757767,0.2441 -1.328748,0.2441 z m -4.274406,-1.2407 3.962231,0 c -0.05337,-0.7471 -0.254817,-1.306 -0.60434,-1.6769 -0.349537,-0.3709 -0.809795,-0.5563 -1.380778,-0.5563 -0.544311,0 -0.991228,0.1881 -1.340755,0.5643 -0.349533,0.3762 -0.561652,0.9325 -0.636358,1.6689 z"
         style=""
         id="path3086" />
    </g>
  </g>
</svg>
