<?xml version="1.0" encoding="UTF-8" standalone="no"?>
<!-- Created with Inkscape (http://www.inkscape.org/) -->

<svg
   xmlns:dc="http://purl.org/dc/elements/1.1/"
   xmlns:cc="http://creativecommons.org/ns#"
   xmlns:rdf="http://www.w3.org/1999/02/22-rdf-syntax-ns#"
   xmlns:svg="http://www.w3.org/2000/svg"
   xmlns="http://www.w3.org/2000/svg"
   xmlns:sodipodi="http://sodipodi.sourceforge.net/DTD/sodipodi-0.dtd"
   xmlns:inkscape="http://www.inkscape.org/namespaces/inkscape"
   width="48"
   height="48"
   id="svg2"
   version="1.1"
   inkscape:version="0.48.4 r9939"
   sodipodi:docname="Hat.svg">
  <defs
     id="defs4" />
  <sodipodi:namedview
     id="base"
     pagecolor="#ffffff"
     bordercolor="#666666"
     borderopacity="1.0"
     inkscape:pageopacity="0.0"
     inkscape:pageshadow="2"
     inkscape:zoom="4.4371984"
     inkscape:cx="36.198832"
     inkscape:cy="22.327768"
     inkscape:document-units="px"
     inkscape:current-layer="layer1"
     showgrid="false"
     inkscape:window-width="1366"
     inkscape:window-height="705"
     inkscape:window-x="-8"
     inkscape:window-y="-8"
     inkscape:window-maximized="1" />
  <metadata
     id="metadata7">
    <rdf:RDF>
      <cc:Work
         rdf:about="">
        <dc:format>image/svg+xml</dc:format>
        <dc:type
           rdf:resource="http://purl.org/dc/dcmitype/StillImage" />
        <dc:title></dc:title>
      </cc:Work>
    </rdf:RDF>
  </metadata>
  <g
     inkscape:label="Layer 1"
     inkscape:groupmode="layer"
     id="layer1"
     transform="translate(0,-1004.3622)">
    <g
       id="g8355"
       transform="matrix(0.03375076,0,0,0.03375076,103.039,1009.5193)"
       style="fill:#ff1919;fill-opacity:1">
      <path
         id="path3861"
         d="m -2014.1395,486.70018 -1.037,-56.215 -1.306,-70.88 -21.88,-91.394 -29.703,-74.209 -109.724,-96.386997 -128.969,-41.909 -43.719,-3.123 -153.872,-0.246 -171.807,79.410997 -82.562,107.077 -42.883,118.199 3.514,190.642 21.88,91.394 130.883,220.896 78.298,77.681 122.822,52.124 148.623,18.66102 151.819,-17.67302 131.899,-51.293 91.873,-77.119 37.905,-91.193 -1.171,-63.548 -21.881,-91.394 -110.039,-185.717"
         inkscape:connector-curvature="0"
         style="fill:#ff1919;stroke:#000000;stroke-width:12;fill-opacity:1" />
      <path
         id="path3863"
         d="m -2014.1395,486.70018 -37.906,91.193 -91.872,77.12 -131.899,51.293 -151.819,17.672 -148.624,-18.661 -122.821,-52.124 -78.298,-77.679 10e-4,0 -10e-4,-10e-4 130.883,220.896 78.298,77.68 122.821,52.124 148.624,18.661 151.819,-17.672 131.899,-51.293 91.873,-77.12 37.905,-91.193"
         inkscape:connector-curvature="0"
         style="fill:#ff1919;stroke:#000000;stroke-width:12;fill-opacity:1" />
      <path
         id="path3865"
         d="m -2777.3785,575.51318 1.171,63.547 -1.171,-63.548"
         inkscape:connector-curvature="0"
         style="fill:#ff1919;stroke:#000000;stroke-width:12;fill-opacity:1"
         sodipodi:nodetypes="ccc" />
    </g>
    <g
       id="layer1-8"
       inkscape:label="Layer 1"
       transform="matrix(1.0000641,0,0,1.0000641,-0.00125225,-0.04319062)">
      <g
         style="fill:#b3b3b3"
         transform="matrix(0.04891366,0,0,0.04891366,-262.39946,1002.4376)"
         id="g8470">
        <path
           id="path2987"
           transform="matrix(20.444187,0,0,20.444187,5364.5436,39.346882)"
           d="m 23.75,0.3125 c -3.197988,0.0239137 -6.385249,0.67133132 -9.3125,2 C 6.5589377,5.6912849 0.92974449,13.664164 0.375,22.21875 -0.35939947,30.759837 3.9984609,39.477962 11.28125,44 c 7.186473,4.673681 16.953878,4.916338 24.375,0.625 C 41.96687,41.118633 46.406244,34.610269 47.4375,27.46875 48.729412,19.208345 45.263195,10.433894 38.625,5.34375 34.441464,1.9964445 29.079979,0.27264388 23.75,0.3125 z M 23.375,4.5 c 4.823967,-0.1365159 9.698069,1.516714 13.34375,4.71875 4.532046,3.844892 7.095501,9.818126 6.78125,15.75 -0.283616,6.878001 -4.509167,13.393734 -10.6875,16.4375 -6.2654,3.249176 -14.29741,2.677688 -20.03125,-1.4375 C 6.9623587,35.974693 3.6985019,28.652958 4.625,21.65625 5.4042924,14.641615 10.330316,8.2937726 16.9375,5.8125 18.985542,4.9939939 21.182288,4.5620527 23.375,4.5 z"
           style="fill:#b3b3b3;stroke:#000000;stroke-width:0.58696389"
           inkscape:connector-curvature="0" />
      </g>
    </g>
  </g>
</svg>
