<?xml version="1.0" encoding="UTF-8" standalone="no"?>
<!-- Created with Inkscape (http://www.inkscape.org/) -->

<svg
   xmlns:dc="http://purl.org/dc/elements/1.1/"
   xmlns:cc="http://creativecommons.org/ns#"
   xmlns:rdf="http://www.w3.org/1999/02/22-rdf-syntax-ns#"
   xmlns:svg="http://www.w3.org/2000/svg"
   xmlns="http://www.w3.org/2000/svg"
   xmlns:sodipodi="http://sodipodi.sourceforge.net/DTD/sodipodi-0.dtd"
   xmlns:inkscape="http://www.inkscape.org/namespaces/inkscape"
   width="48"
   height="48"
   id="svg2"
   version="1.1"
   inkscape:version="0.48.4 r9939"
   sodipodi:docname="Head.svg">
  <defs
     id="defs4" />
  <sodipodi:namedview
     id="base"
     pagecolor="#ffffff"
     bordercolor="#666666"
     borderopacity="1.0"
     inkscape:pageopacity="0.0"
     inkscape:pageshadow="2"
     inkscape:zoom="6.2751462"
     inkscape:cx="25.107226"
     inkscape:cy="16.580691"
     inkscape:document-units="px"
     inkscape:current-layer="layer1"
     showgrid="false"
     inkscape:window-width="1366"
     inkscape:window-height="705"
     inkscape:window-x="-8"
     inkscape:window-y="-8"
     inkscape:window-maximized="1" />
  <metadata
     id="metadata7">
    <rdf:RDF>
      <cc:Work
         rdf:about="">
        <dc:format>image/svg+xml</dc:format>
        <dc:type
           rdf:resource="http://purl.org/dc/dcmitype/StillImage" />
        <dc:title></dc:title>
      </cc:Work>
    </rdf:RDF>
  </metadata>
  <g
     inkscape:label="Layer 1"
     inkscape:groupmode="layer"
     id="layer1"
     transform="translate(0,-1004.3622)">
    <g
       id="g11036">
      <path
         transform="translate(0,1004.3622)"
         inkscape:connector-curvature="0"
         id="path11022"
         d="m 15.48094,12.932169 c -0.918684,0.30834 -1.95245,0.395508 -2.804873,0.830073 -0.7567,0.776866 -1.714091,1.497793 -1.879812,2.64763 -0.616149,1.523793 -0.313126,3.174355 -0.382561,4.772857 0.02357,3.657306 -0.04708,7.325542 0.03524,10.976034 0.354256,0.959754 0.252967,2.185149 1.175037,2.824509 0.681606,0.62752 1.2271,1.504164 2.239317,1.569055 1.04223,0.389357 2.126161,0.485999 3.230435,0.418779 5.178348,-0.01807 10.368331,0.06169 15.539431,-0.01732 0.873757,-0.322478 1.917916,-0.33743 2.678136,-0.868885 0.693695,-0.803661 1.790358,-1.38263 1.878453,-2.542557 0.337901,-1.014088 0.546694,-2.046429 0.44411,-3.119546 -0.02475,-4.184057 0.04928,-8.380099 -0.03677,-12.556721 -0.324794,-0.848542 -0.325384,-1.875545 -0.855032,-2.6107 -0.795584,-0.6461 -1.32599,-1.755644 -2.443708,-1.853177 -1.05294,-0.337424 -2.118438,-0.58811 -3.231838,-0.473549 -5.195029,0.0055 -10.391318,-0.01044 -15.585566,0.0035 z m 12.458593,9.215415 c 0.937678,-0.149228 1.724538,0.790373 1.542359,1.686734 -0.05335,1.168802 -1.65225,1.661974 -2.440307,0.866256 -0.986777,-0.721001 -0.300397,-2.611523 0.897948,-2.55299 z m -8.328031,0.08803 c 1.079388,-0.124686 1.978184,1.087134 1.500102,2.077606 -0.42296,1.061777 -2.041793,1.190247 -2.612853,0.179589 -0.604377,-0.883498 0.01729,-2.225241 1.112751,-2.257195 z m 7.873775,6.215211 c 0.394839,0.0061 0.449944,0.579755 0.109162,0.753572 -1.459005,1.14442 -3.470977,0.958496 -5.229228,0.897949 -0.773696,-0.217058 -1.790062,-0.396195 -2.186769,-1.176137 0.0059,-0.540054 0.789615,-0.389977 1.095145,-0.239453 1.86673,0.819425 4.017166,0.562535 5.866596,-0.176068 0.112616,-0.03242 0.227745,-0.05648 0.345094,-0.05986 z"
         style="fill:#f7d117;fill-opacity:1;stroke:#f7d117;stroke-width:0.11268371;stroke-opacity:1" />
      <path
         transform="translate(0,1004.3622)"
         inkscape:connector-curvature="0"
         id="path11024"
         d="m 17.731093,8.0938116 c -0.133783,1.5072584 -0.05819,3.0550594 -0.109162,4.5777754 0.411816,0.463188 1.297079,0.07849 1.890973,0.20424 3.570665,0 7.141331,0 10.711996,0 0.455434,-0.419479 0.06187,-1.298483 0.179324,-1.89436 -0.05874,-0.965373 0.06709,-1.9754537 -0.112418,-2.912305 C 26.97901,7.9620931 23.631371,8.054099 20.305212,8.023384 19.45558,8.07122 18.553273,7.928156 17.731093,8.093811 z"
         style="fill:#f7d117;fill-opacity:1;stroke:#f7d117;stroke-width:0.11268371;stroke-opacity:1" />
      <path
         transform="translate(0,1004.3622)"
         inkscape:connector-curvature="0"
         id="path11026"
         d="m 15.421077,37.109868 c -0.0409,0.797699 -0.165498,1.702227 0.119726,2.475521 0.682947,0.29892 1.524799,0.09204 2.260717,0.186632 4.829838,0.04434 9.670016,0.124879 14.493943,-0.08451 0.532009,-0.189095 0.299348,-0.96193 0.380308,-1.397982 0.03503,-0.602008 0.156691,-1.543953 -0.764137,-1.250085 -5.446379,0 -10.892759,0 -16.339138,0 l -0.102173,0.04752 -0.04925,0.02291 z"
         style="fill:#f7d117;fill-opacity:1;stroke:#f7d117;stroke-width:0.11268371;stroke-opacity:1" />
    </g>
    <g
       id="g8360"
       transform="matrix(0.03334131,0,0,0.03334131,47.21767,1010.5487)">
      <path
         id="path3119"
         d="m -481.6025,1010.0802 33.224,0 12.684,-12.25302 0,-73.841 74.551,-19.976 54.576,-54.575 19.975,-74.551 0,-424.112 -19.975,-74.551 -54.576,-54.575 -74.551,-19.976 -34.923,0 -32.611,0 -62.801,0 -3.626,0 -126.708,0"
         inkscape:connector-curvature="0"
         style="fill:none;stroke:#000000;stroke-width:12" />
      <path
         id="path3121"
         d="m -435.6945,923.98618 -34.923,-10e-4 -36.822,0 -58.59,0 -130.334,0 -130.335,0 -58.589,0 -36.822,0 -34.923,10e-4"
         inkscape:connector-curvature="0"
         style="fill:none;stroke:#000000;stroke-width:12" />
      <path
         id="path3123"
         d="m -481.6025,1010.0802 -51.148,0 0,0"
         inkscape:connector-curvature="0"
         style="fill:none;stroke:#000000;stroke-width:12" />
      <path
         id="path3125"
         d="m -885.2875,1010.0802 -25.837,0 90.769,0 29.53,0 94.462,0 94.462,0 69.151,0"
         inkscape:connector-curvature="0"
         style="fill:none;stroke:#000000;stroke-width:12" />
      <path
         id="path3127"
         d="m -601.9015,1010.0802 69.151,0"
         inkscape:connector-curvature="0"
         style="fill:none;stroke:#000000;stroke-width:12" />
      <path
         id="path3129"
         d="m -507.4395,1010.0802 -25.311,0"
         inkscape:connector-curvature="0"
         style="fill:none;stroke:#000000;stroke-width:12" />
      <path
         id="path3131"
         d="m -503.2285,201.67018 0,-142.042997 -9.738,-9.407 -24.571,0 -67.128,0 -91.698,0"
         inkscape:connector-curvature="0"
         style="fill:none;stroke:#000000;stroke-width:12" />
      <path
         id="path3133"
         d="m -532.7505,1010.0802 51.148,0"
         inkscape:connector-curvature="0"
         style="fill:none;stroke:#000000;stroke-width:12" />
      <path
         id="path3135"
         d="m -601.9015,1010.0802 29.53,0 90.769,0"
         inkscape:connector-curvature="0"
         style="fill:none;stroke:#000000;stroke-width:12" />
      <path
         id="path3137"
         d="m -820.3555,1010.0802 29.53,0 94.462,0 123.992,0"
         inkscape:connector-curvature="0"
         style="fill:none;stroke:#000000;stroke-width:12" />
      <path
         id="path3139"
         d="m -696.3635,201.67018 -126.709,0 -3.626,0 -62.801,0 -32.61,0 -34.923,0 -74.551,19.976 -54.576,54.575 -19.975,74.551 0,424.112 19.975,74.551 54.576,54.575 74.551,19.976 -10e-4,73.841 12.685,12.25302 33.224,0 25.837,0 25.311,0"
         inkscape:connector-curvature="0"
         style="fill:none;stroke:#000000;stroke-width:12" />
      <path
         id="path3141"
         d="m -859.9765,1010.0802 69.151,0"
         inkscape:connector-curvature="0"
         style="fill:none;stroke:#000000;stroke-width:12" />
      <path
         id="path3143"
         d="m -859.9765,1010.0802 -25.311,0"
         inkscape:connector-curvature="0"
         style="fill:none;stroke:#000000;stroke-width:12" />
      <path
         id="path3145"
         d="m -696.3635,50.220183 -91.698,0 -67.128,0 -24.571,0 -9.739,9.407 0,142.042997"
         inkscape:connector-curvature="0"
         style="fill:none;stroke:#000000;stroke-width:12" />
      <path
         style="fill:none;stroke:#000000;stroke-width:12"
         d="m -569.7045,479.47418 c -5.605,-0.5567 -11.2869,-0.28173 -16.7434,1.17276 -8.7213,2.36028 -16.7005,7.46122 -22.3846,14.50294 -4.9599,5.97494 -8.1921,13.34216 -9.3518,21.01843 -1.1,7.52113 -0.2812,15.34713 2.5514,22.41869 3.0042,7.7498 8.3705,14.55247 15.1151,19.39429 6.3649,4.56041 13.9813,7.41724 21.7991,7.96319 7.4583,0.66711 15.0765,-0.72241 21.8589,-3.87041 7.8707,-3.64163 14.5455,-9.71226 19.0139,-17.13591 3.8664,-6.49326 6.0092,-13.99188 6.117,-21.55457 0.1293,-7.56974 -1.7272,-15.18603 -5.4409,-21.79763 -4.0819,-7.40615 -10.4085,-13.58741 -17.9273,-17.46291 -4.5301,-2.4728 -9.5338,-3.84061 -14.6074,-4.64887 z"
         id="path4017"
         inkscape:connector-curvature="0" />
      <path
         style="fill:none;stroke:#000000;stroke-width:12"
         d="m -796.9165,670.62918 c -7.2223,-0.56136 -14.0142,6.47615 -12.0403,13.73684 1.8085,7.90751 10.089,11.45893 16.3977,15.27233 24.156,12.50538 51.3514,18.25244 78.4281,18.9561 29.1378,0.98116 58.7148,-1.00913 86.8128,-9.18188 13.6247,-4.32243 26.9147,-10.44139 38.2342,-19.25074 4.8114,-3.5899 7.9436,-10.22902 4.8738,-15.93248 -2.4073,-6.38856 -10.4092,-6.13906 -15.8231,-4.32574 -11.9571,3.58363 -22.7493,10.21229 -34.7439,13.74963 -31.3751,10.25131 -65.0927,10.21578 -97.5691,6.41534 -19.7514,-2.3714 -39.0941,-8.05148 -56.7912,-17.1774 -2.4865,-1.06056 -5.0561,-2.06836 -7.779,-2.262 z"
         id="path4019"
         inkscape:connector-curvature="0" />
      <path
         style="fill:none;stroke:#000000;stroke-width:12"
         d="m -818.2785,482.25418 c -5.605,-0.55864 -11.2868,-0.28133 -16.7434,1.17294 -8.7213,2.35952 -16.7012,7.46065 -22.3842,14.50311 -4.961,5.97444 -8.1912,13.34189 -9.352,21.01792 -1.0986,7.521 -0.281,15.34725 2.5512,22.41885 3.0054,7.74908 8.3711,14.55192 15.1151,19.3942 6.3655,4.56023 13.9817,7.41783 21.8001,7.96328 7.4577,0.66599 15.076,-0.72257 21.8578,-3.87056 7.8705,-3.64236 14.547,-9.71134 19.0144,-17.13615 3.8676,-6.49295 6.008,-13.99259 6.1166,-21.55518 0.129,-7.56964 -1.7268,-15.18621 -5.4412,-21.79748 -4.0827,-7.40522 -10.4068,-13.5888 -17.927,-17.46206 -4.5301,-2.4728 -9.5338,-3.84061 -14.6074,-4.64887 z"
         id="path4021"
         inkscape:connector-curvature="0" />
      <path
         id="path4059"
         d="m -859.9765,1010.0802 69.151,0"
         inkscape:connector-curvature="0"
         style="fill:none;stroke:#000000;stroke-width:12" />
    </g>
    <g
       id="layer1-0"
       inkscape:label="Layer 1"
       transform="matrix(1.0000641,0,0,1.0000641,-0.00125225,-0.04318336)">
      <g
         style="fill:#b3b3b3"
         transform="matrix(0.04891366,0,0,0.04891366,-262.39946,1002.4376)"
         id="g8470">
        <path
           id="path2987"
           transform="matrix(20.444187,0,0,20.444187,5364.5436,39.346882)"
           d="m 23.75,0.3125 c -3.197988,0.0239137 -6.385249,0.67133132 -9.3125,2 C 6.5589377,5.6912849 0.92974449,13.664164 0.375,22.21875 -0.35939947,30.759837 3.9984609,39.477962 11.28125,44 c 7.186473,4.673681 16.953878,4.916338 24.375,0.625 C 41.96687,41.118633 46.406244,34.610269 47.4375,27.46875 48.729412,19.208345 45.263195,10.433894 38.625,5.34375 34.441464,1.9964445 29.079979,0.27264388 23.75,0.3125 z M 23.375,4.5 c 4.823967,-0.1365159 9.698069,1.516714 13.34375,4.71875 4.532046,3.844892 7.095501,9.818126 6.78125,15.75 -0.283616,6.878001 -4.509167,13.393734 -10.6875,16.4375 -6.2654,3.249176 -14.29741,2.677688 -20.03125,-1.4375 C 6.9623587,35.974693 3.6985019,28.652958 4.625,21.65625 5.4042924,14.641615 10.330316,8.2937726 16.9375,5.8125 18.985542,4.9939939 21.182288,4.5620527 23.375,4.5 z"
           style="fill:#b3b3b3;stroke:#000000;stroke-width:0.58696389"
           inkscape:connector-curvature="0" />
      </g>
    </g>
    <g
       id="g11041">
      <path
         transform="translate(0,1004.3622)"
         inkscape:connector-curvature="0"
         id="path11028"
         d="m 19.660802,22.365908 c -1.081392,0.04662 -1.724567,1.553746 -0.855692,2.288888 0.740753,0.844943 2.24619,0.24714 2.299452,-0.848649 0.0969,-0.779469 -0.675855,-1.514244 -1.44376,-1.440239 z"
         style="fill:#000000;fill-opacity:1;stroke:#000000;stroke-width:0.11268371;stroke-opacity:1" />
      <path
         transform="translate(0,1004.3622)"
         inkscape:connector-curvature="0"
         id="path11030"
         d="m 28.006439,22.281396 c -1.12379,0.0014 -1.786358,1.527533 -0.940205,2.302973 0.766184,0.838058 2.340524,0.218579 2.327623,-0.922598 0.02563,-0.731631 -0.624207,-1.450331 -1.387418,-1.380375 z"
         style="fill:#000000;fill-opacity:1;stroke:#000000;stroke-width:0.11268371;stroke-opacity:1" />
      <path
         transform="translate(0,1004.3622)"
         inkscape:connector-curvature="0"
         id="path11034"
         d="m 27.364313,28.524956 c -0.631722,0.153817 -1.212957,0.500441 -1.848811,0.617516 -0.982526,0.205025 -2.003945,0.14448 -2.994204,0.02614 -0.64447,-0.08034 -1.231436,-0.378671 -1.836361,-0.587635 -0.294573,-0.0602 -0.613909,0.358866 -0.327433,0.57643 0.489406,0.438266 1.145019,0.656761 1.771791,0.802258 0.953987,0.222212 1.94852,0.163829 2.916845,0.09787 0.866874,-0.123335 1.781918,-0.312632 2.481267,-0.871494 0.194131,-0.13547 0.330954,-0.48619 0.06474,-0.62374 -0.0697,-0.0359 -0.150617,-0.04472 -0.227833,-0.03735 z"
         style="fill:#000000;fill-opacity:1;stroke:#000000;stroke-width:0.03983971;stroke-opacity:1" />
    </g>
  </g>
</svg>
