<?xml version="1.0" encoding="UTF-8" standalone="no"?>
<!-- Created with Inkscape (http://www.inkscape.org/) -->

<svg
   xmlns:dc="http://purl.org/dc/elements/1.1/"
   xmlns:cc="http://creativecommons.org/ns#"
   xmlns:rdf="http://www.w3.org/1999/02/22-rdf-syntax-ns#"
   xmlns:svg="http://www.w3.org/2000/svg"
   xmlns="http://www.w3.org/2000/svg"
   xmlns:sodipodi="http://sodipodi.sourceforge.net/DTD/sodipodi-0.dtd"
   xmlns:inkscape="http://www.inkscape.org/namespaces/inkscape"
   width="48"
   height="48"
   id="svg2"
   version="1.1"
   inkscape:version="0.48.4 r9939"
   sodipodi:docname="Legs.svg">
  <defs
     id="defs4" />
  <sodipodi:namedview
     id="base"
     pagecolor="#ffffff"
     bordercolor="#666666"
     borderopacity="1.0"
     inkscape:pageopacity="0.0"
     inkscape:pageshadow="2"
     inkscape:zoom="3.1375731"
     inkscape:cx="-8.5452073"
     inkscape:cy="35.9984"
     inkscape:document-units="px"
     inkscape:current-layer="layer1"
     showgrid="false"
     inkscape:window-width="1366"
     inkscape:window-height="705"
     inkscape:window-x="-8"
     inkscape:window-y="-8"
     inkscape:window-maximized="1" />
  <metadata
     id="metadata7">
    <rdf:RDF>
      <cc:Work
         rdf:about="">
        <dc:format>image/svg+xml</dc:format>
        <dc:type
           rdf:resource="http://purl.org/dc/dcmitype/StillImage" />
        <dc:title></dc:title>
      </cc:Work>
    </rdf:RDF>
  </metadata>
  <g
     inkscape:label="Layer 1"
     inkscape:groupmode="layer"
     id="layer1"
     transform="translate(0,-1004.3622)">
    <g
       id="g12341">
      <path
         transform="translate(0,1004.3622)"
         inkscape:connector-curvature="0"
         id="path12325"
         d="m 12.061514,22.90575 c -0.144102,1.311434 -0.100146,2.666322 -0.177178,3.993841 -0.02787,1.578332 -0.161587,3.173255 -0.08306,4.742171 0.335669,0.280264 0.929778,0.05149 1.363303,0.125834 3.213736,0 6.427473,0 9.641209,0 0.418242,-0.232299 0.09933,-0.906114 0.199199,-1.314711 -0.02087,-2.492384 0.04158,-5.00169 -0.03109,-7.483551 -0.335669,-0.280264 -0.929778,-0.05149 -1.363303,-0.125833 -3.134057,0 -6.268114,0 -9.402171,0 -0.04897,0.02075 -0.09794,0.0415 -0.146909,0.06225 z"
         style="fill:#0057a6;fill-opacity:1;stroke:#0057a6;stroke-width:0.07967942;stroke-opacity:1" />
      <path
         transform="translate(0,1004.3622)"
         inkscape:connector-curvature="0"
         id="path12327"
         d="m 11.762716,31.909524 c -0.150693,1.368181 -0.07901,2.779058 -0.170583,4.163162 0.0551,0.373892 -0.21818,0.87689 0.04611,1.159187 1.991975,0.0787 4.016353,0.01102 6.02075,0.0336 1.737917,-0.02088 3.492775,0.04165 5.220157,-0.03109 0.280265,-0.33567 0.05149,-0.929779 0.125834,-1.363303 -0.02094,-1.297177 0.04183,-2.611358 -0.03109,-3.897977 -0.335669,-0.280265 -0.929778,-0.05149 -1.363303,-0.125834 -3.233656,0 -6.467313,0 -9.700969,0 -0.04897,0.02075 -0.09794,0.0415 -0.146909,0.06225 z"
         style="fill:#0057a6;fill-opacity:1;stroke:#0057a6;stroke-width:0.07967942;stroke-opacity:1" />
      <path
         transform="translate(0,1004.3622)"
         inkscape:connector-curvature="0"
         id="path12329"
         d="m 25.049259,31.909524 c -0.121234,1.234978 -0.01819,2.511316 -0.05229,3.762363 0.03921,0.510016 -0.08009,1.05223 0.06225,1.541299 1.24823,0.121381 2.53793,0.0179 3.802202,0.05229 2.49823,-0.02069 5.013291,0.04149 7.500981,-0.03109 0.279405,-0.250411 -0.01418,-0.740002 0.05095,-1.086732 -0.08341,-1.389668 -0.04444,-2.800333 -0.155454,-4.178399 -0.372546,-0.269034 -0.976725,-0.05195 -1.440442,-0.121983 -3.207097,0 -6.414193,0 -9.62129,0 -0.04897,0.02075 -0.09794,0.0415 -0.146909,0.06225 z"
         style="fill:#0057a6;fill-opacity:1;stroke:#0057a6;stroke-width:0.07967942;stroke-opacity:1" />
      <path
         transform="translate(0,1004.3622)"
         inkscape:connector-curvature="0"
         id="path12331"
         d="m 25.049259,22.90575 c -0.121381,1.248231 -0.0179,2.53793 -0.05229,3.802202 0.02071,1.642502 -0.04158,3.301861 0.03109,4.93381 0.33567,0.280264 0.929779,0.05149 1.363303,0.125834 3.213737,0 6.427473,0 9.64121,0 0.396008,-0.188348 0.12098,-0.786253 0.194219,-1.152862 -0.07485,-2.547338 -0.135849,-5.111834 -0.266652,-7.647233 -0.37103,-0.27243 -0.977495,-0.05353 -1.441476,-0.124 -3.107497,0 -6.214995,0 -9.322492,0 -0.04897,0.02075 -0.09794,0.0415 -0.146909,0.06225 z"
         style="fill:#0057a6;fill-opacity:1;stroke:#0057a6;stroke-width:0.07967942;stroke-opacity:1" />
      <path
         transform="translate(0,1004.3622)"
         inkscape:connector-curvature="0"
         id="path12333"
         d="m 25.527336,14.061335 c -0.121382,1.24823 -0.0179,2.537929 -0.05229,3.802202 0.02068,1.615947 -0.04139,3.248704 0.03109,4.85413 0.335669,0.280264 0.929778,0.05149 1.363303,0.125834 2.980508,0 5.961016,0 8.941525,0 0.411679,-0.200344 0.06694,-0.817505 0.136202,-1.192636 -0.126478,-2.490146 -0.0935,-4.989271 -0.285601,-7.474991 -0.30542,-0.374808 -0.94985,-0.086 -1.39439,-0.176789 -2.864309,0 -5.728618,0 -8.592928,0 -0.04897,0.02075 -0.09794,0.0415 -0.146908,0.06225 z"
         style="fill:#0057a6;fill-opacity:1;stroke:#0057a6;stroke-width:0.07967942;stroke-opacity:1" />
      <path
         transform="translate(0,1004.3622)"
         inkscape:connector-curvature="0"
         id="path12335"
         d="m 22.579197,14.061335 c -0.121381,1.24823 -0.0179,2.537929 -0.05229,3.802202 0.02071,1.61013 -0.04146,3.237098 0.03109,4.8367 0.09646,0.241167 0.616129,0.07586 0.521689,0.454511 -0.07632,0.438411 0.05383,0.897714 0.602576,0.724585 0.376533,-0.104533 1.158885,0.253698 1.235031,-0.278878 0.04145,-0.251644 -0.139175,-0.75648 0.274009,-0.7464 0.529698,-0.109974 0.186701,-0.807472 0.283747,-1.183336 -0.02074,-2.513158 0.04146,-5.043164 -0.03109,-7.5458 -0.335669,-0.280265 -0.929778,-0.05149 -1.363303,-0.125834 -0.49329,0.03634 -1.030751,-0.07589 -1.501459,0.06225 z"
         style="fill:#0057a6;fill-opacity:1;stroke:#0057a6;stroke-width:0.07967942;stroke-opacity:1" />
      <path
         transform="translate(0,1004.3622)"
         inkscape:connector-curvature="0"
         id="path12337"
         d="m 12.392681,14.061335 c -0.228538,1.178774 -0.134138,2.415684 -0.210923,3.617848 -0.03073,1.674713 -0.122406,3.363263 -0.162534,5.027479 0.357805,0.295454 0.982133,0.06266 1.446639,0.136839 2.953949,0 5.907897,0 8.861846,0 0.418242,-0.232299 0.09933,-0.906114 0.199198,-1.314711 -0.02071,-2.465856 0.04143,-4.948538 -0.03109,-7.403871 -0.33567,-0.280265 -0.929779,-0.05149 -1.363303,-0.125834 -2.86431,0 -5.728619,0 -8.592928,0 -0.04897,0.02075 -0.09794,0.0415 -0.146909,0.06225 z"
         style="fill:#0057a6;fill-opacity:1;stroke:#0057a6;stroke-width:0.07967942;stroke-opacity:1" />
      <path
         transform="translate(0,1004.3622)"
         inkscape:connector-curvature="0"
         id="path12339"
         d="m 12.53959,9.9976843 c -0.121381,1.2482307 -0.0179,2.5379297 -0.05229,3.8022027 0.232299,0.418242 0.906113,0.09933 1.31471,0.199198 7.171148,0 14.342295,0 21.513443,0 0.418242,-0.232299 0.09933,-0.906113 0.199199,-1.31471 -0.03977,-0.895021 0.08065,-1.822579 -0.06225,-2.6966507 -1.24823,-0.1213813 -2.53793,-0.017897 -3.802202,-0.05229 -6.321234,0 -12.642468,0 -18.963702,0 -0.04897,0.02075 -0.09794,0.0415 -0.146909,0.06225 z"
         style="fill:#0057a6;fill-opacity:1;stroke:#0057a6;stroke-width:0.07967942;stroke-opacity:1" />
    </g>
    <g
       id="g8380"
       transform="matrix(0.03014285,0,0,0.03014285,-86.58164,1011.8263)">
      <path
         id="path2991"
         d="m 3717.8315,402.37718 0,44.48 0,3.003 0,59.922"
         inkscape:connector-curvature="0"
         style="fill:none;stroke:#000000;stroke-width:12" />
      <path
         id="path2993"
         d="m 3752.9905,509.78518 -10e-4,0 133.352,0.011 -133.351,-0.01 -10e-4,0"
         inkscape:connector-curvature="0"
         style="fill:none;stroke:#000000;stroke-width:12" />
      <path
         id="path2995"
         d="m 3703.2845,509.78218 -3.359,5.091 0,29.111 0,61.939 0,1.745 0,1.17 0,52.963 0,62.597 0,83.213 0,3.359"
         inkscape:connector-curvature="0"
         style="fill:none;stroke:#000000;stroke-width:12" />
      <path
         id="path2997"
         d="m 4069.3395,588.26818 -0.073,-2.26 0,-0.069 -0.01,-0.279 -0.117,-3.61 -1.892,-58.009"
         inkscape:connector-curvature="0"
         style="fill:none;stroke:#000000;stroke-width:12" />
      <path
         id="path2999"
         d="m 4076.4875,807.48118 0.109,3.357"
         inkscape:connector-curvature="0"
         style="fill:none;stroke:#000000;stroke-width:12" />
      <path
         id="path3001"
         d="m 3703.2715,989.85118 0.013,0.013 183.059,-0.109 192.723,-0.115 0,-10e-4"
         inkscape:connector-curvature="0"
         style="fill:none;stroke:#000000;stroke-width:12" />
      <path
         id="path3003"
         d="m 3717.8315,216.96718 0,13.631 0,62.859 0,5.137 0,4.646"
         inkscape:connector-curvature="0"
         style="fill:none;stroke:#000000;stroke-width:12" />
      <path
         id="path3005"
         d="m 4069.9145,605.89918 -0.648,-19.891 -0.019,-0.566 -0.11,-3.392 -1.339,-41.05 -3.589,-110.071 -0.072,-2.205 -1.433,-43.951 -0.171,-5.245"
         inkscape:connector-curvature="0"
         style="fill:none;stroke:#000000;stroke-width:12" />
      <path
         id="path3007"
         d="m 3703.2845,989.85118 183.057,-0.101 192.726,-0.111 0,0 10e-4,-10e-4"
         inkscape:connector-curvature="0"
         style="fill:none;stroke:#000000;stroke-width:12" />
      <path
         id="path3009"
         d="m 3886.3415,509.79618 133.353,0.01 43.727,0.003"
         inkscape:connector-curvature="0"
         style="fill:none;stroke:#000000;stroke-width:12" />
      <path
         id="path3011"
         d="m 3717.8315,509.78218 3.359,0 31.799,0.003"
         inkscape:connector-curvature="0"
         style="fill:none;stroke:#000000;stroke-width:12" />
      <path
         id="path3013"
         d="m 4064.7305,446.91818 -0.521,-15.989 -1.941,-59.538 -2.537,-77.792 -2.179,-66.837"
         inkscape:connector-curvature="0"
         style="fill:none;stroke:#000000;stroke-width:12" />
      <path
         id="path3015"
         d="m 4079.4565,898.55918 -2.969,-91.078 -2.712,-83.17 -2.04,-62.563 -1.726,-52.936 -0.038,-1.169 -0.708,-21.704 -0.016,-0.497 -1.486,-45.585"
         inkscape:connector-curvature="0"
         style="fill:none;stroke:#000000;stroke-width:12" />
      <path
         id="path3017"
         d="m 4057.6835,230.77318 -1.521,-46.653 -0.564,-17.278 -3.121,-3.088"
         inkscape:connector-curvature="0"
         style="fill:none;stroke:#000000;stroke-width:12" />
      <path
         id="path3019"
         d="m 3699.9255,810.97018 0,87.769 0,87.768"
         inkscape:connector-curvature="0"
         style="fill:none;stroke:#000000;stroke-width:12" />
      <path
         id="path3021"
         d="m 4064.8285,449.91918 -2.077,-63.723 -0.218,-6.668 -0.107,-3.278 -2.527,-77.517"
         inkscape:connector-curvature="0"
         style="fill:none;stroke:#000000;stroke-width:12" />
      <path
         id="path3023"
         d="m 3717.8315,303.24018 0,72.911 0,7.952 0,18.274"
         inkscape:connector-curvature="0"
         style="fill:none;stroke:#000000;stroke-width:12" />
      <path
         id="path3025"
         d="m 4019.6945,807.50018 -13.769,0.005 0,0 -119.585,0.042 -119.558,0.041 0,0 -13.795,0.005 0,0"
         inkscape:connector-curvature="0"
         style="fill:none;stroke:#000000;stroke-width:12" />
      <path
         id="path3027"
         d="m 4069.9145,605.89918 0.057,1.744"
         inkscape:connector-curvature="0"
         style="fill:none;stroke:#000000;stroke-width:12" />
      <path
         id="path3029"
         d="m 4079.4565,898.55918 -2.861,-87.722 0,10e-4 -3.468,-3.356 -53.434,0.018"
         inkscape:connector-curvature="0"
         style="fill:none;stroke:#000000;stroke-width:12" />
      <path
         id="path3031"
         d="m 3703.2845,989.85118 -0.013,0 -0.872,0.004 0.872,-0.004 0.013,0"
         inkscape:connector-curvature="0"
         style="fill:none;stroke:#000000;stroke-width:12" />
      <path
         id="path3033"
         d="m 4082.3175,986.28118 0,0 0,0"
         inkscape:connector-curvature="0"
         style="fill:none;stroke:#000000;stroke-width:12" />
      <path
         id="path3035"
         d="m 3716.8965,509.78318 -13.612,-0.001 11.189,0 2.423,0"
         inkscape:connector-curvature="0"
         style="fill:none;stroke:#000000;stroke-width:12" />
      <path
         id="path3037"
         d="m 3752.9895,807.59318 -49.705,0.017 -3.359,3.36"
         inkscape:connector-curvature="0"
         style="fill:none;stroke:#000000;stroke-width:12" />
      <path
         id="path3039"
         d="m 3699.9255,986.50718 0,0 3.346,3.344"
         inkscape:connector-curvature="0"
         style="fill:none;stroke:#000000;stroke-width:12" />
      <path
         id="path3041"
         d="m 4079.0685,989.63818 0.705,0 2.544,-3.357 0,0"
         inkscape:connector-curvature="0"
         style="fill:none;stroke:#000000;stroke-width:12" />
      <path
         id="path3043"
         d="m 3717.8315,446.85718 0,-44.48"
         inkscape:connector-curvature="0"
         style="fill:none;stroke:#000000;stroke-width:12" />
      <path
         id="path3045"
         d="m 4065.8185,480.26318 -1.681,-51.539 -1.869,-57.333 0.436,13.382 0.047,1.423"
         inkscape:connector-curvature="0"
         style="fill:none;stroke:#000000;stroke-width:12" />
      <path
         id="path3047"
         d="m 3716.8965,216.96718 0.935,0 329.614,0 5.032,-5.031 0,-48.182 0,-7.884 0,-70.232997 -5.032,-3.263 -378.859,0 -378.859,0 -5.031,3.263 0,78.116997 0,48.182 5.031,5.031 329.614,0 0.935,0"
         inkscape:connector-curvature="0"
         style="fill:none;stroke:#000000;stroke-width:12" />
      <path
         id="path3049"
         d="m 3620.2765,216.96718 48.31,0 48.31,0"
         inkscape:connector-curvature="0"
         style="fill:none;stroke:#000000;stroke-width:12" />
      <path
         id="path3051"
         d="m 3619.3415,506.54918 0,3.233"
         inkscape:connector-curvature="0"
         style="fill:none;stroke:#000000;stroke-width:12" />
      <path
         id="path3053"
         d="m 3620.2765,509.78218 2.424,0 11.189,0 -13.613,0.001"
         inkscape:connector-curvature="0"
         style="fill:none;stroke:#000000;stroke-width:12" />
      <path
         id="path3055"
         d="m 3637.2485,810.97018 0,-3.359 0,-83.213 0,-62.597 0,-52.963 0,-1.17 0,-1.745 0,-61.939 0,-29.111 -3.359,-5.091"
         inkscape:connector-curvature="0"
         style="fill:none;stroke:#000000;stroke-width:12" />
      <path
         id="path3057"
         d="m 3634.7745,989.85518 -0.873,-0.004 -0.012,0"
         inkscape:connector-curvature="0"
         style="fill:none;stroke:#000000;stroke-width:12" />
      <path
         id="path3059"
         d="m 3269.9275,524.04118 -1.891,58.009 -0.118,3.61 -0.01,0.279 0,0.069 -0.074,2.26"
         inkscape:connector-curvature="0"
         style="fill:none;stroke:#000000;stroke-width:12" />
      <path
         id="path3061"
         d="m 3269.4125,539.85718 -1.487,45.585 -0.016,0.497 -0.707,21.704 -0.039,1.169 -1.726,52.936 -2.04,62.563 -2.711,83.17 -2.97,91.078"
         inkscape:connector-curvature="0"
         style="fill:none;stroke:#000000;stroke-width:12" />
      <path
         id="path3063"
         d="m 3254.8565,986.28118 0,0 2.543,3.357 0.706,0"
         inkscape:connector-curvature="0"
         style="fill:none;stroke:#000000;stroke-width:12" />
      <path
         id="path3065"
         d="m 3258.1055,989.63918 0,10e-4 192.722,0.115 183.06,0.109 0.012,-0.013"
         inkscape:connector-curvature="0"
         style="fill:none;stroke:#000000;stroke-width:12" />
      <path
         id="path3067"
         d="m 3619.3415,303.24018 0,-4.646 0,-5.137 0,-62.859 0,-13.631"
         inkscape:connector-curvature="0"
         style="fill:none;stroke:#000000;stroke-width:12" />
      <path
         id="path3069"
         d="m 3257.7165,898.55918 -2.86,87.722"
         inkscape:connector-curvature="0"
         style="fill:none;stroke:#000000;stroke-width:12" />
      <path
         id="path3071"
         d="m 3258.1055,989.63818 0,10e-4 0,0 192.726,0.111 183.058,0.101"
         inkscape:connector-curvature="0"
         style="fill:none;stroke:#000000;stroke-width:12" />
      <path
         id="path3073"
         d="m 3273.7515,509.80918 43.728,-0.003 133.352,-0.01"
         inkscape:connector-curvature="0"
         style="fill:none;stroke:#000000;stroke-width:12" />
      <path
         id="path3075"
         d="m 3584.1825,509.78618 0,0 -133.352,0.01 133.351,-0.011 0,0"
         inkscape:connector-curvature="0"
         style="fill:none;stroke:#000000;stroke-width:12" />
      <path
         id="path3077"
         d="m 3279.6205,226.76218 -2.179,66.837 -2.536,77.792 -1.772,54.336 -0.268,8.218 -1.51,46.318 1.087,-33.345"
         inkscape:connector-curvature="0"
         style="fill:none;stroke:#000000;stroke-width:12" />
      <path
         id="path3079"
         d="m 3274.6395,379.52818 -1.774,54.417 -3.491,107.055 -1.338,41.05 -0.111,3.392 -0.018,0.566 -0.649,19.891"
         inkscape:connector-curvature="0"
         style="fill:none;stroke:#000000;stroke-width:12" />
      <path
         id="path3081"
         d="m 3284.6965,163.75418 -3.122,3.088 -0.563,17.278 -1.521,46.653"
         inkscape:connector-curvature="0"
         style="fill:none;stroke:#000000;stroke-width:12" />
      <path
         id="path3083"
         d="m 3637.2485,986.50718 0,-87.768 0,-87.769 0,0 -3.359,-3.36 -49.706,-0.017"
         inkscape:connector-curvature="0"
         style="fill:none;stroke:#000000;stroke-width:12" />
      <path
         id="path3085"
         d="m 3277.2745,298.73318 -2.528,77.517 -0.107,3.278 -2.295,70.391"
         inkscape:connector-curvature="0"
         style="fill:none;stroke:#000000;stroke-width:12" />
      <path
         id="path3087"
         d="m 3317.4795,807.50018 -53.434,-0.018 -3.469,3.357 0,-0.001 -2.86,87.721"
         inkscape:connector-curvature="0"
         style="fill:none;stroke:#000000;stroke-width:12" />
      <path
         id="path3089"
         d="m 3619.3415,402.37718 0,-26.226 0,-72.911"
         inkscape:connector-curvature="0"
         style="fill:none;stroke:#000000;stroke-width:12" />
      <path
         id="path3091"
         d="m 3619.3415,509.78218 0,-59.922 0,-3.003 0,-44.48"
         inkscape:connector-curvature="0"
         style="fill:none;stroke:#000000;stroke-width:12" />
      <path
         id="path3093"
         d="m 3637.2485,986.50718 0,0 0,0 0,0 -2.474,3.348"
         inkscape:connector-curvature="0"
         style="fill:none;stroke:#000000;stroke-width:12" />
      <path
         id="path3095"
         d="m 3267.2025,607.64318 0.056,-1.744"
         inkscape:connector-curvature="0"
         style="fill:none;stroke:#000000;stroke-width:12" />
      <path
         id="path3097"
         d="m 3584.1825,807.59318 0,0 -13.795,-0.005 0,0 -119.558,-0.041 -119.586,-0.042 0,0 -13.767,-0.005"
         inkscape:connector-curvature="0"
         style="fill:none;stroke:#000000;stroke-width:12" />
      <path
         id="path3099"
         d="m 3584.1835,509.78518 31.799,-0.003 3.359,0"
         inkscape:connector-curvature="0"
         style="fill:none;stroke:#000000;stroke-width:12" />
      <path
         id="path3101"
         d="m 3615.9825,509.78218 0,0.002"
         inkscape:connector-curvature="0"
         style="fill:none;stroke:#000000;stroke-width:12" />
      <path
         id="path3103"
         d="m 3633.8895,989.85118 3.359,-3.344"
         inkscape:connector-curvature="0"
         style="fill:none;stroke:#000000;stroke-width:12" />
      <path
         id="path3105"
         d="m 3254.8565,986.28118 0,0 0,0"
         inkscape:connector-curvature="0"
         style="fill:none;stroke:#000000;stroke-width:12" />
      <path
         id="path3107"
         d="m 3620.2765,216.96718 0,27.476 0,58.797"
         inkscape:connector-curvature="0"
         style="fill:none;stroke:#000000;stroke-width:12" />
      <path
         id="path3109"
         d="m 3716.8965,402.37718 0,-7.303 0,-6.461 0,-72.257 0,-4.51 0,-67.403 0,-27.476"
         inkscape:connector-curvature="0"
         style="fill:none;stroke:#000000;stroke-width:12" />
      <path
         id="path3111"
         d="m 3620.2765,303.24018 0,8.606 0,4.51 0,78.718 0,7.303"
         inkscape:connector-curvature="0"
         style="fill:none;stroke:#000000;stroke-width:12" />
      <path
         id="path3113"
         d="m 3620.2765,402.37718 0,34.621 0,29.988 0,42.796"
         inkscape:connector-curvature="0"
         style="fill:none;stroke:#000000;stroke-width:12" />
      <path
         id="path3115"
         d="m 3716.8965,509.78218 0,-42.796 0,-29.988 0,-34.621"
         inkscape:connector-curvature="0"
         style="fill:none;stroke:#000000;stroke-width:12" />
      <path
         id="path3117"
         d="m 3637.2485,543.98418 31.338,0 31.339,0"
         inkscape:connector-curvature="0"
         style="fill:none;stroke:#000000;stroke-width:12" />
      <path
         id="path4077"
         d="m 3254.8565,986.28118 0.31,0.321 2.939,3.036"
         inkscape:connector-curvature="0"
         style="fill:none;stroke:#000000;stroke-width:12" />
      <path
         id="path4079"
         d="m 3260.5765,810.83818 0.11,-3.357"
         inkscape:connector-curvature="0"
         style="fill:none;stroke:#000000;stroke-width:12" />
      <path
         id="path4081"
         d="m 3584.1835,509.78618 0,-10e-4"
         inkscape:connector-curvature="0"
         style="fill:none;stroke:#000000;stroke-width:12" />
      <path
         id="path4083"
         d="m 3619.3415,402.37718 0,44.48"
         inkscape:connector-curvature="0"
         style="fill:none;stroke:#000000;stroke-width:12" />
      <path
         id="path4085"
         d="m 3619.3415,402.37718 0.935,0"
         inkscape:connector-curvature="0"
         style="fill:none;stroke:#000000;stroke-width:12" />
      <path
         id="path4087"
         d="m 3620.2765,303.24018 -0.437,0 -0.498,0"
         inkscape:connector-curvature="0"
         style="fill:none;stroke:#000000;stroke-width:12" />
      <path
         id="path4089"
         d="m 3619.3415,509.78218 0.935,0"
         inkscape:connector-curvature="0"
         style="fill:none;stroke:#000000;stroke-width:12" />
      <path
         id="path4091"
         d="m 3620.2765,436.99818 -0.935,9.859"
         inkscape:connector-curvature="0"
         style="fill:none;stroke:#000000;stroke-width:12" />
      <path
         id="path4093"
         d="m 3619.8395,303.24018 -0.498,-9.783"
         inkscape:connector-curvature="0"
         style="fill:none;stroke:#000000;stroke-width:12" />
      <path
         id="path4095"
         d="m 3619.3415,509.78418 -3.357,0 -31.801,0.002"
         inkscape:connector-curvature="0"
         style="fill:none;stroke:#000000;stroke-width:12" />
      <path
         id="path4097"
         d="m 3620.2765,509.78318 -0.935,10e-4"
         inkscape:connector-curvature="0"
         style="fill:none;stroke:#000000;stroke-width:12" />
      <path
         id="path4099"
         d="m 3699.9255,986.50718 3.359,3.344"
         inkscape:connector-curvature="0"
         style="fill:none;stroke:#000000;stroke-width:12" />
      <path
         id="path4101"
         d="m 3717.8315,446.85718 -0.935,-9.859"
         inkscape:connector-curvature="0"
         style="fill:none;stroke:#000000;stroke-width:12" />
      <path
         id="path4103"
         d="m 3717.8315,293.45718 -0.497,9.783"
         inkscape:connector-curvature="0"
         style="fill:none;stroke:#000000;stroke-width:12" />
      <path
         id="path4105"
         d="m 3721.1895,509.78418 0,-0.002"
         inkscape:connector-curvature="0"
         style="fill:none;stroke:#000000;stroke-width:12" />
      <path
         id="path4107"
         d="m 3716.8965,509.78218 0.935,0"
         inkscape:connector-curvature="0"
         style="fill:none;stroke:#000000;stroke-width:12" />
      <path
         id="path4109"
         d="m 3752.9895,509.78518 0,10e-4"
         inkscape:connector-curvature="0"
         style="fill:none;stroke:#000000;stroke-width:12" />
      <path
         id="path4111"
         d="m 3716.8965,402.37718 0.935,0"
         inkscape:connector-curvature="0"
         style="fill:none;stroke:#000000;stroke-width:12" />
      <path
         id="path4113"
         d="m 3717.8315,303.24018 -0.497,0 -0.438,0"
         inkscape:connector-curvature="0"
         style="fill:none;stroke:#000000;stroke-width:12" />
      <path
         id="path4115"
         d="m 3717.8315,509.78418 -0.935,-10e-4"
         inkscape:connector-curvature="0"
         style="fill:none;stroke:#000000;stroke-width:12" />
      <path
         id="path4117"
         d="m 3752.9895,509.78618 -31.8,-0.002 -3.358,0"
         inkscape:connector-curvature="0"
         style="fill:none;stroke:#000000;stroke-width:12" />
      <path
         id="path4119"
         d="m 4079.0685,989.63818 0.705,0"
         inkscape:connector-curvature="0"
         style="fill:none;stroke:#000000;stroke-width:12" />
      <path
         id="path4121"
         d="m 4082.3175,986.28118 -2.861,-87.722"
         inkscape:connector-curvature="0"
         style="fill:none;stroke:#000000;stroke-width:12" />
      <path
         id="path4123"
         d="m 4079.0685,989.63818 2.938,-3.036 0.311,-0.321"
         inkscape:connector-curvature="0"
         style="fill:none;stroke:#000000;stroke-width:12" />
    </g>
    <g
       id="layer1-0"
       inkscape:label="Layer 1"
       transform="matrix(1.0000641,0,0,1.0000641,-0.00125225,-0.04318336)">
      <g
         style="fill:#b3b3b3"
         transform="matrix(0.04891366,0,0,0.04891366,-262.39946,1002.4376)"
         id="g8470">
        <path
           id="path2987"
           transform="matrix(20.444187,0,0,20.444187,5364.5436,39.346882)"
           d="m 23.75,0.3125 c -3.197988,0.0239137 -6.385249,0.67133132 -9.3125,2 C 6.5589377,5.6912849 0.92974449,13.664164 0.375,22.21875 -0.35939947,30.759837 3.9984609,39.477962 11.28125,44 c 7.186473,4.673681 16.953878,4.916338 24.375,0.625 C 41.96687,41.118633 46.406244,34.610269 47.4375,27.46875 48.729412,19.208345 45.263195,10.433894 38.625,5.34375 34.441464,1.9964445 29.079979,0.27264388 23.75,0.3125 z M 23.375,4.5 c 4.823967,-0.1365159 9.698069,1.516714 13.34375,4.71875 4.532046,3.844892 7.095501,9.818126 6.78125,15.75 -0.283616,6.878001 -4.509167,13.393734 -10.6875,16.4375 -6.2654,3.249176 -14.29741,2.677688 -20.03125,-1.4375 C 6.9623587,35.974693 3.6985019,28.652958 4.625,21.65625 5.4042924,14.641615 10.330316,8.2937726 16.9375,5.8125 18.985542,4.9939939 21.182288,4.5620527 23.375,4.5 z"
           style="fill:#b3b3b3;stroke:#000000;stroke-width:0.58696389"
           inkscape:connector-curvature="0" />
      </g>
    </g>
  </g>
</svg>
