<?xml version="1.0" encoding="UTF-8" standalone="no"?>
<!-- Created with Inkscape (http://www.inkscape.org/) -->

<svg
   xmlns:dc="http://purl.org/dc/elements/1.1/"
   xmlns:cc="http://creativecommons.org/ns#"
   xmlns:rdf="http://www.w3.org/1999/02/22-rdf-syntax-ns#"
   xmlns:svg="http://www.w3.org/2000/svg"
   xmlns="http://www.w3.org/2000/svg"
   xmlns:sodipodi="http://sodipodi.sourceforge.net/DTD/sodipodi-0.dtd"
   xmlns:inkscape="http://www.inkscape.org/namespaces/inkscape"
   width="48"
   height="48"
   id="svg2"
   version="1.1"
   inkscape:version="0.48.4 r9939"
   sodipodi:docname="Shield.svg">
  <defs
     id="defs4" />
  <sodipodi:namedview
     id="base"
     pagecolor="#ffffff"
     bordercolor="#666666"
     borderopacity="1.0"
     inkscape:pageopacity="0.0"
     inkscape:pageshadow="2"
     inkscape:zoom="4.4371984"
     inkscape:cx="21.216981"
     inkscape:cy="24.637073"
     inkscape:document-units="px"
     inkscape:current-layer="layer1"
     showgrid="false"
     inkscape:window-width="1366"
     inkscape:window-height="705"
     inkscape:window-x="-8"
     inkscape:window-y="-8"
     inkscape:window-maximized="1" />
  <metadata
     id="metadata7">
    <rdf:RDF>
      <cc:Work
         rdf:about="">
        <dc:format>image/svg+xml</dc:format>
        <dc:type
           rdf:resource="http://purl.org/dc/dcmitype/StillImage" />
        <dc:title></dc:title>
      </cc:Work>
    </rdf:RDF>
  </metadata>
  <g
     inkscape:label="Layer 1"
     inkscape:groupmode="layer"
     id="layer1"
     transform="translate(0,-1004.3622)">
    <path
       style="fill:#eed67d;fill-opacity:1;stroke:#eed67d;stroke-width:0.07967942;stroke-opacity:1"
       d="m 10.750532,11.199775 c -0.120686,1.241622 -0.01586,2.524606 -0.0498,3.782283 0.0039,1.515317 -0.07022,3.035693 0.216152,4.532687 0.237428,1.689819 0.407837,3.395906 0.687006,5.0756 0.863475,2.123217 1.630169,4.295552 2.570367,6.379886 1.345446,1.975342 2.693611,3.962256 4.100715,5.892032 1.841125,1.600889 3.604453,3.298407 5.503145,4.82734 0.477584,0.351264 0.8159,-0.365759 1.167019,-0.578441 1.63595,-1.473093 3.318612,-2.903499 4.924121,-4.404708 1.347699,-1.966025 2.748265,-3.902873 4.062468,-5.887492 0.830529,-2.145467 1.730162,-4.271958 2.518237,-6.429086 0.276106,-2.293232 0.641584,-4.580783 0.858902,-6.877996 -0.01886,-2.080674 0.04434,-4.178353 -0.02878,-6.248521 -0.33567,-0.280264 -0.929778,-0.05149 -1.363303,-0.125833 -8.339779,0 -16.679558,0 -25.019338,0 -0.04897,0.02075 -0.09794,0.0415 -0.146908,0.06225 z m 15.863674,2.250944 c 2.823712,0.02322 5.665909,-0.03326 8.478388,0.07719 0.263501,0.242818 0.07329,0.749873 0.142664,1.093099 0.0451,2.060807 -0.0061,4.125713 -0.339761,6.163899 -0.160432,1.254978 -0.255144,2.524176 -0.722588,3.712719 -0.430286,1.271139 -0.720381,2.599903 -1.239221,3.83465 -0.777532,1.428516 -1.450929,2.924695 -2.292851,4.311339 -1.483005,1.831284 -2.858329,3.773441 -4.677855,5.278846 -0.659279,0.532064 -1.243991,1.229006 -1.983177,1.635719 -1.029412,-0.690046 -1.885986,-1.633204 -2.829383,-2.448095 -1.496773,-1.397985 -2.684139,-3.095874 -3.967563,-4.699187 -0.763374,-1.537723 -1.635462,-3.030995 -2.329976,-4.597179 -0.473823,-1.617703 -1.053699,-3.212195 -1.461356,-4.844302 -0.2951,-2.375616 -0.720079,-4.749187 -0.62162,-7.153214 0.01019,-0.742534 -0.02172,-1.488082 0.04233,-2.228534 0.587449,-0.200894 1.280119,-0.05223 1.907298,-0.111244 3.964766,-0.03193 7.929799,-0.02798 11.894671,-0.02571 z"
       id="path10145"
       inkscape:connector-curvature="0"
       transform="translate(0,1004.3622)" />
    <g
       id="g10164">
      <g
         id="g10157">
        <path
           style="fill:#407aa1;fill-opacity:1;stroke:#407aa1;stroke-width:0.07967942;stroke-opacity:1"
           d="m 24.056995,13.590158 c -0.12118,1.088909 -0.01805,2.219185 -0.05229,3.324126 0.193325,0.465467 1.024513,-0.06316 1.230051,0.463136 0.315517,0.479502 -0.477613,0.924088 -0.08466,1.39439 0.344639,0.44017 0.907534,0.154778 1.32467,0.02241 0.380045,-0.03421 0.551848,0.400648 0.478076,0.724585 0.01753,0.303925 -0.150206,1.21148 0.394424,0.861974 0.131274,-0.203861 0.414413,-0.337026 0.569952,-0.07282 0.550566,0.480719 0.500805,-0.536552 0.583904,-0.872689 0.107632,-0.306357 0.0017,-0.955774 0.466116,-0.962258 0.428117,0.06353 0.72369,0.61345 1.205151,0.445707 0.516697,-0.104998 0.496457,-0.702967 0.458157,-1.113022 -0.04258,-0.264214 0.134249,-0.551067 0.428276,-0.440726 0.457872,0.10398 1.006358,0.24204 1.344591,0.527876 -0.528225,1.473703 -1.124775,2.975496 -1.244991,4.556666 -0.267936,0.545267 0.207522,0.769552 0.687235,0.639926 0.842351,-0.05445 1.721009,0.106638 2.544761,-0.08715 0.343721,-0.327427 0.187809,-0.91458 0.323848,-1.339256 0.304164,-2.014724 0.514245,-4.04542 0.445557,-6.085869 -0.04202,-0.661335 0.0839,-1.356782 -0.06225,-1.996966 -1.248231,-0.121381 -2.53793,-0.0179 -3.802202,-0.05229 -2.386187,0.02066 -4.789194,-0.04149 -7.164834,0.03109 l -0.07336,0.03109 -1.79e-4,7.6e-5 z"
           id="path10137"
           inkscape:connector-curvature="0"
           transform="translate(0,1004.3622)" />
        <path
           style="fill:#407aa1;fill-opacity:1;stroke:#407aa1;stroke-width:0.07967942;stroke-opacity:1"
           d="m 15.528807,23.024699 c -0.649393,0.04371 -1.333105,-0.06036 -1.959616,0.08964 -0.09457,0.494619 0.275215,0.992398 0.357572,1.48762 0.438535,1.258588 0.707171,2.58699 1.26075,3.798347 0.768772,1.405645 1.428536,2.88189 2.266093,4.243009 1.477558,1.822509 2.859522,3.749308 4.67818,5.249989 0.540558,0.47471 1.064057,0.970512 1.621431,1.423346 0.506492,0.05918 0.240869,-0.624168 0.313215,-0.923775 0.03038,-4.105078 0.01351,-8.210309 0.01795,-12.315458 -0.232299,-0.418242 -0.906113,-0.09933 -1.31471,-0.199199 -1.880188,-0.03344 -3.770249,0.07134 -5.644789,-0.06972 -0.175826,-0.900775 0.28982,-1.91941 -0.234058,-2.72902 -0.418014,-0.119053 -0.919342,-0.03012 -1.36202,-0.05478 z"
           id="path10139"
           inkscape:connector-curvature="0"
           transform="translate(0,1004.3622)" />
        <path
           style="fill:#a2ceea;fill-opacity:1;stroke:#a2ceea;stroke-width:0.07967942;stroke-opacity:1"
           d="m 12.901876,13.590158 c -0.117526,1.161311 -0.02489,2.363323 -0.0484,3.540742 0.0091,1.91536 0.343696,3.811049 0.601178,5.702071 0.206194,0.381123 0.76952,0.179783 1.120483,0.252668 0.785871,-0.02868 1.603397,0.08159 2.367981,-0.05845 0.05684,-0.521904 -0.118226,-1.074952 -0.161848,-1.613508 -0.202401,-1.23165 -0.70859,-2.379319 -1.100572,-3.550714 0.493089,-0.2395 1.060846,-0.562145 1.630938,-0.483057 0.380725,0.375169 -0.13964,1.215079 0.473096,1.48901 0.461442,0.254929 0.859478,-0.193634 1.242501,-0.383458 0.43102,-0.110852 0.492683,0.431113 0.530366,0.727075 0.152325,0.396749 -0.04233,1.09517 0.410523,1.249909 0.183468,-0.10872 0.432435,-0.489512 0.64772,-0.199137 0.448598,0.575405 0.629404,-0.219129 0.520406,-0.612535 -0.114416,-0.396381 0.11107,-1.003451 0.610045,-0.829164 0.361916,0.195614 0.92507,0.380117 1.187722,-0.06723 0.357763,-0.471771 -0.381692,-0.912912 -0.07719,-1.38443 0.21412,-0.516273 1.034482,0.01281 1.227561,-0.455666 -0.02063,-1.084761 0.04133,-2.186299 -0.03109,-3.260542 -0.335669,-0.280264 -0.929778,-0.05149 -1.363303,-0.125834 -3.213736,0 -6.427473,0 -9.641209,0 -0.04897,0.02075 -0.09794,0.0415 -0.146909,0.06225 z"
           id="path10141"
           inkscape:connector-curvature="0"
           transform="translate(0,1004.3622)" />
        <path
           style="fill:#a2ceea;fill-opacity:1;stroke:#a2ceea;stroke-width:0.07967942;stroke-opacity:1"
           d="m 32.059796,23.012249 c -0.391231,-0.01239 -1.096565,-0.02073 -1.043302,0.550286 -0.0048,0.254354 -0.2404,0.464517 -0.06474,0.729565 0.09904,0.491931 0.08959,1.022294 0.0025,1.518889 -2.24387,0.139986 -4.501445,0.0329 -6.750341,0.06723 -0.418242,0.232299 -0.09933,0.906114 -0.199198,1.314711 0.02527,3.874894 -0.0544,7.752499 0.0498,11.625725 -0.04842,0.330904 0.363818,0.493691 0.545759,0.204284 1.570343,-1.364694 3.138774,-2.738166 4.382584,-4.421675 0.802837,-1.053547 1.776659,-1.996947 2.292203,-3.238065 0.599998,-1.250895 1.361156,-2.435382 1.852328,-3.731306 0.440396,-1.48203 0.969453,-2.955294 1.356466,-4.442382 -0.231163,-0.382149 -0.896319,-0.08664 -1.298577,-0.179751 -0.375152,0.0012 -0.750345,-0.0027 -1.125472,0.0025 z"
           id="path10143"
           inkscape:connector-curvature="0"
           transform="translate(0,1004.3622)" />
        <path
           style="fill:#eed67d;fill-opacity:1;stroke:#eed67d;stroke-width:0.07967942;stroke-opacity:1"
           d="m 23.718357,17.041273 c -0.390079,-0.02175 -1.005464,0.03523 -0.983543,0.562736 -1.62e-4,0.389536 0.408367,0.773738 0.166829,1.157841 -0.309829,0.382226 -0.800238,0.203238 -1.145392,-0.01 -0.503821,-0.185069 -0.760041,0.452287 -0.695912,0.856545 -0.03892,0.291051 0.06321,0.695237 -0.06851,0.933752 -0.247366,-0.231668 -0.562144,-0.71331 -0.86962,-0.268379 -0.184784,0.298273 -0.396431,0.124356 -0.365411,-0.177327 -0.15955,-0.54097 -0.03314,-1.270385 -0.495507,-1.668288 -0.476547,-0.155073 -0.7146,0.603428 -1.222581,0.470606 -0.383626,-0.03573 -0.605509,-0.383121 -0.537836,-0.751974 0.007,-0.32343 0.059,-0.977828 -0.453176,-0.866514 -0.471479,0.143984 -1.019706,0.241623 -1.38941,0.577676 9.84e-4,0.540289 0.413747,1.011154 0.530366,1.538809 0.538009,1.389221 0.590961,2.877297 0.898883,4.317628 0.129733,0.192526 0.164538,0.373868 0.01494,0.567716 -0.130493,0.491938 -0.167602,1.053573 -0.04731,1.543789 1.24823,0.121381 2.537929,0.0179 3.802202,0.05229 3.346535,0 6.693071,0 10.039607,0 0.376934,-0.155315 0.143165,-0.702959 0.189238,-1.035832 0.0416,-0.31419 -0.179029,-0.603677 -0.199198,-0.886434 0.463839,-1.226121 0.326094,-2.601851 0.788479,-3.833344 0.210884,-0.737732 0.538022,-1.444077 0.775229,-2.162532 -0.147604,-0.394578 -0.703797,-0.405039 -1.038322,-0.582656 -0.27651,-0.132489 -0.818183,-0.203223 -0.804264,0.248999 -0.0588,0.406916 0.132774,1.085967 -0.408357,1.227561 -0.563272,0.303899 -0.869425,-0.639137 -1.40933,-0.400887 -0.423451,0.465593 -0.302334,1.19364 -0.478418,1.766408 0.0046,0.191853 -0.06107,0.349098 -0.221267,0.163327 -0.264881,-0.421295 -0.673376,-0.322301 -0.896922,0.0723 -0.208426,0.271708 -0.138521,-0.259826 -0.16132,-0.358644 -0.01948,-0.460175 0.123051,-1.26892 -0.502976,-1.37696 -0.406908,0.107982 -0.988034,0.504799 -1.329651,0.0498 -0.322755,-0.509056 0.440282,-1.020008 0.03486,-1.518889 -0.38178,-0.336443 -1.0507,-0.168151 -1.516399,-0.209158 z m -4.775785,3.852002 c 0.336298,-0.06697 0.69851,0.257946 0.418317,0.562736 -0.133607,0.170817 0.07975,0.46932 -0.05229,0.585145 -0.576995,0.191159 -1.283553,-0.336949 -0.883943,-0.923783 0.122169,-0.156484 0.324439,-0.221356 0.517916,-0.224098 z m 10.181536,0.005 c 0.531875,-0.08144 0.882128,0.611842 0.488036,0.978563 -0.22886,0.196251 -0.62765,0.21527 -0.883944,0.131969 0.09481,-0.281184 -0.0019,-0.544261 -0.0996,-0.801775 -0.0075,-0.240211 0.312636,-0.292815 0.495507,-0.308757 z m -6.85741,0.281368 c 0.438029,-0.06626 0.798741,0.467011 0.547796,0.821694 -0.437811,0.08126 -0.906799,0.06883 -1.344591,0.01992 -0.01254,-0.24523 -0.06202,-0.599674 0.244019,-0.684745 0.165649,-0.09968 0.359788,-0.153032 0.552776,-0.156869 z m 3.563164,0 c 0.265542,0.02184 0.632945,0.09765 0.779364,0.318717 -0.130716,0.182857 0.224851,0.574959 -0.134459,0.540326 -0.404322,-0.01201 -0.873824,0.08848 -1.244991,-0.0747 -0.156687,-0.414688 0.157097,-0.812834 0.600086,-0.784344 z"
           id="path10147"
           inkscape:connector-curvature="0"
           transform="translate(0,1004.3622)" />
      </g>
      <path
         transform="translate(0,1004.3622)"
         inkscape:connector-curvature="0"
         id="path10149"
         d="m 25.781284,21.071553 c -0.411312,0.0014 -0.765505,0.402489 -0.684026,0.812556 0.01028,0.227414 0.269404,0.247494 0.443681,0.234428 0.341629,-0.01156 0.697714,0.04672 1.030011,-0.04516 0.145726,-0.06236 0.18514,-0.255493 0.103,-0.375025 0.04098,-0.158107 0.0143,-0.357269 -0.168145,-0.409359 -0.229606,-0.101239 -0.465211,-0.23334 -0.724521,-0.217445 z"
         style="fill:#407aa1;fill-opacity:1;stroke:#407aa1;stroke-width:0.02817093;stroke-opacity:1" />
      <path
         transform="translate(0,1004.3622)"
         inkscape:connector-curvature="0"
         id="path10151"
         d="m 29.134505,20.803049 c -0.208119,0.02604 -0.507647,0.05722 -0.582776,0.289135 -0.01801,0.15068 0.06538,0.287519 0.09331,0.431865 0.08611,0.06266 0.104936,0.171449 0.05634,0.265863 -0.0938,0.213193 0.136461,0.411634 0.343289,0.356737 0.325126,0.0017 0.698311,-0.138411 0.795872,-0.479985 0.172947,-0.440076 -0.264475,-0.902292 -0.706033,-0.863615 z"
         style="fill:#407aa1;fill-opacity:1;stroke:#407aa1;stroke-width:0.02817093;stroke-opacity:1" />
      <path
         transform="translate(0,1004.3622)"
         inkscape:connector-curvature="0"
         id="path10153"
         d="m 18.900534,20.807451 c -0.382808,-0.0036 -0.749257,0.346648 -0.67082,0.742128 0.04486,0.390781 0.446006,0.622593 0.814316,0.597752 0.202598,0.02913 0.44825,-0.163291 0.353017,-0.370624 -0.101614,-0.10694 0.03289,-0.197611 0.07219,-0.294914 -0.01349,-0.165179 0.178699,-0.332734 0.03143,-0.48321 -0.160545,-0.140651 -0.390066,-0.196481 -0.600136,-0.191132 z"
         style="fill:#a2ceea;fill-opacity:1;stroke:#a2ceea;stroke-width:0.02817093;stroke-opacity:1" />
      <path
         transform="translate(0,1004.3622)"
         inkscape:connector-curvature="0"
         id="path10155"
         d="m 22.225584,21.071553 c -0.269711,0.02525 -0.526968,0.147878 -0.753867,0.284416 -0.15296,0.121917 0.0031,0.326532 -0.0821,0.474147 -0.03818,0.223586 0.215314,0.306604 0.394918,0.289044 0.358406,-0.0076 0.726018,0.03331 1.078148,-0.02151 0.217424,-0.145425 0.157695,-0.485275 0.04429,-0.687166 -0.146129,-0.214984 -0.419872,-0.358946 -0.681385,-0.338932 z"
         style="fill:#a2ceea;fill-opacity:1;stroke:#a2ceea;stroke-width:0.02817093;stroke-opacity:1" />
    </g>
    <g
       id="g8141"
       transform="matrix(0.03193692,0,0,0.03193682,150.48576,1013.7366)">
      <path
         id="path3147"
         d="m -4143.4455,859.15218 182.959,162.90802 182.958,-162.90802"
         inkscape:connector-curvature="0"
         style="fill:none;stroke:#000000;stroke-width:12" />
      <path
         id="path3155"
         d="m -3777.5285,859.15218 128.865,-185.674 79.156,-201.546 26.734,-209.484 0,-208.856997 -835.427,0"
         inkscape:connector-curvature="0"
         style="fill:none;stroke:#000000;stroke-width:12" />
      <path
         id="path3169"
         d="m -4378.2005,53.591183 0,208.856997 26.734,209.484 79.156,201.546 128.865,185.674"
         inkscape:connector-curvature="0"
         style="fill:none;stroke:#000000;stroke-width:12" />
      <path
         id="path3487"
         d="m -3847.4685,845.63718 -113.018,101.763"
         inkscape:connector-curvature="0"
         style="fill:none;stroke:#000000;stroke-width:12" />
      <path
         id="path3489"
         d="m -3749.1195,722.65618 -98.349,122.981"
         inkscape:connector-curvature="0"
         style="fill:none;stroke:#000000;stroke-width:12" />
      <path
         id="path3491"
         d="m -3677.3815,584.39318 -71.738,138.263"
         inkscape:connector-curvature="0"
         style="fill:none;stroke:#000000;stroke-width:12" />
      <path
         id="path3493"
         d="m -3630.5435,433.72318 -46.838,150.67"
         inkscape:connector-curvature="0"
         style="fill:none;stroke:#000000;stroke-width:12" />
      <path
         id="path3495"
         d="m -3610.3175,279.10018 -20.226,154.623"
         inkscape:connector-curvature="0"
         style="fill:none;stroke:#000000;stroke-width:12" />
      <path
         id="path3497"
         d="m -3610.1385,127.89218 -0.179,151.208"
         inkscape:connector-curvature="0"
         style="fill:none;stroke:#000000;stroke-width:12" />
      <path
         id="path3499"
         d="m -3960.4865,947.40018 -113.019,-101.763"
         inkscape:connector-curvature="0"
         style="fill:none;stroke:#000000;stroke-width:12" />
      <path
         id="path3501"
         d="m -4073.5055,845.63718 -98.349,-122.981"
         inkscape:connector-curvature="0"
         style="fill:none;stroke:#000000;stroke-width:12" />
      <path
         id="path3503"
         d="m -4171.8545,722.65618 -71.738,-138.263"
         inkscape:connector-curvature="0"
         style="fill:none;stroke:#000000;stroke-width:12" />
      <path
         id="path3505"
         d="m -4243.5925,584.39318 -46.839,-150.67"
         inkscape:connector-curvature="0"
         style="fill:none;stroke:#000000;stroke-width:12" />
      <path
         id="path3507"
         d="m -4290.4315,433.72318 -20.225,-154.623"
         inkscape:connector-curvature="0"
         style="fill:none;stroke:#000000;stroke-width:12" />
      <path
         id="path3509"
         d="m -4310.6565,279.10018 -0.18,-151.208"
         inkscape:connector-curvature="0"
         style="fill:none;stroke:#000000;stroke-width:12" />
      <path
         id="path3511"
         d="m -3960.4865,127.89218 350.348,0"
         inkscape:connector-curvature="0"
         style="fill:none;stroke:#000000;stroke-width:12" />
      <path
         id="path3513"
         d="m -4310.8365,127.89218 350.35,0"
         inkscape:connector-curvature="0"
         style="fill:none;stroke:#000000;stroke-width:12" />
      <path
         id="path3793"
         d="m -3777.5285,859.15218 128.865,-185.674 79.156,-201.546 26.734,-209.484 0,0"
         inkscape:connector-curvature="0"
         style="fill:none;stroke:#000000;stroke-width:12" />
      <path
         id="path3795"
         d="m -4378.2005,262.44818 0,0 26.734,209.484 79.156,201.546 128.865,185.674"
         inkscape:connector-curvature="0"
         style="fill:none;stroke:#000000;stroke-width:12" />
      <g
         transform="translate(172.4544,-1350.6381)"
         id="g7998">
        <path
           style="fill:none;stroke:#000000;stroke-width:8"
           inkscape:connector-curvature="0"
           d="m -4165.5962,1739.2064 -1.799,8.989"
           id="path6064" />
        <path
           style="fill:none;stroke:#000000;stroke-width:8"
           inkscape:connector-curvature="0"
           d="m -4350.8072,1867.5594 135.757,0 83.543,0"
           id="path6100" />
        <path
           style="fill:none;stroke:#000000;stroke-width:8"
           inkscape:connector-curvature="0"
           d="m -4131.5072,1867.5594 83.543,0 135.757,0"
           id="path6102" />
        <path
           style="fill:none;stroke:#000000;stroke-width:8"
           inkscape:connector-curvature="0"
           d="m -3912.2072,1867.5594 0,-41.771"
           id="path6104" />
        <path
           style="fill:none;stroke:#000000;stroke-width:8"
           inkscape:connector-curvature="0"
           d="m -3912.2072,1825.7884 -2.358,-10.349"
           id="path6106" />
        <path
           style="fill:none;stroke:#000000;stroke-width:8"
           inkscape:connector-curvature="0"
           d="m -3914.5652,1815.4394 -5.215,-6.832"
           id="path6108" />
        <path
           style="fill:none;stroke:#000000;stroke-width:8"
           inkscape:connector-curvature="0"
           d="m -3919.7802,1808.6074 7.573,-9.971"
           id="path6110" />
        <path
           style="fill:none;stroke:#000000;stroke-width:8"
           inkscape:connector-curvature="0"
           d="m -3912.2072,1798.6364 2.088,-18.797"
           id="path6112" />
        <path
           style="fill:none;stroke:#000000;stroke-width:8"
           inkscape:connector-curvature="0"
           d="m -3910.1192,1779.8394 8.355,-66.834"
           id="path6114" />
        <path
           style="fill:none;stroke:#000000;stroke-width:8"
           inkscape:connector-curvature="0"
           d="m -3901.7642,1713.0054 19.967,-61.989"
           id="path6116" />
        <path
           style="fill:none;stroke:#000000;stroke-width:8"
           inkscape:connector-curvature="0"
           d="m -3881.7972,1651.0164 15.538,-36.174"
           id="path6118" />
        <path
           style="fill:none;stroke:#000000;stroke-width:8"
           inkscape:connector-curvature="0"
           d="m -3866.2592,1614.8424 -44.709,-16.595"
           id="path6120" />
        <path
           style="fill:none;stroke:#000000;stroke-width:8"
           inkscape:connector-curvature="0"
           d="m -3910.9682,1598.2474 -9.441,0.179"
           id="path6122" />
        <path
           style="fill:none;stroke:#000000;stroke-width:8"
           inkscape:connector-curvature="0"
           d="m -3920.4092,1598.4264 -6.113,8.451"
           id="path6124" />
        <path
           style="fill:none;stroke:#000000;stroke-width:8"
           inkscape:connector-curvature="0"
           d="m -3926.5222,1606.8774 1.259,24.632"
           id="path6126" />
        <path
           style="fill:none;stroke:#000000;stroke-width:8"
           inkscape:connector-curvature="0"
           d="m -3925.2632,1631.5094 -1.618,7.732"
           id="path6128" />
        <path
           style="fill:none;stroke:#000000;stroke-width:8"
           inkscape:connector-curvature="0"
           d="m -3926.8812,1639.2414 -4.675,5.932"
           id="path6130" />
        <path
           style="fill:none;stroke:#000000;stroke-width:8"
           inkscape:connector-curvature="0"
           d="m -3931.5562,1645.1734 -6.292,3.955"
           id="path6132" />
        <path
           style="fill:none;stroke:#000000;stroke-width:8"
           inkscape:connector-curvature="0"
           d="m -3937.8482,1649.1284 -8.271,1.439"
           id="path6134" />
        <path
           style="fill:none;stroke:#000000;stroke-width:8"
           inkscape:connector-curvature="0"
           d="m -3946.1192,1650.5674 -8.451,-1.439"
           id="path6136" />
        <path
           style="fill:none;stroke:#000000;stroke-width:8"
           inkscape:connector-curvature="0"
           d="m -3954.5702,1649.1284 -6.113,-4.135"
           id="path6138" />
        <path
           style="fill:none;stroke:#000000;stroke-width:8"
           inkscape:connector-curvature="0"
           d="m -3960.6832,1644.9934 -8.989,-9.169"
           id="path6140" />
        <path
           style="fill:none;stroke:#000000;stroke-width:8"
           inkscape:connector-curvature="0"
           d="m -3979.9212,1633.6674 -8.855,5.754"
           id="path6142" />
        <path
           style="fill:none;stroke:#000000;stroke-width:8"
           inkscape:connector-curvature="0"
           d="m -3969.6722,1635.8244 -10.249,-2.157"
           id="path6144" />
        <path
           style="fill:none;stroke:#000000;stroke-width:8"
           inkscape:connector-curvature="0"
           d="m -3988.7762,1639.4214 -10.113,61.848"
           id="path6146" />
        <path
           style="fill:none;stroke:#000000;stroke-width:8"
           inkscape:connector-curvature="0"
           d="m -3998.8892,1701.2694 -19.599,-16.182"
           id="path6148" />
        <path
           style="fill:none;stroke:#000000;stroke-width:8"
           inkscape:connector-curvature="0"
           d="m -4018.4882,1685.0874 -20.136,18.699"
           id="path6150" />
        <path
           style="fill:none;stroke:#000000;stroke-width:8"
           inkscape:connector-curvature="0"
           d="m -4038.6242,1703.7864 0.359,-46.207"
           id="path6152" />
        <path
           style="fill:none;stroke:#000000;stroke-width:8"
           inkscape:connector-curvature="0"
           d="m -3990.0792,1724.4634 3.235,-5.574"
           id="path6154" />
        <path
           style="fill:none;stroke:#000000;stroke-width:8"
           inkscape:connector-curvature="0"
           d="m -3986.8442,1718.8894 -1.796,-4.315"
           id="path6156" />
        <path
           style="fill:none;stroke:#000000;stroke-width:8"
           inkscape:connector-curvature="0"
           d="m -3988.6402,1748.5574 5.931,-7.373"
           id="path6158" />
        <path
           style="fill:none;stroke:#000000;stroke-width:8"
           inkscape:connector-curvature="0"
           d="m -3982.7092,1741.1844 -1.077,-12.226"
           id="path6160" />
        <path
           style="fill:none;stroke:#000000;stroke-width:8"
           inkscape:connector-curvature="0"
           d="m -3983.7862,1728.9584 -6.293,-4.495"
           id="path6162" />
        <path
           style="fill:none;stroke:#000000;stroke-width:8"
           inkscape:connector-curvature="0"
           d="m -3970.6622,1748.5574 -17.978,0"
           id="path6164" />
        <path
           style="fill:none;stroke:#000000;stroke-width:8"
           inkscape:connector-curvature="0"
           d="m -3962.9302,1747.1184 -7.732,1.439"
           id="path6166" />
        <path
           style="fill:none;stroke:#000000;stroke-width:8"
           inkscape:connector-curvature="0"
           d="m -3956.0982,1743.1624 -6.832,3.956"
           id="path6168" />
        <path
           style="fill:none;stroke:#000000;stroke-width:8"
           inkscape:connector-curvature="0"
           d="m -3952.1432,1736.5104 -3.955,6.652"
           id="path6170" />
        <path
           style="fill:none;stroke:#000000;stroke-width:8"
           inkscape:connector-curvature="0"
           d="m -3950.3442,1729.3174 -1.799,7.193"
           id="path6172" />
        <path
           style="fill:none;stroke:#000000;stroke-width:8"
           inkscape:connector-curvature="0"
           d="m -3951.9632,1721.4074 1.619,7.91"
           id="path6174" />
        <path
           style="fill:none;stroke:#000000;stroke-width:8"
           inkscape:connector-curvature="0"
           d="m -3956.0982,1715.6534 4.135,5.754"
           id="path6176" />
        <path
           style="fill:none;stroke:#000000;stroke-width:8"
           inkscape:connector-curvature="0"
           d="m -3963.2892,1711.3384 7.191,4.315"
           id="path6178" />
        <path
           style="fill:none;stroke:#000000;stroke-width:8"
           inkscape:connector-curvature="0"
           d="m -3971.3802,1709.7204 8.091,1.618"
           id="path6180" />
        <path
           style="fill:none;stroke:#000000;stroke-width:8"
           inkscape:connector-curvature="0"
           d="m -3979.4712,1711.3384 8.091,-1.618"
           id="path6182" />
        <path
           style="fill:none;stroke:#000000;stroke-width:8"
           inkscape:connector-curvature="0"
           d="m -3988.6402,1714.5744 9.169,-3.236"
           id="path6184" />
        <path
           style="fill:none;stroke:#000000;stroke-width:8"
           inkscape:connector-curvature="0"
           d="m -4050.1322,1727.7004 -1.437,12.945"
           id="path6186" />
        <path
           style="fill:none;stroke:#000000;stroke-width:8"
           inkscape:connector-curvature="0"
           d="m -4051.5692,1740.6454 3.605,5.608 1.249,1.942"
           id="path6188" />
        <path
           style="fill:none;stroke:#000000;stroke-width:8"
           inkscape:connector-curvature="0"
           d="m -4046.7152,1748.1954 -1.249,0 -22.475,0 0,0 -25.18,0"
           id="path6190" />
        <path
           style="fill:none;stroke:#000000;stroke-width:8"
           inkscape:connector-curvature="0"
           d="m -4095.6192,1748.1954 -1.798,-8.989"
           id="path6192" />
        <path
           style="fill:none;stroke:#000000;stroke-width:8"
           inkscape:connector-curvature="0"
           d="m -4097.4172,1739.2064 1.257,-8.271"
           id="path6194" />
        <path
           style="fill:none;stroke:#000000;stroke-width:8"
           inkscape:connector-curvature="0"
           d="m -4096.1602,1730.9354 4.676,-6.652"
           id="path6196" />
        <path
           style="fill:none;stroke:#000000;stroke-width:8"
           inkscape:connector-curvature="0"
           d="m -4091.4842,1724.2834 7.551,-4.674"
           id="path6198" />
        <path
           style="fill:none;stroke:#000000;stroke-width:8"
           inkscape:connector-curvature="0"
           d="m -4083.9332,1719.6094 8.27,-1.439"
           id="path6200" />
        <path
           style="fill:none;stroke:#000000;stroke-width:8"
           inkscape:connector-curvature="0"
           d="m -4075.6632,1718.1704 8.63,1.619"
           id="path6202" />
        <path
           style="fill:none;stroke:#000000;stroke-width:8"
           inkscape:connector-curvature="0"
           d="m -4067.0332,1719.7894 8.271,3.776"
           id="path6204" />
        <path
           style="fill:none;stroke:#000000;stroke-width:8"
           inkscape:connector-curvature="0"
           d="m -4058.7622,1723.5654 3.623,1.736 0,0 5.006,2.399"
           id="path6206" />
        <path
           style="fill:none;stroke:#000000;stroke-width:8"
           inkscape:connector-curvature="0"
           d="m -4038.2652,1657.5794 -5.033,-10.069"
           id="path6208" />
        <path
           style="fill:none;stroke:#000000;stroke-width:8"
           inkscape:connector-curvature="0"
           d="m -4043.2982,1647.5104 -10.249,-4.315"
           id="path6210" />
        <path
           style="fill:none;stroke:#000000;stroke-width:8"
           inkscape:connector-curvature="0"
           d="m -4053.5472,1643.1954 -9.892,3.298 -0.895,0.298"
           id="path6212" />
        <path
           style="fill:none;stroke:#000000;stroke-width:8"
           inkscape:connector-curvature="0"
           d="m -4064.3342,1646.7914 -7.014,4.854"
           id="path6214" />
        <path
           style="fill:none;stroke:#000000;stroke-width:8"
           inkscape:connector-curvature="0"
           d="m -4071.3482,1651.6454 -8.091,1.798"
           id="path6216" />
        <path
           style="fill:none;stroke:#000000;stroke-width:8"
           inkscape:connector-curvature="0"
           d="m -4079.4392,1653.4434 -7.909,-1.437"
           id="path6218" />
        <path
           style="fill:none;stroke:#000000;stroke-width:8"
           inkscape:connector-curvature="0"
           d="m -4087.3482,1652.0064 -7.014,-4.676"
           id="path6220" />
        <path
           style="fill:none;stroke:#000000;stroke-width:8"
           inkscape:connector-curvature="0"
           d="m -4094.3622,1647.3304 -4.494,-5.752"
           id="path6222" />
        <path
           style="fill:none;stroke:#000000;stroke-width:8"
           inkscape:connector-curvature="0"
           d="m -4098.8562,1641.5784 -1.078,-7.013"
           id="path6224" />
        <path
           style="fill:none;stroke:#000000;stroke-width:8"
           inkscape:connector-curvature="0"
           d="m -4099.9342,1634.5654 1.617,-7.91"
           id="path6226" />
        <path
           style="fill:none;stroke:#000000;stroke-width:8"
           inkscape:connector-curvature="0"
           d="m -4098.3172,1626.6554 5.151,-7.477 0.423,-0.614"
           id="path6228" />
        <path
           style="fill:none;stroke:#000000;stroke-width:8"
           inkscape:connector-curvature="0"
           d="m -4092.7432,1618.5644 2.696,-9.889"
           id="path6230" />
        <path
           style="fill:none;stroke:#000000;stroke-width:8"
           inkscape:connector-curvature="0"
           d="m -4090.0472,1608.6754 -3.955,-11.508"
           id="path6232" />
        <path
           style="fill:none;stroke:#000000;stroke-width:8"
           inkscape:connector-curvature="0"
           d="m -4094.0022,1597.1674 -10.353,-5.299"
           id="path6234" />
        <path
           style="fill:none;stroke:#000000;stroke-width:8"
           inkscape:connector-curvature="0"
           d="m -4104.3552,1591.8684 -27.152,0"
           id="path6236" />
        <path
           style="fill:none;stroke:#000000;stroke-width:8"
           inkscape:connector-curvature="0"
           d="m -4350.8072,1825.7884 0,41.771"
           id="path6238" />
        <path
           style="fill:none;stroke:#000000;stroke-width:8"
           inkscape:connector-curvature="0"
           d="m -4348.4482,1815.4394 -2.359,10.349"
           id="path6240" />
        <path
           style="fill:none;stroke:#000000;stroke-width:8"
           inkscape:connector-curvature="0"
           d="m -4343.2332,1808.6074 -5.215,6.832"
           id="path6242" />
        <path
           style="fill:none;stroke:#000000;stroke-width:8"
           inkscape:connector-curvature="0"
           d="m -4350.8072,1798.6364 7.574,9.971"
           id="path6244" />
        <path
           style="fill:none;stroke:#000000;stroke-width:8"
           inkscape:connector-curvature="0"
           d="m -4353.1042,1779.8394 2.297,18.797"
           id="path6246" />
        <path
           style="fill:none;stroke:#000000;stroke-width:8"
           inkscape:connector-curvature="0"
           d="m -4361.2492,1713.0054 8.145,66.834"
           id="path6248" />
        <path
           style="fill:none;stroke:#000000;stroke-width:8"
           inkscape:connector-curvature="0"
           d="m -4381.2162,1651.0164 19.967,61.989"
           id="path6250" />
        <path
           style="fill:none;stroke:#000000;stroke-width:8"
           inkscape:connector-curvature="0"
           d="m -4396.7552,1614.8424 15.539,36.174"
           id="path6252" />
        <path
           style="fill:none;stroke:#000000;stroke-width:8"
           inkscape:connector-curvature="0"
           d="m -4352.0452,1598.2474 -44.71,16.595"
           id="path6254" />
        <path
           style="fill:none;stroke:#000000;stroke-width:8"
           inkscape:connector-curvature="0"
           d="m -4342.6052,1598.4264 -9.44,-0.179"
           id="path6256" />
        <path
           style="fill:none;stroke:#000000;stroke-width:8"
           inkscape:connector-curvature="0"
           d="m -4336.4912,1606.8774 -6.114,-8.451"
           id="path6258" />
        <path
           style="fill:none;stroke:#000000;stroke-width:8"
           inkscape:connector-curvature="0"
           d="m -4337.7512,1631.5094 1.26,-24.632"
           id="path6260" />
        <path
           style="fill:none;stroke:#000000;stroke-width:8"
           inkscape:connector-curvature="0"
           d="m -4336.1322,1639.2414 -1.619,-7.732"
           id="path6262" />
        <path
           style="fill:none;stroke:#000000;stroke-width:8"
           inkscape:connector-curvature="0"
           d="m -4331.4582,1645.1734 -4.674,-5.932"
           id="path6264" />
        <path
           style="fill:none;stroke:#000000;stroke-width:8"
           inkscape:connector-curvature="0"
           d="m -4325.1652,1649.1284 -6.293,-3.955"
           id="path6266" />
        <path
           style="fill:none;stroke:#000000;stroke-width:8"
           inkscape:connector-curvature="0"
           d="m -4316.8942,1650.5674 -8.271,-1.439"
           id="path6268" />
        <path
           style="fill:none;stroke:#000000;stroke-width:8"
           inkscape:connector-curvature="0"
           d="m -4308.4442,1649.1284 -8.45,1.439"
           id="path6270" />
        <path
           style="fill:none;stroke:#000000;stroke-width:8"
           inkscape:connector-curvature="0"
           d="m -4302.3312,1644.9934 -6.113,4.135"
           id="path6272" />
        <path
           style="fill:none;stroke:#000000;stroke-width:8"
           inkscape:connector-curvature="0"
           d="m -4293.3422,1635.8244 -8.989,9.169"
           id="path6274" />
        <path
           style="fill:none;stroke:#000000;stroke-width:8"
           inkscape:connector-curvature="0"
           d="m -4274.2372,1639.4214 -8.856,-5.754"
           id="path6276" />
        <path
           style="fill:none;stroke:#000000;stroke-width:8"
           inkscape:connector-curvature="0"
           d="m -4283.0932,1633.6674 -10.249,2.157"
           id="path6278" />
        <path
           style="fill:none;stroke:#000000;stroke-width:8"
           inkscape:connector-curvature="0"
           d="m -4264.1252,1701.2694 -10.112,-61.848"
           id="path6280" />
        <path
           style="fill:none;stroke:#000000;stroke-width:8"
           inkscape:connector-curvature="0"
           d="m -4244.5252,1685.0874 -19.6,16.182"
           id="path6282" />
        <path
           style="fill:none;stroke:#000000;stroke-width:8"
           inkscape:connector-curvature="0"
           d="m -4224.3902,1703.7864 -20.135,-18.699"
           id="path6284" />
        <path
           style="fill:none;stroke:#000000;stroke-width:8"
           inkscape:connector-curvature="0"
           d="m -4224.7492,1657.5794 0.359,46.207"
           id="path6286" />
        <path
           style="fill:none;stroke:#000000;stroke-width:8"
           inkscape:connector-curvature="0"
           d="m -4276.1692,1718.8894 3.235,5.574"
           id="path6288" />
        <path
           style="fill:none;stroke:#000000;stroke-width:8"
           inkscape:connector-curvature="0"
           d="m -4274.3732,1714.5744 -1.796,4.315"
           id="path6290" />
        <path
           style="fill:none;stroke:#000000;stroke-width:8"
           inkscape:connector-curvature="0"
           d="m -4280.3052,1741.1844 5.932,7.373"
           id="path6292" />
        <path
           style="fill:none;stroke:#000000;stroke-width:8"
           inkscape:connector-curvature="0"
           d="m -4279.2272,1728.9584 -1.078,12.226"
           id="path6294" />
        <path
           style="fill:none;stroke:#000000;stroke-width:8"
           inkscape:connector-curvature="0"
           d="m -4272.9342,1724.4634 -6.293,4.495"
           id="path6296" />
        <path
           style="fill:none;stroke:#000000;stroke-width:8"
           inkscape:connector-curvature="0"
           d="m -4274.3732,1748.5574 -17.979,0"
           id="path6298" />
        <path
           style="fill:none;stroke:#000000;stroke-width:8"
           inkscape:connector-curvature="0"
           d="m -4292.3522,1748.5574 -7.731,-1.439"
           id="path6300" />
        <path
           style="fill:none;stroke:#000000;stroke-width:8"
           inkscape:connector-curvature="0"
           d="m -4300.0832,1747.1184 -6.832,-3.956"
           id="path6302" />
        <path
           style="fill:none;stroke:#000000;stroke-width:8"
           inkscape:connector-curvature="0"
           d="m -4306.9152,1743.1624 -3.956,-6.652"
           id="path6304" />
        <path
           style="fill:none;stroke:#000000;stroke-width:8"
           inkscape:connector-curvature="0"
           d="m -4310.8712,1736.5104 -1.798,-7.193"
           id="path6306" />
        <path
           style="fill:none;stroke:#000000;stroke-width:8"
           inkscape:connector-curvature="0"
           d="m -4312.6692,1729.3174 1.618,-7.91"
           id="path6308" />
        <path
           style="fill:none;stroke:#000000;stroke-width:8"
           inkscape:connector-curvature="0"
           d="m -4311.0512,1721.4074 4.136,-5.754"
           id="path6310" />
        <path
           style="fill:none;stroke:#000000;stroke-width:8"
           inkscape:connector-curvature="0"
           d="m -4306.9152,1715.6534 7.191,-4.315"
           id="path6312" />
        <path
           style="fill:none;stroke:#000000;stroke-width:8"
           inkscape:connector-curvature="0"
           d="m -4299.7242,1711.3384 8.091,-1.618"
           id="path6314" />
        <path
           style="fill:none;stroke:#000000;stroke-width:8"
           inkscape:connector-curvature="0"
           d="m -4291.6332,1709.7204 8.091,1.618"
           id="path6316" />
        <path
           style="fill:none;stroke:#000000;stroke-width:8"
           inkscape:connector-curvature="0"
           d="m -4283.5422,1711.3384 9.169,3.236"
           id="path6318" />
        <path
           style="fill:none;stroke:#000000;stroke-width:8"
           inkscape:connector-curvature="0"
           d="m -4211.4452,1740.6454 -1.437,-12.945"
           id="path6320" />
        <path
           style="fill:none;stroke:#000000;stroke-width:8"
           inkscape:connector-curvature="0"
           d="m -4216.2982,1748.1954 1.248,-1.942 3.605,-5.608"
           id="path6322" />
        <path
           style="fill:none;stroke:#000000;stroke-width:8"
           inkscape:connector-curvature="0"
           d="m -4167.3952,1748.1954 -25.179,0 0,0 -22.476,0 -1.248,0"
           id="path6324" />
        <path
           style="fill:none;stroke:#000000;stroke-width:8"
           inkscape:connector-curvature="0"
           d="m -4166.8542,1730.9354 1.258,8.271"
           id="path6326" />
        <path
           style="fill:none;stroke:#000000;stroke-width:8"
           inkscape:connector-curvature="0"
           d="m -4171.5302,1724.2834 4.676,6.652"
           id="path6328" />
        <path
           style="fill:none;stroke:#000000;stroke-width:8"
           inkscape:connector-curvature="0"
           d="m -4179.0802,1719.6094 7.55,4.674"
           id="path6330" />
        <path
           style="fill:none;stroke:#000000;stroke-width:8"
           inkscape:connector-curvature="0"
           d="m -4187.3512,1718.1704 8.271,1.439"
           id="path6332" />
        <path
           style="fill:none;stroke:#000000;stroke-width:8"
           inkscape:connector-curvature="0"
           d="m -4195.9812,1719.7894 8.63,-1.619"
           id="path6334" />
        <path
           style="fill:none;stroke:#000000;stroke-width:8"
           inkscape:connector-curvature="0"
           d="m -4204.2522,1723.5654 8.271,-3.776"
           id="path6336" />
        <path
           style="fill:none;stroke:#000000;stroke-width:8"
           inkscape:connector-curvature="0"
           d="m -4212.8822,1727.7004 5.007,-2.399 0,0 3.623,-1.736"
           id="path6338" />
        <path
           style="fill:none;stroke:#000000;stroke-width:8"
           inkscape:connector-curvature="0"
           d="m -4219.7152,1647.5104 -5.034,10.069"
           id="path6340" />
        <path
           style="fill:none;stroke:#000000;stroke-width:8"
           inkscape:connector-curvature="0"
           d="m -4209.4672,1643.1954 -10.248,4.315"
           id="path6342" />
        <path
           style="fill:none;stroke:#000000;stroke-width:8"
           inkscape:connector-curvature="0"
           d="m -4198.6792,1646.7914 -0.896,-0.298 -9.892,-3.298"
           id="path6344" />
        <path
           style="fill:none;stroke:#000000;stroke-width:8"
           inkscape:connector-curvature="0"
           d="m -4191.6662,1651.6454 -7.013,-4.854"
           id="path6346" />
        <path
           style="fill:none;stroke:#000000;stroke-width:8"
           inkscape:connector-curvature="0"
           d="m -4183.5752,1653.4434 -8.091,-1.798"
           id="path6348" />
        <path
           style="fill:none;stroke:#000000;stroke-width:8"
           inkscape:connector-curvature="0"
           d="m -4175.6652,1652.0064 -7.91,1.437"
           id="path6350" />
        <path
           style="fill:none;stroke:#000000;stroke-width:8"
           inkscape:connector-curvature="0"
           d="m -4168.6522,1647.3304 -7.013,4.676"
           id="path6352" />
        <path
           style="fill:none;stroke:#000000;stroke-width:8"
           inkscape:connector-curvature="0"
           d="m -4164.1572,1641.5784 -4.495,5.752"
           id="path6354" />
        <path
           style="fill:none;stroke:#000000;stroke-width:8"
           inkscape:connector-curvature="0"
           d="m -4163.0802,1634.5654 -1.077,7.013"
           id="path6356" />
        <path
           style="fill:none;stroke:#000000;stroke-width:8"
           inkscape:connector-curvature="0"
           d="m -4164.6962,1626.6554 1.616,7.91"
           id="path6358" />
        <path
           style="fill:none;stroke:#000000;stroke-width:8"
           inkscape:connector-curvature="0"
           d="m -4170.2712,1618.5644 0.423,0.614 5.152,7.477"
           id="path6360" />
        <path
           style="fill:none;stroke:#000000;stroke-width:8"
           inkscape:connector-curvature="0"
           d="m -4172.9672,1608.6754 2.696,9.889"
           id="path6362" />
        <path
           style="fill:none;stroke:#000000;stroke-width:8"
           inkscape:connector-curvature="0"
           d="m -4169.0112,1597.1674 -3.956,11.508"
           id="path6364" />
        <path
           style="fill:none;stroke:#000000;stroke-width:8"
           inkscape:connector-curvature="0"
           d="m -4158.6582,1591.8684 -10.353,5.299"
           id="path6366" />
        <path
           style="fill:none;stroke:#000000;stroke-width:8"
           inkscape:connector-curvature="0"
           d="m -4131.5072,1591.8684 -27.151,0"
           id="path6368" />
        <path
           style="fill:none;stroke:#000000;stroke-width:8"
           inkscape:connector-curvature="0"
           d="m -4131.5072,1867.5594 0,200.49"
           id="path6370" />
        <path
           style="fill:none;stroke:#000000;stroke-width:8"
           inkscape:connector-curvature="0"
           d="m -3801.5632,1779.8394 -108.556,0"
           id="path6372" />
        <path
           style="fill:none;stroke:#000000;stroke-width:8"
           inkscape:connector-curvature="0"
           d="m -4461.4502,1779.8394 108.346,0"
           id="path6374" />
        <path
           style="fill:none;stroke:#000000;stroke-width:8"
           inkscape:connector-curvature="0"
           d="m -4131.5072,1591.8684 0,-117.86"
           id="path6376" />
        <path
           style="fill:none;stroke:#000000;stroke-width:8"
           inkscape:connector-curvature="0"
           d="m -4131.5072,2068.0494 0,225.467"
           id="path6618" />
      </g>
    </g>
    <g
       id="layer1-8"
       inkscape:label="Layer 1"
       transform="matrix(1.0008884,0,0,1.0008884,-0.00125328,-0.91063278)">
      <g
         style="fill:#b3b3b3"
         transform="matrix(0.04891366,0,0,0.04891366,-262.39946,1002.4376)"
         id="g8470">
        <path
           id="path2987"
           transform="matrix(20.444187,0,0,20.444187,5364.5436,39.346882)"
           d="m 23.75,0.3125 c -3.197988,0.0239137 -6.385249,0.67133132 -9.3125,2 C 6.5589377,5.6912849 0.92974449,13.664164 0.375,22.21875 -0.35939947,30.759837 3.9984609,39.477962 11.28125,44 c 7.186473,4.673681 16.953878,4.916338 24.375,0.625 C 41.96687,41.118633 46.406244,34.610269 47.4375,27.46875 48.729412,19.208345 45.263195,10.433894 38.625,5.34375 34.441464,1.9964445 29.079979,0.27264388 23.75,0.3125 z M 23.375,4.5 c 4.823967,-0.1365159 9.698069,1.516714 13.34375,4.71875 4.532046,3.844892 7.095501,9.818126 6.78125,15.75 -0.283616,6.878001 -4.509167,13.393734 -10.6875,16.4375 -6.2654,3.249176 -14.29741,2.677688 -20.03125,-1.4375 C 6.9623587,35.974693 3.6985019,28.652958 4.625,21.65625 5.4042924,14.641615 10.330316,8.2937726 16.9375,5.8125 18.985542,4.9939939 21.182288,4.5620527 23.375,4.5 z"
           style="fill:#b3b3b3;stroke:#000000;stroke-width:0.58696389"
           inkscape:connector-curvature="0" />
      </g>
    </g>
  </g>
</svg>
