<?xml version="1.0" encoding="UTF-8" standalone="no"?>
<!-- Created with Inkscape (http://www.inkscape.org/) -->

<svg
   xmlns:dc="http://purl.org/dc/elements/1.1/"
   xmlns:cc="http://creativecommons.org/ns#"
   xmlns:rdf="http://www.w3.org/1999/02/22-rdf-syntax-ns#"
   xmlns:svg="http://www.w3.org/2000/svg"
   xmlns="http://www.w3.org/2000/svg"
   xmlns:sodipodi="http://sodipodi.sourceforge.net/DTD/sodipodi-0.dtd"
   xmlns:inkscape="http://www.inkscape.org/namespaces/inkscape"
   width="48"
   height="48"
   id="svg2"
   version="1.1"
   inkscape:version="0.48.4 r9939"
   sodipodi:docname="Sword.svg">
  <defs
     id="defs4" />
  <sodipodi:namedview
     id="base"
     pagecolor="#ffffff"
     bordercolor="#666666"
     borderopacity="1.0"
     inkscape:pageopacity="0.0"
     inkscape:pageshadow="2"
     inkscape:zoom="8.8743968"
     inkscape:cx="25.582201"
     inkscape:cy="23.464373"
     inkscape:document-units="px"
     inkscape:current-layer="layer1"
     showgrid="false"
     inkscape:window-width="1366"
     inkscape:window-height="705"
     inkscape:window-x="-8"
     inkscape:window-y="-8"
     inkscape:window-maximized="1" />
  <metadata
     id="metadata7">
    <rdf:RDF>
      <cc:Work
         rdf:about="">
        <dc:format>image/svg+xml</dc:format>
        <dc:type
           rdf:resource="http://purl.org/dc/dcmitype/StillImage" />
        <dc:title></dc:title>
      </cc:Work>
    </rdf:RDF>
  </metadata>
  <g
     inkscape:label="Layer 1"
     inkscape:groupmode="layer"
     id="layer1"
     transform="translate(0,-1004.3622)">
    <g
       id="g9701">
      <path
         transform="translate(0,1004.3622)"
         inkscape:connector-curvature="0"
         id="path9699"
         d="m 13.872543,24.286592 c -1.026724,0.01805 -1.90001,1.016775 -1.741316,2.040632 0.06442,0.687505 0.571412,1.298546 1.207829,1.531794 0.340064,-0.03441 0.5241,-0.417631 0.786506,-0.605323 0.522692,-0.540589 1.108036,-1.03844 1.558724,-1.637787 0.0043,-0.408602 -0.382212,-0.706901 -0.651453,-0.970137 -0.328814,-0.247066 -0.748871,-0.376214 -1.16029,-0.359179 z"
         style="fill:#a7a7a7;fill-opacity:1;stroke:#a7a7a7;stroke-width:0.05634186;stroke-opacity:1" />
      <path
         transform="translate(0,1004.3622)"
         inkscape:connector-curvature="0"
         id="path9697"
         d="m 11.370612,34.285511 c -0.776613,0.285389 -1.338826,1.128763 -1.227196,1.966683 0.103494,1.182569 1.530535,2.012104 2.593486,1.449042 0.430675,-0.232532 0.812555,-0.627834 0.982461,-1.088102 -0.07252,-0.362584 -0.47919,-0.560197 -0.689483,-0.847611 -0.5103,-0.488656 -0.990047,-1.038603 -1.543063,-1.464166 -0.03892,0.0026 -0.07714,-0.02477 -0.116205,-0.01585 z"
         style="fill:#a7a7a7;fill-opacity:1;stroke:#a7a7a7;stroke-width:0.05634186;stroke-opacity:1" />
      <path
         transform="translate(0,1004.3622)"
         inkscape:connector-curvature="0"
         id="path9695"
         d="m 22.385445,32.320589 c -0.726194,0.573741 -1.347575,1.286661 -2.005418,1.942033 -0.196068,0.147646 -0.328339,0.41091 -0.135572,0.619761 0.432606,0.859481 1.578292,1.303985 2.443828,0.820478 1.016395,-0.469924 1.352176,-1.92952 0.616239,-2.781879 -0.244447,-0.242319 -0.541057,-0.620668 -0.919077,-0.600393 z"
         style="fill:#a7a7a7;fill-opacity:1;stroke:#a7a7a7;stroke-width:0.05634186;stroke-opacity:1" />
      <path
         transform="translate(0,1004.3622)"
         inkscape:connector-curvature="0"
         id="path9691"
         d="m 35.010396,10.168705 c -0.795005,-0.0042 -1.51551,0.41159 -2.012649,1.014507 -5.2406,5.108633 -10.385555,10.319792 -15.569113,15.489093 -0.132816,0.443078 0.505724,0.717217 0.700205,1.078067 0.110693,0.118312 0.716651,0.802491 0.275868,0.363632 -0.792881,-0.841153 -1.528532,-1.788157 -2.422453,-2.525972 -0.433413,0.03591 -0.683929,0.615114 -1.041372,0.863719 -0.543874,0.378247 0.238088,0.754893 0.460662,1.061922 1.890808,1.890809 3.781616,3.781616 5.672424,5.672424 0.459157,0.130975 0.707753,-0.556871 1.064968,-0.773313 0.553736,-0.317501 0.0051,-0.730231 -0.280624,-1.004534 -0.68714,-0.66814 -1.474569,-1.340926 -2.156324,-1.977045 0.514798,0.296408 0.945232,0.931253 1.513909,1.207641 1.108525,-0.956921 2.1018,-2.078078 3.165918,-3.098281 4.322761,-4.342936 8.708271,-8.633377 12.936794,-13.061701 0.751698,-0.954626 0.6901,-2.459619 -0.134459,-3.344046 -0.444801,-0.10913 -0.659069,0.515393 -0.995993,0.712135 -5.084687,5.029296 -10.116079,10.114577 -15.203829,15.139089 5.272616,-5.32685 10.586977,-10.616327 15.883595,-15.920944 0.167976,-0.381178 -0.41039,-0.524957 -0.669806,-0.689725 -0.372369,-0.159301 -0.783569,-0.223577 -1.187721,-0.206668 z"
         style="fill:#a7a7a7;fill-opacity:1;stroke:#a7a7a7;stroke-width:0.07967942;stroke-opacity:1" />
      <path
         transform="translate(0,1004.3622)"
         inkscape:connector-curvature="0"
         id="path9693"
         d="m 14.460611,26.925856 c -0.349222,0.393166 -0.807987,0.710408 -1.08282,1.155008 0.223148,0.424359 0.673932,0.70472 0.985287,1.0734 0.338647,0.289104 0.596233,0.700623 0.988439,0.909129 0.440933,0.01743 0.950753,-0.03402 1.350443,0.02465 -0.443681,0.09124 -1.019967,-0.06218 -1.486016,0.08099 -1.251831,1.271266 -2.549578,2.511078 -3.773013,3.801796 -0.08436,0.32864 0.380177,0.499312 0.540674,0.748085 0.627973,0.608452 1.224261,1.263157 1.871812,1.843028 0.328641,0.08436 0.499312,-0.380177 0.748085,-0.540674 1.076835,-1.096246 2.199847,-2.16102 3.247809,-3.276944 0.0443,-0.237318 0.36846,0.367307 0.572238,0.471152 0.480448,0.441799 0.899227,0.973714 1.418672,1.358525 0.340499,-0.05147 0.550077,-0.442925 0.830545,-0.640578 0.154889,-0.188326 0.571066,-0.391682 0.358714,-0.674391 -2.076209,-2.128386 -4.197809,-4.215625 -6.296203,-6.324374 -0.09951,-0.06576 -0.170253,-0.0653 -0.274666,-0.0088 z"
         style="fill:#a7a7a7;fill-opacity:1;stroke:#a7a7a7;stroke-width:0.05634186;stroke-opacity:1" />
    </g>
    <g
       id="layer1-8"
       inkscape:label="Layer 1"
       transform="matrix(1.0000641,0,0,1.0000641,-0.00125225,-0.04318336)">
      <g
         style="fill:#b3b3b3"
         transform="matrix(0.04891366,0,0,0.04891366,-262.39946,1002.4376)"
         id="g8470">
        <path
           id="path2987"
           transform="matrix(20.444187,0,0,20.444187,5364.5436,39.346882)"
           d="m 23.75,0.3125 c -3.197988,0.0239137 -6.385249,0.67133132 -9.3125,2 C 6.5589377,5.6912849 0.92974449,13.664164 0.375,22.21875 -0.35939947,30.759837 3.9984609,39.477962 11.28125,44 c 7.186473,4.673681 16.953878,4.916338 24.375,0.625 C 41.96687,41.118633 46.406244,34.610269 47.4375,27.46875 48.729412,19.208345 45.263195,10.433894 38.625,5.34375 34.441464,1.9964445 29.079979,0.27264388 23.75,0.3125 z M 23.375,4.5 c 4.823967,-0.1365159 9.698069,1.516714 13.34375,4.71875 4.532046,3.844892 7.095501,9.818126 6.78125,15.75 -0.283616,6.878001 -4.509167,13.393734 -10.6875,16.4375 -6.2654,3.249176 -14.29741,2.677688 -20.03125,-1.4375 C 6.9623587,35.974693 3.6985019,28.652958 4.625,21.65625 5.4042924,14.641615 10.330316,8.2937726 16.9375,5.8125 18.985542,4.9939939 21.182288,4.5620527 23.375,4.5 z"
           style="fill:#b3b3b3;stroke:#000000;stroke-width:0.58696389"
           inkscape:connector-curvature="0" />
      </g>
    </g>
    <g
       id="g8304"
       transform="matrix(0.02865198,0,0,0.02865198,170.25032,1013.2279)">
      <path
         id="path3797"
         d="m -5240.4785,895.12918 1.796,9.034 14.153,21.179 21.179,14.153 24.983,4.967 24.983,-4.967 21.179,-14.153 14.153,-21.179 4.968,-24.983 -4.968,-24.983 -14.153,-21.179 -21.179,-14.154 -9.033,-1.796 0,0 0,0"
         inkscape:connector-curvature="0"
         style="fill:none;stroke:#000000;stroke-width:12" />
      <path
         id="path3799"
         d="m -5201.4475,856.09918 -5.092,-5.092 -17.99,-17.989 -46.162,-46.162 -46.162,-46.162 -23.004,-23.005 -1.534,-1.533 -21.624,-21.624 -46.162,-46.162 -23.081,-23.081 0,0"
         inkscape:connector-curvature="0"
         style="fill:none;stroke:#000000;stroke-width:12" />
      <path
         id="path3801"
         d="m -5201.4475,763.77518 0,0 553.944,-553.945 21.23,-31.768 7.451,-37.475 -7.451,-37.474 -21.23,-31.768997 -31.769,-21.23 -37.474,-7.45 -37.474,7.45 -31.769,21.23 -553.945,553.944997"
         inkscape:connector-curvature="0"
         style="fill:none;stroke:#000000;stroke-width:12" />
      <path
         id="path3803"
         d="m -5270.6915,694.53218 0,-0.001 619.6265,-620.033426"
         inkscape:connector-curvature="0"
         style="fill:none;stroke:#000000;stroke-width:12"
         sodipodi:nodetypes="ccc" />
      <path
         id="path3805"
         d="m -5257.9595,714.28918 56.512,49.486"
         inkscape:connector-curvature="0"
         style="fill:none;stroke:#000000;stroke-width:12" />
      <path
         id="path3807"
         d="m -5339.9345,625.28918 0,0 0,0 49.486,56.511"
         inkscape:connector-curvature="0"
         style="fill:none;stroke:#000000;stroke-width:12" />
      <path
         style="fill:none;stroke:#000000;stroke-width:12"
         d="m -5540.5315,886.31118 c -4.0548,1.11091 -8.7005,0.79503 -11.9842,3.76763 -6.1124,4.20695 -12.5169,8.12177 -18.4479,12.51017 -4.6225,7.09921 -9.6265,14.04042 -14.0118,21.2379 -1.5521,8.32767 -3.5166,16.65533 -4.8122,24.983 1.7508,8.28812 3.1201,16.73425 5.1082,24.9241 4.791,6.98666 9.2903,14.26502 14.2627,21.07026 7.0992,4.62221 14.0404,9.62586 21.2379,14.01086 8.3277,1.5524 16.6553,3.5173 24.983,4.8132 8.2881,-1.7511 16.7342,-3.1208 24.9241,-5.1092 6.9867,-4.7907 14.265,-9.28961 21.0703,-14.26173 4.6222,-7.0992 9.6258,-14.04043 14.0108,-21.23789 0.573,-2.88243 1.1461,-5.76487 1.7191,-8.6473"
         id="path3809"
         inkscape:connector-curvature="0" />
      <path
         id="path3817"
         d="m -5544.1505,882.69318 -3.513,-3.513"
         inkscape:connector-curvature="0"
         style="fill:none;stroke:#000000;stroke-width:12" />
      <path
         id="path3819"
         d="m -5389.6522,582.68192 -88.1914,88.76926 69.243,69.243 -138.486,138.486 95.4041,94.53767"
         inkscape:connector-curvature="0"
         style="fill:none;stroke:#000000;stroke-width:12"
         sodipodi:nodetypes="ccccc" />
      <path
         id="path3825"
         d="m -5458.8525,967.99118 3.513,3.513 138.486,-138.486 69.244,69.243 3.512,-3.513 3.619,-3.619"
         inkscape:connector-curvature="0"
         style="fill:none;stroke:#000000;stroke-width:12" />
      <path
         id="path3827"
         d="m -5393.2285,586.25818 -1.796,-9.033 -14.153,-21.179 -21.179,-14.154 -24.983,-4.967 -24.983,4.967 -21.179,14.154 -14.153,21.179 -4.967,24.983 4.967,24.982 14.153,21.18 21.179,14.153 9.032,1.796 0,0"
         inkscape:connector-curvature="0"
         style="fill:none;stroke:#000000;stroke-width:12" />
      <path
         id="path3845"
         d="m -5389.6095,582.63918 -3.619,3.619"
         inkscape:connector-curvature="0"
         style="fill:none;stroke:#000000;stroke-width:12" />
      <path
         id="path3847"
         d="m -5339.9345,625.28918 -46.162,-46.162 -3.513,3.512"
         inkscape:connector-curvature="0"
         style="fill:none;stroke:#000000;stroke-width:12" />
      <path
         id="path3853"
         d="m -5243.7663,898.1285 88.4808,-88.19132 -46.162,-46.162"
         inkscape:connector-curvature="0"
         style="fill:none;stroke:#000000;stroke-width:12"
         sodipodi:nodetypes="ccc" />
      <path
         id="path3855"
         d="m -5316.8535,833.01818 0,-7.026 0,-20.016 0,-29.95"
         inkscape:connector-curvature="0"
         style="fill:none;stroke:#000000;stroke-width:12" />
      <path
         id="path3857"
         d="m -5352.1855,740.69418 -29.95,0 -20.016,0 -7.026,0"
         inkscape:connector-curvature="0"
         style="fill:none;stroke:#000000;stroke-width:12" />
      <path
         id="path4027"
         d="m -5462.4715,964.37218 0,0 0,0"
         inkscape:connector-curvature="0"
         style="fill:none;stroke:#000000;stroke-width:12" />
      <path
         id="path4039"
         d="m -5393.2285,586.25818 0,0"
         inkscape:connector-curvature="0"
         style="fill:none;stroke:#000000;stroke-width:12" />
      <path
         id="path4043"
         d="m -5240.4785,895.12918 0,0 0,0"
         inkscape:connector-curvature="0"
         style="fill:none;stroke:#000000;stroke-width:12" />
      <path
         id="path4045"
         d="m -5224.5295,833.01818 0,0 0,0"
         inkscape:connector-curvature="0"
         style="fill:none;stroke:#000000;stroke-width:12" />
      <path
         id="path4047"
         d="m -5224.5295,833.01818 -115.328,-115.329"
         inkscape:connector-curvature="0"
         style="fill:none;stroke:#000000;stroke-width:12" />
      <path
         id="path4049"
         d="m -5201.4475,856.09918 0,0"
         inkscape:connector-curvature="0"
         style="fill:none;stroke:#000000;stroke-width:12" />
      <path
         id="path4053"
         d="m -5432.2585,625.28918 0,0 4.911,4.91 18.17,18.171 66.253,66.252 1.533,1.534 116.862,116.862 23.082,23.081"
         inkscape:connector-curvature="0"
         style="fill:none;stroke:#000000;stroke-width:12" />
    </g>
  </g>
</svg>
