<?xml version="1.0" encoding="UTF-8" standalone="no"?>
<!-- Created with Inkscape (http://www.inkscape.org/) -->

<svg
   xmlns:dc="http://purl.org/dc/elements/1.1/"
   xmlns:cc="http://creativecommons.org/ns#"
   xmlns:rdf="http://www.w3.org/1999/02/22-rdf-syntax-ns#"
   xmlns:svg="http://www.w3.org/2000/svg"
   xmlns="http://www.w3.org/2000/svg"
   xmlns:sodipodi="http://sodipodi.sourceforge.net/DTD/sodipodi-0.dtd"
   xmlns:inkscape="http://www.inkscape.org/namespaces/inkscape"
   width="48"
   height="48"
   id="svg2"
   version="1.1"
   inkscape:version="0.48.4 r9939"
   sodipodi:docname="Torso.svg">
  <defs
     id="defs4" />
  <sodipodi:namedview
     id="base"
     pagecolor="#ffffff"
     bordercolor="#666666"
     borderopacity="1.0"
     inkscape:pageopacity="0.0"
     inkscape:pageshadow="2"
     inkscape:zoom="4"
     inkscape:cx="4.4112435"
     inkscape:cy="30.546096"
     inkscape:document-units="px"
     inkscape:current-layer="layer1"
     showgrid="false"
     inkscape:window-width="1366"
     inkscape:window-height="705"
     inkscape:window-x="-8"
     inkscape:window-y="-8"
     inkscape:window-maximized="1" />
  <metadata
     id="metadata7">
    <rdf:RDF>
      <cc:Work
         rdf:about="">
        <dc:format>image/svg+xml</dc:format>
        <dc:type
           rdf:resource="http://purl.org/dc/dcmitype/StillImage" />
        <dc:title></dc:title>
      </cc:Work>
    </rdf:RDF>
  </metadata>
  <g
     inkscape:label="Layer 1"
     inkscape:groupmode="layer"
     id="layer1"
     transform="translate(0,-1004.3622)">
    <g
       id="g12291"
       transform="translate(0,-0.75)">
      <g
         id="g12285">
        <path
           style="fill:#ff1919;fill-opacity:1;stroke:#ff1919;stroke-width:0.08838835;stroke-opacity:1"
           d="m 25.139692,15.787818 c -2.361184,0.04237 -4.732903,-0.05759 -7.087641,0.110485 -0.603735,0.134351 -0.497326,0.94262 -0.663005,1.396056 -0.778964,4.322175 -1.556151,8.650835 -2.17647,12.994672 -0.0595,0.373995 0.158119,0.838618 0.602051,0.749852 5.200721,0.106043 10.404531,0.07469 15.606077,0.04293 0.515967,-0.01328 1.307782,0.06244 1.417061,-0.621525 -0.259788,-2.155691 -0.704622,-4.301049 -1.0458,-6.451167 -0.476286,-2.567611 -0.809098,-5.167783 -1.371069,-7.715828 -0.355449,-0.690962 -1.275733,-0.411299 -1.897587,-0.494423 -1.127845,-0.01286 -2.255707,-0.01638 -3.383617,-0.01105 z"
           id="path12265"
           inkscape:connector-curvature="0"
           transform="translate(0,1004.3622)" />
        <path
           style="fill:#ff1919;fill-opacity:1;stroke:#ff1919;stroke-width:0.08838835;stroke-opacity:1"
           d="m 31.492605,16.749041 c -0.563251,-0.0067 -0.797612,0.625169 -0.640901,1.095886 0.644845,3.93131 1.356009,7.865852 2.356187,11.723187 0.33961,0.314868 0.771978,-0.211009 1.149049,-0.276214 1.002541,-0.391642 2.093703,-0.486094 3.157789,-0.51651 0.251709,-0.331655 -0.07938,-0.865716 -0.05766,-1.280709 -0.273488,-1.988027 -0.476843,-4.018737 -1.378806,-5.838214 -0.587806,-1.380591 -1.164501,-2.832644 -2.332268,-3.835869 -0.604885,-0.563162 -1.399235,-1.0772 -2.253389,-1.071557 z"
           id="path12267"
           inkscape:connector-curvature="0"
           transform="translate(0,1004.3622)" />
        <path
           style="fill:#ff1919;fill-opacity:1;stroke:#ff1919;stroke-width:0.08838835;stroke-opacity:1"
           d="m 16.358862,16.754565 c -1.596211,0.236948 -2.79583,1.565477 -3.538296,2.908529 -0.868928,1.832739 -1.784174,3.705198 -1.982712,5.755284 -0.135658,1.082413 -0.361031,2.172809 -0.431972,3.251402 0.308088,0.314368 0.89968,0.04814 1.32364,0.174654 0.968365,0.08954 1.883704,0.429543 2.767661,0.81483 0.469179,-0.03641 0.364278,-0.731002 0.532137,-1.049723 0.903622,-3.707462 1.609046,-7.469671 2.171994,-11.241781 0.01954,-0.457457 -0.443325,-0.669402 -0.842452,-0.613195 z"
           id="path12269"
           inkscape:connector-curvature="0"
           transform="translate(0,1004.3622)" />
        <path
           style="fill:#ff1919;fill-opacity:1;stroke:#ff1919;stroke-width:0.08838835;stroke-opacity:1"
           d="m 21.626255,8.9432451 c -0.115892,1.6626339 -0.01674,3.3635179 -0.04972,5.0408979 0.04097,0.561278 -0.08303,1.156224 0.06353,1.695952 1.500587,0.115903 3.039441,0.01665 4.554762,0.04972 0.424488,-0.304681 0.09468,-1.043916 0.198874,-1.524699 -0.02332,-1.733545 0.04651,-3.486102 -0.03464,-5.2078436 C 25.939893,8.732525 25.289236,8.9510546 24.780614,8.879716 23.73467,8.9208087 22.65,8.7967225 21.626255,8.9432451 z"
           id="path12271"
           inkscape:connector-curvature="0"
           transform="translate(0,1004.3622)" />
      </g>
      <path
         transform="translate(0,1004.3622)"
         inkscape:connector-curvature="0"
         id="path12273"
         d="m 11.105074,28.849415 c -0.241154,0.0139 -0.502283,0.0096 -0.716308,0.133789 -0.14651,0.115146 -0.163945,0.365248 -0.01334,0.485614 0.0759,0.113754 0.238657,0.140279 0.340488,0.04661 0.367747,-0.0752 0.749,-0.06566 1.123247,-0.07562 0.475663,0.09678 0.959579,0.163288 1.413776,0.34069 0.182135,0.06757 0.374322,0.119057 0.550219,0.196646 0.06871,0.08105 0.170743,0.147281 0.221352,0.23702 -0.0121,0.148194 0.146714,0.279555 0.289089,0.215132 0.113865,-0.06936 0.246774,-0.129114 0.323216,-0.242476 0.05929,-0.149483 -0.05432,-0.295204 -0.156739,-0.39502 -0.255212,-0.172267 -0.534764,-0.307442 -0.813169,-0.43833 -0.498763,-0.206767 -1.035977,-0.296673 -1.560366,-0.410791 -0.329697,-0.06308 -0.666567,-0.0929 -1.001465,-0.09326 z"
         style="fill:#ff1919;fill-opacity:1;stroke:#ff1919;stroke-width:0.015625;stroke-opacity:1" />
      <path
         transform="translate(0,1004.3622)"
         inkscape:connector-curvature="0"
         id="path12275"
         d="m 36.883347,28.845643 c -0.304533,9.27e-4 -0.608188,0.0302 -0.909968,0.06811 -0.390116,0.08879 -0.781645,0.172254 -1.170897,0.264289 -0.182605,0.06629 -0.369137,0.122999 -0.549306,0.195225 -0.241486,0.131965 -0.485859,0.257297 -0.725316,0.392433 -0.07796,0.05584 -0.113038,0.151145 -0.162336,0.230575 -0.05657,0.09739 -0.01764,0.228262 0.07785,0.28512 0.08451,0.05177 0.160808,0.128178 0.260508,0.146679 0.121511,0.02043 0.236069,-0.092 0.225855,-0.213294 0.0032,-0.04546 0.06271,-0.06872 0.08901,-0.105069 0.05599,-0.04775 0.103832,-0.111471 0.166,-0.150251 0.319923,-0.108388 0.638345,-0.222138 0.959035,-0.327603 0.326961,-0.06409 0.652335,-0.136257 0.980775,-0.190301 0.330595,0.01368 0.66306,0.0026 0.989701,0.05532 0.05,0.0076 0.105336,0.0035 0.139208,0.04652 0.09395,0.08689 0.25082,0.07107 0.331055,-0.02612 0.07005,-0.08021 0.173694,-0.160074 0.154645,-0.27953 -0.01665,-0.104986 -0.04517,-0.229491 -0.153425,-0.276623 -0.162975,-0.0843 -0.35096,-0.08726 -0.529053,-0.111328 -0.05763,-0.0053 -0.11553,-0.0046 -0.173339,-0.0041 z"
         style="fill:#ff1919;fill-opacity:1;stroke:#ff1919;stroke-width:0.0078125;stroke-opacity:1" />
      <path
         transform="translate(0,1004.3622)"
         inkscape:connector-curvature="0"
         id="path12277"
         d="m 11.492998,30.134046 c -0.311819,0.01783 -0.633361,-0.03288 -0.938476,0.03223 -0.48319,0.305015 -0.9938827,0.575589 -1.4602881,0.90152 -0.3035973,0.526125 -0.617237,1.056221 -0.8610012,1.615082 -0.078754,0.352709 0.011507,0.721692 0.025097,1.078758 0.033111,0.395536 0.1600026,0.789875 0.3655276,1.128273 0.1476609,0.12639 0.361812,0.310256 0.5576171,0.188477 0.1542495,-0.327675 0.2053222,-0.700573 0.2906771,-1.05322 0.074219,-0.353487 0.00995,-0.721887 0.035472,-1.073525 0.149013,-0.29274 0.2810146,-0.606691 0.4414286,-0.885951 0.2091169,0.0082 0.1506189,-0.247278 0.3047469,-0.291997 0.184504,-0.112144 0.366566,-0.22894 0.555605,-0.333003 0.156947,0.115744 0.246541,-0.114827 0.384765,-0.0918 0.297622,0.01009 0.605236,-0.02001 0.896752,0.01464 0.268256,0.158016 0.585406,0.279991 0.825904,0.460951 -0.0103,0.185939 0.199875,0.161899 0.265272,0.262046 0.1408,0.262886 0.342551,0.506212 0.43883,0.786782 -0.0423,0.377563 -0.0047,0.767531 -0.04668,1.13948 -0.244196,0.405253 -0.474776,0.825768 -0.559484,1.297069 -0.0328,0.188652 -0.209647,0.508325 0.05642,0.591421 0.276534,0.0076 0.5578,-0.07453 0.838809,-0.09242 0.240488,-0.09531 0.274118,-0.405406 0.418049,-0.59878 0.176557,-0.361404 0.414033,-0.699298 0.550701,-1.076024 -0.02569,-0.552373 -0.0085,-1.111316 -0.0594,-1.659637 -0.276285,-0.498047 -0.574075,-0.993379 -0.876349,-1.476137 -0.459006,-0.300277 -0.968479,-0.530125 -1.446068,-0.805014 -0.272136,-0.130858 -0.593799,-0.03061 -0.886729,-0.05976 -0.03906,1.83e-4 -0.07813,3.65e-4 -0.117196,5.48e-4 z"
         style="fill:#f7d117;fill-opacity:1;stroke:#f7d117;stroke-width:0.03125;stroke-opacity:1" />
      <path
         transform="translate(0,1004.3622)"
         inkscape:connector-curvature="0"
         id="path12279"
         d="m 11.560029,29.45716 c -0.120024,0.0061 -0.241562,-0.0011 -0.360413,0.01798 -0.09001,0.01689 -0.148966,0.102153 -0.160713,0.189126 -0.01723,0.08772 -0.05176,0.173402 -0.05339,0.263249 0.0052,0.107821 0.107614,0.195021 0.214578,0.186513 0.390962,-0.0051 0.781916,-0.01082 1.172872,-0.0164 0.352845,0.19068 0.704276,0.384401 1.058152,0.572909 0.104013,0.05359 0.243901,-0.0081 0.275451,-0.120478 0.03299,-0.129365 0.06659,-0.25907 0.09493,-0.389464 0.02026,-0.103454 -0.05677,-0.206237 -0.157128,-0.22943 -0.280087,-0.0956 -0.558859,-0.195464 -0.839822,-0.288254 -0.320699,-0.06317 -0.640381,-0.132468 -0.962224,-0.189057 -0.09379,-0.0047 -0.188321,0.003 -0.282291,0.0033 z"
         style="fill:#f7d117;fill-opacity:1;stroke:#f7d117;stroke-width:0.00552427;stroke-opacity:1" />
      <path
         transform="translate(0,1004.3622)"
         inkscape:connector-curvature="0"
         id="path12281"
         d="m 35.61126,30.122137 c -0.505685,0.271728 -1.011027,0.545461 -1.513581,0.822503 -0.104042,0.0809 -0.14604,0.215181 -0.221582,0.320343 -0.232187,0.386127 -0.469476,0.769762 -0.6987,1.157311 -0.04906,0.122092 -0.01844,0.259006 -0.03103,0.387688 -0.0073,0.466269 -0.02233,0.932896 -0.02477,1.398941 0.02181,0.168793 0.09063,0.326012 0.18645,0.465544 0.197539,0.310715 0.39011,0.625741 0.595094,0.931099 0.09298,0.117143 0.25685,0.06472 0.385749,0.0764 0.195744,-0.0052 0.393443,0.01063 0.587921,-0.0082 0.130207,-0.02224 0.186524,-0.178518 0.137768,-0.293046 -0.06095,-0.224405 -0.09955,-0.456468 -0.181894,-0.674176 -0.134762,-0.241412 -0.278306,-0.480255 -0.411558,-0.721954 0.0115,-0.311264 -0.01543,-0.623069 -0.02076,-0.934462 0.0016,-0.08076 -0.01402,-0.165981 -0.0022,-0.244075 0.153485,-0.250365 0.301754,-0.51048 0.459718,-0.752196 0.132738,0.04636 0.283935,-0.07408 0.262136,-0.213857 -0.02624,-0.06542 0.08122,-0.06358 0.113734,-0.09962 0.233637,-0.126772 0.468032,-0.25231 0.702053,-0.378442 0.314456,-3.38e-4 0.628864,0.0065 0.94327,0.01139 0.0142,0.147166 0.208623,0.221364 0.319887,0.125557 0.0453,-0.0564 0.110216,0.04247 0.164867,0.05674 0.15451,0.09307 0.309348,0.185718 0.461968,0.281738 -0.05291,0.129753 0.06051,0.284667 0.199807,0.271949 0.07098,-0.02549 0.06997,0.08455 0.105618,0.124975 0.124903,0.247705 0.231848,0.505144 0.371643,0.744874 -0.0068,0.293114 -0.03008,0.586415 -0.03129,0.879236 0.08732,0.38084 0.182097,0.761547 0.281607,1.139195 0.03696,0.130126 0.201871,0.183109 0.313157,0.111866 0.124237,-0.06939 0.256495,-0.130408 0.364602,-0.223733 0.09769,-0.161815 0.206397,-0.318807 0.293544,-0.486033 0.03797,-0.118164 0.0102,-0.247726 0.02029,-0.370564 0.0024,-0.474402 0.01053,-0.94926 0.0098,-1.423374 -0.02011,-0.129064 -0.113671,-0.231752 -0.167009,-0.348728 -0.22084,-0.394859 -0.432901,-0.795725 -0.659611,-1.186617 -0.08198,-0.09689 -0.210451,-0.139043 -0.312713,-0.211822 -0.385759,-0.231396 -0.768933,-0.468141 -1.156484,-0.6958 -0.121207,-0.04924 -0.256896,-0.01991 -0.384614,-0.03184 -0.466561,-0.0073 -0.933586,-0.01739 -1.399904,-0.01976 -0.021,0.0036 -0.042,0.0073 -0.063,0.01089 z"
         style="fill:#f7d117;fill-opacity:1;stroke:#f7d117;stroke-width:0.01104854;stroke-opacity:1" />
      <path
         transform="translate(0,1004.3622)"
         inkscape:connector-curvature="0"
         id="path12283"
         d="m 36.091947,29.454954 c -0.321685,0.06019 -0.642921,0.123801 -0.96323,0.190965 -0.270329,0.09305 -0.541531,0.184104 -0.810678,0.280222 -0.09547,0.03607 -0.146809,0.148813 -0.118155,0.245588 0.03316,0.133211 0.06012,0.268731 0.101968,0.399319 0.04344,0.102748 0.178435,0.146633 0.275927,0.09424 0.350694,-0.186122 0.698335,-0.378932 1.047885,-0.567619 0.399404,0.0053 0.798847,0.0131 1.198249,0.01536 0.107104,-0.0047 0.197716,-0.104329 0.189142,-0.211609 -0.01384,-0.09848 -0.04312,-0.194472 -0.06709,-0.290927 -0.02723,-0.08905 -0.117866,-0.147478 -0.20975,-0.143113 -0.206352,-0.0052 -0.41288,-0.01308 -0.619185,-0.01441 -0.0084,6.59e-4 -0.01672,0.0013 -0.02508,0.002 z"
         style="fill:#f7d117;fill-opacity:1;stroke:#f7d117;stroke-width:0.00552427;stroke-opacity:1" />
    </g>
    <g
       transform="matrix(0.03357234,0,0,0.03357234,-26.37612,1008.9639)"
       id="g11981">
      <g
         id="g11441">
        <path
           style="fill:none;stroke:#000000;stroke-width:12"
           inkscape:connector-curvature="0"
           d="m 1970.1745,810.72418 0,0 -25.184,-45.733 -19.727,-11.928 -24.949,-15.086 -10.242,-0.146 -19.08,-0.27 -3.678,-0.053 -15.296,-0.217 -5.113,-0.073 -3.903,2.119 -12.203,6.624 -3.046,1.653 -18.987,10.307 -8.805,4.78 -7.367,12.184 -19.647,32.492 -0.264,13.049 -0.793,39.148 0,0.001 2.042,8.289 22.733,35.784"
           id="path3867" />
        <path
           style="fill:none;stroke:#000000;stroke-width:12"
           inkscape:connector-curvature="0"
           d="m 1941.6495,891.27518 18.309,-10.689 9.645,-15.692 2.613,-45.881 -2.042,-8.289 -0.571,54.17"
           id="path3869" />
        <path
           style="fill:none;stroke:#000000;stroke-width:12"
           inkscape:connector-curvature="0"
           d="m 1931.2745,849.16418 0,0 1.278,5.187"
           id="path3871" />
        <path
           style="fill:none;stroke:#000000;stroke-width:12"
           inkscape:connector-curvature="0"
           d="m 1959.9585,880.58618 9.645,-15.692"
           id="path3873" />
        <path
           style="fill:none;stroke:#000000;stroke-width:12"
           inkscape:connector-curvature="0"
           d="m 1932.4445,820.02018 0,0 -0.15,3.736 -1.02,25.408 1.278,5.187 9.097,36.924 0,0 0,0"
           id="path3875" />
        <path
           style="fill:none;stroke:#000000;stroke-width:12"
           inkscape:connector-curvature="0"
           d="m 1889.4995,775.30018 19.359,11.705"
           id="path3877" />
        <path
           style="fill:none;stroke:#000000;stroke-width:12"
           inkscape:connector-curvature="0"
           d="m 1889.4995,775.30018 19.359,11.705 8.105,4.901"
           id="path3879" />
        <path
           style="fill:none;stroke:#000000;stroke-width:12"
           inkscape:connector-curvature="0"
           d="m 1944.9905,764.99118 0,0 -19.727,-11.928"
           id="path3881" />
        <path
           style="fill:none;stroke:#000000;stroke-width:12"
           inkscape:connector-curvature="0"
           d="m 1826.8765,790.72818 29.324,-15.78 33.299,0.352"
           id="path3883" />
        <path
           style="fill:none;stroke:#000000;stroke-width:12"
           inkscape:connector-curvature="0"
           d="m 1834.5695,917.65618 -9.945,-40.368 -0.429,-1.744 -12.706,-22.025 -1.869,-3.24"
           id="path3885" />
        <path
           style="fill:none;stroke:#000000;stroke-width:12"
           inkscape:connector-curvature="0"
           d="m 1811.4895,853.51918 -1.219,-35.327 0,-10e-4 0,10e-4 0,0 16.606,-27.464"
           id="path3887" />
        <path
           style="fill:none;stroke:#000000;stroke-width:12"
           inkscape:connector-curvature="0"
           d="m 1792.5945,774.88518 -19.647,32.492 -0.264,13.049"
           id="path3889" />
        <path
           style="fill:none;stroke:#000000;stroke-width:12"
           inkscape:connector-curvature="0"
           d="m 1943.9195,886.13218 -2.27,5.143 0,0"
           id="path3893" />
        <path
           style="fill:none;stroke:#000000;stroke-width:12"
           inkscape:connector-curvature="0"
           d="m 1834.5695,917.65618 -1.767,-7.174 -8.178,-33.194 -0.429,-1.744 0.429,1.744 9.945,40.368"
           id="path3895" />
        <path
           style="fill:none;stroke:#000000;stroke-width:12"
           inkscape:connector-curvature="0"
           d="m 1794.3733,902.1807 42.2836,13.55933"
           id="path3897"
           sodipodi:nodetypes="cc" />
        <path
           style="fill:none;stroke:#000000;stroke-width:12"
           inkscape:connector-curvature="0"
           d="m 1888.1745,730.13018 15.191,-8.198 5.457,-5.788 1.689,-2.197 -23.133,-162.537 -13.319,-39.088 -43.82,-99.005 -9.257,-11.689 -27.779,-31.975 -21.757,-16.446 -19.798,-9.837 -11.563,-4.639 -26.768,-0.133 -10.168,8.821 -2.227,13.22 17.721,103.498 14.015,75.556 2.745,18.168 40.744,181.244 11.268,7.415 2.118,1.216 16.922,0.807"
           id="path3899" />
        <path
           style="fill:none;stroke:#000000;stroke-width:12"
           inkscape:connector-curvature="0"
           d="m 1802.6195,736.72818 0.658,-1.087"
           id="path3913" />
        <path
           style="fill:none;stroke:#000000;stroke-width:12"
           inkscape:connector-curvature="0"
           d="m 1783.1225,727.56418 -6.975,11.541"
           id="path3917" />
        <path
           style="fill:none;stroke:#000000;stroke-width:12"
           inkscape:connector-curvature="0"
           d="m 1806.4935,715.01518 -4.701,2.524 -2.628,1.412 0,-10e-4 -16.042,8.614"
           id="path3919" />
        <path
           style="fill:none;stroke:#000000;stroke-width:12"
           inkscape:connector-curvature="0"
           d="m 1822.4925,709.43318 -15.999,5.582"
           id="path3921" />
        <path
           style="fill:none;stroke:#000000;stroke-width:12"
           inkscape:connector-curvature="0"
           d="m 1874.4095,699.77418 -16.735,1.768"
           id="path3923" />
        <path
           style="fill:none;stroke:#000000;stroke-width:12"
           inkscape:connector-curvature="0"
           d="m 1857.6745,701.54218 -35.182,7.891"
           id="path3925" />
        <path
           style="fill:none;stroke:#000000;stroke-width:12"
           inkscape:connector-curvature="0"
           d="m 1900.6135,701.15018 -11.584,-1.504"
           id="path3927" />
        <path
           style="fill:none;stroke:#000000;stroke-width:12"
           inkscape:connector-curvature="0"
           d="m 1889.0295,699.64618 -2.916,0.025 -5.431,0.048 -6.273,0.055"
           id="path3929" />
        <path
           style="fill:none;stroke:#000000;stroke-width:12"
           inkscape:connector-curvature="0"
           d="m 1908.3575,704.18918 -7.744,-3.039"
           id="path3931" />
        <path
           style="fill:none;stroke:#000000;stroke-width:12"
           inkscape:connector-curvature="0"
           d="m 1910.5115,713.94718 -2.154,-9.758"
           id="path3933" />
        <path
           style="fill:none;stroke:#000000;stroke-width:12"
           inkscape:connector-curvature="0"
           d="m 1764.7175,734.91518 -17.345,-101.413 -23.641,-138.229 -11.048,-64.597 -8.672,-50.707 -8.672,-50.706 -4.228,-9.546 -8.284,-6.988 -10.122,-2.557 -25.827,0 -72.834,0 -73.52,0 -73.519,0 -72.835,0 -25.827,0 -10.121,2.557 -8.285,6.988 -4.227,9.546 -8.672,50.706 -8.673,50.707 -11.048,64.597 -23.641,138.229 -17.344,101.413 0,14.122 0,0 2.595,9.684 7.089,7.089 9.684,2.595 36.724,0 208.1,0 208.101,0 36.724,0 9.684,-2.595 7.089,-7.089 2.595,-9.684 0,0 0,-14.122"
           id="path3935" />
        <path
           style="fill:none;stroke:#000000;stroke-width:12"
           inkscape:connector-curvature="0"
           d="m 1574.0445,310.17218 0,-85.694 0,-121.377 -9.894,0 -27.03,0 -36.596,0 -36.596,0 -27.03,0 -9.893,0 0,121.377 0,85.694"
           id="path3937" />
        <path
           style="fill:none;stroke:#000000;stroke-width:12"
           inkscape:connector-curvature="0"
           d="m 1564.1505,103.10118 9.894,0"
           id="path3939" />
        <path
           style="fill:none;stroke:#000000;stroke-width:12"
           inkscape:connector-curvature="0"
           d="m 1802.4235,732.17618 0.854,3.465 0.445,1.806 1.289,5.235 1.169,4.743 0.275,1.118 2.311,9.378"
           id="path3941" />
        <path
           style="fill:none;stroke:#000000;stroke-width:12"
           inkscape:connector-curvature="0"
           d="m 1890.0725,737.83118 -1.898,-7.701 -0.252,-1.023 -1.591,-6.459 -1.23,-4.992"
           id="path3943" />
        <path
           style="fill:none;stroke:#000000;stroke-width:12"
           inkscape:connector-curvature="0"
           d="m 1229.1585,859.57518 0,-0.001 -1.056,-52.197 -19.647,-32.492 -7.368,-12.184 -8.804,-4.78 -18.988,-10.307 -3.046,-1.653 -12.202,-6.624 -3.903,-2.119 -5.113,0.073 -15.296,0.217 -3.679,0.053 -19.079,0.27 -10.242,0.146 -24.95,15.086 -19.727,11.928 -25.183,45.733 0,0 -2.043,8.289 3.508,42.25"
           id="path3945" />
        <path
           style="fill:none;stroke:#000000;stroke-width:12"
           inkscape:connector-curvature="0"
           d="m 1075.7855,753.06318 -19.727,11.928 0,0"
           id="path3947" />
        <path
           style="fill:none;stroke:#000000;stroke-width:12"
           inkscape:connector-curvature="0"
           d="m 1059.4005,891.27518 0,0"
           id="path3949" />
        <path
           style="fill:none;stroke:#000000;stroke-width:12"
           inkscape:connector-curvature="0"
           d="m 1032.0839,857.24496 9.0066,23.34122 18.31,10.689 0,0 9.097,-36.924 1.278,-5.187"
           id="path3953"
           sodipodi:nodetypes="cccccc" />
        <path
           style="fill:none;stroke:#000000;stroke-width:12"
           inkscape:connector-curvature="0"
           d="m 1068.4975,854.35118 1.278,-5.187 0,0 -1.02,-25.408 -0.15,-3.736 0,0"
           id="path3955" />
        <path
           style="fill:none;stroke:#000000;stroke-width:12"
           inkscape:connector-curvature="0"
           d="m 1084.0865,791.90618 17.013,-10.287 10.451,-6.319"
           id="path3957" />
        <path
           style="fill:none;stroke:#000000;stroke-width:12"
           inkscape:connector-curvature="0"
           d="m 1167.5793,911.91541 35.9102,-4.63523 23.627,-39.416 2.042,-8.289 -25.669,47.705"
           id="path3959"
           sodipodi:nodetypes="ccccc" />
        <path
           style="fill:none;stroke:#000000;stroke-width:12"
           inkscape:connector-curvature="0"
           d="m 1111.5505,775.30018 33.298,-0.352 29.324,15.78"
           id="path3961" />
        <path
           style="fill:none;stroke:#000000;stroke-width:12"
           inkscape:connector-curvature="0"
           d="m 1176.8545,875.54418 -0.43,1.744 -8.178,33.194 -1.767,7.174"
           id="path3963" />
        <path
           style="fill:none;stroke:#000000;stroke-width:12"
           inkscape:connector-curvature="0"
           d="m 1191.4285,850.27918 -1.868,3.24 -12.706,22.025"
           id="path3965" />
        <path
           style="fill:none;stroke:#000000;stroke-width:12"
           inkscape:connector-curvature="0"
           d="m 1174.1725,790.72818 16.606,27.464 0,0 0,-10e-4 0,10e-4 -1.218,35.327"
           id="path3967" />
        <path
           style="fill:none;stroke:#000000;stroke-width:12"
           inkscape:connector-curvature="0"
           d="m 1228.1025,807.37718 0,0 -19.647,-32.492"
           id="path3969" />
        <path
           style="fill:none;stroke:#000000;stroke-width:12"
           inkscape:connector-curvature="0"
           d="m 1059.4005,891.27518 0,0 -2.271,-5.143"
           id="path3971" />
        <path
           style="fill:none;stroke:#000000;stroke-width:12"
           inkscape:connector-curvature="0"
           d="m 1176.8545,875.54418 -0.43,1.744 -9.945,40.368"
           id="path3973" />
        <path
           style="fill:none;stroke:#000000;stroke-width:12"
           inkscape:connector-curvature="0"
           d="m 1112.0195,699.64618 2.917,0.025 5.43,0.048 6.274,0.055"
           id="path3979" />
        <path
           style="fill:none;stroke:#000000;stroke-width:12"
           inkscape:connector-curvature="0"
           d="m 1194.5935,748.54318 16.923,-0.807 2.118,-1.216 11.267,-7.415 40.745,-181.244 2.745,-18.168 14.014,-75.556 17.722,-103.498 -2.227,-13.22 -10.168,-8.821 -26.768,0.133 -11.564,4.639 -19.797,9.837 -21.757,16.446 -27.78,31.975 -9.256,11.689 -43.82,99.005 -13.319,39.088 -23.133,162.537 1.688,2.197 5.458,5.788 15.19,8.198"
           id="path3981" />
        <path
           style="fill:none;stroke:#000000;stroke-width:12"
           inkscape:connector-curvature="0"
           d="m 1178.5575,709.43318 15.998,5.582"
           id="path3989" />
        <path
           style="fill:none;stroke:#000000;stroke-width:12"
           inkscape:connector-curvature="0"
           d="m 1092.6925,704.18918 7.744,-3.039"
           id="path3991" />
        <path
           style="fill:none;stroke:#000000;stroke-width:12"
           inkscape:connector-curvature="0"
           d="m 1090.5385,713.94718 2.154,-9.758"
           id="path3993" />
        <path
           style="fill:none;stroke:#000000;stroke-width:12"
           inkscape:connector-curvature="0"
           d="m 1143.3745,701.54218 35.183,7.891"
           id="path3997" />
        <path
           style="fill:none;stroke:#000000;stroke-width:12"
           inkscape:connector-curvature="0"
           d="m 1224.9015,739.10518 -6.975,-11.541"
           id="path4003" />
        <path
           style="fill:none;stroke:#000000;stroke-width:12"
           inkscape:connector-curvature="0"
           d="m 1217.9265,727.56418 -16.043,-8.614 10e-4,0 -2.628,-1.411 -4.701,-2.524"
           id="path4005" />
        <path
           style="fill:none;stroke:#000000;stroke-width:12"
           inkscape:connector-curvature="0"
           d="m 1143.3745,701.54218 -16.734,-1.768"
           id="path4007" />
        <path
           style="fill:none;stroke:#000000;stroke-width:12"
           inkscape:connector-curvature="0"
           d="m 1112.0195,699.64618 -11.583,1.504"
           id="path4009" />
        <path
           style="fill:none;stroke:#000000;stroke-width:12"
           inkscape:connector-curvature="0"
           d="m 1192.2835,757.92118 2.31,-9.378 0.276,-1.118 1.168,-4.743 1.29,-5.235 0.445,-1.806 0.853,-3.465"
           id="path4011" />
        <path
           style="fill:none;stroke:#000000;stroke-width:12"
           inkscape:connector-curvature="0"
           d="m 1115.9475,717.65618 -1.229,4.992 -1.592,6.459 -0.252,1.023 -1.897,7.701"
           id="path4013" />
        <path
           style="fill:none;stroke:#000000;stroke-width:12"
           inkscape:connector-curvature="0"
           d="m 1068.7555,823.75618 15.331,-31.85"
           id="path4061" />
        <path
           style="fill:none;stroke:#000000;stroke-width:12"
           inkscape:connector-curvature="0"
           d="m 1101.0995,781.61918 10.451,-6.319"
           id="path4063" />
        <path
           style="fill:none;stroke:#000000;stroke-width:12"
           inkscape:connector-curvature="0"
           d="m 1176.4245,877.28818 0,0"
           id="path4067" />
        <path
           style="fill:none;stroke:#000000;stroke-width:12"
           inkscape:connector-curvature="0"
           d="m 1803.7225,737.44718 -1.103,-0.719"
           id="path4069" />
        <path
           style="fill:none;stroke:#000000;stroke-width:12"
           inkscape:connector-curvature="0"
           d="m 1824.6245,877.28818 0,0"
           id="path4071" />
        <path
           style="fill:none;stroke:#000000;stroke-width:12"
           inkscape:connector-curvature="0"
           d="m 1916.9635,791.90618 15.331,31.85"
           id="path4075" />
      </g>
      <path
         sodipodi:nodetypes="ccccsccc"
         style="fill:none;stroke:#000000;stroke-width:12"
         inkscape:connector-curvature="0"
         d="m 1202.3351,748.94959 0.6374,-8.76473 -7.0118,-6.85243 -28.6846,-9.88025 c 0,0 -28.0471,-5.73692 -29.322,-5.73692 -1.2749,0 -20.9808,0.52287 -20.9808,0.52287 l -11.583,1.504 -6.6385,5.62236"
         id="path4009-9" />
      <path
         id="path11979"
         d="m 1797.0622,748.94959 -0.6374,-8.76473 7.0118,-6.85243 28.6846,-9.88025 c 0,0 28.0471,-5.73692 29.322,-5.73692 1.2749,0 20.9808,0.52287 20.9808,0.52287 l 11.583,1.504 6.6385,5.62236"
         inkscape:connector-curvature="0"
         style="fill:none;stroke:#000000;stroke-width:12"
         sodipodi:nodetypes="ccccsccc" />
    </g>
    <g
       id="layer1-8"
       inkscape:label="Layer 1"
       transform="matrix(1.0000641,0,0,1.0000641,-0.00125225,-0.04319062)">
      <g
         style="fill:#b3b3b3"
         transform="matrix(0.04891366,0,0,0.04891366,-262.39946,1002.4376)"
         id="g8470">
        <path
           id="path2987"
           transform="matrix(20.444187,0,0,20.444187,5364.5436,39.346882)"
           d="m 23.75,0.3125 c -3.197988,0.0239137 -6.385249,0.67133132 -9.3125,2 C 6.5589377,5.6912849 0.92974449,13.664164 0.375,22.21875 -0.35939947,30.759837 3.9984609,39.477962 11.28125,44 c 7.186473,4.673681 16.953878,4.916338 24.375,0.625 C 41.96687,41.118633 46.406244,34.610269 47.4375,27.46875 48.729412,19.208345 45.263195,10.433894 38.625,5.34375 34.441464,1.9964445 29.079979,0.27264388 23.75,0.3125 z M 23.375,4.5 c 4.823967,-0.1365159 9.698069,1.516714 13.34375,4.71875 4.532046,3.844892 7.095501,9.818126 6.78125,15.75 -0.283616,6.878001 -4.509167,13.393734 -10.6875,16.4375 -6.2654,3.249176 -14.29741,2.677688 -20.03125,-1.4375 C 6.9623587,35.974693 3.6985019,28.652958 4.625,21.65625 5.4042924,14.641615 10.330316,8.2937726 16.9375,5.8125 18.985542,4.9939939 21.182288,4.5620527 23.375,4.5 z"
           style="fill:#b3b3b3;stroke:#000000;stroke-width:0.58696389"
           inkscape:connector-curvature="0" />
      </g>
    </g>
  </g>
</svg>
